<svg width="1200" height="400" version="1.1" viewBox="0 0 1200 400" xml:space="preserve" xmlns="http://www.w3.org/2000/svg"><g id="foreground" transform="matrix(2.0958 0 0 2.0958 100.64 -44.146)"><path d="m263.48 49.26q-2.95 5.83-7.36 9.93c-1.74 1.62-3.88 2.56-5.9 3.75q-0.72 0.43 0.11 0.51l1.13 0.12-7.47 1.22q-6.77-4.36-7.71-12.77l6.11-7.29a0.48 0.47-46 0 0-0.01-0.61q-0.11-0.12-0.2-0.26-0.06-0.11-0.05-0.23 0.03-0.45 0.44-0.57a0.31 0.31 0 0 1 0.3 0.07q0.59 0.52 1.17-0.03 4.79-4.46 6.71-7.73c2.39-4.09 4.63-9.02 10.06-9.03q2.92 0 5.68 0.28 15.12 1.54 28.73 0.62c1.02-0.07 1.73-0.88 2.69-1.15q3.92-1.1 7.61-3.23 0.44-0.25 0.95-0.23 0.74 0.04 1.14-0.63a1.36 1.36 0 0 1 0.55-0.52q1.29-0.67 2.59-0.26 0.56 0.17 0.81 0.7 0.77 1.61 0.48 3.1-2.32 11.99-13.35 17.09c-7.22 3.33-14.79 4.28-22.45 2.46q-2.65-0.63-5.48-0.78-6.38-0.34-7.28 5.47z" fill="#50c4db"/><path d="m263.48 49.26q6.89 1.25 12.27 3.12 0.49 0.17 1.84 0.25 0.96 0.06 1.86 0.43 6.01 2.45 9.87 5.35 1.68 1.27 3.59 2.48 1.59 1.02 2.95 2.26 1.23 1.12 2.89 2.37 3.39 2.55 5.9 5.96 0.93 1.27 2.1 2.12 1.3 0.95 1.89 2.33 0.46 1.09 1.26 1.98 0.68 0.76 1.02 1.74 0.15 0.43 0.56 0.62 0.29 0.14 0.47 0.4c4.49 6.59 7.83 14.33 8.9 22.21 0.88 6.54 1.89 13.52 0.94 19.13q-0.85 5.02-1.64 9.75-0.72 4.35-5.06 13.49-2.94-0.23-5.82-0.46-4.58-0.37-8.09-4.45 10.55-19.24 3.8-40.81-0.84-2.71-1.97-5.01-1.15-2.33-2.31-4.67-4.09-8.25-11.88-14.43-11.05-8.74-23.94-11.54-3.94-0.86-13.42-0.31l-1.13-0.12q-0.83-0.08-0.11-0.51c2.02-1.19 4.16-2.13 5.9-3.75q4.41-4.1 7.36-9.93z" fill="#7f73b3"/><path d="m86.13 50.44q-7.39 5.53-12.11 7.79-4.32 2.06-11.28 3.57-0.55 0.11-0.95 0.26-2.38 0.89-0.28 1.11-3.74-0.29-7.51-0.39-0.22-0.01-0.31 0.16-0.11 0.2-0.34 0.18-7.99-0.62-14.2 0.93-2.87 2.12-5.1 3.56-4.24 2.73-7.42 8.76-0.28-11.61-0.11-22.02c0.04-2.69 1.1-4.19 3.8-4.09q8.92 0.32 17.72-0.01c9.67-0.36 19.18 0.25 28.96-0.22q2.18-0.1 9.13 0.41z" fill="#f7ce1e"/><path d="m97.4 61q-5.41 3.19-12.17 4.44 0.28-2.16-2.23-2.16-10.71-0.01-21.49-0.11-2.1-0.22 0.28-1.11 0.4-0.15 0.95-0.26 6.96-1.51 11.28-3.57 4.72-2.26 12.11-7.79 3.81-0.95 7.63 0.08c2.75 0.73 3.28 7.96 3.64 10.48z" fill="#ef5571"/><path d="m179.75 57.11-13.19 7.83q0.4-1.51-0.56-1.51-21.27-0.1-42.61-0.25a1.91 1.91 0 0 0-1.88 1.52l-2.87 13.55q-7.08 1.93-13.95 5.41c1.77-10.15 3.09-19.79 5.66-29.74q3.75-1.17 5.82-3.58l60.84-0.05a1.83 1.82 70.4 0 1 1.42 0.68q2.04 2.52 1.32 6.14z" fill="#50c4db"/><path d="m116.17 50.34q-2.07 2.41-5.82 3.58-0.13-1.88 1.76-2.8 1.36-0.66 4.06-0.78z" fill="#ef5571"/><path d="m236.28 52.02q0.94 8.41 7.71 12.77-8.04 1.68-14.92 6.06-1.08 0.68-2 1.56t-2.1 1.48q-1.66 0.85-3.14 2.14-2.2 1.91-4.05 3.6-1.14-1.16-3.99 0.91-8.3 6.04-18.53 14.45-3.09 2.54-3.34 0.88 9.94-30.17 39.2-42.25 1.37-0.56 5.16-1.6z" fill="#7f73b3"/><path d="m179.75 57.11-0.01 48.65-13.03 7.94-0.15-48.76z" fill="#7f73b3"/><path d="m97.4 61 4.99 24.57q-1.93 2.32-3.78 4.96-1.68 2.39-2.92 5.48-1.44 3.58-2.92 7.43-0.7-3.75-1.29-6.94-0.09-0.51-0.55 0.31-0.28-0.83-0.65-0.67 0.29-0.17 0.47-0.39 0.16-0.2 0.14-0.54-0.17-3.43-0.44-4.46c-1.03-3.78-1.2-7.67-2.37-11.36-0.61-1.93-0.59-3.9-0.99-5.86q-0.74-3.61-1.86-8.09 6.76-1.25 12.17-4.44z" fill="#50c4db"/><path d="m39.15 64.05 0.14 57.59q-2.84-11.08-6.39-20.03-3.23-8.16-5.12-15.8-0.11-0.44-0.56-0.51-0.34-0.05-0.73-0.36l0.14-8.57q3.18-6.03 7.42-8.76 2.23-1.44 5.1-3.56z" fill="#ef5571"/><path d="m118.64 78.25-5.84 29.32q-5.31 9.7-7.94 20.22-6.74 1.66-8.15-5.29-3.07-15.16-3.94-19.06 1.48-3.85 2.92-7.43 1.24-3.09 2.92-5.48 1.85-2.64 3.78-4.96 0.07 0.68 0.43 1.41 0.54 1.11 0.89-0.07l0.98-3.25q6.87-3.48 13.95-5.41z" fill="#7f73b3"/><path d="m217.78 79.63q-11.46 12.32-13.38 27.86-5.15 1.09-7.85 3.81-3.36 3.37-7.27 6.59 0.21-0.48-0.35-1.15l-0.23-0.64q0.12-0.04 0.24-0.08 0.06-0.02 0.06-0.09 0.42-10.25 2.92-20.06 0.25 1.66 3.34-0.88 10.23-8.41 18.53-14.45 2.85-2.07 3.99-0.91z" fill="#50c4db"/><path d="m26.49 84.94q0.39 0.31 0.73 0.36 0.45 0.07 0.56 0.51 1.89 7.64 5.12 15.8 3.55 8.95 6.39 20.03v46.78l-6.79 12.28q-1.35 0.19-3 0.04c-2.09-0.19-3.18-1.45-3.18-3.49q-0.01-15.85 0.36-30.48 5.03-11.01 0.04-22.33z" fill="#f7ce1e"/><path d="m179.74 105.76-0.02 20.66-12.91 10.19-0.1-22.91z" fill="#50c4db"/><path d="m112.8 107.57q-1.47 8.2-3.02 16.43-0.67 3.5-4.92 3.79 2.63-10.52 7.94-20.22z" fill="#50c4db"/><path d="m204.4 107.49q-1.76 10.82 1.25 21.61-6.14 5.12-11.54 11.57-4.44-11.68-4.83-22.78 3.91-3.22 7.27-6.59 2.7-2.72 7.85-3.81z" fill="#f7ce1e"/><path d="m26.72 124.44q4.99 11.32-0.04 22.33z" fill="#ef5571"/><path d="m179.72 126.42-0.02 25.44q-2.9 0.79-4.9 3.16-1.04 1.24-2.58 1.64-0.47 0.12-0.89 0.36l-4.58 2.62 0.06-23.03z" fill="#f7ce1e"/><path d="m205.65 129.1q2.53 9.88 8.65 17.99 5.85 7.74 14.69 12.88 12.33 7.17 26.51 7.43 10.07 0.18 20.69-4.35 9.23 2.44 16.32 7.11-8.28 5.94-13.27 7.35c-2.79 0.8-5.49 2-8.24 2.47q-7.69 1.33-14.5 1.49-23.89 0.58-42.84-14.88-13.84-11.29-19.55-25.92 5.4-6.45 11.54-11.57z" fill="#ef5571"/><path d="m301.18 140.34q3.51 4.08 8.09 4.45 2.88 0.23 5.82 0.46l-5.3 8.62q-6.96-2.78-14.84-4.18z" fill="#50c4db"/><path d="m294.95 149.69q7.88 1.4 14.84 4.18-7.9 10.47-17.28 16.29-7.09-4.67-16.32-7.11c2.76-1.36 5.47-2.48 7.86-4.12q6.15-4.23 10.9-9.24z" fill="#f7ce1e"/><path d="m179.7 151.86q0.13 11.44 0.25 22.64 0.02 2.24-0.51 4.33a2.29 2.27-89.9 0 1-1.66 1.67q-1.98 0.5-4.4 0.55-14.23 0.27-28.68-0.23-0.21-2.23-0.31-4.81-0.08-2.28-2.14-2.36-0.91-0.04-2.59 0.8-1.79 0.89-3.57 1.3c-0.37-2.81 0.21-8.01 3.86-8.03q12.53-0.06 25.25 0.41a1.19 1.19 0 0 0 1.23-1.14l0.32-7.35 4.58-2.62q0.42-0.24 0.89-0.36 1.54-0.4 2.58-1.64 2-2.37 4.9-3.16z" fill="#ef5571"/><path d="m39.29 168.42q0.44 6.96-0.15 10.08-0.25 1.35-2.12 2.1-1.19 0.48-4.52 0.1z" fill="#ef5571"/><path d="m144.7 180.82c-1.29 2.93-2.5 5.96-6.27 6-4.25 0.04-9.15-0.66-13.11 0.73q-3.8 1.34-7.48 4.3-9.78 7.89-20.02 16.47c-3.84 3.22-9.76 2.56-13.44-0.93q-6.68-6.35-2.64-15.15c3.3-7.17 8.79-8.82 16.33-8.28 4.05 0.29 8.28 0.43 12.25 0.05q13.75-1.33 25.77-8.26 1.78-0.41 3.57-1.3 1.68-0.84 2.59-0.8 2.06 0.08 2.14 2.36 0.1 2.58 0.31 4.81z" fill="#f7ce1e"/><path d="m318.75 50.13q0.32 2.14 0.6 4.24 0.36 2.74-0.12 4.22-0.93 2.87-3.97 4.09-2.67-0.4-5.23-0.89-3.27-0.64-4.75-1.75-2.72-2.06-1.75-5.3c0.94-3.1 4.08-5.44 7.12-6.41 2.47-0.79 4.3-0.7 6.33 0.82q0.97 0.72 1.77 0.98z" fill="#50c4db"/><path d="m382.35 76.68q-6.19 12.71-8.92 25.07-1.08 4.91-0.57 10.73 0.03 0.33-0.18 0.59l-0.16 0.2q-1.93 2.3-0.43 5.05-1.04 7.44-0.51 11.04 1.28 8.76 2.56 17.51 0.59 4.04 3.47 9.69-7.3 10.26-15.02 21.28-2.05 2.92-4.7 2.88-5.95-0.1-11.53-0.02a0.86 0.86 0 0 1-0.83-1.1q0.29-1.01 0.92-1.86 6.66-9.05 12.55-17.32a14.45 0.81-54.2 0 1 1.19-1.66q5.54-7.75 10.84-15.37a0.68 0.64-35.6 0 0 0.1-0.51q-0.17-0.81-0.51-0.79-0.41 0.03-0.6-0.32-0.17-0.3 0.06-0.55 0.4-0.44 0.08-0.93-3.67-5.64-7.79-11.38-0.3-0.41-0.69-0.67-0.77-0.48-1.3 0.26-18.03 25.26-35.71 50.44-1.63 2.33-5.86 2.27-0.63-1.32-0.16-4.47l2.26-14.53q1-1.11 1.97-2.8 1.14-1.99 1.77-2.89 13.57-19.33 27.36-38.52c1.69-2.35-2.21-6.98-3.72-8.88q5.39-8.21 4.12-16.61l7.97 11.22a1.01 1 44.2 0 0 1.66-0.02q4.25-6.37 8.97-12.52c1.74-2.26-0.09-4.37-1.53-6.02-2.51-2.89-4.43-5.95-6.66-8.96q-8.68-11.74-17.53-23.73-0.78-1.06-0.37-1.63a1.83 1.8-71.4 0 1 1.51-0.76q5.15 0.08 9.88 0.14c2.56 0.03 4.39 1.38 5.82 3.35q8.02 11.06 16.76 22.49 0.36 0.47 0.93 0.33 0.15-0.04 0.28-0.16 0.3-0.31 0.58 0.03 0.71 0.9 1.67 0.41z" fill="#50c4db"/><path d="m318.75 50.13q3.48 0.17 5.15 2.48 14.2 19.56 28.51 39.9 1.27 8.4-4.12 16.61-7.24-10.25-14.95-20.53-2.7-3.6-5.22-7.34c-2.25-3.33-4.94-6.3-7.11-9.67q-2.89-4.51-5.75-8.9 3.04-1.22 3.97-4.09 0.48-1.48 0.12-4.22-0.28-2.1-0.6-4.24z" fill="#7f73b3"/><path d="m394.12 96.98q-3.76 18.06 0.12 36.09l-5.5 7.99a2.16 2.14 44.8 0 0 0.02 2.46l25.31 35.89a1 1 0 0 1-0.82 1.58l-11.1 0.01a5.9 5.89-17.5 0 1-4.83-2.51l-16.48-23.42a1.22 1.22 0 0 0-1.73-0.28q-0.61 0.46-1.5 1.77-2.88-5.65-3.47-9.69-1.28-8.75-2.56-17.51-0.53-3.6 0.51-11.04l6.71 9.33a1.29 1.29 0 0 0 2.1-0.01l7.79-11.02a2.89 2.89 0 0 0-0.02-3.37l-7.39-10.16a0.88 0.87 44.5 0 0-1.42 0.01l-7.05 10.03q-0.02 0.03-0.06 0.04-0.12 0.03-0.23 0.1l0.16-0.2q0.21-0.26 0.18-0.59-0.51-5.82 0.57-10.73 2.73-12.36 8.92-25.07 9.11-14.75 16.29-24.8 0.9-1.26 2.86-1.33 4.5-0.16 9.43 0.09a2.27 2.27 0 0 1 1.82 3.44q-1.82 3-4.07 6.22-9.29 13.33-19.2 26.97a2.43 2.42-44 0 0-0.05 2.77z" fill="#ef5571"/><path d="m424.3 90.76q-0.18-7.89 2.35-15.49 3.13-9.39 6.28-19 0.53-1.43 1.65-2.97 1.4-1.91 3.74-2.1 4.84-0.38 10.2-0.28 1.75 0.03 1.7 1.78-0.05 1.83-0.95 3.33-3.38 5.56-7.67 11.02-0.23 0.29-0.36 0.77-0.12 0.44-0.36 0.76-8.31 11.06-16.58 22.18z" fill="#ef5571"/><path d="m432.93 56.27q-3.15 9.61-6.28 19-2.53 7.6-2.35 15.49l-14.97 20.8q-0.05-8.7 0.7-14.81 0.85-6.95 1.11-10.17z" fill="#50c4db"/><path d="m140.71 100.15q-1.74-2.23-2.56-6.61c-0.84-4.46-4.86-4.88-8.53-4.32q0.59-2.88 1.29-5.78c1.48-6.1 4.77-4.79 9.74-4.61q4.81 0.17 3.72 5.18-1.71 7.82-3.66 16.14z" fill="#7f73b3"/><path d="m102.29 168.07 1.98 0.08q0.5 0.02 0.78 0.43 3.82 5.59 5.43 12.07-1.22-0.23-1.66 0.85-0.18 0.45-0.66 0.43-0.27-0.01-0.34-0.3-0.12-0.54-0.66-0.62-0.64-0.09-0.92 0.25-2.02-0.44-4.34-0.08-1.36-0.48-3.43-0.4-0.51 0.02-0.98-0.16c-1.1-0.44-1.86 0.1-2.98 0.11q-6.24 0.09-12.04-0.2a2.55 2.55 0 0 1-2.36-2.04q-4.31-21.5-8.74-41.92c-0.62-2.87-0.8-5.83-1.66-8.63q-0.53-1.7-0.84-3.42-2.16-11.69-3.98-20.04-1.93-8.85-4.59-22.21-0.58-2.89 2.17-3.29c2.32-0.33 9.51-1.3 10.53 1.8q0.83 2.52 1.5 5.73 8.37 40.23 16.29 79.44a2.67 2.67 0 0 0 2.63 2.15z" fill="#50c4db"/><path d="m411.14 86.58q-0.26 3.22-1.11 10.17-0.75 6.11-0.7 14.81-2.74 3.42 0.2 5.99 1.12 9.41-2.14 15.92c-4.11-1.29-4.81-3.68-6.92-6.58a1 1 0 0 0-1.61-0.01l-4.62 6.19q-3.88-18.03-0.12-36.09l4.79 5.69a0.62 0.62 0 0 0 0.98-0.04z" fill="#f7ce1e"/><path d="m140.71 100.15q-4.15 19.74-8.55 39.93-0.06 0.29-0.22 0.45-0.19 0.19-0.43 0.31-5.67-0.2-8.68 2-2.35 1.71-5.23 3.5l12.02-57.12c3.67-0.56 7.69-0.14 8.53 4.32q0.82 4.38 2.56 6.61z" fill="#50c4db"/><path d="m440.61 124.55c-2.67-0.89-5.92-3.91-3.81-7.01q2.51-3.68 7.37-3.35 2.64 0.18 3.51 2.52c2.06 5.48-0.8 9.93-7.07 7.84z" fill="#ef5571"/><path d="m407.39 133.47q3.26-6.51 2.14-15.92l10.66 14.51a0.77 0.77 0 0 1-0.6 1.22z" fill="#50c4db"/><path d="m440.64 153.92c-2.43 0.62-4.86 1.52-7.31 1.9q-3.68 0.56-7.36 1.27-4.91 0.96-7.57 2.63-3.24 2.04-5.6 5.45c-3.13 4.54-8.96 1.18-8.61-3.8q0.1-1.42 1.24-2.23c9.32-6.65 16.54-15.56 28.31-18.47 5.42-1.35 11.38-0.35 14.65 4.61q2.77 4.19-1.79 6.32-3.8 1.77-5.96 2.32z" fill="#ef5571"/><path d="m131.51 140.84-3.95 20.34q-2.15 2.64-6.81 6.69-4.6 4.01-8.26 11.9-0.21 0.45-0.03 0.94-0.86 0.25-1.98-0.06-1.61-6.48-5.43-12.07-0.28-0.41-0.78-0.43l-1.98-0.08q5.74 0.11 7.22 0.21 3.23 0.22 3.89-2.79 2.15-9.76 4.2-19.15 2.88-1.79 5.23-3.5 3.01-2.2 8.68-2z" fill="#f7ce1e"/><path d="m127.56 161.18-3.65 16.96a2.8 2.77-84.9 0 1-2.61 2.2l-8.84 0.37q-0.18-0.49 0.03-0.94 3.66-7.89 8.26-11.9 4.66-4.05 6.81-6.69z" fill="#ef5571"/><path d="m320.91 162.21-2.26 14.53q-2.87-1.22-6.41-1.04-1.2 0.06-1.69 1.02-0.01-0.27 0.02-0.57 0.03-0.27 0.22-0.51 4.84-6.33 10.12-13.43z" fill="#f7ce1e"/><path d="m318.65 176.74q-0.47 3.15 0.16 4.47l-7.35 0.04a1.64 1.63 86.7 0 1-1.63-1.46q-0.16-1.51 0.72-3.07 0.49-0.96 1.69-1.02 3.54-0.18 6.41 1.04z" fill="#ef5571"/><path d="m64.99 203.19c1.65-4.16 5.4-6.21 9.94-6.22q1.64-0.01 2.96 0.78 0.38 0.23 0.42 0.68c0.34 3.55-3.83 9.58-5.89 12.13-0.92 1.13-2.31 1.69-3.72 1.17-3.63-1.33-5.1-5.02-3.71-8.54z" fill="#f7ce1e"/><path d="m283.72 133.75q-5.1-2.01-8.87-5.97-0.59-0.61-1.03-1.67-0.63-1.49-1.21-1.64 4.77-8.95 0.91-17.93-1.64-3.82-4.39-6.51-3.05-3.01-6.87-4.16-6.92-2.1-14.25 0.4-7.79-5.5-6.37-13 17.16-6.46 31.23 1.63 8.46 4.86 12.96 13.22 4.42 8.22 3.94 17.22-0.54 10.02-5.43 17.96c-0.13 0.21-0.41 0.38-0.62 0.45z" fill="#7f73b3"/><path d="m241.64 83.27q-1.42 7.5 6.37 13-7.63 2.85-10.65 8.91-0.63-2.98-3.16-5.38-2.93-2.8-5.84-5.75l3.08-3.78q0.38-0.47 0.46-1.06 0.15-1.03 1.16-1.11 0.55-0.05 1.03-0.33z" fill="#50c4db"/><path d="m228.36 94.05q2.91 2.95 5.84 5.75 2.53 2.4 3.16 5.38-2.29 4.92-1.71 10.69-1.57-0.12-3.44-1.11-0.44-0.23-0.93-0.18-1.05 0.11-2.53-0.14-3.61-0.62-7.35 2.09-0.57-13.02 6.96-22.48z" fill="#f7ce1e"/><path d="m235.65 115.87q1.21 5.42 3.89 10.13 3.3 5.79 9.89 8.15-0.61-0.09-0.97 0.08-0.51 0.23-0.15 0.65 3.71 4.33 7.1 8.84 0.64 0.85 1.45 1.64 0.76 0.72 1.43 1.52 1.24 1.46-0.22 1.49-11.36 0.96-20.31-4.69-15.07-9.52-16.36-27.15 3.74-2.71 7.35-2.09 1.48 0.25 2.53 0.14 0.49-0.05 0.93 0.18 1.87 0.99 3.44 1.11z" fill="#ef5571"/><path d="m283.72 133.75q0.19 0.3 0.01 0.46-0.05 0.04-0.06 0.07-3.55 4.98-8.71 8.3l-11.3-9.39q5.92-2.49 8.95-8.72 0.58 0.15 1.21 1.64 0.44 1.06 1.03 1.67 3.77 3.96 8.87 5.97z" fill="#50c4db"/><path d="m263.66 133.19 11.3 9.39q-3.1 2.48-8.59 4.17-5.24 1.61-8.3 1.62 1.46-0.03 0.22-1.49-0.67-0.8-1.43-1.52-0.81-0.79-1.45-1.64-3.39-4.51-7.1-8.84-0.36-0.42 0.15-0.65 0.36-0.17 0.97-0.08 7.72 1.95 14.23-0.96z" fill="#f7ce1e"/></g></svg>
