<svg width="1200" height="400" version="1.1" viewBox="0 0 1200 400" xmlns="http://www.w3.org/2000/svg">
	<path id="foreground" d="m544.36 193.02c-0.77375-16.286-12.786-27.921-29.459-27.921s-29.082 12.021-30.252 27.921zm-59.711 14.352c1.5569 15.89 15.126 25.203 31.016 25.203 19.013 0 29.865-10.861 29.865-10.861l23.26 32.186s-17.834 17.438-53.124 17.438c-40.31 0-74.053-28.685-74.053-71.336 0-42.273 32.582-70.958 72.893-70.958 41.103 0 71.345 26.76 71.345 69.015v9.3133zm-277.99 60.871v-39.159h11.635c16.286 0 26.751-11.635 26.751-29.855 0-19.004-10.861-30.252-29.855-30.252h-16.286v154.32h-44.972v-191.53h64.75c40.707 0 71.345 27.534 71.345 68.241 0 43.424-33.356 68.241-67.854 68.241zm143.84 0v-39.159h11.635c16.286 0 26.751-11.635 26.751-29.855 0-19.004-10.851-30.252-29.855-30.252h-16.277v154.32h-44.981v-191.53h64.75c40.707 0 71.345 27.534 71.345 68.241 0 43.424-33.347 68.241-67.854 68.241zm-247.75-75.224c-0.77375-16.286-12.795-27.921-29.469-27.921-16.673 0-29.082 12.021-30.242 27.921zm-59.711 14.352c1.5475 15.89 15.116 25.203 31.016 25.203 18.995 0 29.855-10.861 29.855-10.861l23.269 32.186s-17.843 17.438-53.124 17.438c-40.32 0-74.053-28.685-74.053-71.336 0-42.273 32.573-70.958 72.893-70.958 41.103 0 71.345 26.76 71.345 69.015v9.3133zm675.43 60.871h-43.434v-83.754c0-9.6907-5.4351-14.73-13.965-14.73h-22.882v98.483h-43.415v-136.48h75.988c25.203 0 47.708 13.956 47.708 46.916zm395.85-146.56c0-31.025 22.495-44.981 45.755-44.981h39.933v36.064h-27.912c-7.36 0-12.021 4.2556-12.021 12.786v6.9826h39.933v36.442h-39.933v99.266h-45.755zm-302.81 10.078v39.159h-11.625c-16.286 0-26.751 11.635-26.751 29.855 0 18.995 10.851 30.242 29.846 30.242h16.296v-154.32h44.962v191.54h-64.74c-40.726 0-71.345-27.534-71.345-68.241 0-43.424 33.337-68.241 67.845-68.241zm61.268 68.241c0-41.094 32.554-70.958 73.27-70.958 40.32 0 72.893 29.865 72.893 70.958 0 41.094-32.186 70.949-72.893 70.949-41.103 0-73.27-29.855-73.27-70.949m42.651 0c0 19.768 12.795 33.347 30.62 33.347 17.853 0 30.242-13.578 30.242-33.347 0-19.778-12.389-33.347-30.242-33.347-17.825 0-30.62 13.569-30.62 33.347m112.43-23.269c0-31.016 22.495-44.972 45.755-44.972h32.573v37.215h-21.325c-6.9826 0-12.031 4.2745-12.031 12.795v86.471h-44.972z" style="fill:#2251a6"/>
</svg>
