<svg width="1200" height="400" version="1.1" viewBox="0 0 1200 400" xml:space="preserve" xmlns="http://www.w3.org/2000/svg"><g id="foreground" transform="matrix(9.8658 0 0 9.8658 245.57 41.21)"><g transform="matrix(1.041 0 0 1.041 .19708 -23.932)"><g transform="translate(38.268,25.918)"><path d="m-9.5064 26.068c3.8451 0 4.0844-0.03191 5.3767-0.74987l0.0319-0.12764c-0.71796 0.09573-1.7072 0.15955-2.5847 0.15955-0.12764 0-0.39887-0.01596-0.73392-0.0319 1.2285-1.0371 1.6274-1.6114 1.8986-2.824l1.2445-4.9938c2.0741 0.1755 2.0901 0.1755 2.4251 0.1755 0.74987 0 0.86155-0.15955 1.2445-1.7231l-0.20741-0.23932c-0.65414 1.1168-0.73392 1.1966-1.3083 1.1966-0.15955 0-0.51055-0.01596-1.0051-0.03191-2.3294-0.11169-2.5847-0.12764-3.1431-0.12764-2.7921 0-4.8662 1.5157-4.8662 3.5579 0 0.5265 0.11169 0.95728 0.39887 1.5157l1.1966-0.78178c-0.30314-0.76582-0.36695-1.0211-0.36695-1.4678 0-0.90942 0.41482-1.5795 1.1966-1.9465 0.41482-0.19146 0.95728-0.27123 1.8507-0.27123 0.351 0 0.41482 0 1.4359 0.07977l-1.2923 5.2012c-0.57437 2.3453-0.87751 2.7442-2.2337 2.808zm11.12-2.1858c-1.2764 1.0849-1.9624 1.4838-2.5687 1.4838-0.41482 0-0.73392-0.27123-0.8456-0.68605-0.06382-0.25527-0.07977-0.43078-0.07977-0.89346 0.73392-0.46268 1.1806-0.78178 2.122-1.4838 0.87751-0.65414 1.1966-1.1806 1.1966-1.8986 0-0.55842-0.33505-0.89346-0.90942-0.89346-0.351 0-0.59032 0.07977-0.97324 0.28718-0.60628 0.351-1.1487 0.78178-1.4678 1.1647-0.60628 0.73392-1.1487 2.4889-1.1487 3.7813 0 0.94133 0.4946 1.5316 1.3083 1.5316 0.94133 0 2.1539-0.702 3.3505-1.9305zm-3.4462-0.6701c0.27123-1.7231 0.98919-3.0314 1.6912-3.0314 0.25528 0 0.43078 0.25528 0.43078 0.65414 0 0.79773-0.46268 1.3083-2.122 2.3772zm10.722 0.76582c-1.1647 0.79773-1.4359 0.95728-1.5955 0.95728-0.11169 0-0.19146-0.12764-0.19146-0.31909 0-0.43078 0.36696-2.106 0.95728-4.2918 0.1755-0.25528 0.20741-0.28718 0.46268-0.57437-0.76582-0.1755-1.3083-0.23932-2.0103-0.23932-0.65414 0-0.97324 0.06382-1.3721 0.31909-0.57437 0.33505-1.2445 0.82964-1.4519 1.053-0.60628 0.6701-1.2604 2.824-1.2604 4.1163 0 0.76583 0.25528 1.2764 0.65414 1.2764 0.351 0 0.87751-0.31909 2.8718-1.755-0.1755 0.81369-0.23932 1.2126-0.23932 1.42 0 0.22336 0.09573 0.33505 0.25527 0.33505 0.20741 0 0.33505-0.06382 1.4678-0.81369 0.54246-0.36696 0.8456-0.57437 1.4359-1.0051zm-2.808-0.11169c-0.55841 0.41482-0.8456 0.62223-0.86155 0.63819-0.5265 0.33505-0.94133 0.54246-1.1487 0.54246-0.27123 0-0.41482-0.28718-0.41482-0.79773 0-0.81369 0.23932-1.8667 0.65414-2.7921 0.38291-0.87751 0.73392-1.2126 1.2764-1.2126 0.28718 0 0.82964 0.07977 1.3561 0.20741-0.31909 1.1487-0.43078 1.5795-0.44673 1.6593-0.09573 0.39887-0.1755 0.79773-0.27123 1.2126-0.01596 0.07977-0.06382 0.27123-0.14359 0.54246zm7.7221 2.2017c3.8451 0 4.0844-0.03191 5.3767-0.74987l0.0319-0.12764c-0.71796 0.09573-1.7072 0.15955-2.5847 0.15955-0.12764 0-0.39887-0.01596-0.73392-0.03191 1.2285-1.0371 1.6274-1.6114 1.8986-2.824l1.2445-4.9938c2.0741 0.1755 2.0901 0.1755 2.4251 0.1755 0.74987 0 0.86155-0.15955 1.2445-1.7231l-0.20741-0.23932c-0.65414 1.1168-0.73392 1.1966-1.3083 1.1966-0.15955 0-0.51055-0.01596-1.0051-0.0319-2.3294-0.11169-2.5847-0.12764-3.1431-0.12764-2.7921 0-4.8662 1.5157-4.8662 3.5579 0 0.52651 0.11169 0.95728 0.39887 1.5157l1.1966-0.78178c-0.30313-0.76583-0.36695-1.0211-0.36695-1.4678 0-0.90942 0.41482-1.5795 1.1966-1.9465 0.41482-0.19146 0.95728-0.27123 1.8507-0.27123 0.351 0 0.41482 0 1.4359 0.07977l-1.2923 5.2012c-0.57437 2.3453-0.87751 2.7442-2.2337 2.808zm12.923-2.0901c-1.1647 0.79773-1.4359 0.95728-1.5955 0.95728-0.11169 0-0.19146-0.12764-0.19146-0.31909 0-0.43078 0.36696-2.106 0.95728-4.2918 0.1755-0.25528 0.20741-0.28718 0.46269-0.57437-0.76583-0.1755-1.3083-0.23932-2.0103-0.23932-0.65414 0-0.97324 0.06382-1.3721 0.31909-0.57437 0.33505-1.2445 0.82964-1.4519 1.053-0.60628 0.6701-1.2604 2.824-1.2604 4.1163 0 0.76583 0.25528 1.2764 0.65414 1.2764 0.351 0 0.87751-0.31909 2.8718-1.755-0.1755 0.81369-0.23932 1.2126-0.23932 1.42 0 0.22336 0.09573 0.33505 0.25528 0.33505 0.20741 0 0.33505-0.06382 1.4678-0.81369 0.54246-0.36696 0.8456-0.57437 1.4359-1.0051zm-2.808-0.11169c-0.55842 0.41482-0.8456 0.62223-0.86155 0.63819-0.5265 0.33505-0.94133 0.54246-1.1487 0.54246-0.27123 0-0.41482-0.28718-0.41482-0.79773 0-0.81369 0.23932-1.8667 0.65414-2.7921 0.38291-0.87751 0.73392-1.2126 1.2764-1.2126 0.28718 0 0.82964 0.07977 1.3561 0.20741-0.31909 1.1487-0.43078 1.5795-0.44673 1.6593-0.09573 0.39887-0.1755 0.79773-0.27123 1.2126-0.01596 0.07977-0.06382 0.27123-0.14359 0.54246zm3.1271 2.3613 1.1328-0.43078 1.0211-3.877c1.0371-0.71796 1.7231-1.1009 1.9305-1.1009 0.12764 0 0.20741 0.12764 0.20741 0.351 0 0.47864-0.60628 2.8878-1.2764 5.0576l1.2126-0.43078 0.98919-3.9887c0.90942-0.59032 1.771-1.069 1.9624-1.069 0.14359 0 0.20741 0.11169 0.20741 0.30314 0 0.351-0.14359 1.069-0.57437 2.7123-0.23932 0.98919-0.31909 1.3881-0.31909 1.755 0 0.33505 0.07977 0.51055 0.38291 0.71796 0.92537-0.46268 1.8188-1.0371 2.6963-1.7391l0.01596-0.36696c-1.3561 0.82964-1.3561 0.82964-1.5795 0.82964-0.1755 0-0.28718-0.15955-0.28718-0.41482 0-0.36696 0.19146-1.2126 0.5265-2.3932 0.51055-1.771 0.60628-2.1379 0.60628-2.3932 0-0.15955-0.07977-0.23932-0.25528-0.23932-0.28718 0-1.2764 0.51055-3.2228 1.6593 0.06382-0.28718 0.06382-0.28718 0.20741-0.90942 0.06382-0.23932 0.11169-0.51055 0.11169-0.57437 0-0.11169-0.07977-0.1755-0.20741-0.1755-0.27123 0-0.87751 0.33505-3.175 1.7869 0.25528-1.0849 0.33505-1.4519 0.33505-1.5636 0-0.14359-0.09573-0.22337-0.23932-0.22337-0.15955 0-0.33505 0.09573-1.1328 0.54246-1.053 0.60628-1.053 0.60628-1.3402 0.79774l-0.11169 0.44673c0.8456-0.43078 0.98919-0.47864 1.1806-0.47864 0.12764 0 0.22337 0.12764 0.22337 0.30314 0 0.23932-0.04786 0.44673-0.68605 2.9835-0.14359 0.51055-0.27123 1.0371-0.39887 1.5636z" style="stroke-linecap:round;stroke-linejoin:round;stroke-width:.11506" aria-label="Tea Tam"/><path d="m-2.6443 8.7147q0-0.0613 0.12259-0.0613 0.12259-0.015328 0.29116 0.045972 0.16856 0.045972 0.27583 0.12259 0.19921 0.13791 0.3831 0.13791 0.16856 0 0.58231 0.24518 0.41374 0.22986 0.68958 0.49037 0.29115 0.24518 0.29115 0.55166 0 0.21454-0.12259 0.3218-0.12259 0.09194-0.65893 0.3218-1.6397 0.75087-1.6397 0.52101 0-0.07662 0.18389-0.27583 0.41374-0.47504 0.41374-0.85814 0.01533-0.3831-0.3831-0.95008-0.42907-0.56698-0.42907-0.61296zm-1.3179-9.3782q0.07661-0.47504 0.21453-0.53634 0.13792-0.061299 0.45972 0.29115 0.26051 0.26051 0.47504 0.3831 0.22986 0.12259 0.61296 0.19921 0.41375 0.061299 0.50569 0.27583 0.0613 0.13792 0.0613 0.29116 0 0.13791-0.07662 0.22986-0.0613 0.091943-0.15324 0.061299-0.13792-0.045972-0.59763-0.12259l-0.45971-0.045972-0.33713 0.72022q-0.44439 0.98073-1.7929 2.4212-0.53634 0.56698-0.49037 0.61296 0.0613 0.045972 0.56698-0.26051 0.50569-0.3218 1.5477-0.82749 1.0573-0.50569 1.088-0.58231 0.03064-0.091943 0.68958-0.091943 0.56698 0 0.79684 0.16856 0.24518 0.15324 0.15324 0.45972-0.0613 0.16856-0.56698 0.52101-0.50569 0.33713-1.0573 0.56698-0.52101 0.22986-1.0574 0.6436-0.52101 0.39842-0.52101 0.58231 0 0.13791 0.12259 0.16856 0.13792 0.015328 0.7049 0.015328 0.6436-0.030644 0.85814 0.045972 0.21454 0.061299 0.21454 0.29116 0 0.19921-0.58231 0.49036-0.56698 0.27583-0.91943 0.62828-0.24518 0.26051-0.29116 0.41375-0.04597 0.15324-0.03064 0.73555 0.01533 0.81217-0.10727 1.4558-0.10727 0.62828-0.09194 0.88879 0.03064 0.24518-0.09194 0.62828-0.12259 0.3831-0.29116 0.55166-0.18389 0.21454-0.79684 0.13792-0.59763-0.0613-0.95008-0.3218-0.35245-0.26051-0.45972-0.26051t-0.55166 0.55166q-0.42907 0.55166-0.56698 0.6436-0.18389 0.07662-0.45972 0.03064-0.26051-0.04597-0.33712-0.16856-0.0613-0.16856-0.18389-0.41374-0.21453-0.3831-0.18389-0.61296t0.35245-0.56698q0.27583-0.30648 0.3831-0.33713 0.10727-0.04597 0.33712 0.0613 0.30648 0.10727 0.59763 0 0.29116-0.12259 0.99606-0.64361 0.30648-0.22986 0.47504-0.22986 0.30648 0 0.41375-0.65893 0.0613-0.3218-0.01533-0.36777-0.0613-0.045972-0.27583 0.18389-0.21454 0.24519-0.5057 0.22986-0.29115-0.030644-0.41374-0.30648-0.12259-0.27583-0.19921-0.33713-0.07662-0.061299-0.12259-0.49037-0.01533-0.29115 0.03064-0.33713 0.04597-0.061299 0.3218-0.061299 0.35245 0 0.87346-0.30648 0.29115-0.16856 0.3831-0.29115 0.10727-0.12259 0.10727-0.3218 0-0.18389-0.04597-0.21453-0.03064-0.045972-0.15324 0.030644-0.26051 0.13792-0.27583 0.091943-0.01533-0.045972 0.21454-0.30648 0.42907-0.53634 0.15324-1.0267-0.12259-0.26051 0.13792-0.27583 0.18389 0 0.3831 0.10727 0.22986 0.12259 0.3218 0.10727 0.09194-0.015328 0.29115-0.15324 0.58231-0.41375 0.99605-0.98073 0.13792-0.18389 0.07662-0.18389-0.49036 0-1.8695 0.78152-1.3638 0.78152-1.9461 1.3792-0.33713 0.35245-0.62828 0.72022-0.27583 0.35245-0.27583 0.44439 0 0.076615-0.24518 0.35245-0.24518 0.26051-0.79684 0.95008-0.47504 0.55166-0.73555 0.7662-0.24518 0.21453-0.61296 0.33713-0.27583 0.10727-0.62828 0.045972-0.33712-0.076615-0.33712-0.21453 0-0.33713 0.50569-0.90411t1.3792-1.1953q0.72022-0.53634 1.8235-1.8389 1.1186-1.3179 1.1186-1.655 0-0.16856-0.2605-0.22986-0.26051-0.076615-0.26051-0.15324 0-0.076615-0.21453-0.33713l-0.22986-0.24518-0.6436 0.35245q-0.65893 0.33713-0.95008 0.3218-0.29115-0.015328-0.45972-0.3831-0.15324-0.36777-0.10727-0.41374 0.04597-0.045972 0.99605-0.49037l0.95008-0.49036-0.04597-1.2106q-0.04597-0.7662-0.01533-0.98073t0.13792-0.21453q0.15324 0 0.27583 0.26051 0.12259 0.24518 0.21453 0.24518t0.09194 0.19921q0 0.22986 0.18389 0.7049t0.29115 0.45972q0.10727 0 1.1953-0.55166l1.1033-0.53634zm-1.0574 2.2526q0.24518-0.49036 0.18389-0.49036-0.09194 0-0.50569 0.30648t-0.53634 0.44439q-0.12259 0.18389-0.10727 0.53634 0.03064 0.33713 0.18389 0.33713 0.21453 0 0.78152-1.134zm-0.50569 8.5354q0.0613-0.10727-0.04597-0.10727-0.0613 0.01533-0.22986 0.10727-0.09194 0.0613-0.09194 0.09194 0.01533 0.01533 0.13792 0.01533 0.16856 0 0.22986-0.10727zm10.129-6.0223q0.35245-0.29115 0.50569-0.35245 0.15324-0.076615 0.45972-0.045972 0.45972 0.045972 0.72022 0.29115 0.19921 0.16856 0.21453 0.33713 0.03064 0.15324-0.01533 0.75087l-0.0613 0.84281 0.21454-0.24518q0.21453-0.24518 0.21453-0.3831t0.15324-0.19921q0.09194-0.030644 0.12259 0.045972 0.03064 0.061299 0.03064 0.30648 0 0.99605-0.73555 2.4212-0.41375 0.82749-0.41375 1.088 0 0.53634-0.52101 0.076615-0.16856-0.15324-0.36777-0.39842-0.47504-0.59763-0.47504-0.65893 0-0.061299 0.15324-0.36777 0.16856-0.3218 0.27583-1.1646 0.12259-1.0573 0.03064-1.134-0.03064-0.030644-0.36777 0.091943-0.42906 0.15324-1.042 0.15324-0.59763-0.015328-0.81217-0.15324-0.22986-0.18389-0.22986-0.45972 0.03064-0.15324 0.07661-0.13792 0.10727 0.24518 0.65893 0.030644 0.56698-0.21454 1.2106-0.73555zm8.1217-4.2294q0.36777 0.18389 0.47504 0.29115 0.10727 0.10727 0.13792 0.3218 0.01533 0.26051-0.21454 0.7662-0.22986 0.50569-0.55166 0.87346-0.26051 0.29115-0.7049 0.55166-0.42907 0.24518-0.79684 0.29115-0.56698 0.091943-1.1953 0.61296-0.61296 0.52101-0.67425 0.98073-0.0613 0.30648-0.01533 0.30648 0.0613 0 0.91943-0.6436 0.61296-0.45972 1.1186-0.52101 0.72022-0.076615 0.96541 0.24518 0.26051 0.3218 0.09194 1.1646-0.07661 0.42907-0.18389 0.61296-0.09194 0.18389-0.36777 0.41375-0.41375 0.36777-0.7049 0.42907-0.27583 0.045972-0.27583 0.13791 0 0.091943 0.22986 0.29115 0.21454 0.19921 0.41374 0.19921 0.21454-0.015328 0.53634-0.24518 0.19921-0.12259 0.47504-0.12259 0.27583-0.015328 0.55166 0.091943 0.24518 0.10727 0.53634 0.15324 0.29115 0.045972 0.29115 0.24518 0 0.18389-0.24518 0.26051-0.22986 0.061299-1.1646 0.18389-0.82749 0.10727-0.99606 0.22986-0.10727 0.091943-0.12259 0.30648-0.01533 0.21454 0.01533 0.85814 0.07662 1.0114 0.03064 2.0534-0.0613 0.79684-0.15324 0.99606-0.07661 0.19921-0.35245 0.10727-0.24518-0.09194-0.3218-0.55166t-0.04597-1.6243q0.03064-1.5171-0.04597-1.5784-0.0613-0.076615-0.99605 0.27583-0.88879 0.35245-1.2106 0.42907-0.30648 0.061299-0.55166-0.045972-0.18389-0.061299-0.3218-0.29115-0.13792-0.22986-0.07662-0.39842 0.04597-0.091943 0.90411-0.65893 0.62828-0.44439 1.4098-1.2566 0.79684-0.81217 0.73555-0.98073-0.03064-0.12259-0.22985-0.16856-0.15324-0.015328-0.39842 0.24518-0.24518 0.26051-0.44439 0.62828-0.24518 0.49037-0.6436-0.24518l-0.24518-0.47504 0.3218-0.82749q0.3218-0.81217 0.26051-0.90411-0.0613-0.10727-0.62828-0.10727h-0.58231l-0.26051-0.55166q-0.18389-0.33713-0.22986-0.52101-0.03064-0.19921 0.01533-0.47504 0.0613-0.45972 0.15324-0.45972 0.12259 0 0.35245 0.29115t0.27583 0.45972q0.0613 0.22986 0.33713 0.44439 0.3218 0.22986 0.44439 0.076615 0.13792-0.16856 0.07661-0.68958-0.04597-0.35245-0.10727-0.44439-0.0613-0.091943-0.30648-0.15324-0.30648-0.076615-0.3218-0.18389-0.01533-0.12259 0.29115-0.22986 0.21454-0.0613 0.27583-0.15324 0.0613-0.10727 0.07662-0.3831l0.03064-0.44439 0.22986 0.26051q0.18389 0.18389 0.27583 0.19921 0.09194 0.015328 0.41375-0.091943 0.22986-0.091943 0.3218-0.16856 0.10727-0.076615 0.07662-0.16856-0.01533-0.12259 0.03064-0.13792 0.0613-0.030644 0.24518 0 0.29115 0.045972 0.96541-0.30648 0.68958-0.35245 0.73555-0.35245 0.0613-0.015328 0.6436 0.27583zm-0.75087 0.99605q0-0.091943-0.07662-0.10727-0.07662-0.030644-0.24518 0.015328-0.16856 0.030644-0.3831 0.10727-0.3218 0.15324-0.3218 0.35245 0 0.18389-0.21453 0.56698-0.21454 0.3831-0.21454 0.44439 0 0.045972 0.09194 0.045972 0.10727 0 0.22986-0.030644 0.13792-0.045972 0.2605-0.12259 0.21454-0.13791 0.53634-0.61296 0.33712-0.49036 0.33712-0.65893zm-2.1453 1.1493q0.22986-0.42907 0.09194-0.39842-0.0613 0.015328-0.18389 0.076615-0.18389 0.13791-0.13792 0.41375 0.01533 0.16856 0.0613 0.16856 0.03064 0 0.16856-0.26051zm1.7929 2.697q0.0613-0.35245-0.0613-0.41375-0.10727-0.076615-0.52101 0.030644-0.53634 0.13791-0.78152 0.52101-0.16856 0.29116 0.13792 0.29116 0.16856 0 0.50569 0.19921l0.35245 0.21453 0.13792-0.24518q0.16856-0.22986 0.22986-0.59763zm-3.2487 3.3406q-0.58231 0.27583-0.65893 0.45972 0.03064 0.076615 0.09194 0.076615 0.29115 0 1.4404-0.49036 1.1646-0.49037 1.1646-0.62828 0-0.045972-0.16856-0.35245-0.15324-0.30648-0.18389-0.30648-0.01533 0-0.6436 0.53634-0.62828 0.52101-1.042 0.7049zm-3.6777-8.5814q0.0613-0.10727 0.45972-0.10727 0.56698 0 0.99605 0.44439t0.21454 0.79684q-0.10727 0.16856-0.53634 0.22986-0.42907 0.045972-0.59763 0.19921-0.15324 0.13791-0.15324 0.030644 0-0.12259 0.0613-0.12259 0.12259 0 0.27583-0.33713 0.16856-0.35245 0.10727-0.49036-0.04597-0.19921-0.47504-0.36777-0.16856-0.076615-0.27583-0.15324-0.10727-0.076615-0.07662-0.12259zm4.2294-0.39842q1.1799-0.41375 1.5171-0.076615 0.18389 0.18389 0.09194 0.33713-0.09194 0.13792-0.3831 0.18389l-0.72022 0.12259q-0.29115 0.030644-0.7049-0.076615-0.41375-0.10727-0.41375-0.21453 0-0.061299 0.61296-0.27583zm15.247 3.4939q0.49037 0.045972 0.73555 0.16856 0.24518 0.10727 0.36777 0.33713 0.15324 0.30648-0.03064 0.44439-0.16856 0.12259-0.65893 0.076615-0.95008-0.10727-2.3599 0.42907-1.2412 0.50569-1.2412 0.58231 0 0.076615 0.53634 0.27583 0.55166 0.18389 0.68958 0.47504 0.12259 0.18389 0.07661 0.3218-0.03064 0.13792-0.30648 0.56698l-0.3831 0.6436 0.26051 0.27583q0.27583 0.26051 0.35245 0.26051t0.67425 0.47504q0.61296 0.47504 0.7049 0.47504 0.10727 0 0.18389 0.13791 0.09194 0.13791 0.58231 0.52101 0.50569 0.36777 0.7662 0.50569 0.30648 0.16856 0.52101 0.29115t1.1493 0.47504q0.95008 0.35245 1.1646 0.6436 0.15324 0.21454 0.15324 0.27583 0 0.04597-0.15324 0.16856-0.21454 0.15324-1.3792 0.09194-1.1646-0.07661-1.5324-0.2605-0.50569-0.27583-1.0727-0.67425-0.56698-0.41374-0.78152-0.67425-0.27583-0.35245-0.96541-0.88879-0.67425-0.55166-0.88879-0.78152-0.3218-0.3218-0.61296-0.16856t-1.134 1.042q-0.41374 0.44439-1.0114 0.65893-0.59763 0.21453-0.85814 0.35245-0.33713 0.19921-1.0267 0.45972-0.68958 0.24518-0.75087 0.22986-0.07662-0.03064 0.22986-0.2605 0.15324-0.10727 0.3218-0.22986 0.78152-0.50569 1.5937-1.1953 0.82749-0.68958 1.1493-1.1033 0.45972-0.59763 0.3831-0.88879-0.03064-0.091943-0.10727-0.091943-0.09194 0-0.30648-0.33713-0.21453-0.35245-0.21453-0.47504 0-0.10727 0.50569 0.091943 0.47504 0.16856 0.7049 0.10727 0.22986-0.061299 0.3831-0.39842 0.13792-0.27583 0.12259-0.36777 0-0.091943-0.13792-0.27583-0.19921-0.29116-0.3831-0.29116-0.16856-0.015328-0.52101 0.21454-0.41375 0.27583-0.73555 0.33713-0.50569 0.091943-1.9921-0.55166-0.3218-0.13791-0.3218-0.18389-0.01533-0.045972 0.10727-0.076615 0.21454-0.091943 0.65893-0.091943 0.3218-0.015328 1.2259-0.30648 0.90411-0.29115 1.6856-0.6436 0.50569-0.22986 1.6703-0.58231 1.1646-0.36777 1.4251-0.50569 0.2605-0.15324 0.78152-0.10727zm-3.8769-2.6817q-0.0613-0.16856-0.03064-0.19921 0.04597-0.030644 0.29115 0.030644 0.24518 0.045972 0.6436 0.29115 0.39842 0.24518 0.5823 0.49037 0.33712 0.39842-0.13792 0.84281t-1.6243 0.78152q-0.55166 0.18389-0.72022 0.24518l-0.03064-0.015328q0.01533-0.091943 0.26051-0.35245 0.65893-0.73555 0.79684-1.1186 0.13791-0.39842-0.03064-0.99605zm15.707 0.90411q0.22986-0.21453 0.67425-0.030644 0.45972 0.18389 0.81217 0.65893 0.19921 0.26051 0.7049 0.49036 0.50569 0.21453 0.91943 0.21453 0.22986 0 0.42907 0.22986 0.21454 0.21454 0.21454 0.45972 0 0.26051-0.35245 0.81217t-0.49036 0.96541q-0.15324 0.55166-0.65893 1.2106-0.49036 0.6436-0.90411 0.88879-0.41374 0.24518-0.53634 0.45972-0.12259 0.19921-0.0613 0.61296 0.01533 0.21453 0.12259 0.26051 0.10727 0.030644 0.6436 0.076615 0.88879 0.030644 1.8542-0.24518 0.96541-0.29116 1.6397-0.7662l0.24518-0.18389-0.04597 0.53634q-0.10727 0.78152-0.64361 1.4098-0.52101 0.61296-1.2872 0.82749-0.58231 0.16856-1.3179 0.19921-0.73555 0.015328-1.1033-0.12259-0.42907-0.15324-0.81217-0.56698-0.36777-0.42907-0.52101-0.91943-0.16856-0.52101-0.47504-0.68958-0.29115-0.16856-0.36777-0.50569-0.13791-0.72022-0.52101 0.26051-0.21453 0.52101-0.7049 1.2872-0.49036 0.75087-0.56698 1.1493-0.07661 0.3831-0.18389 0.58231-0.12259 0.16856-0.3218 0.16856-0.18389-0.01533-0.3831-0.24518-0.19921-0.22986-0.30648-0.53634-0.12259-0.42907-0.3218-0.62828-0.19921-0.21453-0.26051-0.49036-0.0613-0.16856 0.01533-0.29116 0.07662-0.13791 0.29115-0.36777 0.29115-0.26051 0.35245-0.41375 0.07662-0.16856 0.09194-0.59763 0.0613-0.61296-0.03064-0.61296-0.07662 0-0.59763 0.56698-0.45972 0.49037-0.6436 0.49037-0.16856-0.015328-0.24518-0.53634-0.03064-0.29115 0.01533-0.42907t0.26051-0.33713q0.29115-0.3218 1.3025-2.3139 1.0114-2.0074 1.0114-2.2833 0-0.091943-0.15324-0.091943-0.22986 0-0.12259-0.19921 0.07662-0.13792 0.24518-0.22986 0.18389-0.10727 0.27583-0.076615 0.10727 0.015328 0.3831 0.13791 0.7049 0.39842 0.45972 0.78152-0.13792 0.21453-0.13792 0.33713 0 0.19921-0.82749 1.609-0.58231 1.0267-0.52101 1.4251 0.01533 0.091943 0.07662 0.091943 0.09194 0 0.41375 0.30648 0.21453 0.22986 0.3218 0.24518 0.12259 0.015328 0.29116-0.12259 0.18389-0.15324 0.6436-0.65893 0.85814-0.96541 0.85814-1.8848 0-0.22986 0.36777-0.93476 0.36777-0.72022 0.36777-1.0114 0-0.30648 0.12259-0.42907zm-0.12259 2.4212q0.21454-0.21453 0.18389-0.61296l-0.03064-0.42907-0.18389 0.39842q-0.16856 0.3831-0.16856 0.62828v0.22986zm1.8695-0.030644q-0.18389 0-0.29115 0.16856-0.10727 0.15324-0.10727 0.42907 0 0.3218 0.09194 0.33713 0.10727 0.015328 0.19921-0.27583 0.10727-0.29115 0.18389-0.47504t-0.07662-0.18389z" style="stroke-linecap:round;stroke-linejoin:round;stroke-width:.11051" aria-label="茶谭文化"/></g><path d="m7.8543 18.977c-0.4826-0.00577-0.89049 0.16087-1.2237 0.49983-0.35045 0.3562-0.68655 0.39649-1.0083 0.12072-0.293-0.25279-0.63198-0.38502-1.0169-0.39651l-4.7569-0.16368a0.68081 0.68081 0 0 0-0.70679 0.70663l0.01723 0.3534c0.02869 0.86752 0.47115 1.3645 1.3272 1.4909 2.7663 0.41365 6.1359 0.405 6.2738 4.171 0.07756 2.0769 0.35331 3.8522 0.22405 6.0584-0.074716 1.2754 0.10056 2.5939 0.5257 3.9555 0.16087 0.51132 0.022923 0.92497-0.41376 1.241-0.13214 0.09767-0.28148 0.15219-0.44809 0.16368a0.75837 0.75837 0 0 1-0.83582-0.70663l-0.56019-8.1524a0.70666 0.71528 2.6 0 0-0.60331-0.66367c-1.1146-0.17236-2.1918-0.11767-3.2317 0.16384a0.42227 0.41365 69.4 0 0-0.26716 0.59453c1.2697 2.4819 1.9505 5.254 2.0424 8.3162 6e-3 0.35046-0.16087 0.56584-0.49983 0.64627l-0.33599 0.07761a0.49983 0.49983 0 0 1-0.61193-0.44809c-0.19533-2.6887-0.78135-5.2367-1.758-7.6439a0.97381 0.97381 0 0 0-1.4736-0.42238c-1.7322 1.2754-2.1028 5.1018-2.1114 7.3424-0.01146 1.241-0.51133 1.4851-1.4995 0.7325-0.64346-0.48259-0.80719-1.2036-0.4912-2.163 0.52856-1.5857 0.81013-3.1656 0.8446-4.7398 6e-3 -0.3045 0.12359-0.56017 0.3534-0.767l0.98242-0.90497c0.3964-0.37344 0.32174-0.57155-0.22405-0.59453l-2.6371-0.13797a1.3788 1.3788 0 0 0-1.4046 1.7149c0.38493 1.4995 0.48551 2.8612 0.30166 4.0849-0.17236 1.1031-0.13794 2.051-0.08623 3.1454 0.02301 0.45962-0.19528 0.71529-0.65489 0.767l-0.28441 0.03449a0.51707 0.52568 88.7 0 1-0.57744-0.54295c0.06894-1.3961-0.07756-2.729-0.43946-3.9987-0.6291-2.2148 0.37912-4.1365 0.40498-6.3771 0.05171-3.6539 2.93-5.0501 6.1789-4.7915a0.68081 0.68081 0 0 0 0.62056-1.0428c-0.69517-1.0858-1.6805-1.2897-2.9559-0.61178a0.80145 0.81007 61.6 0 1-1.0859-0.3189c-0.07472-0.13788-0.16951-0.26132-0.2844-0.37048a0.7756 0.78422 52 0 0-0.93069-0.1121l-2.6628 1.534c-0.24705 0.14363-0.3764 0.35613-0.38789 0.63765-0.03447 0.92498-0.13505 1.8442-0.30166 2.7577-0.21257 1.1261 0.10643 1.9505 0.9567 2.4733 0.21257 0.13214 0.24695 0.30451 0.10333 0.51708-0.04594 0.07469-0.10049 0.14072-0.16369 0.19818-0.28726 0.26428-0.43085 0.59175-0.43085 0.98242-0.0086 1.8442-0.57749 3.361-0.39651 5.2655 0.3045 3.0105 0.40795 5.9262 0.31028 8.7471-0.01146 0.36769 0.13785 0.64927 0.44809 0.8446 0.22981 0.14363 0.41081 0.32175 0.54295 0.53432 0.23556 0.37344 0.13498 0.60896-0.30166 0.70663-0.20683 0.05171-0.3648 0.16092-0.47396 0.32752-0.16661 0.27002-0.24128 0.54856-0.22404 0.83582l0.5257 8.2472c6e-3 0.09192-0.02594 0.17235-0.09486 0.24129-0.05748 0.05745-0.10622 0.11486-0.14643 0.17231-0.20109 0.27002-0.19244 0.52858 0.02585 0.77562 0.41365 0.47685 0.73249 1.0083 0.95656 1.5944a1.1031 1.1117 86.5 0 0 0.76699 0.67214c0.58026 0.14938 1.1548 0.15225 1.7235 0.0086 0.293-0.07469 0.58018-0.07181 0.8617 0.0086 1.6489 0.45387 3.2892 0.49704 4.9209 0.12935 0.65495-0.14363 1.2667-0.17817 1.8355-0.10348 0.73251 0.0948 1.3962 0.02594 1.8701-0.61178a0.31886 0.32748 41.7 0 1 0.49121-0.03449c0.23555 0.25853 0.52273 0.43953 0.86169 0.54295a0.93072 0.93072 0 0 0 1.198-1.06l-0.77562-4.1021c-0.09192-0.48259-0.38214-0.70373-0.87047-0.66352-2.0166 0.15512-5.5844 1.3443-5.7912-2.0683-0.21832-3.5678-0.29012-6.6931-0.21543-9.3761a0.83593 0.81869 72.4 0 1 0.31028-0.61193c0.68941-0.55154 1.2495-0.27572 1.6804 0.82736a1.2841 1.2841 0 0 1 0.06894 0.6204c-0.21831 1.6316-0.20105 3.2002 0.05171 4.7054a0.37918 0.37056 83.2 0 0 0.38773 0.31012l3.9124-0.23267a0.293 0.293 0 0 0 0.27579-0.31874l-0.33599-4.8088a1.0169 1.0169 0 0 1 0.27579-0.75837c0.40216-0.4194 0.82732-0.5286 1.2754-0.32752 0.31598 0.13788 0.47684 0.38205 0.48259 0.7325l0.01723 5.4464a1.5426 1.5512 89.2 0 1-1.5167 1.5512l-4.2227 0.07761c-0.43662 0.0058-0.64353 0.22688-0.62055 0.66352l0.07756 1.4391c0.03447 0.62048 0.36482 0.90493 0.99104 0.85323 1.6374-0.12926 5.2224-0.53434 5.6963 1.6804 0.41365 1.9649 0.37624 3.5995-0.1121 4.9036-0.43089 1.1605-0.11766 1.4218 0.93946 0.78408 0.82156-0.49983 1.7666-0.49983 2.8352 0 0.26427 0.12639 0.54585 0.18683 0.8446 0.18109 1.4363-0.02298 2.8352 0.02004 4.1968 0.12919 1.0341 0.07756 1.9045-0.47401 2.9214-0.05174 0.29874 0.12639 0.60335 0.14078 0.91359 0.04311 1.0858-0.32747 2.1859-0.37624 3.3005-0.14644 0.32173 0.06319 0.62633 0.01139 0.91359-0.15522 1.4995-0.8847 2.1974-2.2721 2.094-4.1623-0.1264-2.3268-0.13215-4.5991-0.01723-6.8167 0.04594-0.88476-0.0026-1.7551-0.14644-2.6111-0.36195-2.1286 0.293-4.102 0.24991-6.1962-0.05748-3.223-0.12924-6.4374-0.21542-9.6433-0.05171-2.1975 0.65493-3.8953-0.27579-6.1101-0.13788-0.32173-0.32176-0.35339-0.55157-0.09485-0.2413 0.27577-0.3505 0.59188-0.32753 0.94808 0.05171 0.8905-0.39058 1.4679-1.327 1.7322a0.28439 0.28439 0 0 0-0.05171 0.5257c0.25853 0.12639 0.51708 0.24984 0.77562 0.37048 0.26427 0.12065 0.41362 0.32755 0.44809 0.62056 0.0804 0.61473-0.1925 0.93357-0.81873 0.95655-2.1544 0.0948-4.283-0.14654-5.8514 1.6718a0.43951 0.43951 0 0 0 0.2844 0.72388l4.3864 0.47396c0.37343 0.04022 0.53717-0.12352 0.4912-0.49121-0.05748-0.49408 0.10053-0.87896 0.47396-1.1547a0.50845 0.50845 0 0 1 0.75837 0.18955c0.37344 0.76985 0.36481 1.5282-0.02585 2.2751-0.13788 0.26428-0.35614 0.3906-0.65489 0.37911l-5.6275-0.27563c-0.14363-0.01149-0.21255 0.05455-0.2068 0.19818l0.0086 0.23267a0.25853 0.25853 0 0 0 0.24992 0.24992c1.3501 0.06319 2.8124 0.41081 4.3865 1.0428 1.804 0.72389 2.4962 2.1228 2.0768 4.1968-0.07472 0.38493-0.29294 0.50261-0.65489 0.35324l-0.28441-0.12057c-0.43663-0.18384-0.58597-0.4998-0.44809-0.94792 0.97381-3.2489-3.0248-3.2404-4.9466-2.8957-0.34471 0.06319-0.52283 0.27298-0.53433 0.62918l-0.10347 3.2403c-0.01146 0.293-0.16083 0.43084-0.4481 0.4136l-0.24129-0.01724c-0.41365-0.02298-0.64055-0.23836-0.68076-0.64627l-0.21541-2.594a1.4823 1.4823 0 0 0-1.9477-1.2841l-3.0506 1.0083c-0.31024 0.09767-0.51427 0.30169-0.61193 0.61193-0.21258 0.68942-0.26998 1.4707-0.1723 2.3439 0.057481 0.4826-0.14082 0.63785-0.59469 0.4655l-0.33599-0.12935c-0.44239-0.16661-0.66943-0.48544-0.68093-0.95655-0.051706-2.2751 0.83316-3.5821 2.6544-3.921 0.76411-0.13788 1.5254-0.34191 2.2837-0.61193 0.71815-0.25853 1.442-0.3073 2.1716-0.14644a0.293 0.293 0 0 0 0.36186-0.26716l0.02585-0.24129c6e-3 -0.10341-0.04015-0.1581-0.13781-0.16384-1.7695-0.14938-3.5792-0.0229-5.4292 0.37926a1.3702 1.3702 0 0 1-1.6633-1.2754l-0.068856-1.534a0.4826 0.47398 16.9 0 1 0.76684-0.40498c0.37343 0.27002 0.59473 0.62611 0.66367 1.0685 0.074717 0.45961 0.34188 0.6694 0.80149 0.62918l3.9814-0.32752a0.66357 0.66357 0 0 0 0.48259-1.0428c-1.172-1.6489-2.732-2.117-4.6796-1.4046a1.1203 1.1289 74.5 0 1-1.4909-0.83598c-0.091918-0.48834 0.15224-0.764 0.7325-0.8272 2.3268-0.25279 4.5474-0.71824 6.6617-1.3962 0.293-0.09192 0.55443-0.03436 0.78424 0.17246 1.4593 1.3329 3.131 1.8441 5.0154 1.5338 0.31599-0.05171 0.42232-0.22967 0.3189-0.53417l-0.08609-0.27578c-0.12639-0.37344-0.38495-0.5602-0.77562-0.5602-0.66069-0.01149-1.2784 0.10923-1.8529 0.36202a0.73251 0.74113 57.4 0 1-0.84447-0.1811c-0.86178-0.94796-1.2983-2.0739-1.3098-3.3781-6e-3 -0.28726 0.13208-0.4625 0.4136-0.5257 0.14362-0.02872 0.28434-0.02584 0.42222 0.0086 0.27577 0.07469 0.43663 0.24993 0.48259 0.5257l0.19833 1.2841a0.31024 0.31024 0 0 0 0.06024 0.15506c0.09767 0.14363 0.21838 0.21542 0.36202 0.21542 0.38492 0 0.58895-0.19251 0.61193-0.57744l0.05162-1.034c0.01723-0.27577 0.16098-0.44526 0.431-0.50846 0.1264-0.02872 0.24408-0.01162 0.35324 0.05159 0.18385 0.10341 0.30745 0.25867 0.37064 0.4655 0.0804 0.24704 0.12057 0.49984 0.12057 0.75837 0 0.31598 0.15797 0.47972 0.47396 0.49121 0.10341 0.0058 0.20398-0.01152 0.30166-0.05174 0.2413-0.09767 0.39351-0.27004 0.45672-0.51708 0.16661-0.6492 0.29308-1.307 0.37926-1.9735 0.06894-0.49408-0.14372-0.744-0.6378-0.74975zm4.3521 1.2927c0.39642 0.1149 0.60605 0.40224 0.62902 0.86185 0.01723 0.41365 0.19824 0.70946 0.54296 0.88756a0.56877 0.56877 0 0 0 0.81011-0.33615c0.18385-0.59175 0.5716-0.88181 1.1633-0.87032 0.29875 0 0.48551 0.14359 0.5602 0.43085 0.12639 0.47685 0.13214 0.96517 0.01723 1.465-0.0804 0.36769-0.30445 0.59474-0.67214 0.68092-1.9304 0.45961-3.9268 0.42796-5.9894-0.09485-1.0686-0.27577-1.5081-1.5598-0.96517-2.4647a0.52568 0.50845 33.2 0 1 0.74975-0.1466c0.32174 0.22981 0.54575 0.54304 0.67214 0.93946 0.15512 0.49983 0.47107 0.63478 0.94792 0.40498 0.47686-0.23555 0.74979-0.66072 0.81873-1.2755a0.56877 0.56016 10.8 0 1 0.71526-0.48258zm-12.741 2.5854c-0.39355-0.0072-0.78569 0.0015-1.1764 0.02587-2.6629 0.16374-4.6795-0.06045-5.231 2.7834a0.5343 0.54292 2.4 0 0 0.58592 0.6378c1.6086-0.1781 3.022 0.04592 4.2399 0.67214 0.12639 0.06319 0.25574 0.08334 0.38789 0.06037 0.2298-0.03447 0.3993-0.16095 0.50846-0.37926a0.64633 0.63772 12.5 0 1 0.56019-0.35324l4.7914-0.05174c0.4711-0.0058 0.63772-0.23264 0.49983-0.68076l-0.31012-1.0083c-0.20109-0.64346-0.62625-1.0485-1.2754-1.2151-1.2065-0.30593-2.4-0.46966-3.5807-0.49121zm16.625 2.9415c-0.32378 0.0034-0.64159 0.05422-0.95326 0.15224-0.14363 0.04596-0.20104 0.14366-0.17231 0.29303 0.22406 1.0801 0.82159 1.4536 1.7925 1.1204 0.38492-0.13788 0.6721-0.37645 0.86169-0.71541 0.16661-0.30449 0.08333-0.51412-0.24992-0.62902-0.43628-0.15189-0.86247-0.22567-1.2787-0.22122zm-6.9599 12.976h1.3099a1.4047 1.1203 0.2 0 1 1.4046 1.1289v0.12935a0.23268 0.23268 0 0 1-0.23267 0.23267l-3.6539-0.01724a0.23268 0.23268 0 0 1-0.23267-0.23267v-0.12935a1.4047 1.1203 0.2 0 1 1.4046-1.1116zm11.064 0.07228c1.0049 0.0095 2.0018 0.0968 2.9745 0.35857 0.293 0.08043 0.44522 0.27007 0.45672 0.56882l0.0086 0.28441c6e-3 0.12065-0.05162 0.18093-0.1723 0.18093l-2.2751 0.06036c-0.38493 0.01149-0.54579 0.20672-0.48259 0.58591 0.01146 0.08618 0.04585 0.16085 0.10332 0.22405 0.09766 0.10916 0.21839 0.17535 0.36202 0.19833 2.2148 0.26715 3.7919 1.1462 2.8439 3.766-0.12065 0.35046-0.36482 0.50844-0.7325 0.47396-2.5796-0.21832-5.1306-0.12926-7.6527 0.26716-1.4306 0.22406-2.2233-0.38498-2.3784-1.827l-0.27576-2.5768c-0.1781-1.6374 0.55727-2.4417 2.2061-2.4129 1.6428 0.03232 3.3394-0.16768 5.0142-0.15177zm-26.456 0.09438c1.0009-0.0063 1.7797 0.3173 2.3363 0.97082 0.15512 0.18959 0.23843 0.40801 0.24992 0.65505l0.4136 14.349c0.01723 0.58601-0.26722 0.87046-0.85323 0.85323-0.10341-0.0058-0.20095-0.03452-0.29288-0.08623-0.58026-0.3562-0.86184-0.87331-0.8446-1.5512 0.10916-3.9412 0.02008-8.2127-0.26716-12.815a0.6291 0.6291 0 0 0-0.49983-0.56882l-0.22405-0.04311c-0.45387-0.09192-0.68652 0.09483-0.69801 0.56019l-0.3965 13.59a0.49983 0.49983 0 0 1-0.56004 0.48259l-0.31027-0.04296c-0.51707-0.06894-0.75259-0.36491-0.70663-0.88772 0.07472-0.91348 0.1695-1.8155 0.2844-2.706 0.32748-2.5767-0.09484-5.188 0.18093-7.8595 0.10916-1.0858-0.05171-2.1429-0.48258-3.1713-0.28727-0.68368-0.07765-1.1375 0.62902-1.3615 0.76052-0.2413 1.4411-0.36389 2.0417-0.36766zm24.634 1.2911c-0.19148 0.0044-0.37928 0.04698-0.56348 0.12778-0.36195 0.16086-0.43965 0.4079-0.23283 0.74112 0.18384 0.293 0.55736 0.39358 1.1204 0.30166 0.18384-0.02872 0.31304-0.12642 0.38773-0.29303 0.06894-0.13788 0.09196-0.28723 0.06894-0.44809-0.03447-0.18959-0.14368-0.31303-0.32753-0.37048-0.15333-0.04272-0.30435-0.06241-0.45327-0.05895zm-3.0045 0.18673c-0.12318 0.0035-0.27766 0.05861-0.4633 0.16525a0.49983 0.49983 0 0 0-0.01724 0.84445c0.25279 0.16087 0.51998 0.05741 0.80148-0.31028a0.44812 0.43951 30.9 0 0-0.1723-0.67214c-0.04309-0.01975-0.09264-0.02885-0.14863-0.02729zm-4.3326 1.613a0.81869 1.1806 88.6 0 1 1.2065 0.79286v0.08607a0.16374 0.16374 0 0 1-0.16369 0.16384l-4.0245 0.10332a0.16374 0.16374 0 0 1-0.17246-0.16368v-0.08623a0.81869 1.1806 88.6 0 1 1.1635-0.84445zm10.858 0.43085a1.0083 1.0083 0 0 0-1.0083 1.0083 1.0083 1.0083 0 0 0 1.0083 1.0083 1.0083 1.0083 0 0 0 1.0083-1.0083 1.0083 1.0083 0 0 0-1.0083-1.0083zm-3.4192 0.25415a0.80145 0.81007 14.6 0 0-0.18297 0.02164c-0.20107 0.04596-0.431 0.14078-0.68954 0.28441-0.47686 0.27577-0.56303 0.64337-0.25854 1.103a0.71528 0.67219 82.1 0 0 0.34477 0.27579c0.54004 0.19534 0.99959 0.0834 1.3788-0.33599a0.80145 0.81007 14.6 0 0-0.59249-1.3488zm-3.0884 0.156c-0.02706-3.86e-4 -0.05533 7.42e-4 -0.08497 0.0035-0.2413 0.01723-0.41367 0.13508-0.51708 0.35339-0.15512 0.33897-0.11498 0.64341 0.12057 0.91343a0.43951 0.44812 41 0 0 0.69801-0.05174c0.16087-0.23555 0.22994-0.49395 0.20696-0.77546-0.02085-0.29157-0.16201-0.43933-0.42348-0.44308zm-6.3846 1.865 1.827 0.0345a1.2237 1.0083 1.3 0 1 1.1978 1.0428v0.10332a0.19821 0.19821 0 0 1-0.2068 0.18955l-3.8781-0.08607a0.19821 0.19821 0 0 1-0.18956-0.2068v-0.10348a1.2237 1.0083 1.3 0 1 1.2496-0.9738zm10.405 1.4343c1.4082-0.0076 2.7658 0.43364 4.0728 1.3234 0.31599 0.21257 0.46533 0.51126 0.44809 0.89619l-0.12934 2.7922a0.9221 0.9221 0 0 1-0.6204 0.83598c-0.88475 0.293-1.8241 0.30452-2.8181 0.03449a0.89625 0.88763 20.3 0 0-1.0512 0.48259l-0.1121 0.24129a0.49121 0.49121 0 0 0 0.43946 0.69801l3.697 0.0947c0.45962 0.01149 0.70378 0.24718 0.7325 0.70679l0.0086 0.24129a0.42227 0.41365 1.5 0 1-0.47396 0.43947c-2.5164-0.32173-4.1854-0.03168-5.007 0.87032-0.25278 0.27577-0.50846 0.27865-0.76699 0.0086l-0.5169-0.55139c-0.23556-0.2413-0.52288-0.35626-0.86186-0.34477l-3.6798 0.15506a0.76698 0.75837 11.9 0 0-0.62918 0.40513c-1.0858 2.1803-3.2833 0.86173-4.4123-0.3189-0.15512-0.16087-0.22403-0.3505-0.20679-0.56882l0.20679-3.7056c0.017232-0.29875 0.16946-0.48263 0.45672-0.55157 1.1261-0.27577 2.3067-0.27001 3.5419 0.01724 0.37918 0.08618 0.63198-0.05453 0.75837-0.42222 0.67219-1.9131 1.0858-3.3954 3.4902-3.5333 0.97668-0.05746 1.9189-0.12924 2.8267-0.21542 0.20324-0.01939 0.40543-0.02965 0.60661-0.03073zm-9.1276 1.41a1.6288 0.58601 1.9 0 1 1.6086 0.63968 1.6288 0.58601 1.9 0 1-1.6474 0.53166 1.6288 0.58601 1.9 0 1-1.6085-0.63984 1.6288 0.58601 1.9 0 1 1.6472-0.5315zm11.6 0.04924-5.9975 0.07322c-0.24347 3e-3 -0.43712 0.20133-0.43415 0.4448l0.0017 0.12072c0.0026 0.24347 0.20149 0.43711 0.44496 0.43414l5.9975-0.07338c0.24347-3e-3 0.43712-0.20133 0.43414-0.4448l-0.0017-0.12073c-0.0026-0.24347-0.20133-0.43696-0.4448-0.43398zm-3.165 2.1393a4.6019 0.49983 0.3 0 0-4.602 0.48259v0.24129a4.6019 0.49983 0.3 0 0 4.602 0.51708l3.2403 0.01724a0.13788 0.13788 0 0 0 0.13782-0.13797v-0.96517a0.13788 0.13788 0 0 0-0.13782-0.13781zm-8.6781 1.6023c-0.02301-1e-3 -0.046281-8.89e-4 -0.069804 4.65e-4l-0.10332 0.0059c-0.37654 0.02171-0.66218 0.34232-0.64047 0.71886l0.12997 2.2541c0.021718 0.37654 0.34232 0.66234 0.71886 0.64063l0.10332-0.0059c0.37655-0.02171 0.66218-0.34232 0.64047-0.71886l-0.12998-2.2541c-0.02034-0.35301-0.30353-0.62622-0.64909-0.6411zm2.907 0.22922a0.31886 0.31886 0 0 0-0.25273 0.19363c-0.20683 0.4826-0.24696 0.97092-0.12057 1.465a0.56877 0.56016 80.4 0 0 0.58591 0.42222l3.8522-0.29303c0.18384-0.01149 0.26427-0.10919 0.24129-0.29303l-0.03447-0.31874c-0.01723-0.16661-0.11206-0.24704-0.28441-0.24129-1.442 0.06319-2.7003-0.23277-3.7746-0.88772a0.31886 0.31886 0 0 0-0.2126-0.04704z" style="fill:#e82d12;stroke-width:.86178"/></g></g></svg>
