<svg width="1200" height="1200" version="1.1" viewBox="0 0 1200 1200" xml:space="preserve" xmlns="http://www.w3.org/2000/svg"><defs><clipPath id="clipPath554"><path transform="translate(-737.89 -25.711)" d="m0 330.03h827.3v-330.03h-827.3z"/></clipPath></defs><rect x="3.7936" y="3.7936" width="1192.4" height="1192.4" style="fill:#fff;stroke-linecap:round;stroke-linejoin:round;stroke-width:8;stroke:#000"/><path transform="matrix(1.3053 0 0 -1.3053 1018.9 778.35)" d="m0 0h62.102v273.26h-69.036v-158.09l-105.74 158.09-71.455 0.129c-14.545 3.701-29.822 5.501-46.715 5.501-31.766 0-61.621-8.84-86.328-25.567l-2.178-1.472-2.239 1.376c-27.201 16.728-58.842 24.86-96.706 24.86-31.368 0-57.887-8.349-76.697-24.136-0.573-0.475-1.141-0.953-1.681-1.438-0.448-0.4-0.869-0.785-1.284-1.177-35.069-33.055-22.047-89.737-21.91-90.305l0.032-0.129c0.617-2.159 1.147-4.379 1.584-6.644l0.076-0.328-0.016 3e-3c1.021-5.378 1.54-11.038 1.54-16.902v-0.803c0-46.406-31.297-75.232-81.671-75.232h-35.833v151.27h35.833c23.549 0 43.194-6.34 57.472-18.442 0.972 31.186 13.257 51.627 22.883 62.957-23.243 10.942-50.647 16.483-81.556 16.483h-104.47v-273.26h102.86c33.683 0 63.298 6.71 88.031 19.948 29.315 15.845 45.695 40.028 51.379 49.686 6.803 12.104 11.63 25.41 14.305 39.489l0.819 4.319 4.248-1.146c6.508-1.762 13.759-3.55 22.156-5.467 38.782-8.975 50.603-16.196 50.603-30.902v-0.806c0-7.026-3.532-23.368-36.232-23.368-13.721 0-27.42 2.066-40.764 6.152-13.41-22.967-31.422-38.113-44.046-46.717 24.788-10.492 52.973-16.011 81.992-16.011 34.961 0 63.735 9.019 83.205 26.079l2.397 2.104 2.615-1.826c25.471-17.766 57.002-27.16 91.188-27.16 15.232 0 30.395 1.791 45.071 5.322 10.757 2.862 47.742 13.981 74.016 37.333v98.613h-122.24v-43.54h53.125v-26.732l-1.987-1.185c-12.229-7.287-26.868-10.828-44.766-10.828-33.262 0-60.316 17.022-73.021 45.714l-0.415-0.065-1.016 3.494c-0.103 0.229-0.224 0.587-0.343 0.947l-0.198 0.581c-12.47 36.4-62.145 53.394-78.634 58.1l-0.901 0.24c-6.306 1.694-13.071 3.322-20.115 4.852-38.279 8.683-51.853 14.72-51.853 31.324v0.803c0 10.222 8.441 22.164 32.22 22.164 17.564 0 36.855-4.75 55.778-13.742l3.8-1.808-1.927-3.737c-3.887-7.549-7.103-15.501-9.577-23.705 28.229-7.698 50.418-19.061 66.137-33.857 3.827 41.46 35.681 72.825 75.649 72.825 18.165 0 33.763-3.969 49.079-12.492l2.09-1.166v-49.685h69.119v9.273l7.453-10.844z" clip-path="url(#clipPath554)"/></svg>
