<svg width="1200" height="400" version="1.1" viewBox="0 0 1200 400" xml:space="preserve" xmlns="http://www.w3.org/2000/svg"><g transform="matrix(.81631 0 0 .81631 -.0011049 36.197)">
	<path class="st0" d="m535.52 326.41c-5.54-3.53-12.89-1.89-16.41 3.65-12.68 19.94-50.5 47.49-92.38 47.49-69.74 0-94.48-59.2-94.48-109.9 0-60.99 34.98-125.81 99.81-125.81 19.23 0 34.62 13.04 38.29 32.46 5.6 29.58-16.56 71.71-97.47 103.5-6.11 2.4-9.12 9.3-6.72 15.41s9.31 9.12 15.41 6.72c94.33-37.07 119.78-89.7 112.13-130.06-5.78-30.5-31.13-51.8-61.65-51.8-80.27 0-123.58 77.07-123.58 149.58 0 92.34 59.39 133.67 118.25 133.67h0.01c46.6 0 93.53-28.78 112.44-58.5 3.52-5.54 1.89-12.89-3.65-16.41z"/>
	<path class="st0" d="m721.14 73.97c1.05-0.19 105.83-19.06 201.68-0.03 0.78 0.15 1.56 0.23 2.33 0.23 5.56 0 10.52-3.92 11.65-9.58 1.28-6.44-2.91-12.69-9.35-13.97-100.26-19.9-206.15-0.85-210.61-0.03-6.46 1.19-10.73 7.39-9.54 13.84 1.18 6.46 7.4 10.76 13.84 9.54z"/>
	<path class="st0" d="m820.97 95.94c-6.39-1.54-12.81 2.37-14.36 8.74-14.18 58.29-23.19 151.59-20.09 208.62 0.34 6.34 5.59 11.24 11.86 11.24 0.22 0 0.43-0.01 0.65-0.02 6.55-0.35 11.58-5.96 11.22-12.51-2.99-55.11 5.74-145.31 19.46-201.71 1.56-6.38-2.36-12.81-8.74-14.36z"/>
	<path class="st0" d="m1026.6 118.06c-113.34 0-137.13 147.57-137.13 271.37 0 6.57 5.32 11.89 11.89 11.89s11.89-5.32 11.89-11.89c0-112.95 19.67-247.6 113.36-247.6 29.94 0 53.91 17.16 64.11 45.88 9.19 25.87 7.01 62.35-29.36 91.92-5.09 4.14-5.87 11.63-1.73 16.72s11.63 5.87 16.72 1.73c37.85-30.77 52.28-74.65 36.77-118.32-13.52-38.05-46.67-61.7-86.52-61.7z"/>
	<path class="st0" d="m994.76 252.28c-2.79-5.94-9.86-8.5-15.81-5.71-5.94 2.79-8.5 9.86-5.71 15.81 1.51 3.22 37.62 79.38 98.05 134.9 2.28 2.1 5.17 3.13 8.04 3.13 3.21 0 6.41-1.29 8.76-3.84 4.44-4.83 4.13-12.35-0.71-16.8-56.89-52.27-92.26-126.75-92.62-127.49z"/>
	<path class="st0" d="m1375.5 203c-10.07-82.98-19.58-161.36-83.68-161.36-54.37 0-94.67 58.03-119.78 172.47-1.41 6.41 2.65 12.75 9.06 14.16 6.4 1.4 12.75-2.65 14.16-9.06 27.89-127.11 67.91-153.79 96.56-153.79 40.14 0 49.48 53.06 60.08 140.45 4.57 37.64 9.29 76.57 19.2 110.48 1.52 5.19 6.26 8.56 11.41 8.56 1.1 0 2.23-0.15 3.34-0.48 6.3-1.84 9.92-8.44 8.08-14.74-9.37-32.05-13.98-70-18.43-106.69z"/>
	<path class="st0" d="m1410.2 41.62c-6.54 0.51-11.44 6.23-10.92 12.78 0.01 0.18 1.42 10.19 0 28.4-0.51 6.54 4.38 12.27 10.92 12.78 0.31 0.02 0.63 0.04 0.94 0.04 6.15 0 11.35-4.73 11.84-10.96 1.58-20.12 0.07-31.28 0-32.11-0.51-6.55-6.18-11.45-12.78-10.93z"/>
	<path class="st0" d="m1469.3 52.54c-0.51-6.54-6.18-11.44-12.78-10.92-6.54 0.51-11.44 6.23-10.92 12.78 0.01 0.18 1.42 10.19 0 28.4-0.51 6.54 4.38 12.27 10.92 12.78 0.31 0.02 0.63 0.04 0.94 0.04 6.15 0 11.35-4.73 11.84-10.96 1.58-20.13 0.07-31.29 0-32.12z"/>
	<path class="st0" d="m1289.4 229.3c-28 26.14-76.33 57.29-117.4 72.57-6.15 2.29-9.29 9.13-7 15.29 1.78 4.79 6.32 7.75 11.15 7.75 1.38 0 2.78-0.24 4.14-0.75 46.04-17.13 96.52-50.57 125.33-77.47 4.8-4.48 5.06-12 0.58-16.8-4.47-4.81-12-5.07-16.8-0.59z"/>
	<path class="st0" d="m712.78 228.43c-29.73 21.7-52.34 30.15-80.64 30.15-20.43 0-34.89-5.88-44.2-17.96-29.75-38.6-7.25-136.74 16.18-225.7 1.67-6.35-2.12-12.85-8.47-14.52s-12.85 2.12-14.52 8.47c-27.09 102.85-48.39 199.09-12.02 246.27 13.92 18.06 35.13 27.22 63.03 27.22 33.44 0 60.86-10.06 94.65-34.72 5.3-3.87 6.46-11.31 2.6-16.61-3.88-5.31-11.31-6.47-16.61-2.6z"/>
	<path class="st0" d="m287.17 42.14c-6.45-1.21-12.51 3.23-13.72 9.68-32.68 173.48-77.86 248.92-123.05 248.92-50.43 0-45.59-71.01-43.57-134.34 2.42-69.79 3.63-124.26-45.99-124.26-31.06 0-52.84 30.26-58.09 36.31-4.03 4.84-3.63 12.51 1.21 16.54 4.84 4.44 12.51 3.63 16.94-1.21 10.09-11.7 23.4-27.84 39.94-27.84 27.84 0 24.21 45.18 22.19 99.65-2.42 79.88-2.02 158.95 67.37 158.95 68.58 0 114.98-102.88 146.04-268.29 1.22-6.44-2.81-12.9-9.27-14.11z"/>
</g><style type="text/css">
	.st0{fill:#7CA0BF;}
</style></svg>
