<svg width="1200" height="400" version="1.1" viewBox="0 0 1200 400" xml:space="preserve" xmlns="http://www.w3.org/2000/svg"><g transform="matrix(1.0593 0 0 1.0593 -35.35 -133.67)"><g transform="matrix(.79723 0 0 .79723 179.57 737.3)"><path d="m85.979-501.13c-0.51524 0-1.793 5.1665-2.8379 11.48-11.79 71.245-83.756 98.551-144.58 54.855-16.602-11.927-13.051-12.623-36.609 7.1895-23.859 20.066-23.407 16.506-4.4453 34.908 27.752 26.933 64.44 47.194 99.268 54.82 77.717 17.018 147.79-25.086 170.23-102.28 3.8122-13.113 3.963-16.122 0.90626-18.107-4.9194-3.1958-80.748-42.865-81.937-42.865z" style="fill:#5b4a42"/><path d="m16.389-592.33c-47.158-3.8677-49.755 64.747-3.3984 89.807 10.472 5.6609 31.681 4.0886 39.562-2.9336 28.475-25.37 4.2525-83.558-36.164-86.873z" style="fill:#e71e23"/><path d="m-7.2282-721.86c-0.99638-0.10766-1.6488-0.0601-1.8809 0.17188-0.76261 0.76263 18.232 83.277 22.17 96.307 0.89817 2.9721 5.5682 4.1328 17.529 4.3535 47.555 0.87736 96.67 51.052 105.39 107.67 1.5957 10.357 3.231 19.159 3.6328 19.561 0.40184 0.40184 7.3232 4.3662 15.383 8.8086 20.033 11.042 19.74 11.297 17.822-15.461-6.2109-86.654-59.368-167.19-135.53-205.34-13.763-6.8941-37.549-15.313-44.523-16.066z" style="fill:#85a640"/><path d="m-43.392-725.28c-123.32 0.35543-181.82 153-106.37 277.53 4.735 7.8156 9.3546 13.893 10.268 13.506 4.6381-1.9678 96.675-76.664 96.875-78.623 0.1282-1.2577-4.4968-7.6596-10.277-14.227-49.644-56.399-32.354-154.2 27.393-154.95 5.8417-0.0733 5.8902-3.7692 0.3457-25.842-4.3801-17.437-4.3797-17.436-18.232-17.396z" style="fill:#fbaa0d"/></g><g transform="matrix(.76071 0 0 .76071 187.29 715.38)"><path d="m1280.3-703.86h-124.1c-157.71 1.016-159.65 2.4874-159.65 73.31 0 63.106 10.082 68.766 130.02 72.998 83.502 2.9463 91.334 5.359 86.024 26.514-2.8716 11.442-12.865 12.525-115.48 12.525h-96.409l-2e-4 26.39v26.172h122.41c157.7 0 163.47-4.1777 163.77-73.309 0.2732-64.356-11.479-70.14-152.01-74.812-65.682-2.184-72.601-4.813-65.039-24.701 3.7177-9.7784 5.2711-9.9247 112.07-10.563l96.823-0.57807 0.7922-27.08zm-760.74 0c17.599 41.894 34.926 83.903 52.347 125.87 24.632 59.339 46.068 112.04 46.068 112.04h83.554l49.601-161.63 49.295 161.63h82.746l48.387-116.39c26.612-64.088 49.307-121.52 49.307-121.52h-76.603l-30.37 76.769c-26.527 67.054-30.703 75.891-33.007 69.85-1.4506-3.8038-13.063-38.349-25.806-76.767l-23.167-69.852c2.0792-0.0449-81.691 0-81.691 0s-47.321 140.7-51.425 152.14c-0.81631 2.2761-8.0928-13.286-16.17-34.581-8.0774-21.295-21.408-56.146-29.622-77.447l-14.934-40.114zm-293.45 0v237.91h77.459v-177.44l59.418 0.88813c66.987 1.0015 74.288 3.4251 74.288 24.671 0 19.542-7.4504 21.861-70.236 21.861h-55.172v55.328h68.658c110.02 0 126.49-11.541 126.3-88.524-0.16794-69.199-12.819-74.692-172.03-74.692zm879.71 248.97c-0.5011 0-0.7616 0.25395-1.1762 0.31404h2.3523c-0.4149-0.0602-0.6748-0.31404-1.1761-0.31404z" style="fill:#003368;stroke-width:1.0241"/><path d="m284.81-410.78q0 18.583-10.164 28.028-10.061 9.3427-28.131 9.3427h-20.431v-73.304h22.587q11.088 0 19.199 4.1067t12.525 12.115q4.4147 7.9054 4.4147 19.712zm-9.7534 0.308q0-14.681-7.2894-21.457-7.1867-6.8787-20.431-6.8787h-12.012v57.494h9.9587q29.773 0 29.773-29.157zm45.584-18.891q10.061 0 14.887 4.4147 4.8253 4.4147 4.8253 14.065v37.473h-6.5707l-1.7453-7.8027h-0.41067q-3.5934 4.5174-7.5974 6.6734-3.9013 2.156-10.883 2.156-7.4947 0-12.423-3.9013-4.928-4.004-4.928-12.423 0-8.2134 6.468-12.628 6.468-4.5174 19.917-4.928l9.3427-0.308v-3.2853q0-6.8787-2.9773-9.548t-8.4187-2.6693q-4.312 0-8.2134 1.3347-3.9014 1.232-7.2894 2.8747l-2.772-6.776q3.5933-1.9507 8.5214-3.2853 4.928-1.4373 10.267-1.4373zm2.6693 29.363q-10.267 0.41067-14.271 3.2854-3.9014 2.8747-3.9014 8.1107 0 4.62 2.772 6.776 2.8747 2.156 7.2894 2.156 6.9814 0 11.601-3.7987 4.62-3.9014 4.62-11.909v-4.928zm52.463 20.225q2.0533 0 4.2093-0.308 2.156-0.41067 3.4907-0.82134v6.8787q-1.4373 0.71867-4.1067 1.1293-2.6693 0.51333-5.1334 0.51333-4.312 0-8.008-1.4373-3.5934-1.54-5.852-5.236-2.2587-3.696-2.2587-10.369v-32.032h-7.8027v-4.312l7.9054-3.5933 3.5934-11.704h5.3387v12.628h15.913v6.9814h-15.913v31.827q0 5.0307 2.3613 7.4947 2.464 2.3613 6.2627 2.3613zm39.527-49.588q10.061 0 14.887 4.4147t4.8254 14.065v37.473h-6.5707l-1.7453-7.8027h-0.41067q-3.5933 4.5174-7.5974 6.6734-3.9014 2.156-10.883 2.156-7.4947 0-12.423-3.9013-4.928-4.004-4.928-12.423 0-8.2134 6.468-12.628 6.468-4.5174 19.917-4.928l9.3427-0.308v-3.2853q0-6.8787-2.9774-9.548-2.9773-2.6693-8.4187-2.6693-4.312 0-8.2134 1.3347-3.9014 1.232-7.2894 2.8747l-2.772-6.776q3.5934-1.9507 8.5214-3.2853 4.928-1.4373 10.267-1.4373zm2.6693 29.363q-10.267 0.41067-14.271 3.2854-3.9013 2.8747-3.9013 8.1107 0 4.62 2.772 6.776 2.8747 2.156 7.2894 2.156 6.9814 0 11.601-3.7987 4.62-3.9014 4.62-11.909v-4.928zm56.159 27.617q-7.2894 0-13.039-2.9773-5.6467-2.9773-8.932-9.24-3.1827-6.2627-3.1827-16.016 0-10.164 3.388-16.529 3.388-6.3654 9.1374-9.3427 5.852-2.9774 13.244-2.9774 4.2094 0 8.1107 0.92401 3.9014 0.82133 6.3654 2.0533l-2.772 7.4947q-2.464-0.92401-5.7494-1.7453-3.2854-0.82134-6.16-0.82134-16.221 0-16.221 20.841 0 9.9587 3.9014 15.297 4.004 5.236 11.807 5.236 4.5174 0 7.9054-0.924 3.4907-0.924 6.3654-2.2587v8.008q-2.772 1.4373-6.16 2.156-3.2853 0.82133-8.008 0.82133zm48.459-57.083q7.084 0 12.115 3.08 5.1334 3.08 7.8027 8.7267 2.772 5.544 2.772 13.039v5.4414h-37.679q0.20534 9.3427 4.7227 14.271 4.62 4.8254 12.833 4.8254 5.236 0 9.24-0.924 4.1067-1.0267 8.4187-2.8747v7.9054q-4.2094 1.848-8.316 2.6693-4.1067 0.924-9.7534 0.924-7.8027 0-13.86-3.1827-5.9547-3.1827-9.3427-9.4454-3.2853-6.3654-3.2853-15.503 0-9.0347 2.9773-15.503 3.08-6.468 8.5214-9.9587 5.544-3.4907 12.833-3.4907zm-0.10267 7.392q-6.468 0-10.267 4.2093-3.696 4.1067-4.4147 11.499h28.028q-0.10267-6.9814-3.2853-11.293-3.1827-4.4147-10.061-4.4147zm63.243-7.392q9.856 0 14.887 4.8254 5.0307 4.7227 5.0307 15.4v35.831h-8.932v-35.215q0-13.244-12.32-13.244-9.1374 0-12.628 5.1334-3.4907 5.1334-3.4907 14.784v28.541h-9.0347v-55.03h7.2894l1.3347 7.4947h0.51333q2.6694-4.312 7.392-6.3654 4.7227-2.156 9.9587-2.156zm55.338 49.691q2.0533 0 4.2093-0.308 2.156-0.41067 3.4907-0.82134v6.8787q-1.4373 0.71867-4.1067 1.1293-2.6693 0.51333-5.1334 0.51333-4.312 0-8.008-1.4373-3.5934-1.54-5.852-5.236-2.2587-3.696-2.2587-10.369v-32.032h-7.8027v-4.312l7.9054-3.5933 3.5933-11.704h5.3387v12.628h15.913v6.9814h-15.913v31.827q0 5.0307 2.3613 7.4947 2.464 2.3613 6.2627 2.3613zm39.937-49.691q7.084 0 12.115 3.08 5.1334 3.08 7.8027 8.7267 2.772 5.544 2.772 13.039v5.4414h-37.679q0.20534 9.3427 4.7227 14.271 4.62 4.8254 12.833 4.8254 5.236 0 9.24-0.924 4.1067-1.0267 8.4187-2.8747v7.9054q-4.2094 1.848-8.316 2.6693-4.1067 0.924-9.7534 0.924-7.8027 0-13.86-3.1827-5.9547-3.1827-9.3427-9.4454-3.2853-6.3654-3.2853-15.503 0-9.0347 2.9773-15.503 3.08-6.468 8.5214-9.9587 5.544-3.4907 12.833-3.4907zm-0.10267 7.392q-6.468 0-10.267 4.2093-3.696 4.1067-4.4147 11.499h28.028q-0.10267-6.9814-3.2853-11.293-3.1827-4.4147-10.061-4.4147zm62.421-7.392q1.54 0 3.2854 0.20534 1.848 0.10266 3.1827 0.41066l-1.1293 8.316q-1.3347-0.308-2.9774-0.51333-1.54-0.20534-2.9773-0.20534-4.2094 0-7.9054 2.3613-3.696 2.2587-5.9547 6.468-2.156 4.1067-2.156 9.6507v29.363h-9.0347v-55.03h7.392l1.0267 10.061h0.41066q2.6694-4.5174 6.8787-7.8027 4.2094-3.2854 9.9587-3.2854zm86.24 36.447q0 9.7534-7.084 15.195-7.084 5.4414-19.096 5.4414-6.16 0-11.396-0.924t-8.7267-2.5667v-8.8294q3.696 1.6427 9.1374 2.9774 5.544 1.3347 11.396 1.3347 8.2134 0 12.32-3.1827 4.2094-3.1827 4.2094-8.624 0-3.5933-1.54-6.0574-1.54-2.464-5.3387-4.5174-3.696-2.156-10.369-4.5174-9.3427-3.388-14.168-8.316-4.7227-4.928-4.7227-13.449 0-5.852 2.9773-9.9587 2.9773-4.2094 8.2134-6.468 5.3387-2.2587 12.217-2.2587 6.0574 0 11.088 1.1293 5.0307 1.1293 9.1374 2.9774l-2.8747 7.9054q-3.7987-1.6427-8.316-2.772-4.4147-1.1293-9.24-1.1293-6.8787 0-10.369 2.9773-3.4907 2.8747-3.4907 7.7 0 3.696 1.54 6.16t5.0307 4.4147 9.4454 4.2094q6.468 2.3613 10.883 5.1334 4.5174 2.6693 6.776 6.468 2.3613 3.7987 2.3613 9.548zm39.732-36.447q10.164 0 16.324 7.084 6.2627 7.084 6.2627 21.355 0 14.065-6.2627 21.355-6.16 7.2894-16.427 7.2894-6.3654 0-10.575-2.3613-4.1067-2.464-6.468-5.6467h-0.616q0.20534 1.7453 0.41067 4.4147t0.20533 4.62v22.587h-9.0347v-79.67h7.392l1.232 7.4947h0.41066q2.464-3.5933 6.468-6.0574 4.004-2.464 10.677-2.464zm-1.6427 7.5974q-8.4187 0-11.909 4.7227-3.388 4.7227-3.5934 14.373v1.7453q0 10.164 3.2854 15.708 3.388 5.4414 12.423 5.4414 5.0307 0 8.2134-2.772 3.2853-2.772 4.8253-7.4947 1.6427-4.8254 1.6427-10.985 0-9.4454-3.696-15.092-3.5933-5.6467-11.191-5.6467zm59.855-7.5974q7.084 0 12.115 3.08 5.1334 3.08 7.8027 8.7267 2.772 5.544 2.772 13.039v5.4414h-37.679q0.20534 9.3427 4.7227 14.271 4.62 4.8254 12.833 4.8254 5.236 0 9.24-0.924 4.1067-1.0267 8.4187-2.8747v7.9054q-4.2093 1.848-8.316 2.6693-4.1067 0.924-9.7534 0.924-7.8027 0-13.86-3.1827-5.9547-3.1827-9.3427-9.4454-3.2854-6.3654-3.2854-15.503 0-9.0347 2.9774-15.503 3.08-6.468 8.5214-9.9587 5.544-3.4907 12.833-3.4907zm-0.10266 7.392q-6.468 0-10.267 4.2093-3.696 4.1067-4.4147 11.499h28.028q-0.10267-6.9814-3.2854-11.293-3.1827-4.4147-10.061-4.4147zm58.828 49.691q-7.2894 0-13.039-2.9773-5.6467-2.9773-8.932-9.24-3.1827-6.2627-3.1827-16.016 0-10.164 3.388-16.529 3.388-6.3654 9.1374-9.3427 5.852-2.9774 13.244-2.9774 4.2093 0 8.1107 0.92401 3.9013 0.82133 6.3653 2.0533l-2.772 7.4947q-2.464-0.92401-5.7494-1.7453-3.2853-0.82134-6.16-0.82134-16.221 0-16.221 20.841 0 9.9587 3.9013 15.297 4.004 5.236 11.807 5.236 4.5173 0 7.9054-0.924 3.4907-0.924 6.3653-2.2587v8.008q-2.772 1.4373-6.16 2.156-3.2853 0.82133-8.008 0.82133zm31.827-76.692q2.0534 0 3.5934 1.4373 1.6427 1.3347 1.6427 4.312 0 2.8747-1.6427 4.312-1.54 1.4373-3.5934 1.4373-2.2586 0-3.7986-1.4373t-1.54-4.312q0-2.9774 1.54-4.312 1.54-1.4373 3.7986-1.4373zm4.4147 20.636v55.03h-9.0347v-55.03zm38.295-0.924q10.061 0 14.887 4.4147 4.8254 4.4147 4.8254 14.065v37.473h-6.5707l-1.7454-7.8027h-0.4106q-3.5934 4.5174-7.5974 6.6734-3.9013 2.156-10.883 2.156-7.4947 0-12.423-3.9013-4.928-4.004-4.928-12.423 0-8.2134 6.468-12.628 6.468-4.5174 19.917-4.928l9.3427-0.308v-3.2853q0-6.8787-2.9773-9.548-2.9774-2.6693-8.4187-2.6693-4.312 0-8.2134 1.3347-3.9013 1.232-7.2893 2.8747l-2.7721-6.776q3.5934-1.9507 8.5214-3.2853 4.928-1.4373 10.267-1.4373zm2.6693 29.363q-10.267 0.41067-14.271 3.2854-3.9013 2.8747-3.9013 8.1107 0 4.62 2.772 6.776 2.8747 2.156 7.2894 2.156 6.9813 0 11.601-3.7987 4.62-3.9014 4.62-11.909v-4.928zm43.12 26.591h-9.0347v-78.027h9.0347zm22.073-75.666q2.0533 0 3.5933 1.4373 1.6427 1.3347 1.6427 4.312 0 2.8747-1.6427 4.312-1.54 1.4373-3.5933 1.4373-2.2587 0-3.7987-1.4373t-1.54-4.312q0-2.9774 1.54-4.312 1.54-1.4373 3.7987-1.4373zm4.4147 20.636v55.03h-9.0347v-55.03zm53.284 39.835q0 8.008-5.9547 12.115t-16.016 4.1067q-5.7494 0-9.9587-0.924-4.1067-0.924-7.2894-2.5667v-8.2134q3.2854 1.6427 7.9054 3.08 4.7227 1.3347 9.548 1.3347 6.8787 0 9.9587-2.156 3.08-2.2587 3.08-5.9547 0-2.0533-1.1293-3.696-1.1294-1.6427-4.1067-3.2853-2.8747-1.6427-8.316-3.696-5.3387-2.0533-9.1374-4.1067t-5.852-4.928-2.0533-7.392q0-6.9814 5.6466-10.78 5.7494-3.7987 14.989-3.7987 5.0307 0 9.3427 1.0267 4.4147 0.92401 8.2134 2.6693l-3.08 7.1867q-3.4907-1.4373-7.2894-2.464t-7.8027-1.0267q-5.544 0-8.5213 1.848-2.8747 1.7453-2.8747 4.8254 0 2.2587 1.3347 3.9014 1.3346 1.54 4.4146 3.08 3.1827 1.4373 8.4187 3.4907 5.236 1.9507 8.9321 4.004 3.696 2.0533 5.6466 5.0307 1.9507 2.8747 1.9507 7.2894zm31.724 8.8294q2.0533 0 4.2093-0.308 2.156-0.41067 3.4907-0.82134v6.8787q-1.4373 0.71867-4.1067 1.1293-2.6693 0.51333-5.1333 0.51333-4.312 0-8.0081-1.4373-3.5933-1.54-5.852-5.236-2.2586-3.696-2.2586-10.369v-32.032h-7.8027v-4.312l7.9053-3.5933 3.5934-11.704h5.3386v12.628h15.913v6.9814h-15.913v31.827q0 5.0307 2.3614 7.4947 2.464 2.3613 6.2627 2.3613zm54.516-8.8294q0 8.008-5.9547 12.115t-16.016 4.1067q-5.7494 0-9.9587-0.924-4.1067-0.924-7.2894-2.5667v-8.2134q3.2854 1.6427 7.9054 3.08 4.7227 1.3347 9.548 1.3347 6.8787 0 9.9587-2.156 3.08-2.2587 3.08-5.9547 0-2.0533-1.1293-3.696-1.1294-1.6427-4.1067-3.2853-2.8747-1.6427-8.316-3.696-5.3387-2.0533-9.1374-4.1067t-5.852-4.928-2.0533-7.392q0-6.9814 5.6466-10.78 5.7494-3.7987 14.989-3.7987 5.0307 0 9.3427 1.0267 4.4147 0.92401 8.2134 2.6693l-3.08 7.1867q-3.4907-1.4373-7.2894-2.464t-7.8027-1.0267q-5.544 0-8.5213 1.848-2.8747 1.7453-2.8747 4.8254 0 2.2587 1.3346 3.9014 1.3347 1.54 4.4147 3.08 3.1827 1.4373 8.4187 3.4907 5.236 1.9507 8.9321 4.004 3.696 2.0533 5.6466 5.0307 1.9507 2.8747 1.9507 7.2894z" style="fill:#003368;stroke-linecap:round;stroke-linejoin:round" aria-label="Datacenter Specialists"/></g></g></svg>
