<svg width="1200" height="400" version="1.1" viewBox="0 0 1200 400" xmlns="http://www.w3.org/2000/svg">
	<g transform="translate(-1054.1 -188.43)">
		<path d="m1156.9 275.18-102.8 228.24h78.286l22.35-49.423 17.614-44.795 29.225-73.007 28.792 73.007 18.053 44.795 22.335 49.423h77.869l-100.68-228.24zm954.86 179.71v-180.58h-78.129v228.23h220.47v-47.655zm-331.29 47.655h237.75v-39.233l-158.35 0.14141v-47.914l141.53-0.22803v-46.469l-141.53 0.22802v-48.59l158.35-0.14907v-46.021h-237.75zm-267.66-174.09h86.606l0.1238 174.97h78.844l-0.1356-174.97h78.852v-55.016h-244.29zm-79.888-53.272h-70.524v228.24h214.4v-47.482h-143.88z" style="fill:#1d1d1b"/>
	</g>
</svg>
