<svg width="1200" height="400" version="1.1" viewBox="0 0 1200 400" xml:space="preserve" xmlns="http://www.w3.org/2000/svg"><g transform="translate(1755.2 337.43)"><g transform="matrix(3.0775,0,0,3.0775,-1887.7,-36.57)"><g transform="matrix(1.0627,0,0,1.0627,-13.673,2.0544)"><g transform="matrix(.93086 0 0 .93086 13.303 -88.471)"><path d="m104.38 15.42q-0.51 1.34-1.07 1.43-3.31 1.67-5.3 5.81-3.01 4.19-4.74 9.86-2.5 8.22-1.92 16.1-0.35 8.69 3.16 16.15a0.64 0.63 70.1 0 1-0.41 0.89q-8.1 2.09-16.54 2.62-1.64 0.1-1.94 1.57 0.11-1.27-1.12-1.42-1.63-0.2-3.24-0.05a0.8 0.79 89.1 0 1-0.86-0.84l1.16-20.19 1.37-5.31 0.37-2.13q0.92-1.05 1.43-3l5.58-11.75c2.23-2.58 3.83-5.64 6.14-8.03q1.69-1.75 3.26-3.57 1.71-1.99-0.51-0.58-6.91 4.39-13.27 12.03-5.5 6.03-7.74 13.78l-3.72 8.2-3.68 21.25-16.73-4.44a1.27 1.27 0 0 1-0.94-1.17c-0.99-21.52 9.9-41.16 27.91-52.3 15.7-9.71 34.89-10.58 51.9-3.26q2.6 1.12-0.23 1.23c-6.22 0.23-13.89 2.47-18.32 7.12z" fill="#1799d6"/><g fill="#9bc63e"><path d="m109.72 15.36q-0.63-0.16-1.24 0.01-0.45 0.13-0.42-0.34 0.03-0.31 0.25-0.48 6.15-4.53 13.78-4.68c9.2-0.18 9.65 7.36 7.22 14.09a0.88 0.87 28.9 0 1-1.36 0.39q-8.32-6.47-18.23-8.99z"/><path d="m108.08 19.67 9.75 0.03q12.73 5.34 20.15 17.79a2.02 2.02 0 0 1-1.04 2.94l-1.45 0.53a1.23 1.23 0 0 0-0.75 1.55l0.71 2.07a0.35 0.35 0 0 1-0.34 0.46l-0.39-0.02a0.34 0.32-4.2 0 1-0.32-0.26q-0.64-3.42-3.83-3.82a0.48 0.48 0 0 0-0.46 0.74q1.4 2.07 2.15 5.03c0.4 1.57-0.96 4.49-2.44 5.18q-1.63 0.77-3.27 1.53-0.52 0.24-1.05 0.02-0.49-0.2-1.03-0.24a1.32 1.31-19.7 0 0-1.05 2.21q1.59 1.71 1.96 3.61a1.99 1.97-23 0 1-0.82 2.01q-2.01 1.37-2.5 0.49-1.48-2.6-3.69-1.71a0.29 0.29 0 0 1-0.4-0.32q0.34-2.19-1.59-2.75a1.61 1.61 0 0 1-0.88-0.66l-1.96-3.03a1.72 1.72 0 0 0-2.27-0.57q-3.92 2.15-6.58 5.31-0.37 0.43-0.41 0.99-0.14 1.97-0.65 3.2-0.95 2.3-2.24 0.16-1.63-2.7-2.53-6.79c-0.27-1.21-0.9-1.75-1.97-2.21a2.14 2.09 81.7 0 1-0.84-0.64q-1.81-2.35-4.7-3.88-0.58-7.88 1.92-16.1 1.73-5.67 4.74-9.86 0.75 0.98 2.35-1.53 0.27-0.43 0.78-0.5z"/><path d="m80.31 25.16-5.58 11.75q-4.07-0.5-6.54 1.88 2.24-7.75 7.74-13.78z"/><path d="m139.63 36.61c5.01-0.93 15 0.14 11.65 8.1q-2.22 5.28-5.85 8.87a0.73 0.73 0 0 1-1.23-0.42q-1.13-8.03-5.02-15.63a0.64 0.64 0 0 1 0.45-0.92z"/><path d="m73.3 39.91-0.37 2.13-3.77 0.93q-0.97 0.24-1.1-0.75l-0.11-0.75q-0.12-0.88 0.76-0.99z"/></g><path d="m135.82 85.33-2.32-7.34c-0.25-3.04-1.95-5.95-3.06-8.81l-1.67-3.86q0.86-0.98 2.38-0.94 0.48 0.01 0.91-0.2 2.41-1.17 4.8-2.45 12.03-6.48 16.76-17.84 0.61-1.49 1.06 0.05c3.5 11.97 2.77 25.78-1.87 37.4q-7.99 20.02-27.4 30.33-0.46 0.24-0.56-0.27-0.07-0.33 0.13-0.59 6.26-8.4 8.27-16.53c0.51-2.07 0.76-3.88 2.49-5.38 7.83-6.81 14.89-15.63 17.97-25.1q1.02-3.14-0.65-0.29-5.42 9.25-14.18 17.12-1.44 1.3-3.06 4.7z" fill="#1799d6"/><path d="m139.31 43.42a0.03 0.03 0 0 1 0.04-0.01 1.91 1.89-47.2 0 1 0.09 2.69l-0.03 0.03a1.91 1.89-47.2 0 1-2.68 0.12 0.03 0.03 0 0 1 0-0.05z" fill="#fdfed3" style="fill:#9bc63e"/><g fill="#9bc63e"><path d="m71.56 47.35-1.16 20.19a0.8 0.79 89.1 0 0 0.86 0.84q1.61-0.15 3.24 0.05 1.23 0.15 1.12 1.42-2.05 3.21 0.02 6.84 0.44 0.78 0.16 3.55a0.73 0.72 86.2 0 1-0.55 0.64q-0.86 0.2-1.57 0.68a0.93 0.92-23 0 0-0.39 0.96c0.87 4.28-3.77 9.33-7.25 3.49q-3.04-5.1-3.87-8.51-0.51-2.06-1.38-9.26l3.68-21.25q3.32-0.67 7.09 0.36z"/><path d="m119.71 66.76q-0.59-2.26-1.74-4.43a0.07 0.07 0 0 1 0.03-0.09l0.24-0.12q0.26-0.13 0.38 0.13 0.78 1.71 2.25 2.88 1.39 1.11 0.63 2.76-0.22 0.48-0.03 0.96l1.72 4.22q0.2 0.49 0.72 0.52 1.98 0.13 3.83 0.58 0.78 0.2 0.01 0.41-4.26 1.19-7.07-2.64-2.13-2.92-4.6-5.89-0.23-0.27 0.08-0.56a0.53 0.52 41.3 0 1 0.68-0.04l2.28 1.7q0.86 0.65 0.59-0.39z"/><ellipse transform="rotate(65.2,2.5635,113.82)" rx="1.07" ry=".76"/><path d="m128.77 65.32 1.67 3.86q-0.86 0.58-1.31 1.61-0.23 0.51-0.79 0.52-1.49 0.03-2.61-0.83a1.73 1.73 0 0 1-0.02-2.73z"/><path d="m133.5 77.99 2.32 7.34-8.03 4.54a0.79 0.79 0 0 1-1.18-0.61l-0.39-4.23q-0.05-0.52 0.34-0.86z"/><path d="m82.35 79.88-1.42 5.67a0.85 0.85 0 0 1-0.33 0.48l-0.74 0.53a0.85 0.85 0 0 1-1.35-0.68l-0.05-4.51a0.85 0.85 0 0 1 0.34-0.69l2.21-1.69a0.85 0.85 0 0 1 1.34 0.89z"/></g><path d="m78.49 107.66c9.78 3.63 22.51 2.75 32.42 0.42q2.44-0.57 0.8 1.32-2.81 3.25-5.99 6.36-1.64 1.6-3.93 1.67-22.19 0.6-39.57-14.6-0.83-0.72 0.27-0.65c8.49 0.53 16.8-1.01 25-3q16.37-3.98 31.14-12.3a0.4 0.39 74.2 0 1 0.58 0.33c0.17 2.95 0.1 5.92-0.85 8.78q-0.67 2-1.16 4.1-0.1 0.45-0.46 0.74-0.75 0.6-1.67 0.95c-9.93 3.83-20.39 6.1-30.57 5.72q-2.81-0.1-5.91-0.29-1.57-0.09-0.1 0.45z" fill="#1799d6"/><path d="m77.59 98.79c-2.29 2.17-11.71 1.47-14.83 1.07-6.65-0.85-1.62-9.73 0.44-12.65a0.49 0.49 0 0 1 0.8 0q4.44 6.02 11.22 10.59 1.26 0.84 2.8 0.57 0.67-0.11 0.09 0.24-0.08 0.04-0.17 0.04-0.2 0-0.35 0.14z" fill="#9bc63e"/></g><g transform="matrix(.98569 0 0 .98569 -6.4814 -93.428)" fill="#211f20"><path d="m210.53 34.77c-0.8 0.36-1.33 1.25-2.22 1.61q-4.71 1.91-8.13-1.69c-5.16-5.43-5.06-14.29 1.13-18.8q3.95-2.88 8.62-0.48a0.79 0.79 0 0 0 1.14-0.61q0.28-2.39-1.98-3.21a1.37 1.37 0 0 1-0.64-2.11c1.9-2.58 7.29-3.22 10.04-3.26a1.05 1.05 0 0 1 1.07 1.05q0.08 11.05 0.09 21.79 0.01 1.85 1.6 3.23 0.67 0.58 0.4 1.42c-0.88 2.77-6.15 3.09-8.56 3.22q-1.58 0.08-1.51-1.45 0.07-1.22-1.05-0.71zm-2.1405-3.0435a6.35 2.66 91.9 0 0 2.869-6.2583 6.35 2.66 91.9 0 0-2.448-6.4347 6.35 2.66 91.9 0 0-2.869 6.2583 6.35 2.66 91.9 0 0 2.448 6.4347z"/><path d="m187.32 21.55c2.69 1.75 6.81 3.57 7.41 7.15 0.96 5.78-3.88 9.32-9.22 8.24q-2.45-0.5-4.9-0.34a1.26 1.24 70.1 0 1-1.11-0.53q-2.21-3.14-2.01-6.25a1.45 1.44 25.9 0 1 2.52-0.87l2.66 2.98q1.05 1.17 2.48 0.53 0.79-0.35 0.39-1.66a1.24 1.22-83.5 0 0-0.54-0.69c-4.19-2.48-8.13-5.51-6.32-11.02q1.71-5.17 7.44-4.58 2.69 0.27 5.56 0.01 0.41-0.04 0.7 0.24c1.26 1.22 3.2 4.6 2.16 6.47a1.89 1.88 35.3 0 1-2.91 0.49l-2.97-2.67q-0.74-0.66-1.53-0.06-0.31 0.24-0.45 0.59-0.47 1.25 0.64 1.97z"/><path d="m212.31 65.77q1.72 0.8 1.44 2.42a1.45 1.44 78.1 0 1-0.64 0.99c-2.45 1.65-9.81 1.69-12.2-0.26a1.66 1.66 0 0 1 0.29-2.76c0.99-0.51 1.4-1.63 1.47-2.69q0.46-6.96 0.09-14.01c-0.09-1.61-1-2.83-2.24-3.8a1.95 1.94-49 0 1-0.2-2.89c2.23-2.29 6.95-3.04 9.92-3.32a1.65 1.65 0 0 1 1.8 1.76q-0.86 11.81-0.46 23.45a1.26 1.26 0 0 0 0.73 1.11z"/><path d="m250.44 50.09c3.72-2.93 7.61-3.64 10.71 0.39q3.24 4.2 1.62 10.76c-2.04 8.28-11.09 12.14-18.09 6.64q-0.5-0.39-1.1-0.16l-1.76 0.68a1.06 1.05 85.8 0 1-1.41-1.22c1.34-5.87 0.83-12.46 0.81-18.5-0.01-1.39-0.72-2.17-1.92-2.7a1.75 1.75 0 0 1-0.62-2.73c2.19-2.58 6.79-3.54 9.97-3.82a1.22 1.21-1.3 0 1 1.32 1.25l-0.3 9.02q-0.03 1.03 0.77 0.39zm1.816 16.536a6.19 2.54 88 0 0 2.3225-6.2748 6.19 2.54 88 0 0-2.7545-6.0976 6.19 2.54 88 0 0-2.3225 6.2748 6.19 2.54 88 0 0 2.7545 6.0976z"/><path d="m288.43 66.27c1.43-1.06 1.64-1.74 1.73-3.52q0.22-4.47 0.15-9.17c-0.06-3.47 0.29-5.84-2.21-7.7a2.22 2.22 0 0 1 0.15-3.66q4.17-2.6 9.68-2.68a1.46 1.45-88.5 0 1 1.47 1.55q-0.78 12.11-0.51 23.34a1.68 1.67-78.7 0 0 0.98 1.48c1.41 0.64 2.03 2.35 0.51 3.29-3.01 1.87-8.82 1.26-11.53 0.2a1.81 1.8 37.4 0 1-0.42-3.13z"/><path d="m184.64 62.44q-0.76-0.07-0.87 0.69-0.05 0.34 0.06 0.65 0.25 0.69 0.95 0.89c1.98 0.55 5.11 0.02 7.17-0.28 3.83-0.56 7.46 0.97 7.23 5.36-0.43 8.29-10.57 9.72-17.18 8.34-3.54-0.74-7.73-4.82-3.71-8.04q0.72-0.58 0.04-1.21c-3.26-2.99-1.1-4.95 1.14-7.19q0.5-0.5 0.01-1.02c-6.58-7 2.01-13.43 8.89-12.57 3.43 0.43 5.79 1.62 8.7-1.24a1.1 1.1 0 0 1 1.8 0.41q0.76 2.11-0.66 4.04c-1.66 2.26-0.76 4.62-2.12 6.94-2.13 3.63-7.59 4.59-11.45 4.23zm2.9502-3.0001a4.16 2.3 86 0 0 2.0042-4.3103 4.16 2.3 86 0 0-2.5846-3.9895 4.16 2.3 86 0 0-2.0042 4.3103 4.16 2.3 86 0 0 2.5846 3.9895zm3.3898 12.21-8.27-0.28a0.2 0.2 0 0 0-0.21 0.2l-0.01 0.37a3.65 2.67 1.9 0 0 3.56 2.79l1.38 0.04a3.65 2.67 1.9 0 0 3.73-2.55l0.01-0.37a0.2 0.2 0 0 0-0.19-0.2z"/><path d="m235.21 51.444a11.78 11.13-40.6 0 1-1.7011 16.117 11.78 11.13-40.6 0 1-16.187-0.7846 11.78 11.13-40.6 0 1 1.7011-16.117 11.78 11.13-40.6 0 1 16.187 0.7846zm-7.6774 13.595a6.28 2.3 79.2 0 0 1.0825-6.5998 6.28 2.3 79.2 0 0-3.4361-5.7378 6.28 2.3 79.2 0 0-1.0825 6.5998 6.28 2.3 79.2 0 0 3.4361 5.7378z"/><path d="m275.59 56.03q0.05-2.03-0.59-3.69a1.33 1.33 0 0 0-2.28-0.34l-2.86 3.61a2.1 2.1 0 0 1-2.72 0.5c-2.91-1.72-1.11-4.75 0.94-6.02 6.8-4.19 16.63-3.4 16 6.82q-0.21 3.39 0.38 6.47a0.88 0.86-79.1 0 0 0.37 0.56l1.33 0.85a0.69 0.69 0 0 1 0.29 0.78c-1.18 4.01-6.14 6.92-9.41 3.04a0.92 0.92 0 0 0-1.29-0.11q-3.67 3.13-7.73 1.37c-3.98-1.73-4.71-6.96-1.68-9.9q2.84-2.76 7.88-2.63 1.34 0.03 1.37-1.31zm-1.8097 9.5411a2.51 1.59 98.7 0 0 1.9514-2.2406 2.51 1.59 98.7 0 0-1.192-2.7216 2.51 1.59 98.7 0 0-1.9514 2.2406 2.51 1.59 98.7 0 0 1.192 2.7216z"/><path d="m249.81 89.44a0.55 0.55 0 0 0 0.9 0.11c1.19-1.33 2.21-2.96 4.08-3.38 5.03-1.11 8 2.36 8.08 7.08q0.09 4.81 0.32 9.33c0.05 1.02 0.61 1.72 1.24 2.47a1.79 1.79 0 0 1-0.88 2.86q-5.09 1.47-9.87-0.04a1.42 1.41 23.1 0 1-0.82-2.03q2.3-4.21 1.11-10.92-0.2-1.11-0.94-1.88a2 1.99 24.5 0 0-3.42 1.28q-0.19 3.57-0.1 7.72c0.03 1.56 0.78 2.36 1.37 3.67q0.23 0.53-0.08 1.02c-1.78 2.78-8.49 1.95-11.1 1.16a1.96 1.96 0 0 1-0.85-3.23c1.94-2.04 1.78-4.04 1.86-6.77q0.17-5.93-0.05-11.68-0.07-1.81-1.64-2.76a1.53 1.53 0 0 1-0.4-2.27c2.02-2.52 6.92-3.11 9.99-3.5a0.96 0.95-2.9 0 1 1.07 0.96q-0.08 4.88-0.15 9.64-0.01 0.62 0.28 1.16z"/><path d="m329.27 103.91 1.23 0.92a1.17 1.17 0 0 1 0.46 1.06q-0.25 2.14-2.51 2.43c-3.17 0.41-7.3 0.7-10.18-0.85a1.67 1.67 0 0 1-0.12-2.86c0.9-0.6 1.49-1.35 1.57-2.47q0.44-6.05 0.3-12.53c-0.03-1.65-0.14-3.73-1.54-4.87q-0.74-0.6-1.25-1.37a1.98 1.97 57.3 0 1 0.6-2.76q4.04-2.54 9.74-2.83a1.53 1.53 0 0 1 1.6 1.63q-0.75 11.92-0.39 23.56 0.02 0.59 0.49 0.94z"/><ellipse transform="rotate(-13.3,541.09,-1610.6)" rx="5.65" ry="3.35"/><path d="m179.43 90.74-2.27 0.01q-0.55 0-0.67-0.54-0.27-1.25 0.01-2.34 0.11-0.43 0.47-0.7 4.2-3.01 8.37-5.95 1.53-1.08 3.3-0.5a0.82 0.82 0 0 1 0.57 0.78l0.02 3.74a0.75 0.74 89.3 0 0 0.76 0.75l3.87-0.06q1.21-0.01 1.15 1.19l-0.11 2.58q-0.04 1.04-1.09 1.04l-4 0.02a0.54 0.54 0 0 0-0.54 0.52q-0.17 4.39 0.11 9.08 0.1 1.72 1.66 1.87c1.17 0.11 1.7-0.84 2.78-0.96a0.77 0.76 71.9 0 1 0.74 0.38c2.12 3.62-2.43 6.11-5.32 6.75-11.48 2.54-9.28-10.81-9.3-17.15a0.51 0.51 0 0 0-0.51-0.51z"/><path d="m364.16 100.72q-1.17-0.07-0.93 1.08 0.13 0.6 0.64 0.94 0.79 0.54 1.75 0.51c4.18-0.14 11.7-2.93 12.92 3.6q0.38 2.06-0.52 3.89c-2.77 5.63-9.06 6.53-14.81 5.97-4.03-0.4-10.26-4.3-5.35-8.48q0.52-0.45 0.03-0.94-3.82-3.74 0.75-6.96 0.91-0.65 0.17-1.49c-2.37-2.66-3.12-6.09-0.68-8.94 3.83-4.49 8.94-3.91 14.22-2.79q0.62 0.13 1.17-0.19l3.53-2.02a0.69 0.69 0 0 1 0.83 0.12c1.75 1.77-0.16 4.52-1.18 6.25a1.84 1.82-33.4 0 0-0.23 1.09c0.8 6.76-6.99 8.67-12.31 8.36zm2.8073-2.9873a4.17 2.3 86.6 0 0 2.0487-4.2991 4.17 2.3 86.6 0 0-2.5433-4.0263 4.17 2.3 86.6 0 0-2.0487 4.2991 4.17 2.3 86.6 0 0 2.5433 4.0263zm3.4027 12.147-8.35-0.24a0.2 0.2 0 0 0-0.21 0.2l-0.01 0.34a4.04 2.8 1.6 0 0 3.96 2.91l0.68 0.02a4.04 2.8 1.6 0 0 4.12-2.69l0.01-0.34a0.2 0.2 0 0 0-0.2-0.2z"/><path d="m205.04 98.26a0.62 0.61-10.1 0 0-0.58 0.82q1.22 3.52 4.64 3.54c1.51 0.01 2.62-0.88 3.89-1.55a1.66 1.65 74.4 0 1 2.42 1.37q0.12 2.01-1.37 3.28c-5.8 4.94-14.5 3.75-17.17-3.8-2.95-8.32 2.94-17.77 12.38-15.57q5.13 1.19 6.77 6.9c0.54 1.88 0.35 5.04-2.37 5.01q-4.44-0.04-8.61 0zm-0.6-6.29a1.37 1.37 0 0 0 1.26 2.07l1.82-0.12a1.37 1.37 0 0 0 1.2-1.84l-0.39-1.07a1.37 1.37 0 0 0-0.93-0.84l-0.63-0.17a1.37 1.37 0 0 0-1.53 0.62z"/><path d="m227.56 91.81c-3.13 2.21-1.65 6.88 0.79 8.84 2.15 1.72 4 0.6 6.35-0.18a1.12 1.12 0 0 1 1.19 0.32c2.96 3.33-2.07 6.9-4.96 7.52q-8.15 1.78-12.07-5.11c-2.59-4.53-1.75-10.87 2.29-14.45 4.57-4.04 14.06-4.11 16.19 2.71 0.91 2.92-1.52 6.27-4.73 5.33-1.71-0.5-2.14-2.93-2.82-4.39a1.51 1.5 59.7 0 0-2.23-0.59z"/><path d="m313.46 89.865a11.79 11.14-39.6 0 1-1.9835 16.099 11.79 11.14-39.6 0 1-16.185-1.0683 11.79 11.14-39.6 0 1 1.9835-16.099 11.79 11.14-39.6 0 1 16.185 1.0683zm-7.7839 13.514a6.3 2.31 79.2 0 0 1.0886-6.6213 6.3 2.31 79.2 0 0-3.4496-5.7555 6.3 2.31 79.2 0 0-1.0886 6.6213 6.3 2.31 79.2 0 0 3.4496 5.7555z"/><path d="m352.49 89.913a11.78 11.14-39.4 0 1-2.0319 16.085 11.78 11.14-39.4 0 1-16.174-1.1312 11.78 11.14-39.4 0 1 2.0319-16.085 11.78 11.14-39.4 0 1 16.174 1.1312zm-7.8387 13.418a6.27 2.31 79.3 0 0 1.1057-6.5899 6.27 2.31 79.3 0 0-3.4339-5.7321 6.27 2.31 79.3 0 0-1.1057 6.5899 6.27 2.31 79.3 0 0 3.4339 5.7321z"/><path d="m381.58 101.85q0.39-4.16-0.01-8.22a1.19 1.18-73.9 0 0-0.44-0.81l-1.39-1.14a1.43 1.43 0 0 1-0.24-1.97c1.87-2.45 7.04-3.26 9.79-3.61a1.17 1.17 0 0 1 1.31 1.16l0.08 14.67q0 0.69 0.46 1.2l1.54 1.7q0.4 0.44 0.24 1-0.6 2.07-2.7 2.42c-2.45 0.4-9.89 1.3-10.84-2.28q-0.14-0.56 0.21-1c0.79-0.99 1.86-1.78 1.99-3.12z"/><path d="m402.62 99.91 0.95 1.33a3.41 3.37-19.4 0 0 2.98 1.41q2.39-0.16 4.43-1.61a1.35 1.34-29.1 0 1 2.02 0.57c0.68 1.62 0.1 3.26-1.22 4.3-5.16 4.08-12.62 3.89-16.17-2.12-3.74-6.32-1.25-14.67 5.62-17.18 6.74-2.46 13.16 2.36 12.83 9.61a2.12 2.11 1.1 0 1-2.11 2.02l-8.48 0.02q-2.02 0.01-0.85 1.65zm0.42-5.93 2.92-0.06a0.76 0.76 0 0 0 0.74-0.77v-0.12a3.12 2.08 88.9 0 0-2.14-3.08h-0.28a3.12 2.08 88.9 0 0-2.02 3.16v0.12a0.76 0.76 0 0 0 0.78 0.75z"/><path d="m422.95 104.27q0.61-0.08 0.79-0.63 0.36-1.15-0.64-1.82c-3.45-2.31-7.02-4.13-6.76-9.03 0.29-5.59 4.89-7.63 9.82-6.47q0.77 0.18 1.55 0.04l1.67-0.32q0.57-0.1 0.99 0.3 2.16 2.11 2.55 5.36a1.8 1.79 76.1 0 1-1.13 1.88c-1.93 0.77-3.79-1.76-5.13-2.89a1.16 1.15 41.7 0 0-1.59 0.09l-0.19 0.19a1.34 1.34 0 0 0 0.24 2.03q2.61 1.7 4.97 3.28c4.59 3.07 3.51 10.07-1.71 11.92-3.16 1.11-6.42-0.16-9.73 0.08q-0.63 0.04-1.01-0.46-2.26-2.96-2.14-6.53a1.23 1.22 3.7 0 1 1.35-1.18c1.35 0.14 2.85 2.35 3.73 3.31q0.96 1.05 2.37 0.85z"/><path d="m276.77 89.19a0.51 0.51 0 0 0 0.86 0.32c1.12-1.09 1.92-2.63 3.5-3.03 9.68-2.47 9.04 8.4 9.05 14.09 0 1.69 0.53 3.21 1.5 4.58a1.69 1.68-27.7 0 1-0.8 2.55q-4.14 1.53-9.55 0.49a1.81 1.81 0 0 1-1.26-2.62q2.24-4.26 1.16-10.73-0.33-1.98-2.21-2.18a1.84 1.84 0 0 0-2.03 1.61c-0.38 3.1-0.81 7.9 0.79 10.76a1.95 1.95 0 0 1-1.12 2.81c-2.1 0.67-10.46 1.94-10.68-1.59-0.09-1.57 1.53-2.21 1.65-3.86q0.28-3.87 0.14-8.3-0.02-0.55-0.4-0.95l-1.29-1.34a1.59 1.58-38.2 0 1 0.29-2.43q3.93-2.52 9.15-3.23a0.9 0.9 0 0 1 1.02 0.81z"/></g></g></g></g></svg>
