<svg width="1200" height="400" version="1.1" viewBox="0 0 1200 400" xmlns="http://www.w3.org/2000/svg">
	<path id="foreground" d="m55.314 359.37v22.5h-6.5626v-20.625c0-5.6251-2.8125-9.3751-7.5001-9.3751-6.5626 0-9.3751 5.6251-10.313 13.125v16.875h-6.5626v-20.625c0-5.6251-2.8125-9.3751-7.5001-9.3751-6.5626 0-10.312 5.6251-11.25 13.125v16.875h-5.6251v-34.688h5.6251v5.6251c3.75-3.75 7.5001-6.5626 13.125-6.5626s9.3751 2.8125 11.25 8.4376c2.8125-4.6876 7.5001-9.3751 13.125-9.3751 7.5001 0 12.187 6.5626 12.187 15zm25.312-14.062c6.5626 0 12.188 3.75 14.063 9.3751v-9.3751h5.6251v37.5h-5.6251v-9.3751c-1.875 5.6251-7.5001 9.3751-14.063 9.3751-10.312 0-18.75-8.4376-18.75-18.75 0-10.312 8.4376-18.75 18.75-18.75m0 31.875c7.5001 0 13.125-5.6251 13.125-13.125s-5.6251-13.125-12.188-13.125c-7.5001 0-13.125 5.6251-13.125 13.125 0 6.5626 5.6251 13.125 13.125 13.125zm46.876-15.937 15.937 20.625h-7.5001l-13.125-15.938-5.6251 5.6251v10.312h-6.5626v-53.438h6.5626v34.687l17.813-16.875h9.3751zm22.5-25.312c0-1.875 0.93751-2.8125 2.8125-2.8125s3.75 0.93751 3.75 2.8125c0 2.8125-1.875 3.75-3.75 3.75a3.75 3.75 0 0 1-3.75-3.75zm5.6251 46.876h-5.6251v-37.5h5.6251zm44.063-21.562v20.625h-6.5626v-18.75c0-9.3751-3.75-12.187-9.3751-12.187-8.4376 0-12.188 7.5001-12.188 13.125v18.75h-5.6251v-37.5h5.6251v6.5626a18.75 18.75 0 0 1 14.063-6.5626c9.3751 0 14.062 5.6251 14.062 15.938m39.375 26.25c0 7.5001-7.5001 12.188-15.938 12.188s-15.938-4.6876-15.938-12.188c0-3.75 2.8125-6.5626 5.6251-7.5001-1.875-1.875-3.75-2.8125-3.75-4.6876 0-2.8125 1.875-4.6876 3.75-5.6251-2.8125-1.875-5.6251-6.5626-5.6251-11.25 0-7.5001 6.5626-13.125 15-13.125 2.8125 0 4.6876 0 7.5001 1.875l9.3751-0.9375v5.6251h-4.6876c1.875 0.93751 2.8125 3.75 2.8125 6.5626 0 8.4376-6.5626 14.062-15 14.062h-5.6251l-1.875 0.9375c0 2.8125 2.8125 2.8125 7.5001 2.8125 9.3751 0 16.875 4.6876 16.875 11.25m-25.312-28.125c0 4.6876 3.75 7.5001 9.3751 7.5001 3.75 0 8.4376-2.8125 8.4376-8.4376 0-4.6876-3.75-8.4376-9.3751-8.4376a9.3751 9.3751 0 0 0-9.3751 9.3751zm18.75 28.125c0-4.6876-4.6876-5.6251-12.187-5.6251h-1.875c-2.8125 0-4.6876 2.8125-4.6876 5.6251 0 4.6876 3.75 6.5626 9.3751 6.5626s9.3751-1.875 9.3751-6.5626zm70.313-26.25v20.625h-6.5626v-18.75c0-9.3751-3.75-12.187-9.3751-12.187-8.4375 0-11.25 7.5001-11.25 13.125v18.75h-6.5626v-54.376h6.5626v23.438c2.8125-3.75 7.5-6.5626 14.062-6.5626 7.5002 0 13.125 5.6251 13.125 15.938m42.188 4.6876h-30c0 6.5626 5.6251 11.25 13.125 11.25 5.6251 0 9.3751-2.8125 10.312-6.5626l5.6251 0.9375c-1.8751 4.6876-6.5626 11.25-15.938 11.25-11.25 0-18.75-8.4376-18.75-18.75 0-10.312 7.5002-18.75 17.813-18.75 10.312 0 17.812 9.3751 17.812 18.75zm-30-4.6876h24.375c0-5.6251-5.6251-10.312-12.188-10.312-6.5626 0-11.25 4.6876-12.188 10.312m54.376-15.938c6.5626 0 12.188 3.75 15 9.3751v-9.3751h5.6251v37.5h-5.6251v-9.3751c-2.8123 5.6251-8.4375 9.3751-15 9.3751-9.3751 0-18.75-8.4376-18.75-18.75 0-10.312 9.3751-18.75 18.75-18.75m0.93746 31.875c7.5 0 13.125-5.6251 13.125-13.125s-5.6252-13.125-13.125-13.125-13.125 5.6251-13.125 13.125c0 6.5626 5.6252 13.125 13.125 13.125zm35.625-48.751h-6.5626v53.438h6.5626zm25.313 23.437h-7.5v30h-5.6251v-30h-5.6252v-5.6251h5.6252v-11.25h5.6251v12.187h7.5v5.6251zm40.312 9.3751v20.625h-5.6249v-18.75c0-9.3751-3.7502-12.187-9.3751-12.187-9.3751 0-12.188 7.5001-12.188 13.125v18.75h-5.6251v-54.376h5.6251v23.438c3.75-3.75 8.4375-6.5626 14.062-6.5626 8.4377 0 13.125 5.6251 13.125 15.938m26.25-10.312c-6.5626 0-13.125 5.6251-13.125 13.125a13.125 13.125 0 0 0 23.438 8.4376v5.6251c-2.8125 2.8125-6.5628 4.6876-11.25 4.6876a18.75 18.75 0 0 1-18.75-18.75c0-10.312 8.4377-18.75 18.75-18.75 4.6874 0 9.3751 1.875 11.25 4.6876v5.6251c-2.8125-2.8125-5.6251-4.6876-9.3751-4.6876m33.75-5.6251c7.5 0 12.188 3.75 15 9.3751v-9.3751h5.6249v37.5h-5.6249v-9.3751c-2.8125 5.6251-7.5002 9.3751-15 9.3751-9.3751 0-17.812-8.4376-17.812-18.75 0-10.312 7.5-18.75 18.75-18.75m0 31.875c7.5002 0 13.125-5.6251 13.125-13.125 0-7.5001-5.625-13.125-13.125-13.125-6.5626 0-12.187 5.6251-12.187 13.125 0 6.5626 5.625 13.125 12.187 13.125zm47.814-30v4.6875h-4.6874c-5.6251 0-7.5002 5.6251-7.5002 12.187v18.75h-6.5626v-37.5h5.6251v5.6251c2.8125-3.75 5.6251-5.6251 9.3751-5.6251 1.8749 0 3.75 0 3.75 1.875m39.375 18.75h-30c0 6.5626 4.6874 11.25 12.188 11.25 5.6249 0 9.3751-2.8125 11.25-6.5626l5.6252 0.9375a18.75 18.75 0 0 1-16.875 11.25c-10.312 0-18.75-8.4376-18.75-18.75 0-10.312 7.5-18.75 18.75-18.75 9.3751 0 17.812 9.3751 17.812 18.75zm-30-4.6876h23.437c0-5.6251-4.6874-10.312-11.25-10.312-7.5002 0-12.188 4.6876-12.188 10.312zm115.31-1.875v22.5h-6.5626v-20.625c0-5.6251-2.8123-9.3751-7.5-9.3751-6.5626 0-9.3751 5.6251-10.312 13.125v16.875h-6.5626v-20.625c0-5.6251-2.8125-9.3751-7.5-9.3751-6.5626 0-10.313 5.6251-10.313 13.125v16.875h-6.5626v-34.688h5.6251v5.6251c3.75-3.75 7.5-6.5626 13.125-6.5626s9.3751 2.8125 11.25 8.4376c2.8125-4.6876 7.5-9.3751 13.125-9.3751 7.5 0 12.187 6.5626 12.187 15m6.5626 3.75c0-10.312 9.3751-18.75 18.75-18.75a18.75 18.75 0 0 1 18.75 18.75 18.75 18.75 0 0 1-18.75 18.75 18.75 18.75 0 0 1-18.75-18.75zm31.875 0c0-7.5001-5.625-13.125-12.187-13.125-7.5002 0-13.125 5.6251-13.125 13.125 0 6.5626 5.6251 13.125 13.125 13.125 6.5626 0 12.187-5.6251 12.187-13.125zm32.812-16.875-0.93746 4.6876h-3.75c-5.6251 0-8.4377 5.6251-8.4377 12.187v18.75h-4.6874v-37.5h5.6251v5.6251c2.8123-3.75 4.6874-5.6251 8.4375-5.6251 1.8751 0 3.75 0 4.6876 1.875m37.5 18.75h-30c0 6.5626 5.6252 11.25 13.125 11.25 5.6251 0 9.3751-2.8125 10.312-6.5626l5.6251 0.93751c-0.93745 4.6876-6.5626 11.25-15.938 11.25-11.25 0-18.75-8.4376-18.75-18.75 0-10.312 7.5002-18.75 18.75-18.75 9.3751 0 16.875 9.3751 16.875 18.75zm-30-4.6876h24.375c0-5.6251-4.6875-10.312-12.187-10.312-6.5626 0-11.25 4.6876-12.188 10.312zm78.751-15.937c6.5626 0 12.188 3.75 14.063 9.3751v-9.3751h6.5626v37.5h-5.6251v-9.3751c-2.8126 5.6251-8.4377 9.3751-15 9.3751-10.312 0-18.75-8.4376-18.75-18.75 0-10.312 8.4377-18.75 18.75-18.75m0 31.875c8.4377 0 14.063-5.6251 14.063-13.125s-5.6251-13.125-13.125-13.125c-7.5002 0-13.125 5.6251-13.125 13.125 0 6.5626 5.6252 13.125 13.125 13.125zm46.876-26.25a13.125 13.125 0 1 0 0 26.25c3.75 0 7.5-1.875 9.3751-4.6876v5.6251c-1.8751 2.8125-5.6251 4.6876-10.313 4.6876a18.75 18.75 0 0 1-18.75-18.75c0-10.312 8.4375-18.75 18.75-18.75 4.6876 0 8.4376 1.875 11.25 4.6876v5.6251c-2.8126-2.8125-6.5626-4.6876-10.312-4.6876m35.625 0c-6.5626 0-12.188 5.6251-12.188 13.125a13.125 13.125 0 0 0 22.5 8.4376v5.6251c-2.8126 2.8125-6.5626 4.6876-11.25 4.6876a18.75 18.75 0 0 1-18.75-18.75c0-10.312 9.3749-18.75 18.75-18.75 4.6876 0 9.3751 1.875 11.25 4.6876v5.6251c-2.8126-2.8125-5.6252-4.6876-9.3752-4.6876m51.564 15h-29.062c0 6.5626 4.6874 11.25 12.188 11.25 5.625 0 9.3751-2.8125 11.25-6.5626l4.6876 0.93751c-0.93761 4.6876-6.5626 11.25-15.938 11.25-10.313 0-18.75-8.4376-18.75-18.75 0-10.312 7.5-18.75 18.75-18.75 9.3751 0 17.812 9.3751 17.812 18.75v1.875zm-29.062-4.6876h23.437c0-5.6251-4.6875-10.312-12.188-10.312-6.5626 0-11.25 4.6876-11.25 10.312m41.25 11.25c0 2.8125 3.75 5.6251 9.3749 5.6251 3.7502 0 6.5625-1.875 6.5625-4.6876 0-4.6876-3.7499-5.6251-11.25-8.4376-4.6874-1.875-9.3751-4.6876-9.3751-9.3751 0-6.5626 5.6252-10.312 11.25-10.312 7.5 0 13.125 4.6876 13.125 9.3751h-5.6252c0-2.8125-3.7499-4.6876-6.5626-4.6876-3.7499 0-6.5624 1.875-6.5624 4.6876 0 3.75 3.7499 4.6876 10.312 7.5001 7.5001 1.875 11.25 5.6251 11.25 11.25s-5.6251 9.3751-14.063 9.3751c-7.5 0-14.062-3.75-15-10.312zm32.812 0c0.9374 2.8125 4.6875 5.6251 9.3751 5.6251 4.6875 0 7.5-1.875 7.5-4.6876 0-4.6876-3.7499-5.6251-11.25-8.4376-5.6249-1.875-9.3749-4.6876-9.3749-9.3751 0-6.5626 4.6874-10.312 11.25-10.312 7.5001 0 12.188 4.6876 13.125 9.3751h-6.5625c0-2.8125-2.8126-4.6876-6.5626-4.6876-2.8125 0-5.6251 1.875-5.6251 4.6876 0 3.75 2.8126 4.6876 10.312 7.5001 6.5626 1.875 10.313 5.6251 10.313 11.25s-5.6252 9.3751-13.125 9.3751c-8.4377 0-14.063-3.75-15-10.312zm30-36.562c0-1.875 0.9375-2.8125 2.8127-2.8125 2.8125 0 3.7499 0.93751 3.7499 2.8125 0 2.8125-0.9374 3.75-3.7499 3.75a3.75 3.75 0 0 1-2.8127-3.75zm6.5626 46.876h-6.5626v-37.5h6.5626zm30 0c-7.5 0-12.188-3.75-15-9.3751v9.3751h-5.6251v-54.376h5.6251v25.312c2.8123-4.6876 7.5-9.3751 15-9.3751 9.3751 0 17.813 9.3751 17.813 19.687a18.75 18.75 0 0 1-18.75 18.75zm-1.8749-31.875c-6.5626 0-12.188 5.6251-12.188 13.125 0 6.5626 5.625 13.125 12.188 13.125 7.5 0 13.125-5.6251 13.125-13.125s-5.6252-13.125-13.125-13.125zm32.812-22.5h-5.6252v53.438h5.6252zm44.062 37.5h-30c0 6.5626 4.6875 11.25 12.188 11.25 6.5625 0 9.3751-2.8125 11.25-6.5626l5.625 0.93751a18.75 18.75 0 0 1-16.875 11.25c-10.312 0-18.75-8.4376-18.75-18.75 0-10.312 7.5-18.75 18.75-18.75 9.3751 0 17.812 9.3751 17.812 18.75zm-30-4.6876h23.438c0-5.6251-4.6875-10.312-11.25-10.312-7.5003 0-12.188 4.6876-12.188 10.312zm-890.63-317.81v-43.125h-265.31v139.69h11.25c0 23.437 7.5001 45 18.75 63.751l-30 28.125v42.188h265.31v-138.75h-12.188c0-24.375-7.5001-46.876-18.75-64.689l30-28.125zm-71.251 90.001h-28.125l25.312-24.375c1.875 8.4376 2.8125 15.938 2.8125 24.375zm-113.44 76.876a159.37 159.37 0 0 0 28.125 39.375 112.5 112.5 0 0 1-46.876-22.5zm7.5001-2.8125h40.313v45h-5.6251c-14.062-13.125-26.25-28.125-34.688-45zm4.6876-9.3751 35.625-31.875v32.812h-34.688zm44.063 9.3751h40.312a150 150 0 0 1-34.688 45h-5.6251zm49.689 0h36.562c-15.938 20.625-39.375 37.5-66.563 42.188 12.188-12.188 22.5-27.188 30-42.188zm-4.6876-9.3751h-45v-38.437l18.75-16.875h38.438a140.62 140.62 0 0 1-12.188 56.251m-60.001-175.31h5.6251v45h-39.375c8.4376-16.875 20.625-32.812 34.688-45zm-43.125 44.063h-36.562c16.875-21.563 39.375-37.5 66.563-43.125a160.31 160.31 0 0 0-30 43.125m93.751 8.4376-35.625 31.875v-31.875zm-35.625-9.3751v-44.063h5.6251c15 13.125 26.25 28.125 34.688 45.938h-40.312zm19.687-42.188a112.5 112.5 0 0 1 46.876 23.437l-18.75 16.875a159.37 159.37 0 0 0-28.125-40.312m-119.06 51.563h37.5a168.75 168.75 0 0 0-12.188 56.251h-43.125c0-20.625 6.5626-40.312 16.875-56.251zm46.876 0h45v39.375l-18.75 17.812h-40.313c0.9375-20.625 4.6876-39.375 14.062-58.126zm-12.188 65.626h28.125l-25.312 23.438c-1.875-7.5001-2.8125-15.938-2.8125-23.438m157.5 56.251h-38.437c7.5001-16.875 11.25-37.5 12.188-56.251h43.125c0 20.625-6.5626 40.312-16.875 56.251m-210.94-55.313h43.125c0 9.3751 1.875 19.687 3.75 30l-28.125 24.375a116.25 116.25 0 0 1-16.875-56.251zm225.94-9.3751h-43.125c0-9.3751-1.875-18.75-3.75-29.063l30-28.125c10.312 17.812 16.875 37.5 16.875 58.126zm190.31-7.5001h-100.31l-2.8125-5.6251 85.314-101.25-20.625-1.875c-24.375 0-39.375 6.5626-53.438 25.312l-6.5626-1.875 14.062-30.937h90.001l1.8749 6.5626-86.251 100.31 23.437 1.875c27.187 0 49.688-4.6876 62.813-30l5.6251 1.875-14.062 35.625zm164.06-116.25v5.6251h-1.8751c-4.6874 0-9.3751 0-12.188 5.6251-2.8125 3.75-1.8749 11.25-1.8749 15.938v52.501c0 13.125-1.8751 21.563-13.125 30.937a65.626 65.626 0 0 1-35.625 8.4376 65.626 65.626 0 0 1-35.625-7.5001c-14.063-9.3751-15.938-18.75-15.938-31.875v-52.501c0-12.187 1.8749-20.625-13.125-21.562h-2.8125v-5.6251h52.501v5.6251h-3.75c-4.6876 0-10.312 0-13.125 5.6251-2.8125 3.75-1.8751 11.25-1.8751 15.938v41.25c0 9.3751-1.8749 22.5 3.75 30 7.5002 9.3751 20.625 12.187 31.875 12.187 10.312 0 23.437-2.8125 30-11.25 5.6251-9.3751 5.6251-21.563 5.6251-31.875v-39.375c0-12.187 0-20.625-15-21.562h-2.8125v-6.5626h44.062zm132.19 30.937-5.625 1.875a63.751 63.751 0 0 0-54.376-25.312c-4.6876 0-13.125 0-17.813 2.8125-3.75 3.75-4.6874 8.4376-4.6874 13.125v26.25h12.188c18.75 0 21.562-3.75 24.375-20.625h5.6251v50.626h-5.6251a28.125 28.125 0 0 0-4.6874-15c-4.6876-6.5626-12.188-6.5626-19.687-6.5626h-12.188v33.75c0 2.8125 0 9.3751 2.8125 11.25 3.75 4.6876 13.125 5.6251 18.75 5.6251 28.125 0 44.063-11.25 60.939-30.938l5.6251 1.875-16.875 36.562h-105v-5.6251h1.8751c4.6874 0 9.3751 0 12.188-5.6251 1.8749-3.75 1.8749-11.25 1.8749-15.938v-62.813c0-10.312 0.93764-19.688-14.062-20.625h-1.8751v-5.6251h103.13zm119.06 85.313h-93.751v-5.6251h0.93745c4.6876 0 9.3751 0 12.188-5.6251 2.8125-3.75 1.8751-11.25 1.8751-15.938v-60.939c0-11.25 1.8749-20.625-13.125-21.562h-1.8751v-6.5626h49.688v5.6251c-4.6874 0-10.312 0-13.125 5.6251-2.8125 3.75-1.8749 11.25-1.8749 15.938v65.626c0 3.75 0 9.3751 1.8749 12.187 1.8751 3.75 9.3751 4.6876 13.125 4.6876 24.375 0 42.188-15 54.376-31.875l4.6876 1.875-14.063 36.562zm119.06 0h-93.751v-5.6251h1.8749c4.6876 0 9.3751 0 12.188-5.6251 1.8751-3.75 1.8751-11.25 1.8751-15.938v-60.939c0-11.25 0.93751-20.625-13.125-21.562h-2.8125v-6.5626h52.501v5.6251h-1.8751c-5.625 0-11.25 0-13.125 5.6251-2.8125 3.75-2.8125 11.25-2.8125 15.938v65.626c0 3.75 0 9.3751 1.875 12.187 2.8126 3.75 9.3752 4.6876 14.062 4.6876 23.438 0 41.25-15 54.376-31.875l4.6874 1.875-14.062 36.562zm43.126-90.001c0-11.25 0.9374-19.688-13.125-20.625h-1.8751v-5.6251h48.75v5.6251h-1.8749c-14.063 0.93751-13.125 9.3751-13.125 20.625v62.813c0 11.25-1.8751 20.625 12.187 21.562h2.8126v5.6251h-48.75v-5.6251h2.8125c14.062-0.93749 12.188-9.3751 12.188-21.562zm170.62 10.312-7.5 1.875c-10.312-15.938-25.312-32.812-46.876-32.812-30 0-40.313 29.062-40.313 52.501 0 11.25 2.8125 23.437 9.3751 33.75 7.5 11.25 18.75 18.75 33.75 18.75 17.812 0 36.562-9.3751 36.562-28.125 0-12.188-6.5626-15-18.75-16.875v-4.6876h50.626v4.6876h-1.8751c-3.7501 0.93751-9.3751 1.875-11.25 5.6251-2.8126 4.6876-1.8752 12.188-1.8752 15.938v28.125h-9.3751l-5.6251-11.25a63.751 63.751 0 0 1-40.312 15c-37.5 0-62.813-27.187-62.813-60.938 0-15 4.6874-30 15-41.25 11.25-12.188 28.125-18.75 45-18.75a65.626 65.626 0 0 1 35.625 10.312l3.75-8.4376h5.6251zm-815.63 192.19c0 4.6876 0 11.25 1.8751 15 1.8749 5.6251 8.4375 5.6251 13.125 5.6251h3.75v5.6251h-52.501v-4.6876h0.93745c5.6251 0 10.312-1.875 13.125-5.6251 1.8751-4.6876 1.8751-11.25 1.8751-15.937v-62.813c0-11.25 0-20.625-14.063-21.563h-1.8749v-3.75h59.063c10.312 0 21.563 0 30 5.6251a28.125 28.125 0 0 1 15.938 26.25c0 9.3751-4.6874 18.75-13.125 25.312a56.251 56.251 0 0 1-32.812 7.5001h-25.313v24.375zm22.5-30.938c9.3751 0 16.875 0 23.437-6.5626 5.6251-5.625 7.5002-12.188 7.5002-18.75 0-8.4376-2.8125-15-9.3751-20.625-5.6251-4.6876-14.063-5.6251-21.563-5.6251-4.6874 0-15.938 0-19.687 2.8125-2.8125 1.875-2.8125 7.5001-2.8125 10.312v38.437zm82.501-31.875c0-11.25 1.8749-20.625-13.125-21.562h-2.8123v-3.75h51.564v4.6876h-1.8751c-5.6251 0-10.312 0.93751-13.125 5.6251-1.8751 3.75-1.8751 11.25-1.8751 15.938v23.438h65.626v-23.438c0-11.25 0-20.625-14.063-21.562h-2.8125v-4.6876h50.626v4.6876h-1.8751c-4.6874 0-9.3751 0.93751-12.187 5.6251-2.8125 3.75-1.8751 11.25-1.8751 15.938v62.813c0 11.25-1.8751 19.688 13.125 20.625h2.8125v5.6251h-50.626v-4.6876h1.8751c4.6874 0 9.3751-0.9375 12.188-5.625 2.8125-4.6876 1.8749-11.25 1.8749-15.938v-32.812h-65.626v31.875c0 11.25 0 19.688 14.062 20.625h3.7502v5.6251h-51.564v-4.6876h1.8749c4.6876 0 9.3751-0.93752 13.125-5.6251 1.8751-4.6876 0.93765-12.187 0.93765-15.937zm242.81 62.813c4.6876 10.312 6.5626 20.625 21.563 21.563v4.6876h-52.501v-4.6876c6.5626-0.93752 14.062-1.875 14.062-9.3751a28.125 28.125 0 0 0-1.8749-9.3751l-9.3751-18.75h-45.937l-3.7502 12.188a46.876 46.876 0 0 0-4.6874 14.062c0 8.4376 7.5 9.3751 15.938 11.25v4.6876h-48.751v-4.6876h2.8125c8.4375-2.8125 11.25-4.6875 15.938-12.188l12.187-26.25 30-72.188h16.875zm-30.937-24.375-18.75-50.626-19.687 50.626zm173.44 32.812a28.125 28.125 0 0 0 20.625 13.125v4.6876h-30l-40.312-54.376h-25.313v28.125c0 11.25-0.93746 20.625 14.062 21.563h3.7502v4.6875h-53.439v-4.6875h1.8751c5.625 0 10.312-0.93752 13.125-5.6251 2.8125-4.6876 1.8749-11.25 1.8749-15.937v-62.813c0-12.188 1.8751-20.625-14.062-21.563h-2.8125v-3.75h72.188c20.625 0 43.125 5.6251 43.125 29.062 0 18.75-15.938 28.125-33.75 30l29.062 38.437zm-47.814-44.062c7.5002 0 15.938 0 23.438-4.6876 6.5626-4.6876 9.3751-11.25 9.3751-18.75 0-19.687-17.813-23.438-34.688-23.438-4.6876 0-15.938 0-20.625 2.8125-4.6876 1.875-4.6876 4.6876-4.6876 9.3751v34.688zm147.19 61.876-42.188-106.87v80.626c0 4.6876 0 11.25 1.8749 15 2.8125 5.6251 8.4376 5.6251 13.125 5.6251h3.7502v5.6251h-46.876v-4.6876h2.8125c4.6874 0 10.312-0.93752 13.125-5.6251 1.8751-3.75 1.8751-11.25 1.8751-15.937v-62.813c0-11.25 0.93741-20.625-14.063-21.563h-2.8126v-3.75h43.125l34.687 87.188 37.5-87.188h42.188v4.6876h-1.8751c-4.6874 0-9.3749 0.93751-13.125 5.6251-1.875 3.75-1.875 11.25-1.875 15.938v62.813c0 11.25-0.9377 19.688 14.062 20.625h2.8125v5.6251h-51.563v-4.6876h1.8751c4.6874 0 9.3751-0.93751 12.187-5.6251 1.8751-4.6876 1.8751-11.25 1.8751-15.938v-76.876l-45.937 103.12h-7.5001zm211.87-26.25c3.75 10.312 6.5625 20.625 21.563 21.562v4.6876h-51.564v-4.6876c6.5626-0.93751 14.062-1.875 14.062-9.3751a18.75 18.75 0 0 0-2.8125-9.3751l-7.5001-18.75h-46.876l-5.6251 12.188c-0.9375 3.75-3.75 9.3751-3.75 14.062 0 8.4376 7.5 9.3751 15.938 11.25v4.6876h-48.75v-4.6876h1.8749c9.3751-2.8125 12.188-4.6876 16.875-12.188l11.25-26.25 31.875-71.251h16.875l37.5 89.063zm-30-24.375-20.625-50.626-19.688 50.626z" fill="currentColor" style="stroke-width:9.3751"/>
</svg>
