<svg width="1200" height="400" version="1.1" viewBox="0 0 1200 400" xml:space="preserve" xmlns="http://www.w3.org/2000/svg"><g transform="matrix(6,0,0,6,0,80)" clip-rule="evenodd" fill-rule="evenodd" style="fill:none"><path d="M 0,23.767 V 34.545 H 191.569 C 196.82,30.757 200,24.372 200,15.06 V 0 H 23.637 C 9.9,0 0,7.326 0,23.767 Z" fill="#009aa9"/><path d="m191.57 34.545h-191.57v5.455h176.69c5.965 0 10.537-2.409 14.878-5.455z" fill="#e42313"/><path d="m168.99 23.117c0-1.31-2.434-1.653-5.378-1.936-5.215-0.523-7.44-2.215-7.44-5.66 0-3.53 2.692-5.556 7.388-5.556 0.39-0.01 4.064 0.07 5.32 0.151l0.035 2e-3c1.779 0.138 2.718 0.82 2.718 1.978 0 1.122-0.855 1.847-2.176 1.847-1.449 0-3.134-0.154-5.212-0.154-3.649 0-4.153 0.796-4.153 1.656 0 1.226 0.833 1.612 4.456 2.066 5.937 0.739 8.362 2.347 8.362 5.555 0 1.504-0.476 2.937-1.863 4.044-1.407 1.122-3.505 1.691-6.238 1.691-2.425 0-4.96-0.031-6.938-0.406-1.111-0.219-1.775-0.938-1.775-1.929 0-1.123 0.825-1.821 2.15-1.821 1.116 0 3.401 0.36 5.999 0.36 3.284 0 4.745-0.582 4.745-1.888zm-125.33 2.768c0.683 1.772 2.31 2.916 4.149 2.916 1.909 0 3.572-1.18 4.143-3.04l4.05-13.16a2.038 2.038 0 0 0-1.33-2.544 2.01 2.01 0 0 0-2.524 1.341l-4.001 13.007c-0.064 0.21-0.2 0.34-0.357 0.34-0.153 0-0.292-0.123-0.368-0.332l-3.364-8.721c-0.508-1.323-1.142-2.968-3.011-2.968-1.866 0-2.5 1.645-3.009 2.968l-3.362 8.723c-0.077 0.207-0.215 0.33-0.37 0.33-0.158 0-0.293-0.13-0.357-0.34l-4.001-13.007a2.008 2.008 0 0 0-2.524-1.341 2.04 2.04 0 0 0-1.33 2.544l4.05 13.16c0.575 1.87 2.244 3.04 4.143 3.04 1.838 0 3.467-1.144 4.15-2.916l2.61-6.774zm72.609-6.507c0-3.43 2.548-5.826 6.196-5.826 3.647 0 6.194 2.397 6.194 5.826 0 3.437-2.547 5.835-6.194 5.835-3.648 0-6.196-2.398-6.196-5.835zm-3.539 3e-3c0 5.46 4.282 9.42 10.179 9.42 5.895 0 10.175-3.96 10.175-9.42 0-5.456-4.28-9.417-10.175-9.417-5.897 0-10.179 3.961-10.179 9.417zm-31.859-9.6v13.156c0 3.837 2.2 5.864 6.36 5.864 0.815 0 1.574-0.079 2.19-0.227 1.373-0.293 2.07-0.941 2.07-1.926 0-0.99-0.581-1.897-2.156-1.799-0.174 0.01-1.584 0.152-2.053 0.152-2.106 0-2.537-1.129-2.537-2.82v-7.522h4.1c1.538 0 2.352-0.638 2.352-1.848 0-1.143-0.879-1.825-2.353-1.825h-4.1v-1.181c0-1.538-0.74-2.532-1.888-2.532-1.206 0-1.985 0.985-1.985 2.508zm69.361 8.7v7.8c0 1.53 0.808 2.52 2.057 2.52 1.013 0 2.033-0.787 2.033-2.547v-8.33c0-4.836-3.621-7.96-9.227-7.96-5.685 0-9.357 3.124-9.357 7.96v8.357c0 1.53 0.806 2.52 2.057 2.52 1.013 0 2.031-0.787 2.031-2.547v-7.774c0-3.13 1.764-4.719 5.241-4.719 3.495 0 5.165 1.553 5.165 4.719zm-56.088 7.985c0 0.991 0.666 1.71 1.777 1.929 1.977 0.375 4.512 0.406 6.939 0.406 2.732 0 4.83-0.569 6.236-1.69 1.387-1.108 1.863-2.54 1.863-4.045 0-3.208-2.423-4.816-8.361-5.555-3.623-0.454-4.458-0.84-4.458-2.066 0-0.86 0.505-1.656 4.156-1.656 2.075 0 3.763 0.154 5.209 0.154 1.324 0 2.177-0.725 2.177-1.847 0-1.157-0.939-1.84-2.716-1.978l-0.036-2e-3c-1.256-0.08-4.929-0.161-5.321-0.151-4.695 0-7.388 2.025-7.388 5.557 0 3.444 2.225 5.136 7.442 5.659 2.942 0.283 5.378 0.626 5.378 1.936 0 1.305-1.464 1.888-4.745 1.888-2.599 0-4.883-0.36-6-0.36-1.327 0-2.152 0.698-2.152 1.821zm-32.742-7.031v-0.079c0-3.418 2.492-5.804 6.061-5.804 4.02 0 6.329 2.097 6.329 5.752 0 3.53-2.612 5.91-6.329 5.91-3.57 0-6.06-2.376-6.06-5.78zm13.408 8.682c0.376 0.392 0.903 0.61 1.484 0.61 1.167 0 1.921-0.993 1.921-2.528v-6.755c0-5.934-3.822-9.48-10.226-9.48-5.868 0-10.128 3.946-10.128 9.38 0 5.39 4.174 9.457 9.706 9.457 3.232 0 5.448-1.436 6.623-2.663l0.06 0.066c0 1.025 0.137 1.467 0.56 1.913z" fill="#fefefe"/></g></svg>
