<svg width="1200" height="400" version="1.1" viewBox="0 0 1200 400" xml:space="preserve" xmlns="http://www.w3.org/2000/svg"><g transform="matrix(1.0082 0 0 1.0082 -12.99 -74.161)"><circle cx="233.05" cy="271.94" r="198.38" style="fill:#1b488c;stroke-linecap:round;stroke-linejoin:round;stroke-width:1.2696"/><g fill="#fff"><path d="m252.87 91.477q0.89669-1.3214 2.4541-1.0288 0.56633 0.11327 0.53801 0.68904l-0.39643 8.3156q-0.0377 0.75511-0.78342 0.87781-1.0855 0.1699-1.8878-0.40587a1.2742 1.2365 13 0 1-0.50025-0.77399c-1.1799-5.6067-5.6822-7.8248-10.902-6.7771q-3.1714 0.6324-4.9648 3.7189c-3.6528 6.3052-4.0682 19.925 6.3429 20.133q1.7368 0.0378 3.3697-0.60409a1.3592 1.3686 85.6 0 0 0.83062-0.96276q0.42475-1.8783 0.2926-4.0021c-0.13214-2.3031-1.8594-2.1992-3.5584-2.5107q-0.66072-0.12271-0.57577-0.78343l0.16047-1.3026a0.72679 0.73623 5.2 0 1 0.76454-0.64184l14.092 0.72679q1.1421 0.0566 1.1043 1.1987l-0.0189 0.74567q-0.0283 0.93445-0.96277 0.88726-2.9638-0.12271-3.1148 2.6429-0.16046 3.0016-0.24541 6.3618a0.62296 0.62296 0 0 1-0.6324 0.60408q-4.172-0.0566-8.2968 0.66072c-5.4651 0.94389-11.761 0.0755-15.867-3.8227-6.711-6.3712-5.4085-18.538 2.1332-23.588 5.3707-3.5868 13.601-3.6528 19.425-0.09439q0.72679 0.44363 1.1987-0.26429z" style="stroke-width:.94389"/><path d="m209.46 92.184c0.33036-0.47194 0.52857-1.1327 1.01-1.4725q0.67016-0.45306 1.4064-0.1227 0.43418 0.19822 0.52857 0.67016l1.5197 7.6455q0.10383 0.5097-0.25485 0.89669-0.79287 0.84006-1.9444 0.58521-0.50026-0.11327-0.76454-0.54746c-0.84006-1.3781-1.6518-3.011-3.0016-3.9549q-2.9732-2.0954-6.947-1.1893c-8.2779 1.8689-7.957 11.383-5.635 17.613q3.0204 8.0797 11.251 5.8143 1.3592-0.37755 2.3125-1.4442a1.2931 1.3309 62.9 0 0 0.33036-0.98164q-0.18878-2.388-1.0855-4.6439a1.463 1.463 0 0 0-1.5763-0.91557l-1.7462 0.25485q-0.76454 0.11326-0.95332-0.64185l-0.32092-1.2742q-0.17934-0.71736 0.54745-0.85894l13.932-2.6806q0.56633-0.11327 0.95332 0.31148 0.57577 0.60408 0.58521 1.5857 0 0.61352-0.57577 0.83062l-1.2365 0.48138a2.1615 2.1709 74 0 0-1.3498 2.4258l1.2742 6.645q0.10383 0.55689-0.44363 0.69848-4.625 1.1704-8.8442 3.0299c-8.6932 3.8133-19.076 0.86837-21.879-8.9952-4.0776-14.3 9.5049-22.974 21.974-19.435a0.8495 0.8495 0 0 0 0.93445-0.33036z" style="stroke-width:.94389"/><path d="m263.48 117.77c2.0766 0.46251 3.1998 0.1699 3.8794-1.9727q2.5202-8.0042 4.9271-16.188c0.64184-2.1993-0.90613-3.0488-2.5107-3.936q-0.52858-0.2926-0.48138-0.89669 0.0661-0.69848 0.43419-1.2648a0.83062 0.8495 25.3 0 1 0.95332-0.34924q7.1641 2.1521 13.913 4.2003c7.9192 2.3975 14.47 7.5794 13.026 16.386-1.5857 9.722-9.4294 14.366-19.038 11.61q-7.5888-2.1709-15.848-4.7289a1.2459 1.2459 0 0 1-0.83062-1.5197l0.14159-0.48138q0.31148-1.1044 1.4347-0.85894zm16.66-17.009-5.5123 18.727a1.7084 1.7084 0 0 0 1.1515 2.1143l1.8028 0.53801a8.8725 9.8353 16.4 0 0 11.289-6.9376l0.92501-3.1337a8.8725 9.8353 16.4 0 0-5.7388-11.94l-1.7934-0.52858a1.7084 1.7084 0 0 0-2.1237 1.161z" style="stroke-width:.94389"/><path d="m167.4 106.14 7.7021 18.123a2.1898 2.1804 71.2 0 0 2.5579 1.2648l1.9822-0.50026q0.79286-0.19821 1.0855 0.56634l0.34923 0.93444a0.92501 0.93445 68.2 0 1-0.50969 1.1704l-14.083 5.9465q-0.68904 0.29261-1.076-0.34924l-0.50026-0.85893q-0.48138-0.81174 0.33036-1.3026l1.8217-1.0949a1.9727 1.9633 63.4 0 0 0.8023-2.4447l-7.7021-18.368a0.68904 0.6796 70.8 0 0-0.8023-0.39644q-2.8883 0.79287-4.8988 2.4541a1.6424 1.6235 73.7 0 0-0.57577 1.0666q-0.23597 2.0766 0.28317 3.9926a1.0666 1.0666 0 0 1-0.77399 1.3214l-0.55689 0.13214q-0.96276 0.22653-1.312-0.69848l-2.4258-6.4656a0.66072 0.65128 68.2 0 1 0.35868-0.84006l25.995-11.062a0.45307 0.45307 0 0 1 0.58521 0.21709l3.2753 6.6544a0.85894 0.85894 0 0 1-0.41531 1.1516l-0.91557 0.42474a1.01 1.01 0 0 1-1.2837-0.36811c-1.1138-1.6896-2.5107-4.0965-4.9082-3.247q-1.935 0.6796-3.9454 1.5008-0.77398 0.31148-0.44362 1.076z" style="stroke-width:.94389"/><path d="m375.9 172.61-20.454 5.8521a0.90613 0.88725 63.5 0 1-0.98164-0.3398l-1.1987-1.6612q-0.33036-0.4625-0.0378-0.94388l10.751-17.717q1.2931-2.1143-0.64184-0.55689l-11.515 9.3162a1.9822 1.9916 52 0 0-0.3398 2.7373l0.79287 1.0477a0.82118 0.81174 44.1 0 1 0.0189 0.97221q-0.48139 0.67959-1.1987 1.1043-0.65128 0.39643-1.1138-0.20765l-6.3807-8.3628q-0.70792-0.91557 0.21709-1.6046l0.72679-0.54745q0.80231-0.60409 1.3026 0.25485c0.88725 1.5291 2.7467 2.1992 4.2664 1.076q7.6644-5.635 14.413-11.1a1.7462 1.7556 59.8 0 0 0.52857-1.9822q-0.38699-1.0288-1.1704-1.7651-0.68903-0.64184 0.0755-1.1987l1.2365-0.91557q0.56634-0.41531 0.99108 0.14158l7.2868 9.4861q0.43419 0.56633 0.0566 1.1798l-9.2595 14.838q-0.6796 1.0855 0.54745 0.72679l16.518-4.8421q1.0005-0.29261 1.6329 0.52857l6.7299 8.8536a0.71735 0.71735 0 0 1-0.14158 1.01l-1.1515 0.87781q-0.49082 0.37756-0.91557-0.0755l-1.1327-1.2176q-1.3875-1.4913-3.0204-0.26429-6.4279 4.861-12.818 9.7598-1.4347 1.0855-2.4919 2.473-0.31148 0.41531-0.0755 0.87781l1.1987 2.237a1.0383 1.0288 57.4 0 1-0.28317 1.3026l-0.57577 0.45306q-0.84006 0.65128-1.4819-0.18878l-8.8631-11.591q-0.92501-1.2176 0.41531-1.9444l0.49082-0.27373a1.1043 1.0949 56.5 0 1 1.3875 0.28317q2.0766 2.6429 4.323 0.94389 5.8143-4.3796 11.563-8.5705 1.1704-0.85893-0.22653-0.4625z" style="stroke-width:.94389"/><path d="m79.039 176.5q-0.75511-0.94389-0.40587-2.2464a1.1421 1.1421 0 0 1 1.614-0.72679l7.8437 3.9832a0.98164 1.0005 20 0 1 0.5097 1.1232q-0.25485 1.0383-1.2176 1.4442a1.5574 1.5385 40.8 0 1-1.01 0.0661q-6.5222-1.7745-9.7787 3.0959c-4.6534 6.9564 3.1337 12.629 8.5988 15.112 10.317 4.6722 17.622-5.7671 12.563-14.555q-0.48138-0.83062 0.38699-1.2459l1.2459-0.59465a1.1327 1.1327 0 0 1 1.4819 0.47194c3.9266 7.0225 0.78342 15.404-4.6911 20.35-10.232 9.2312-25.891 0.11326-24.928-12.912q0.59465-8.1174 7.6172-12.431 0.61353-0.37756 0.1699-0.93445z" style="stroke-width:.94389"/><path d="m388.85 203.95c0.69848 1.2365 1.2176 2.8316 2.5674 3.4263 1.1987 0.52858 2.8128-0.58521 3.7 0.46251q0.57577 0.67959 0.28317 1.4064-0.16046 0.39643-0.54745 0.55689l-8.344 3.5962a1.0383 1.0477 65.8 0 1-1.3592-0.50969l-0.13214-0.27373q-0.45307-0.96277 0.48138-1.4913 3.5018-2.0105 0.5097-6.409a0.83062 0.84006 60.5 0 0-1.0383-0.28316q-3.1243 1.4158-6.0314 2.6806c-3.5301 1.5385-0.93445 5.9654 0.28317 8.2496q2.2464 4.2192 6.9659 3.2186 0.88726-0.19822 1.2554 0.64184l0.31149 0.70791q0.34923 0.79287-0.46251 1.076l-7.5794 2.6901a0.28317 0.28317 0 0 1-0.34924-0.15102l-10.458-24.381a1.01 1.0005 66.6 0 1 0.50969-1.312l0.68904-0.30204q0.93445-0.42475 1.4913 0.44363l1.0288 1.5952a1.7367 1.7367 0 0 0 2.1332 0.66072q9.184-3.8888 16.697-7.2113 2.5674-1.1421 1.1327-3.5962-0.62296-1.076 0.47194-1.6518l0.49082-0.25485q1.2271-0.64184 1.7745 0.63241l9.486 22.049a0.44363 0.45307 63.7 0 1-0.19821 0.56633l-5.5406 3.1148q-1.1138 0.63241-1.6801-0.51913l-0.26429-0.52858q-0.49082-0.99108 0.38699-1.6518c1.5574-1.1893 2.9921-2.1521 2.1898-4.4363q-1.076-3.0771-2.7373-6.7205-0.25485-0.55689-0.81174-0.32092l-6.8526 2.8977q-0.9722 0.41531-0.45307 1.3309z" style="stroke-width:.94389"/><path d="m82.739 229.12c0.43419-1.9633 0.24541-3.2564-1.8783-3.9832q-7.5039-2.5674-14.687-4.9837-4.2569-1.4347-5.1914 1.8217a0.81174 0.8023 19.2 0 1-1.0855 0.51913l-1.0855-0.45306q-0.77399-0.32092-0.5097-1.1232l4.4835-13.356a1.0288 1.0194 15.8 0 1 1.2082-0.67016l0.89669 0.21709q0.99108 0.24541 0.6324 1.2082-1.0855 2.926 2.2087 4.0398 7.9003 2.6429 16.188 5.4179a2.2936 2.2936 0 0 0 2.7656-1.1138l0.64184-1.227q0.34924-0.67016 1.0666-0.42475l0.9722 0.33036a0.96276 0.96276 0 0 1 0.61353 1.2082l-4.3796 13.196q-0.40587 1.1987-1.6235 0.85893l-0.41531-0.11326q-1.0666-0.29261-0.82118-1.3686z" style="stroke-width:.94389"/><path d="m404.33 227.64c2.322-0.47194 2.4258-1.8406 2.2748-3.8699q-0.0566-0.76455 0.69848-0.86838l1.2931-0.17933q0.64185-0.0849 0.75511 0.54745 1.4819 7.6738 2.7656 15.3c1.076 6.4467 0.0661 13.158-5.871 16.792-6.3052 3.851-15.621 2.7373-19.605-4.1248q-1.8311-3.1715-2.5296-7.0225-1.3686-7.5322-2.8411-15.565-0.18878-1.0288 0.84006-1.2082l0.70791-0.1227q1.01-0.1699 1.3875 0.77399l0.6796 1.6612q0.51914 1.312 1.9161 1.0855 8.8442-1.4536 17.528-3.1998zm2.6051 7.5605-19.227 3.6717a1.699 1.699 0 0 0-1.3498 1.9916l0.33036 1.7368a8.9858 9.7975 79.2 0 0 11.308 6.9942l3.3225-0.6324a8.9858 9.7975 79.2 0 0 7.9381-10.666l-0.33036-1.7462a1.699 1.699 0 0 0-1.9916-1.3498z" style="stroke-width:.94389"/><path d="m72.781 240.22q-6.2013-0.78343-12.799-1.548-3.1431-0.35868-3.3791 2.6901a1.2837 1.2837 0 0 1-1.312 1.1799l-0.55689-0.0189q-1.2648-0.0283-1.0855-1.2837l1.4913-10.732q0.07551-0.58521 0.67016-0.61352 0.82118-0.0378 1.5763 0.32092 0.48138 0.22653 0.5097 0.75511l0.1227 2.0199a1.5291 1.5952 21 0 0 0.39643 0.94389q0.79286 0.87781 1.9822 1.0572 11.232 1.6518 22.03 3.0016 0.57577 0.0661 0.50026 0.64184l-0.6796 5.2291a0.98164 0.98164 0 0 1-0.51914 0.74567l-23.05 12.11q-0.6324 0.33036 0.07551 0.41531 7.6644 0.9722 15.555 1.9161c2.1143 0.25485 2.8789-1.4536 3.0016-3.1903a0.78343 0.78343 0 0 1 0.90613-0.71736l1.7273 0.26429a0.70791 0.70791 0 0 1 0.58521 0.78343l-1.463 10.845q-0.11327 0.83062-0.94388 0.71736l-1.4913-0.20766q-0.88725-0.1227-0.68904-1.0005c0.83062-3.7189-1.8878-3.7944-4.71-4.1908q-7.9098-1.1044-15.338-2.0482a1.7084 1.7084 0 0 0-1.85 1.2082l-0.52858 1.7179q-0.24541 0.82118-1.0949 0.69848l-0.9722-0.14158q-0.8023-0.12271-0.69848-0.92501l1.3686-10.515a1.8878 1.8878 0 0 1 0.99108-1.4158l19.774-10.147q0.86838-0.44363-0.10383-0.56633z" style="stroke-width:.94389"/><path d="m408.92 268.79c2.5107 0 3.0865-0.53801 3.549-2.9638q0.0944-0.49082 0.49082-0.79286 0.89669-0.69848 1.9444-0.0944 0.4625 0.27372 0.45307 0.81174l-0.17934 14.026a1.1232 1.1232 0 0 1-1.1421 1.1138l-0.67016-0.0189q-1.1138-0.0189-1.0855-1.1327 0.0472-2.8411-2.8977-2.9544-9.958-0.39643-17.386-0.22653-2.3975 0.0472-2.4919 2.5768-0.0378 1.2837-1.3309 1.3309l-0.50025 0.0189q-1.1987 0.0378-1.1704-1.1515l0.28316-13.951q0.0189-1.161 1.1704-1.1421l0.8023 9e-3a0.85894 0.8495 3 0 1 0.84006 0.92501c-0.1227 1.7368 0.81174 3.3225 2.6806 3.3791q8.8442 0.24541 16.641 0.23597z" style="stroke-width:.94389"/><path d="m76.311 275.09q0.45306-1.0288 0.5097-2.1804 0.02832-0.5097 0.50026-0.70791 1.01-0.41531 1.9633 0.0849 0.44363 0.23597 0.4625 0.73623l0.55689 14.026q0.03775 0.99108-0.95332 1.0949l-0.57577 0.0566q-1.2742 0.13215-1.3686-1.1421-0.20765-2.9072-2.926-2.8317-8.0797 0.2171-16.716 0.81175-3.0865 0.21709-3.0959 3.0582-0.0094 1.3686-1.3781 1.3686h-0.47194a0.99108 1.0005 88.3 0 1-1.0005-0.93445l-0.78343-14.064q-0.02832-0.60408 0.45307-0.96276 0.83062-0.6324 1.7839-0.0283 0.44363 0.28317 0.59465 0.78343l0.41531 1.397a2.1709 2.1804 80.5 0 0 2.1993 1.5574l18.151-0.96276a1.9538 1.9444 10.2 0 0 1.6801-1.161z" style="stroke-width:.94389"/><path d="m409.61 314.2q1.463 1.076 0.86838 2.7561-0.2171 0.60409-0.8495 0.51914l-9.1462-1.3403q-0.64185-0.0944-0.66072-0.73623-0.0189-0.89669 0.45306-1.6612 0.31148-0.49082 0.89669-0.51913 7.4945-0.387 8.8065-6.5411c1.8594-8.7498-9.6371-11.61-16.169-11.128-9.1934 0.68904-10.383 12.289-4.4834 17.415q1.0194 0.87781 0.0472 1.8217l-0.85894 0.83062q-0.73623 0.71735-1.4819 0-4.71-4.5401-4.5495-11.062c0.26429-10.977 8.3817-20.058 20.01-16.282 10.675 3.4641 14.441 16.763 7.0131 24.985q-0.47194 0.52858 0.10383 0.94389z" style="stroke-width:.94389"/><path d="m81.88 315.59a2.1709 2.1709 0 0 0-1.9255-0.54746q-7.8437 1.6612-16.48 3.5207-3.313 0.71735-2.7278 3.8322 0.17934 0.98165-0.8023 1.1799l-0.79286 0.16046q-1.0005 0.20766-1.2176-0.79286l-2.9638-13.667a1.3214 1.3214 0 0 1 1.2176-1.6046l0.38699-0.0189a1.1704 1.1704 0 0 1 1.2176 0.94388q0.60409 3.0016 3.4546 2.3692 8.4667-1.8595 17.537-3.8133a2.0294 2.0294 0 0 0 1.5763-2.322q-0.52858-3.1337-1.4441-6.0692c-1.0666-3.398-3.6906-3.3886-6.6355-3.4263a1.2459 1.2459 0 0 1-1.2176-1.1327l-0.03776-0.48139q-0.10383-1.0572 0.94389-1.2176l7.2868-1.1327q1.1515-0.17934 1.397 0.96276l5.3424 24.89q0.22653 1.0288-0.83062 1.0477l-0.96276 0.0189q-0.9722 0.0189-1.2459-0.90613-0.32092-1.0855-1.076-1.7934z" style="stroke-width:.94389"/><path d="m376.56 337.35q2.5674 0.61352 5.0687 0.50026 0.64184-0.0378 0.88725-0.62297l3.247-7.7399a1.0383 1.0383 0 0 0-0.24541-1.1515l-3.1431-2.9166a1.1893 1.1987 37.6 0 0-1.8311 0.24541l-0.73623 1.1704q-0.56633 0.91557-1.5763 0.54745-1.5385-0.56633-1.0288-1.8028 1.7651-4.1908 3.5962-8.5138 0.5097-1.1987 1.6707-0.6324l0.31149 0.15102q1.1232 0.53801 0.77398 1.7273-0.6324 2.1521 1.3686 4.3041 8.1457 8.7404 16.612 17.585a0.82118 0.82118 0 0 1 0.1699 0.88725l-1.9727 4.6911a0.83062 0.84006 12.7 0 1-0.79287 0.50969q-10.76-0.39643-23.474-0.58521-3.4074-0.0566-4.8232 2.6806-0.39644 0.75511-1.1799 0.43419l-1.01-0.40587q-0.82118-0.3398-0.47194-1.1515l5.937-13.932a0.82118 0.82118 0 0 1 1.0666-0.43419l0.98164 0.41531q0.70792 0.29261 0.55689 1.0477l-0.44362 2.2464q-0.11327 0.60408 0.48138 0.74567zm11.95-5.786a0.28317 0.28317 0 0 0-0.47194 0.0849l-2.5485 6.107a0.28317 0.28317 0 0 0 0.23597 0.38699l9.2406 0.76455a0.28317 0.28317 0 0 0 0.22654-0.47195z" style="stroke-width:.94389"/><path d="m63.814 336.75q-0.83062-0.0755-1.5668-0.44363a1.2459 1.2554 44.9 0 1 0-2.237l7.8059-3.8794q0.95332-0.47194 1.3214 0.51914l0.34924 0.9722q0.33036 0.91557-0.49082 1.4253c-4.4835 2.8411-5.4085 8.2118-2.1521 12.261 4.4363 5.5123 14.111 1.4913 18.491-2.1426 3.8227-3.162 4.0587-8.2212 1.2837-12.176q-2.9638-4.2286-8.1363-4.7572-0.71735-0.0755-0.59465-0.79286l0.30204-1.7651q0.14158-0.83062 0.98164-0.73623c11.968 1.397 18.028 18.198 10.052 26.91-5.1819 5.6539-14.413 6.7582-20.577 2.1426q-7.2868-5.4651-6.4751-14.574 0.06607-0.66072-0.59465-0.72679z" style="stroke-width:.94389"/><path d="m379.51 375.04a1.5574 1.5669 29.6 0 0-0.51913-1.9066l-15.687-11.119a1.7179 1.7179 0 0 0-2.2842 0.27373c-2.9732 3.4357-7.183 8.3345-1.9255 12.459a0.99108 1.0005 36.4 0 1 0.19822 1.3498l-0.68904 1.0005q-0.52857 0.76454-1.2365 0.1699l-6.3335-5.2386a0.56633 0.56633 0 0 1-0.10383-0.76455l14.895-20.954q0.66072-0.92501 1.5952-0.29261l0.58521 0.39643q0.93444 0.63241 0.28316 1.548-1.7556 2.5013 0.87782 4.4174 6.6072 4.8421 13.696 9.6748 2.1804 1.4913 3.6434-0.67016 0.89669-1.3214 2.0954-0.27372l0.36812 0.32092q0.79286 0.68903 0.17934 1.548l-8.0514 11.298q-0.67016 0.93445-1.6612 0.3398l-0.30204-0.17934q-0.90613-0.54745-0.47194-1.5102z" style="stroke-width:.94389"/><path d="m131.81 419.16q0.94389-0.75511 1.5291-1.7368 3.7284-6.2674 7.2113-12.28c1.227-2.1143 2.9827-4.4457 0.23597-5.9276q-1.2742-0.6796-0.54746-1.8594 0.0661-0.10383 0.11327-0.2171 0.54745-1.2837 1.7651-0.59465 8.0702 4.6156 14.413 8.6649c8.948 5.7011 10.496 16.414 2.1804 23.644-6.2957 5.4745-13.413 3.0016-19.85-0.93444q-5.8426-3.5679-11.525-6.862-0.79287-0.45307-0.28317-1.2176l0.60409-0.91556q0.39643-0.60409 1.0855-0.37756l2.3314 0.74567a0.82118 0.81174 34.3 0 0 0.73623-0.13214zm17.415-13.205-9.8636 17.018a1.6046 1.6046 0 0 0 0.58521 2.1898l1.6896 0.98164a8.882 9.7126 30.1 0 0 12.554-3.9454l1.7368-2.9921a8.882 9.7126 30.1 0 0-2.8128-12.856l-1.6896-0.98164a1.6046 1.6046 0 0 0-2.1992 0.5852z" style="stroke-width:.94389"/><path d="m312.4 408.03a1.6046 1.5952 53.9 0 0-0.30204 1.9633q4.3702 7.6832 9.2595 15.933 1.1987 2.0199 3.2658 0.96276c4.2852-2.1992 8.9858-4.3136 6.1353-10.279q-0.45306-0.96277 0.5097-1.4064l0.9722-0.46251q0.7268-0.33036 1.0949 0.37756l3.7284 7.4001a0.4625 0.47194 61.2 0 1-0.18878 0.61353l-22.361 13.082a1.0666 1.0666 0 0 1-1.3875-0.26428q-1.2931-1.6707 0.54745-2.8128a2.1521 2.1615 84 0 0 0.89669-1.1044q0.39643-1.1421-0.18878-2.1898-4.7289-8.41-8.6366-14.753-1.5668-2.5485-4.0398-1.1232a1.2365 1.2271 57.3 0 1-1.6235-0.35868l-0.25485-0.36812q-0.81174-1.1515 0.39644-1.8594l12.252-7.1924a0.82118 0.82118 0 0 1 1.1232 0.2926l0.47194 0.80231q0.44363 0.78342-0.20765 1.397z" style="stroke-width:.94389"/><path d="m179.29 432.39q-1.0572 3.1526-2.1143 6.6638-0.8495 2.8694 2.0199 3.9266c4.0965 1.5008 8.6649 3.2281 11.289-1.8594a0.95332 0.95332 0 0 1 1.1138-0.48138l0.9722 0.27372a0.8023 0.8023 0 0 1 0.52858 1.0666l-2.8033 7.1546a0.60409 0.60409 0 0 1-0.75511 0.35868l-24.654-7.957q-1.312-0.42475-0.94388-1.7462l0.085-0.31148q0.34923-1.2648 1.5857-0.83062 2.9544 1.0383 3.8794-1.8123 2.5957-7.9475 5.3424-16.31c0.79286-2.4164-0.95333-2.8033-2.5579-3.6623a0.84006 0.84006 0 0 1-0.41531-0.925l0.27373-1.1987q0.20765-0.88725 1.0666-0.60409l23.116 7.485a0.64184 0.64184 0 0 1 0.42475 0.73623l-1.312 6.3996q-0.11327 0.57577-0.69848 0.64184-1.01 0.11326-1.7934-0.48138-0.34924-0.27373-0.387-0.70792c-0.22653-2.5674 0.37756-4.3136-2.7184-5.3141q-2.9827-0.9722-5.9842-2.0577a0.71735 0.71735 0 0 0-0.92501 0.45307l-2.3786 7.1546a0.6796 0.6796 0 0 0 0.40587 0.84006c1.397 0.53802 3.3602 1.3026 4.7194 0.61353 0.96276-0.48138 1.1704-1.4253 1.8311-2.1898q0.33979-0.39643 0.84949-0.3398 0.82118 0.0849 1.1421 0.73623 0.27373 0.5569 0.0755 1.161-1.3686 4.2003-2.6995 8.1646-0.30204 0.90613-1.2554 0.74567-0.39643-0.0661-0.73623-0.27373-0.94388-0.56633-0.55689-1.5952c1.0572-2.8883-2.2748-3.6056-4.2003-4.3136q-0.62297-0.23597-0.83062 0.39644z" style="stroke-width:.94389"/><path d="m293.31 439.77-2.4919-3.5301q-0.47194-0.66072-1.2459-0.40587l-7.9853 2.624a1.0855 1.0855 0 0 0-0.74567 0.99108l-0.15102 4.2475q-0.0472 1.4441 1.3875 1.2459l1.7556-0.23597a0.9722 0.9722 0 0 1 0.99108 0.50025q1.0666 1.9444-1.0005 2.5485-4.1625 1.227-8.4761 2.7373-1.0949 0.38699-1.3686-0.74567l-0.13214-0.5569a1.4158 1.4064 68.7 0 1 0.6796-1.5574q2.2087-1.2554 2.4824-4.172 1.076-11.742 2.1804-23.644a1.1987 1.2176 82.9 0 1 0.82118-1.0383l4.5212-1.4913a0.90613 0.91557 61.1 0 1 0.99108 0.28317q7.7776 9.4483 14.753 17.783 2.2559 2.6995 5.3518 2.1804 1.0194-0.17933 1.3214 0.82118l0.18878 0.59465q0.30204 0.9722-0.67016 1.2931l-13.894 4.559q-1.4064 0.46251-1.614-1.01l-0.0661-0.47195q-0.15103-1.0666 0.89669-1.3403 0.86837-0.22654 1.4441-0.86838a1.0666 1.076 48.1 0 0 0.0755-1.3403zm-12.082-4.7572a0.28317 0.28317 0 0 0 0.36812 0.2926l6.4184-1.9161a0.28317 0.28317 0 0 0 0.14159-0.44362l-5.6539-7.2302a0.28317 0.28317 0 0 0-0.50026 0.15103z" style="stroke-width:.94389"/><path d="m249 427.97c-3.8982 0.55689-7.1358 0.70791-6.645 5.8898q0.0849 0.91557-0.82118 1.0572l-0.85894 0.13214q-1.0477 0.16046-1.1421-0.89669l-0.62297-7.0886q-0.0566-0.6324 0.57578-0.71735l28.005-3.5396q0.47194-0.0566 0.55689 0.40587l1.2365 7.2018a0.94389 0.94389 0 0 1-0.83062 1.0949l-0.90613 0.0849a1.0383 1.0383 0 0 1-1.1138-0.78342c-1.2554-5.1631-3.7283-4.7666-8.1268-3.8888a0.73623 0.73623 0 0 0-0.58521 0.81174l2.5296 19.482a2.2653 2.2559 86.5 0 0 2.2181 1.9727l1.7651 9e-3a0.89669 0.88725 73.4 0 1 0.74567 0.40587q0.62297 0.96277 0.20766 1.8972-0.20766 0.46251-0.71736 0.52858l-15.046 1.8878a0.98164 0.9722 80.3 0 1-1.076-0.76455q-0.14158-0.64184-0.0378-1.2837a0.86837 0.86837 0 0 1 0.66072-0.70792l1.5763-0.37755a2.3975 2.388 79.8 0 0 1.8217-2.6334l-2.473-19.491a0.8023 0.8023 0 0 0-0.8967-0.68904z" style="stroke-width:.94389"/><path d="m209.07 431.7-1.3592 15.668a2.001 1.9916 8.3 0 0 1.5857 2.1238l1.7651 0.36811a0.90613 0.90613 0 0 1 0.72679 0.9722l-0.13215 1.7084q-0.0566 0.66072-0.71735 0.58521l-11.034-1.1421q-0.66072-0.0661-0.73624-0.72679-0.085-0.81174 0.17934-1.6424 0.23597-0.75511 1.0194-0.64184c1.8972 0.27373 3.5773-0.36812 3.7944-2.5485q0.83062-8.2401 1.5763-16.546 0.32092-3.6245-2.7373-3.313-0.83062 0.0849-0.83062-0.75511l9e-3 -1.3309a0.88725 0.87781 2.8 0 1 0.9722-0.87781l11.043 1.0383q0.49082 0.0472 0.72679 0.47195l11.119 19.944q0.48138 0.8495 0.5569-0.1227 0.49082-6.5317 1.0194-13.214 0.23597-2.9544-3.0299-3.0771-1.3026-0.0472-1.1138-1.3309l0.0849-0.60409a1.2082 1.1987 6.6 0 1 1.3026-1.0288l10.364 0.99108a1.0666 1.0572 3.3 0 1 0.96277 1.076l-9e-3 0.48138a1.3498 1.3498 0 0 1-1.463 1.3214c-2.0671-0.1699-3.2564 0.84006-3.4829 2.9544q-1.1138 10.43-2.1615 21.775a0.55689 0.55689 0 0 1-0.61353 0.50026l-4.5873-0.40587a2.1709 2.1615 77.5 0 1-1.7084-1.0949l-12.478-21.709q-0.51914-0.91557-0.61352 0.13214z" style="stroke-width:.94389"/></g><circle cx="233.05" cy="271.94" r="139.98" style="fill:#00b7f1;stroke-linecap:round;stroke-linejoin:round;stroke-width:1.265"/><path transform="matrix(.94389 0 0 .94389 3.0709 48.117)" d="m216.61 282.37-23.16-5.02a0.4 0.4 0 0 1-0.31-0.35l-0.66-7.8a0.4 0.4 0 0 1 0.49-0.42l22.09 5.59a0.4 0.4 0 0 1 0.29 0.29l1.73 7.22a0.4 0.4 0 0 1-0.47 0.49zm-39.1-15.65c-1.05 2.62-2.58 5.1-3.95 7.57a0.87 0.88 21.9 0 1-0.97 0.42l-7.11-1.76q-0.52-0.12-0.55-0.65c-0.19-2.75-0.32-5.99 1.87-8.12q2.84-2.79 5.5-5.51a0.48 0.49 47.2 0 1 0.72 0.02q2.06 2.47 4.16 5.68 0.79 1.21 0.33 2.35zm15.22-40.32-2.47-2.77a0.87 0.87 0 0 1 0.22-1.34l11-6.13a0.87 0.87 0 0 0 0.4-0.47l3.63-10.4a0.87 0.87 0 0 1 1.26-0.46l5.36 3.18a0.87 0.87 0 0 1 0.29 1.22l-7.09 11.21a0.87 0.87 0 0 1-0.34 0.31l-11.21 5.84a0.87 0.87 0 0 1-1.05-0.19zm22.01-24.75 7.33-3.33a0.91 0.91 0 0 1 0.93 0.11l2.05 1.57a0.91 0.91 0 0 1-0.22 1.57l-7.81 3.17a0.91 0.91 0 0 1-0.95-0.17l-1.56-1.42a0.91 0.91 0 0 1 0.23-1.5zm158.97 35.48a130.06 130.06 0 0 1-130.06 130.06 130.06 130.06 0 0 1-130.06-130.06 130.06 130.06 0 0 1 130.06-130.06 130.06 130.06 0 0 1 130.06 130.06zm-121.27-81.78 0.06 20.59a0.63 0.63 0 0 1-0.56 0.63l-4.12 0.43q-1.16 0.12-1.16 1.29l0.01 6.21q0 1.09 1.08 1.03 25.01-1.25 47.06-12.76a0.63 0.63 0 0 0 0.31-0.73c-6.57-22.67-21.26-53.81-47.32-58.84q-1.14-0.22-1.14 0.94l-0.01 40.52a0.43 0.43 0 0 0 0.48 0.43l4.44-0.51q0.87-0.09 0.87 0.77zm-44.61-9.33 2.63 4.75q0.44 0.78 1.33 0.87 8.55 0.83 16.38 1.52c4.24 0.38 7.21 3.85 11.84 2.88a0.78 0.77 84 0 0 0.61-0.76q0-19.87-0.03-40.42 0-0.34-0.08-0.66-0.26-1.07-1.34-0.88c-18.95 3.43-31.65 21.69-39.18 38.06q-0.15 0.32 0.02 0.63a0.4 0.41 53.1 0 0 0.65 0.09l6.11-6.22a0.66 0.67 52.8 0 1 1.06 0.14zm-13.74 4.59c5.57-12.48 13.02-23.7 22.63-32.52 0.8-0.73 1.94-1.22 2.62-2.05q0.6-0.71-0.31-0.53-25 5.13-46.21 19.81c-3.86 2.68-6.63 8.47-8.92 12.49a0.61 0.61 0 0 0 0.47 0.91l28.16 2.79a1.54 1.55 15.1 0 0 1.56-0.9zm133.23-4.87c-16.33-15.15-36.91-25.8-58.88-30.13q-1.18-0.23-0.25 0.53c15.85 12.96 25.71 32.62 31.93 52.41a0.85 0.85 0 0 0 1.26 0.47q14.52-9.06 26-22.27a0.73 0.72 41.8 0 0-0.06-1.01zm40.25 87.67c-0.92-31.06-13.44-60.32-34.83-82.55a0.67 0.67 0 0 0-0.99 0.02q-12.88 14.81-29.1 24.38-0.45 0.27-0.32 0.77 7.55 28.64 7.71 57.32a0.83 0.83 0 0 0 0.83 0.83l56-0.05a0.7 0.7 0 0 0 0.7-0.72zm-127.06-54.978a0.52 0.52 0 0 0-0.5326-0.5071l-2.9391 0.0718a0.52 0.52 0 0 0-0.5071 0.5326l0.1578 6.4581a0.52 0.52 0 0 0 0.5326 0.5071l2.9391-0.0718a0.52 0.52 0 0 0 0.5071-0.5326zm-28.7 2.9577 13.15 2.82a1.44 1.45 24.6 0 0 1.47-0.55l3.33-4.47q0.74-1-0.49-0.88-9.05 0.94-17.3 1.8-0.45 0.05-0.6 0.5a0.6 0.6 0 0 0 0.44 0.78zm84.57-2.69c-13.71 6.93-28.22 11.21-43.42 12.49q-2.99 0.25-5.94 0.2a0.35 0.35 0 0 0-0.36 0.35l-0.03 41.8a0.65 0.65 0 0 0 0.65 0.65l56.3-0.07q0.48 0 0.48-0.49-0.24-27.7-6.88-54.56a0.56 0.56 0 0 0-0.8-0.37zm-69.52 16.73-0.51-4.27q-0.07-0.66-0.73-0.76-11.58-1.77-21.91-5.32a2.07 2.08 22.7 0 0-2.54 1.05q-0.87 1.78-0.94 3.66-0.02 0.68 0.64 0.48l5.25-1.6a1.11 1.11 0 0 1 1.43 0.99l0.52 8.71a1.39 1.39 0 0 1-1.32 1.47l-2.84 0.15a1.62 1.61 7.3 0 0-1.45 1.11c-0.63 1.94-0.89 4.14-2.76 5.35q-4.45 2.89-8.43 5.72-0.55 0.39-0.33 1.04l1 2.92a1.46 1.47 63.6 0 1-0.58 1.7l-4.98 3.26a0.92 0.92 0 0 1-1.42-0.66q-0.24-2.03-0.77-2.4-0.4-0.28-0.42 0.2l-0.66 15.28a0.63 0.63 0 0 0 0.63 0.65l21.21 0.01a0.77 0.76 80.3 0 0 0.72-1.02l-2.04-5.92a0.65 0.65 0 0 1 0.7-0.86q0.99 0.14 1.62 0.94 2.16 2.74 4.01 5.77a2.22 2.23 74.3 0 0 1.9 1.06l28.06 0.01a0.71 0.71 0 0 0 0.71-0.71l-0.01-40.99a0.93 0.93 0 0 0-0.9-0.93l-7.57-0.27a1.5 1.49 19.6 0 0-1.25 0.59l-2.95 3.89q-0.91 1.21-1.09-0.3zm-83.29 65.63q2.33 0.44 4.88 0.39a0.7 0.7 0 0 0 0.62-1.01q-4.31-8.91-8.61-18.71c-1.14-2.61-4.75-2.02-6.54-0.72q-3.5 2.53-7.19 5.53-0.49 0.4-0.58 1.03-0.41 2.89-0.24 5.79a1.07 1.08 81.2 0 1-0.81 1.1l-3.37 0.88a0.76 0.77 80.6 0 0-0.58 0.8q0.22 2.58 0.71 4.99 7.05 34.66 31.5 61a0.8 0.8 0 0 0 1.17 0q6.46-6.89 13.52-12.95a2.14 2.15 69.2 0 0 0.74-1.64l-0.09-6.62a1.97 1.94 73.7 0 1 0.9-1.67l12.6-8.03a1.47 1.49 67.9 0 0 0.66-1.54l-2.73-13.42a1.4 1.38 19.5 0 0-0.31-0.64q-0.36-0.41-0.84-0.68-0.7-0.4-0.34-1.12 0.96-1.88 0.68-3.91-1.96-13.97-2.11-28.99a0.97 0.96 87.8 0 0-1.03-0.96q-3.74 0.26-7.74 0.17c-2.97-0.06-5.42 1.5-7.68 3.17a0.8 0.79 55.1 0 0-0.19 1.09l4.24 6.24a0.71 0.7 57.7 0 1-0.22 1.01l-7.36 4.3a1 0.99 61.9 0 1-1.4-0.43l-2.44-5.09a1.18 1.17 6.2 0 0-0.34-0.42q-0.48-0.34-0.99-0.22a0.75 0.75 0 0 0-0.56 0.89l1.36 6.19a1.66 1.71 9.7 0 0 0.71 1.04l5.57 3.7a0.86 0.86 0 0 1 0.19 1.25c-1.82 2.22-2.73 1.53-5.08 0.95q-0.8-0.19-0.81 0.63l-0.01 0.62q-0.02 1.14 1.09 1.41l2.69 0.64a1.88 1.89 89.2 0 1 1.39 1.35c0.45 1.67 1.35 5.46 3.05 6.2q3.66 1.6 7.85 2.93c1.61 0.52 2.03 1.91 1.94 3.44q-0.05 0.78-0.82 0.64l-9.88-1.75a3.76 3.8 74.3 0 1-2.13-1.18l-15.42-17a0.41 0.41 0 0 1 0.38-0.67zm63.13 23.54q2.43-0.77 3.76 1.32 0.62 0.97 1.72 0.67 13.7-3.68 27.89-3.89a0.56 0.56 0 0 0 0.55-0.56l0.02-41.35q0-0.62-0.62-0.62l-56.53-0.01a0.32 0.32 0 0 0-0.32 0.33q0.18 13.65 1.54 24.31 0.17 1.28 0.96 2.45 0.29 0.44 0.19 0.95-0.5 2.47-0.13 5.03 0.97 6.78 2.45 13.14a0.63 0.63 0 0 0 0.97 0.38l4.01-2.71a0.96 0.98 45.4 0 1 1.09 0q3.52 2.37 7.52 4.9 1.67 1.06 3.05-0.16c0.93-0.82 0.78-2.45 1.23-3.58a1.05 1.02 1.6 0 1 0.65-0.6zm40.47-1.91c16.8 0.6 33.74 4.91 48.92 12.69a0.8 0.8 0 0 0 1.14-0.52q6.66-26.89 6.85-54.05 0-0.61-0.61-0.62l-56.29-0.04q-0.53 0-0.53 0.53l-0.01 41.46q0 0.53 0.53 0.55zm85.76 40.37c21.41-22.03 33.75-51.37 34.65-82.26a0.61 0.6 0.9 0 0-0.61-0.62l-56.51-0.01a0.43 0.44 0.7 0 0-0.43 0.43q-0.07 29.07-7.62 57.22a1.24 1.24 0 0 0 0.56 1.38q16.32 9.73 28.52 23.82 0.7 0.81 1.44 0.04zm-118.55 0.91a1.48 1.5 15.2 0 1-1.36 0.79q-2.37-0.07-4.79-0.37c-3.33-0.4-6.56-3.02-8.94-5.12q-1.22-1.07-0.62 0.44c6.62 16.51 21.98 39.46 41.13 41.16a0.75 0.75 0 0 0 0.81-0.74q0.11-11.1-0.06-18.11c-0.08-3.35-3.44-6.06-1.15-9.65q1.21-1.89 1.22-4.25 0.06-20.4-0.03-38.81-0.01-0.7-0.71-0.68-12.51 0.46-24.54 3.36-0.79 0.19-0.35 0.87l8.26 12.64a1.8 1.79 42.7 0 1 0.08 1.84zm32.91 37.06c26.2-3.72 40.94-36.37 47.83-58.59q0.22-0.71-0.44-1.05-22.14-11.54-47.29-12.67a0.68 0.68 0 0 0-0.71 0.67q-0.08 9.57-0.03 19.93c0.03 4.15 3.7 6.42 4.38 10.5q0.79 4.68 0.73 9a2.23 2.27 62.6 0 1-0.41 1.26c-1.77 2.56-4.7 4.92-4.7 8.24q0 11.14 0.02 22.17a0.55 0.54 85.9 0 0 0.62 0.54zm21.16-2.37c21.97-4.37 42.48-15.04 59-30.18a0.61 0.6 48.8 0 0 0.05-0.84q-11.59-13.45-26.44-22.6a0.55 0.55 0 0 0-0.81 0.31c-6.31 20.35-15.96 38.97-32.05 52.81q-0.84 0.72 0.25 0.5zm-97.74-39.66q-0.32-0.49-0.06-0.96 0.87-1.57 1.12-3.21a0.37 0.37 0 0 0-0.61-0.34q-6.54 5.49-12.14 11.64-0.7 0.76 0.01 1.51 1.06 1.11 2.16 2.08 24.95 21.97 57.31 28.94 1.99 0.43 0.39-0.82c-12.88-10.06-22.32-26.5-28.17-42.25a0.57 0.57 0 0 0-0.69-0.36q-9.49 2.51-18.67 4.06a0.65 0.64 68.9 0 1-0.65-0.29zm76.02 1.52 0.1 2.16q0.04 0.99 0.77 0.31c0.86-0.79 0.77-2.09-0.08-2.85q-0.84-0.75-0.79 0.38z" style="fill:#fff"/><g transform="matrix(1.441,0,0,1.441,-233.87,-379.33)"><rect x="486.94" y="324.49" width="495.19" height="244.56" style="fill:#1b488c;stroke-linecap:round;stroke-linejoin:round;stroke-width:.83092"/><g transform="matrix(.90761 0 0 .90761 80.133 195.19)"><rect x="692.5" y="323.47" width="289.34" height="72.033" style="fill:#fff;stroke-linecap:round;stroke-linejoin:round;stroke-width:2.1522"/><g transform="matrix(.24048 0 0 .24048 698.65 344.08)" fill="#e81d26"><path d="m518.62 104.91-0.36 12.35q-0.03 1-1.03 1.03l-0.41 0.02q-0.63 0.02-0.64-0.61l-0.14-12.29q-0.02-1.2-0.88-0.37l-3.68 3.57a0.66 0.66 0 0 1-0.97-0.06l-0.21-0.27a0.47 0.45 47.5 0 1 0.02-0.61l4.31-4.58a0.43 0.43 0 0 0-0.13-0.69c-9.29-4.19-10.03-15.5-3.76-22.45q0.33-0.36-0.08-0.63c-8.39-5.31-9.14-15.9-2.26-22.95q0.53-0.55-0.23-0.54c-8.35 0.05-17.99-5.11-17.57-14.54q0.16-3.76 2.67-6.42c3.58-3.8 9.87-3.07 14.51-1.67q2.11 0.64 2.7 2.81c1.31 4.78-6.88 3.36-8.98 2.98-2.08-0.37-4.09 0.8-4.65 2.85-1.85 6.8 13.61 8.94 17.69 9.26a0.63 0.63 0 0 0 0.69-0.63l0.02-19.96a0.61 0.6 83.5 0 0-0.74-0.59q-2.81 0.64-5.62-0.35c-2.1-0.75-3.93-0.59-6.07-0.61q-1.68-0.01-0.32-1.01l2.27-1.66a0.34 0.33 44.1 0 0-0.01-0.55l-0.21-0.14q-0.46-0.31-0.93-0.01-5.49 3.58-12.49 2.07-0.63-0.14-0.41-0.74 0.37-1.06 1.56-1.52a0.35 0.35 0 0 0 0.22-0.39l-0.05-0.36q-0.09-0.55-0.58-0.3-3.21 1.63-6.93 0.74-0.92-0.22-0.84-1.18 0.06-0.67 0.69-0.89 0.38-0.14 0.6-0.48 0.43-0.67-0.35-0.51-3.06 0.63-6.28 0.16-0.51-0.08-0.82-0.47-0.51-0.63 0.28-0.81 12.92-2.85 25.79-5.74c2.47-0.56 6.49-1.72 7.26 2.05q0.31 1.52 1.86 1.58l0.59 0.02q1.15 0.04 0.66-1c-3.87-8.35 6.96-10.95 7.83-4.33q0.33 2.58-0.98 4.61a0.48 0.47-67.9 0 0 0.3 0.73c3.55 0.69 2.87-2.2 4.49-3.72a1.33 1.33 0 0 1 0.83-0.36q2.77-0.21 5.16 0.37 12.65 3.08 25.95 5.67a0.51 0.5-78.6 0 1 0.39 0.6q-0.09 0.42-0.51 0.56-3.3 1.09-6.42-0.2a0.43 0.43 0 0 0-0.56 0.57q0.27 0.61 0.92 0.98a0.79 0.79 0 0 1 0.39 0.84q-0.14 0.7-0.84 0.88-3.55 0.95-7.1-0.56-0.45-0.2-0.66 0.25l-0.11 0.26q-0.1 0.19 0.1 0.29 1.02 0.48 1.77 1.26 1.07 1.09-0.45 1.31-7.6 1.06-12.56-2.32-0.43-0.3-0.87-0.01-0.16 0.11-0.17 0.31a0.53 0.5-64.2 0 0 0.11 0.35q0.68 0.81 1.63 1.31 2.97 1.6-0.39 1.57c-1.81-0.02-3.4-0.27-5.17 0.45q-3.06 1.22-6.55 0.25a0.49 0.48 7.9 0 0-0.61 0.46l-0.2 20.28q-0.01 0.65 0.64 0.6c3.39-0.25 22.6-3.08 16.55-10.82q-1.52-1.94-4.14-1.24-3.53 0.96-6.8 0.16a2.54 2.53 14.3 0 1-1.85-3.1c1.04-4.03 8.89-4.21 11.8-3.85 5 0.62 8.25 4.75 8.19 9.75-0.11 8.9-9.15 13.55-17.11 13.88q-0.8 0.03-0.21 0.57 3.65 3.29 4.4 7.88 1.57 9.63-6.77 15.07-0.46 0.3-0.09 0.71c6.76 7.24 5.17 18.23-3.86 22.4q-0.57 0.26-0.15 0.73l3.86 4.38a0.46 0.45 44.5 0 1 0.01 0.6l-0.24 0.3a0.56 0.55-48.8 0 1-0.81 0.06l-4.28-3.91q-0.59-0.54-0.62 0.26zm-3.97-45.56c-6.27 3.56-6.87 11.54-0.1 15.29q0.72 0.39 0.72-0.42l-0.01-14.52a0.41 0.41 0 0 0-0.61-0.35zm5.52 15.58c7.32-3 7.79-12.43 0.29-15.59a0.47 0.47 0 0 0-0.65 0.46q0.39 6.7-0.18 14.74-0.04 0.63 0.54 0.39zm-0.99 20.54a0.68 0.68 0 0 0 1.22 0.43l1.63-2.11a0.68 0.68 0 0 0 0.12-0.26l0.92-3.91a0.68 0.68 0 0 0-0.05-0.44l-2.28-4.83a0.68 0.68 0 0 0-1.29 0.28zm-3.49 0.34v-11.36a0.03 0.03 0 0 0-0.03-0.03h-0.05a5.62 2.76-90 0 0-2.76 5.62v0.18a5.62 2.76 90 0 0 2.76 5.62h0.05a0.03 0.03 0 0 0 0.03-0.03z"/><path d="m111.54 84.62 41.24-0.06a0.56 0.56 0 0 1 0.56 0.56l-0.02 9.56a0.56 0.56 0 0 1-0.56 0.56l-54.2-0.01a0.56 0.56 0 0 1-0.56-0.56l-0.01-53.48a0.56 0.56 0 0 1 0.56-0.56l11.84 0.04a0.56 0.56 0 0 1 0.56 0.56l0.03 42.83a0.56 0.56 0 0 0 0.56 0.56z"/><path d="m321.56 67.6c9.07 2.44 8.2 10.24 7.75 17.52-0.47 7.59-9.56 10.03-16.09 10.07q-22.24 0.14-44.58-0.02-0.95 0-0.95-0.95l0.03-52.98a0.58 0.58 0 0 1 0.58-0.58q21.18 0.1 47.7 0.04c12.73-0.03 13.18 6.92 12.87 17.27-0.13 4.77-2.79 7.41-7.29 8.52q-2.17 0.53-0.02 1.11zm-41.06-17.26v11.78a0.48 0.48 0 0 0 0.48 0.48h31.04a4.5 3.68 0 0 0 4.5-3.68v-5.38a4.5 3.68 0 0 0-4.5-3.68h-31.04a0.48 0.48 0 0 0-0.48 0.48zm0.03 21.24-0.02 13.18a0.37 0.37 0 0 0 0.37 0.37l30.48 0.05a5.19 3.72 0.1 0 0 5.19-3.71l0.02-6.48a5.19 3.72 0.1 0 0-5.19-3.73l-30.48-0.05a0.37 0.37 0 0 0-0.37 0.37z"/><path d="m452.86 84.61 41.79-0.05a0.61 0.61 0 0 1 0.61 0.61l0.05 9.46a0.61 0.61 0 0 1-0.61 0.61l-54.63-0.02a0.61 0.61 0 0 1-0.61-0.61l0.04-53.33a0.61 0.61 0 0 1 0.61-0.61l11.53-0.01a0.61 0.61 0 0 1 0.61 0.61v42.73a0.61 0.61 0 0 0 0.61 0.61z"/><path d="m860.72 51.11-0.01 43.47a0.62 0.62 0 0 1-0.62 0.62l-11.95 0.03a0.62 0.62 0 0 1-0.62-0.62v-43.43a0.62 0.62 0 0 0-0.62-0.62l-25.18-0.05a0.62 0.62 0 0 1-0.62-0.62l0.05-8.58a0.62 0.62 0 0 1 0.62-0.62l64.42 0.03a0.62 0.62 0 0 1 0.62 0.62l-0.01 8.56a0.62 0.62 0 0 1-0.62 0.62l-24.84-0.03a0.62 0.62 0 0 0-0.62 0.62z"/><path d="m16.47 84.57 40.32 0.03a0.81 0.81 0 0 0 0.81-0.81l0.09-10.57q0-0.48-0.47-0.48l-21-0.01q-0.76 0-0.75-0.76l0.03-7.96q0.01-0.73 0.74-0.73l32.98-0.01q0.47 0 0.48 0.47 0.23 10.99-0.06 21.72c-0.22 8.29-6.99 9.76-13.6 9.76q-19.62 0.02-38.94 0.01-4.3 0-8.11-1.11c-4.89-1.42-6.06-5.14-6.11-9.91q-0.18-17.2 0.09-34.45c0.1-6.63 5.79-8.92 11.42-8.97q18.75-0.17 43.81-0.02c7.93 0.05 12.21 4.22 11.59 12.31a1.56 1.55-3.5 0 1-1.25 1.4l-10.24 2.04a0.7 0.7 0 0 1-0.83-0.73l0.31-4.61a0.61 0.6 2.2 0 0-0.61-0.65l-40.95-0.02q-0.36 0-0.36 0.36l0.01 33.1q0 0.6 0.6 0.6z"/><path d="m239.47 85.19a9.99 9.99 0 0 1-9.99 9.99h-49.6a9.99 9.99 0 0 1-9.99-9.99v-34.46a9.99 9.99 0 0 1 9.99-9.99h49.6a9.99 9.99 0 0 1 9.99 9.99zm-13.07-34.13a0.53 0.53 0 0 0-0.53-0.53h-42.56a0.53 0.53 0 0 0-0.53 0.53v33.02a0.53 0.53 0 0 0 0.53 0.53h42.56a0.53 0.53 0 0 0 0.53-0.53z"/><path d="m356.71 95.22-12.18-0.03a0.62 0.62 0 0 1-0.53-0.93l31.46-53.29a0.62 0.62 0 0 1 0.54-0.31l12.36 0.06a0.62 0.62 0 0 1 0.53 0.3l32.08 53.28a0.62 0.62 0 0 1-0.53 0.94l-13.57-0.02a0.62 0.62 0 0 1-0.54-0.31l-6.81-11.83a0.62 0.62 0 0 0-0.54-0.31l-34.91-0.01a0.62 0.62 0 0 0-0.54 0.33l-6.27 11.8a0.62 0.62 0 0 1-0.55 0.33zm12.97-22.66a0.43 0.43 0 0 0 0.37 0.64l22.97 0.08a0.43 0.43 0 0 0 0.38-0.64l-11.42-20.34a0.43 0.43 0 0 0-0.75 0z"/><path d="m556.9 41.14a0.41 0.41 0 0 1 0.41-0.41h40.34a28.21 25.51 0 0 1 28.21 25.51v3.32a28.21 25.51 0 0 1-28.21 25.51h-40.34a0.41 0.41 0 0 1-0.41-0.41zm55.01 30.35c1.88-11.73-4.85-20.78-16.93-20.92q-12.23-0.14-24.6-0.03a0.31 0.31 0 0 0-0.3 0.31l0.12 33.17q0 0.58 0.58 0.58 10.09 0.04 19.62-0.04c8.81-0.08 19.85-2.68 21.51-13.07z"/><path d="m718.41 85.19a9.98 9.98 0 0 1-9.98 9.98h-49.64a9.98 9.98 0 0 1-9.98-9.98v-34.46a9.98 9.98 0 0 1 9.98-9.98h49.64a9.98 9.98 0 0 1 9.98 9.98zm-12.98-34.33a0.34 0.34 0 0 0-0.34-0.34h-42.84a0.34 0.34 0 0 0-0.34 0.34v33.4a0.34 0.34 0 0 0 0.34 0.34h42.84a0.34 0.34 0 0 0 0.34-0.34z"/><path d="m792.65 50.51-33.77 0.02a0.38 0.38 0 0 0-0.38 0.38l-0.02 33.26a0.44 0.44 0 0 0 0.45 0.44l34.01-0.03a0.33 0.33 0 0 0 0.33-0.33v-10.24a0.83 0.82 5 0 1 0.97-0.81l12.54 2.16a0.51 0.5 3.6 0 1 0.42 0.47c0.29 6.36 0.83 15.47-6.31 18.13q-3.16 1.17-6.04 1.19-17.92 0.14-35.53 0.07c-4.73-0.02-11.85-0.94-13.16-5.92q-0.77-2.92-0.83-6.29-0.31-16.46 0.18-33.26c0.18-6.3 5.35-8.89 10.97-8.96q18.02-0.2 38.71-0.03c11.68 0.1 12.38 8.74 11.99 17.73a0.73 0.73 0 0 1-0.63 0.69l-12.54 1.72a0.64 0.64 0 0 1-0.73-0.63v-9.12q0-0.64-0.63-0.64z"/><path d="m971.91 83.969a11.16 11.16 0 0 1-11.14 11.179l-48.04 0.0839a11.16 11.16 0 0 1-11.18-11.14l-0.0561-32.14a11.16 11.16 0 0 1 11.14-11.179l48.04-0.0839a11.16 11.16 0 0 1 11.18 11.14zm-13.798-33.179a0.27 0.27 0 0 0-0.27-0.27h-42.54a0.27 0.27 0 0 0-0.27 0.27v33.56a0.27 0.27 0 0 0 0.27 0.27h42.54a0.27 0.27 0 0 0 0.27-0.27z"/><path d="m1012.2 75.24v19.25q0 0.73-0.74 0.73l-11.25-0.02a0.95 0.94 0 0 1-0.95-0.94l0.05-53.04a0.49 0.49 0 0 1 0.49-0.49q25.03-0.08 49.42 0.05c3.38 0.02 8.52 1.2 10.05 4.17q1.09 2.14 1.05 6.05-0.11 8.23-0.15 14.79-0.04 7.06-6.96 8.14-5.44 0.86-10.85 0.52-1.85-0.12-0.39 1.03l23.81 18.71q1.31 1.04-0.36 1.04l-16.55 0.02a3.69 3.68 66.3 0 1-2.5-0.98l-20.46-18.86a3.45 3.45 0 0 0-2.31-0.91l-10.64-0.02q-0.76 0-0.76 0.76zm-0.02-24.11 0.02 13.44a0.58 0.58 0 0 0 0.58 0.58l31.07-0.05a4.15 3.38-0.1 0 0 4.15-3.39l-0.02-7.84a4.15 3.38-0.1 0 0-4.15-3.37l-31.07 0.05a0.58 0.58 0 0 0-0.58 0.58z"/><path d="m1135.6 50.5-35.65 0.03a0.47 0.47 0 0 0-0.47 0.47l0.01 10.52q0 0.73 0.73 0.73 17.35-0.1 38.94 0.05c6.64 0.04 9.23 3.8 9.71 9.65q0.63 7.57-0.11 13.92c-0.96 8.15-7.91 9.32-14.5 9.34q-19.23 0.06-34.72 0c-9.46-0.04-14.95-3.81-14.12-13.96q0.08-0.98 1.05-1.12l9.99-1.52a0.64 0.64 0 0 1 0.74 0.67l-0.24 4.49a0.76 0.76 0 0 0 0.76 0.8l38.93 0.01q0.79 0 0.79-0.79l-0.01-10.37a0.68 0.68 0 0 0-0.68-0.68q-16.07-0.07-32.32-0.03-4.46 0.01-9.03-0.85-6.81-1.27-7.17-7.86-0.4-7.2-0.04-14.73c0.31-6.37 5.81-8.36 11.26-8.44q16.92-0.27 36.25-0.08c8.34 0.08 12.5 3.57 12.88 11.94q0.08 1.6-1.5 1.9l-10.18 1.89a0.52 0.52 0 0 1-0.62-0.51l-0.04-4.82q0-0.65-0.64-0.65z"/></g></g><path d="m585.97 510.59c-1.4203 0-2.8245 0.21027-4.2055 0.63489-1.3844 0.42321-2.6267 1.0798-3.7203 1.9769-1.0958 0.89373-1.9862 2.0366-2.6677 3.4209-0.68152 1.3878-1.0214 3.0348-1.0214 4.939 0 0.96219 0.0792 1.8057 0.23189 2.5377 0.15274 0.73545 0.33217 1.3711 0.5444 1.9112 0.21218 0.53889 0.42898 0.98225 0.6513 1.3404 0.22009 0.35709 0.40646 0.62927 0.55919 0.82232 0.55801 0.75001 1.1827 1.3911 1.8766 1.9177 0.69164 0.52993 1.4327 0.96461 2.222 1.3026 0.78818 0.33594 1.6148 0.57553 2.4917 0.7204 0.87688 0.14597 1.7633 0.21578 2.666 0.21578 0.67253 0 1.3395-0.0423 1.9884-0.11339 0.65683-0.0762 1.3082-0.19082 1.9605-0.34694 0.63549-0.13454 1.1491-0.24497 1.5444-0.33424 0.39297-0.0855 0.7821-0.15316 1.1661-0.20224 0.384-0.0487 0.81957-0.0855 1.3125-0.11338 0.49065-0.0296 1.1379-0.0635 1.944-0.10028v-4.8222c0-0.15401 0.0135-0.33424 0.0309-0.53614 0.0224-0.1997 0.0626-0.39813 0.12993-0.59212 0.0663-0.19081 0.18371-0.36386 0.34537-0.51642 0.16619-0.15612 0.39182-0.27078 0.67925-0.35032 0.15718-0.0381 0.30717-0.0592 0.46545-0.0707 0.15155-0.0127 0.47775-0.0127 0.98188-0.0127v-2.0476h-11.236v2.0476h1.1299c0.40303 0 0.72515 0.0381 0.96543 0.11508 0.24137 0.0753 0.42245 0.20478 0.54932 0.39136 0.12912 0.17981 0.20964 0.42817 0.24674 0.73685 0.0347 0.30674 0.0664 0.68977 0.0855 1.1512v1.1842c0 0.44348-0.0292 0.76605-0.0855 0.9704-0.0583 0.20097-0.21573 0.38628-0.46051 0.56246-0.21556 0.11211-0.55585 0.24454-1.0263 0.38797-0.47493 0.14512-1.0462 0.21535-1.7187 0.21535-0.8286 0-1.6266-0.14935-2.3979-0.4489-0.7691-0.29743-1.4348-0.75306-1.9917-1.3717-0.71295-0.8084-1.2078-1.7249-1.4852-2.7466-0.27954-1.0206-0.41941-2.1979-0.41941-3.5295 0-2.1198 0.26219-3.8093 0.79439-5.0624 0.52658-1.2519 1.1433-2.1767 1.8585-2.7762 0.55465-0.49963 1.1958-0.85214 1.9144-1.0543 0.71745-0.19927 1.4461-0.3042 2.1759-0.3042 0.69051 0 1.3596 0.0893 2.0164 0.26274 0.65009 0.17516 1.2488 0.47187 1.7878 0.89962 0.76798 0.61758 1.3047 1.2853 1.6134 2.0016 0.30429 0.71629 0.56521 1.4709 0.77629 2.2647h2.018v-6.8715h-1.7894c-0.0977 0.32789-0.17634 0.55992-0.23024 0.69243-0.0583 0.13708-0.16298 0.32789-0.3191 0.57722-0.27281-0.15316-0.6098-0.33593-1.023-0.54934-0.41429-0.21112-0.90343-0.41674-1.4671-0.61995-0.56811-0.1997-1.2216-0.36936-1.9638-0.50496-0.73653-0.13454-1.5732-0.20224-2.495-0.20224zm-54.056 0.14512c-1.7706 0-3.3731 0.26104-4.8058 0.77958-1.4338 0.51985-2.6583 1.2567-3.6676 2.2088-1.0116 0.95208-1.7925 2.0938-2.3404 3.4209-0.55128 1.3249-0.8207 2.7903-0.8207 4.388 0 1.0566 0.11351 2.0318 0.34706 2.9177 0.23016 0.88472 0.53643 1.6833 0.92267 2.3963 0.38514 0.7096 0.82538 1.3412 1.3273 1.8914 0.49738 0.54794 1.022 1.0129 1.5575 1.398 0.7893 0.55911 1.8063 1.0457 3.0492 1.4588 1.2406 0.41548 2.6892 0.62169 4.3453 0.62169 2.0771 0 3.8488-0.32408 5.314-0.96871 1.4574-0.64335 2.6556-1.4825 3.592-2.5098 0.93191-1.0296 1.6117-2.1801 2.0361-3.4522 0.42106-1.2698 0.6332-2.5398 0.6332-3.8107 0-1.4618-0.25331-2.8469-0.76643-4.1595-0.50636-1.3091-1.2533-2.4469-2.2335-3.4192-0.98354-0.97231-2.1886-1.741-3.6134-2.3092-1.4203-0.56812-3.0486-0.85193-4.8765-0.85193zm99.897 0c-1.7717 0-3.3798 0.26104-4.8091 0.77958-1.4371 0.51985-2.6565 1.2567-3.6693 2.2088-1.006 0.95208-1.7864 2.0938-2.3354 3.4209-0.54791 1.3249-0.82398 2.7903-0.82398 4.388 0 1.0566 0.11351 2.0318 0.34702 2.9177 0.23016 0.88472 0.5353 1.6833 0.92266 2.3963 0.38624 0.7096 0.82875 1.3412 1.3273 1.8914 0.50076 0.54794 1.0235 1.0129 1.5625 1.398 0.78594 0.55911 1.8036 1.0457 3.0443 1.4588 1.244 0.41548 2.6869 0.62169 4.3452 0.62169 2.0771 0 3.8466-0.32408 5.3107-0.96871 1.4641-0.64335 2.6606-1.4825 3.5936-2.5098 0.93639-1.0296 1.6105-2.1801 2.0394-3.4522 0.41882-1.2698 0.63485-2.5398 0.63485-3.8107 0-1.4618-0.25669-2.8469-0.76642-4.1595-0.50974-1.3091-1.2582-2.4469-2.2384-3.4192-0.98243-0.97231-2.1853-1.741-3.6101-2.3092-1.4226-0.56812-3.0459-0.85193-4.8748-0.85193zm-132.7 0.63484-0.25657 6.1215h1.9638c0.0368-0.50187 0.10167-1.0261 0.18586-1.574 0.0887-0.54676 0.28271-1.0328 0.59374-1.4572 0.38624-0.51989 0.80405-0.82532 1.2565-0.90956 0.45024-0.0863 0.93072-0.13031 1.4292-0.13031h2.4259v14.028c0 0.19419-0.0114 0.39601-0.033 0.60857-0.0195 0.21324-0.0626 0.41928-0.12993 0.62-0.0651 0.20435-0.17338 0.38585-0.33061 0.54773-0.15155 0.16374-0.37253 0.29743-0.66445 0.39305-0.0954 0.0423-0.19119 0.0592-0.29109 0.0707-0.0954 8e-3 -0.2074 0.0169-0.34207 0.0296-0.13809 0.0127-0.31334 0.0127-0.53452 0.0127h-0.8503v2.0525h12.037v-2.0526h-0.76478c-0.20211 0-0.36542-2e-3 -0.49341-0.0127-0.12464-8e-3 -0.2294-0.0211-0.31249-0.0296-0.091-0.0127-0.18087-0.0212-0.27632-0.0448-0.34693-0.0753-0.61382-0.20732-0.80919-0.39136-0.19534-0.18024-0.33466-0.37867-0.41771-0.58877-0.0876-0.21451-0.13628-0.43312-0.14639-0.66447-9e-3 -0.23016-0.0131-0.44395-0.0131-0.63489v-13.945h2.4522c0.38628 0 0.7864 0.0169 1.1973 0.0575 0.41434 0.0381 0.78388 0.19124 1.1151 0.46214 0.22792 0.19293 0.41539 0.4277 0.56249 0.70724 0.14596 0.27966 0.25834 0.57697 0.34706 0.89471 0.0842 0.31647 0.14402 0.64225 0.17431 0.98026 0.0271 0.33805 0.0651 0.65993 0.0954 0.96871h2.0246l-0.34866-6.1216zm46.344 0v2.0509c0.49851 0 0.92276 0.0127 1.2697 0.0448 0.34583 0.0254 0.63666 0.11128 0.86346 0.24497 0.23016 0.13243 0.39821 0.34355 0.50492 0.61839 0.10666 0.27966 0.16281 0.65968 0.16281 1.1414v12.153c-0.0203 0.48389-0.0853 0.86345-0.18751 1.143-0.10891 0.27755-0.26583 0.48889-0.48025 0.63485-0.21108 0.14258-0.49447 0.23693-0.84701 0.27163-0.36043 0.0423-0.78765 0.0613-1.2862 0.0613v2.0492h11.286v-2.0492c-0.45922 0-0.8705-0.0127-1.2253-0.0448-0.35705-0.0254-0.66741-0.14893-0.93911-0.36005-0.32785-0.27078-0.52064-0.59195-0.57565-0.97036-0.0596-0.37486-0.0948-0.72535-0.11842-1.0509v-4.564h2.3766c0.61303 0 1.2903-0.0127 2.0246-0.0423 0.73317-0.0296 1.4605-0.132 2.1858-0.30589 0.72644-0.17178 1.4112-0.44933 2.0657-0.83548 0.65906-0.38417 1.2105-0.93452 1.6529-1.6464 0.2324-0.38628 0.41344-0.82461 0.54932-1.3141 0.1381-0.48837 0.20393-1.0138 0.20393-1.5707 0-0.59728-0.0839-1.1948-0.2467-1.791-0.16281-0.59728-0.4655-1.1761-0.90787-1.7318-0.42889-0.52209-0.88736-0.92589-1.3881-1.2122-0.50187-0.2894-1.0224-0.50399-1.5624-0.63646-0.54118-0.13327-1.0764-0.21493-1.6052-0.24497-0.53107-0.0296-1.038-0.0448-1.5197-0.0448zm54.041 0v2.0509c0.57711 0 1.0565 0.0296 1.4292 0.10027 0.37727 0.066 0.67152 0.20097 0.88485 0.40278 0.21108 0.20224 0.36445 0.47699 0.46216 0.82397 0.0954 0.34566 0.14638 0.80112 0.14638 1.3569v11.287c0 0.19336-0.0156 0.40279-0.0461 0.6365-0.03 0.23016-0.0961 0.45114-0.20393 0.66442-0.10442 0.21113-0.26177 0.40659-0.46051 0.57735-0.20097 0.17305-0.48376 0.29997-0.84865 0.37486-0.23465 0.0584-0.46413 0.0855-0.68419 0.0855h-0.67927v2.0526h19.432l0.43583-6.786h-2.0493c-0.0606 0.57705-0.14411 1.17-0.26316 1.7762-0.11568 0.60409-0.38713 1.1665-0.8059 1.6874-0.25149 0.30759-0.50646 0.54494-0.76807 0.70889-0.2594 0.16289-0.53214 0.28685-0.8207 0.37316-0.28631 0.0888-0.5782 0.14047-0.86675 0.15951-0.28745 0.0169-0.58759 0.0254-0.89636 0.0254h-2.9983c-0.38844-0.0169-0.70101-0.066-0.94241-0.14512-0.23799-0.0774-0.42948-0.20055-0.56083-0.37656-0.13361-0.1705-0.2264-0.39601-0.27463-0.67597-0.0471-0.28051-0.0723-0.60874-0.0723-0.99502v-12.07c0-0.19081 9e-3 -0.39771 0.0279-0.62008 0.0195-0.22001 0.0773-0.42863 0.17266-0.61839 0.0955-0.19208 0.25804-0.36344 0.47696-0.50817 0.22572-0.14428 0.52388-0.23186 0.90787-0.27459 0.13475-0.0169 0.27374-0.0254 0.40625-0.0254h0.89471v-2.0509zm43.688 0v2.0509c0.51648 0 0.9356 0.0169 1.25 0.0575 0.31998 0.0381 0.59711 0.13877 0.82728 0.30251 0.2313 0.16458 0.43457 0.38839 0.60525 0.67931 0.17177 0.28855 0.37731 0.67288 0.60524 1.1545l6.9603 16.485h3.2334l6.9307-16.631c0.20545-0.51981 0.4257-0.91083 0.64799-1.1825 0.21895-0.26824 0.47266-0.47217 0.74999-0.60688 0.27953-0.13327 0.60522-0.21154 0.98023-0.23185 0.37727-0.0169 0.81282-0.0254 1.3125-0.0254v-2.0509h-8.8895v2.0509h1.1266c0.192 0 0.38252 4e-3 0.57565 0.0127 0.19086 8e-3 0.36703 0.0448 0.51972 0.10197 0.15379 0.0584 0.28012 0.14216 0.37333 0.25808 0.0966 0.11678 0.14804 0.27967 0.14804 0.4918 0 0.13328-0.0212 0.26021-0.0559 0.37486-0.0415 0.11551-0.0908 0.24328-0.14474 0.37698l-3.9292 9.8451c-0.0573 0.19081-0.11182 0.35032-0.1579 0.47699-0.0494 0.12481-0.0807 0.24836-0.0987 0.37317-0.0224 0.12565-0.0415 0.26147-0.0592 0.40278-0.019 0.14723-0.0296 0.32324-0.0296 0.53453h-0.20228c-0.0203-0.36597-0.0394-0.63413-0.0592-0.80594-0.0212-0.17051-0.0762-0.44302-0.16936-0.80916l-3.8996-9.8731c-0.0406-0.15486-0.0776-0.29828-0.11347-0.43401-0.0415-0.13454-0.0592-0.27797-0.0592-0.4327 0-0.23143 0.036-0.40489 0.11681-0.52137 0.073-0.1155 0.17114-0.1997 0.28453-0.25851 0.11453-0.0571 0.23964-0.0931 0.37664-0.10239 0.13475-4e-3 0.25326-0.0127 0.34866-0.0127h1.2105v-2.0509zm25.359 0.0254v2.023c0.52209 0 0.96243 0.0127 1.324 0.0448 0.3683 0.0254 0.67358 0.10577 0.91611 0.23016 0.23693 0.12862 0.41386 0.31732 0.53287 0.57896 0.11225 0.25724 0.17935 0.62076 0.20067 1.0822v12.153c0 0.38628-0.0271 0.70995-0.0707 0.96706-0.0517 0.26274-0.14639 0.47665-0.28779 0.65291-0.1471 0.17051-0.34232 0.30167-0.59044 0.38798-0.25487 0.0855-0.59374 0.14046-1.0148 0.15612h-1.0098v2.1085h19.718l0.40624-6.3831h-1.9358c-0.0392 0.48507-0.11382 0.94578-0.2171 1.3882-0.10666 0.44437-0.34894 0.90643-0.73518 1.3881-0.28631 0.34566-0.59065 0.61492-0.90951 0.80916-0.3189 0.19293-0.65087 0.33339-0.99668 0.43269-0.34583 0.0931-0.70138 0.15908-1.0674 0.18574-0.366 0.0296-0.72263 0.0448-1.0707 0.0448h-1.847c-0.47831 0-0.95022-0.047-1.4128-0.14512-0.46146-0.0977-0.81866-0.39432-1.069-0.89306-0.11453-0.25132-0.18671-0.53585-0.22039-0.85359-0.0271-0.31774-0.0428-0.68854-0.0428-1.1118v-4.5903h1.9522c0.34584 0 0.71049 0.0381 1.0855 0.10155 0.37726 0.0652 0.70239 0.27458 0.97859 0.61839 0.2122 0.29066 0.33813 0.63112 0.38978 1.0264 0.0483 0.39517 0.0707 0.75539 0.0707 1.0821h1.7944v-7.7086h-1.7944c-0.0203 0.38839-0.0704 0.80404-0.15461 1.2565-0.0909 0.4514-0.32799 0.82384-0.71872 1.1102-0.26834 0.21577-0.56686 0.34228-0.89471 0.39136-0.33124 0.0495-0.64829 0.0707-0.96378 0.0707h-1.745v-6.4077h4.4472c0.63773 0 1.1671 0.0423 1.5904 0.12819 0.4244 0.0863 0.76946 0.25767 1.0378 0.50657 0.27059 0.25174 0.47685 0.5977 0.62169 1.0378 0.14371 0.44437 0.26537 1.0238 0.35857 1.7368h2.1677l-0.63485-5.6051zm-136.72 1.3865c0.25148 0 0.53949 0.0254 0.8651 0.0724 0.32899 0.0495 0.66634 0.13877 1.0065 0.27458 0.34922 0.13582 0.69865 0.33001 1.0411 0.58057 0.34922 0.25047 0.68753 0.56605 1.0131 0.95225 0.34694 0.42322 0.63494 0.91616 0.8651 1.4753 0.22902 0.55916 0.41878 1.1462 0.56249 1.7648 0.14711 0.6153 0.24814 1.2444 0.30428 1.8799 0.0562 0.63553 0.0872 1.2402 0.0872 1.8207 0 1.6774-0.19213 3.0587-0.58057 4.1512-0.37952 1.0902-0.77782 1.9018-1.1809 2.4407-0.30991 0.38839-0.67596 0.73448-1.097 1.0444-0.42665 0.30674-0.84694 0.5397-1.2713 0.69243-0.24815 0.0969-0.50185 0.15655-0.74999 0.18955-0.25038 0.0254-0.51011 0.0448-0.77957 0.0448-0.91057 0-1.6776-0.15992-2.3108-0.4786-0.63661-0.31774-1.1685-0.72619-1.6019-1.2269-0.43453-0.50419-0.77844-1.0701-1.0378-1.7056-0.2627-0.63776-0.459-1.2788-0.59373-1.921-0.13475-0.64788-0.21946-1.2728-0.25986-1.8668-0.0368-0.60066-0.0542-1.1112-0.0542-1.5345 0-0.46371 0.0199-0.97891 0.0691-1.5493 0.0471-0.56812 0.13801-1.144 0.26151-1.7335 0.12684-0.58945 0.29109-1.1686 0.50327-1.7368 0.21218-0.56808 0.49134-1.0839 0.83714-1.5476 0.32676-0.4426 0.6764-0.80134 1.0559-1.0674 0.37275-0.27077 0.74475-0.4816 1.1085-0.63649 0.36491-0.15612 0.72078-0.2547 1.0542-0.30421 0.33906-0.0461 0.63506-0.0723 0.8832-0.0723zm99.893 0c0.24924 0 0.53329 0.0254 0.86675 0.0724 0.32561 0.0495 0.66065 0.13877 1.0098 0.27458 0.34694 0.13582 0.69259 0.33001 1.0362 0.58057 0.34693 0.25047 0.68752 0.56605 1.0131 0.95225 0.34807 0.42322 0.63607 0.91616 0.86511 1.4753 0.2313 0.55916 0.42042 1.1462 0.56412 1.7648 0.14258 0.6153 0.24485 1.2444 0.30099 1.8799 0.0606 0.63553 0.0856 1.2402 0.0856 1.8207 0 1.6774-0.1906 3.0587-0.57234 4.1512-0.38624 1.0902-0.7805 1.9018-1.1858 2.4407-0.30991 0.38839-0.67491 0.73448-1.0937 1.0444-0.42889 0.30674-0.85245 0.5397-1.2746 0.69243-0.24586 0.0969-0.49907 0.15655-0.74833 0.18955-0.25149 0.0254-0.50959 0.0448-0.77794 0.0448-0.90607 0-1.6775-0.15992-2.3108-0.4786-0.63773-0.31774-1.1707-0.72619-1.6052-1.2269-0.43227-0.50419-0.77844-1.0701-1.0378-1.7056-0.25936-0.63776-0.45796-1.2788-0.59044-1.921-0.13252-0.64788-0.22221-1.2728-0.26152-1.8668-0.0393-0.60066-0.0576-1.1112-0.0576-1.5345 0-0.46371 0.0224-0.97891 0.0707-1.5493 0.0471-0.56812 0.13467-1.144 0.26151-1.7335 0.12575-0.58945 0.2927-1.1686 0.50492-1.7368 0.21447-0.56808 0.49246-1.0839 0.83715-1.5476 0.32899-0.4426 0.67924-0.80134 1.0542-1.0674 0.37499-0.27077 0.74406-0.4816 1.1134-0.63649 0.36826-0.15612 0.71526-0.2547 1.051-0.30421 0.33682-0.0461 0.63005-0.0723 0.88154-0.0723zm-77.838 0.63645h1.3075c0.31097 0 0.6119 4e-3 0.91281 0.0127 0.30428 8e-3 0.5921 0.055 0.87167 0.13031 0.28182 0.0774 0.54558 0.19674 0.79932 0.35836 0.25149 0.16458 0.48566 0.39136 0.699 0.67766 0.15379 0.21493 0.29997 0.51232 0.43583 0.89632 0.13247 0.38628 0.20558 0.9052 0.20558 1.5575 0 0.0977-6e-3 0.26782-0.0148 0.50822-0.0123 0.23777-0.058 0.50419-0.13323 0.79274-0.0809 0.28855-0.20292 0.5881-0.36348 0.89801-0.16501 0.30505-0.39111 0.57625-0.68419 0.80747-0.44461 0.34482-0.90496 0.54469-1.3799 0.60532-0.47269 0.0575-0.93416 0.0867-1.3799 0.0867h-1.2763z" style="fill:#fefefc"/><rect x="498.85" y="335.31" width="472.41" height="145.05" style="fill:#fff;stroke-linecap:round;stroke-linejoin:round;stroke-width:1.0059"/><path d="m511.75 363.24-1.1214 26.755h8.583c0.16084-2.1935 0.44436-4.4847 0.81234-6.8794 0.38768-2.3897 1.2356-4.5141 2.5951-6.3688 1.6882-2.2723 3.5143-3.6073 5.492-3.9754 1.9679-0.37719 4.0679-0.56959 6.2467-0.56959h10.603v61.31c0 0.84879-0.0498 1.7308-0.14422 2.6599-0.0852 0.93201-0.27361 1.8326-0.56789 2.7098-0.28454 0.89316-0.75785 1.6865-1.445 2.394-0.66239 0.71566-1.6282 1.3-2.9041 1.7179-0.41696 0.18488-0.83568 0.25875-1.2723 0.30901-0.41697 0.035-0.90648 0.0739-1.4951 0.12937-0.60355 0.0555-1.3695 0.0555-2.3362 0.0555h-3.7164v8.9711h52.612v-8.9711h-3.3426c-0.88336 0-1.5972-9e-3 -2.1566-0.0555-0.54477-0.035-1.0026-0.0926-1.3658-0.12937-0.39773-0.0555-0.79052-0.0927-1.2077-0.19581-1.5164-0.32912-2.6828-0.90609-3.5367-1.7105-0.85378-0.78774-1.4627-1.655-1.8257-2.5734-0.38287-0.93756-0.5956-1.893-0.63983-2.9042-0.0394-1.006-0.0572-1.9404-0.0572-2.7749v-60.951h10.718c1.6883 0 3.4372 0.0739 5.2332 0.25132 1.8109 0.16652 3.4261 0.83585 4.8738 2.0199 0.99618 0.84324 1.8156 1.8694 2.4584 3.0912 0.63799 1.2223 1.1291 2.5218 1.5169 3.9105 0.36801 1.3832 0.62947 2.8071 0.76186 4.2844 0.11845 1.4775 0.28454 2.8844 0.41697 4.234h8.849l-1.5239-26.756z" style="fill:#1b488c"/><path d="m664.45 360.91c-6.1316 0-12.194 0.9078-18.156 2.7409-5.9765 1.8271-11.34 4.6617-16.061 8.5345-4.7308 3.8584-8.5745 8.7924-11.517 14.769-2.9422 5.9912-4.4093 13.102-4.4093 21.322 0 4.1539 0.34192 7.7953 1.0011 10.956 0.65939 3.1751 1.434 5.9192 2.3502 8.2508 0.91601 2.3264 1.852 4.2404 2.8117 5.7866 0.95016 1.5416 1.7547 2.7166 2.4141 3.5501 2.409 3.2379 5.1059 6.0056 8.1014 8.2791 2.9859 2.2877 6.185 4.1643 9.5926 5.6234 3.4027 1.4502 6.9714 2.4846 10.757 3.11 3.7856 0.63013 7.6125 0.9315 11.51 0.9315 2.9034 0 5.7826-0.18261 8.5842-0.48951 2.8356-0.32897 5.6474-0.82375 8.4636-1.4977 2.7435-0.58083 4.961-1.0576 6.6671-1.443 1.6965-0.36912 3.3764-0.66121 5.0341-0.8731 1.6578-0.21024 3.5382-0.36911 5.666-0.48952 2.1182-0.12778 4.9123-0.27413 8.3926-0.43287v-20.818c0-0.66483 0.0583-1.443 0.1334-2.3146 0.0967-0.86212 0.27025-1.7188 0.56092-2.5562 0.28622-0.8238 0.7931-1.5708 1.491-2.2295 0.71746-0.67399 1.6915-1.169 2.9324-1.5124 0.67857-0.16449 1.3261-0.25558 2.0094-0.30522 0.65426-0.0548 2.0625-0.0548 4.2389-0.0548v-8.8399h-48.509v8.8399h4.8779c1.7399 0 3.1306 0.16448 4.1679 0.49681 1.042 0.32508 1.8238 0.88402 2.3715 1.6895 0.55743 0.7763 0.90504 1.8484 1.0652 3.1811 0.1498 1.3242 0.28665 2.9778 0.36911 4.9698v5.1122c0 1.9146-0.12606 3.3071-0.36911 4.1893-0.25169 0.86761-0.93134 1.6677-1.9881 2.4282-0.9306 0.48404-2.3997 1.0558-4.4306 1.675-2.0503 0.6265-4.5164 0.92969-7.4199 0.92969-3.5772 0-7.0222-0.64476-10.352-1.938-3.3203-1.284-6.1943-3.251-8.5985-5.9218-3.0779-3.49-5.2144-7.4466-6.4116-11.857-1.2068-4.406-1.8106-9.4886-1.8106-15.237 0-9.1515 1.1319-16.445 3.4295-21.855 2.2733-5.4047 4.9357-9.3969 8.0233-11.985 2.3945-2.157 5.1626-3.6788 8.2648-4.5515 3.0973-0.86032 6.2431-1.3133 9.3937-1.3133 2.981 0 5.8694 0.38552 8.705 1.1343 2.8065 0.75614 5.3914 2.0371 7.718 3.8837 3.3154 2.6662 5.6324 5.5487 6.9654 8.6413 1.3137 3.0924 2.4401 6.3501 3.3513 9.7771h8.7121v-29.665h-7.7251c-0.42178 1.4156-0.76128 2.4172-0.99397 2.9893-0.25169 0.59183-0.7036 1.4156-1.3776 2.492-1.1778-0.66121-2.6326-1.4503-4.4163-2.3716-1.7885-0.91147-3.9002-1.7992-6.3335-2.6764-2.4526-0.86212-5.2738-1.5946-8.4777-2.18-3.1797-0.58082-6.7916-0.87305-10.771-0.87305z" style="fill:#1b488c"/><path d="m784.98 360.91c-6.1316 0-12.194 0.9078-18.156 2.7409-5.9765 1.8271-11.34 4.6617-16.061 8.5345-4.7308 3.8584-8.5745 8.7924-11.517 14.769-2.9422 5.9912-4.4093 13.102-4.4093 21.322 0 4.1539 0.34192 7.7953 1.0011 10.956 0.65939 3.1751 1.434 5.9192 2.3502 8.2508 0.91601 2.3264 1.852 4.2404 2.8117 5.7866 0.95016 1.5416 1.7547 2.7166 2.4141 3.5501 2.409 3.2379 5.1059 6.0056 8.1014 8.2791 2.9859 2.2877 6.185 4.1643 9.5926 5.6234 3.4027 1.4502 6.9714 2.4846 10.757 3.11 3.7856 0.63013 7.6125 0.9315 11.51 0.9315 2.9034 0 5.7826-0.18261 8.5842-0.48951 2.8356-0.32897 5.6474-0.82375 8.4636-1.4977 2.7435-0.58083 4.961-1.0576 6.6671-1.443 1.6965-0.36912 3.3764-0.66121 5.0341-0.8731 1.6578-0.21024 3.5382-0.36911 5.666-0.48952 2.1182-0.12778 4.9123-0.27413 8.3926-0.43287v-20.818c0-0.66483 0.0583-1.443 0.1334-2.3146 0.0967-0.86212 0.27025-1.7188 0.56092-2.5562 0.28622-0.8238 0.7931-1.5708 1.491-2.2295 0.71746-0.67399 1.6915-1.169 2.9324-1.5124 0.67857-0.16449 1.3261-0.25558 2.0094-0.30522 0.65426-0.0548 2.0625-0.0548 4.2389-0.0548v-8.8399h-48.509v8.8399h4.8779c1.7399 0 3.1306 0.16448 4.1679 0.49681 1.042 0.32508 1.8238 0.88402 2.3715 1.6895 0.55743 0.7763 0.90504 1.8484 1.0652 3.1811 0.1498 1.3242 0.28665 2.9778 0.36911 4.9698v5.1122c0 1.9146-0.12606 3.3071-0.36911 4.1893-0.25169 0.86761-0.93134 1.6677-1.9881 2.4282-0.9306 0.48404-2.3997 1.0558-4.4306 1.675-2.0503 0.6265-4.5164 0.92969-7.4199 0.92969-3.5772 0-7.0222-0.64476-10.352-1.938-3.3203-1.284-6.1943-3.251-8.5985-5.9218-3.0779-3.49-5.2144-7.4466-6.4116-11.857-1.2068-4.406-1.8106-9.4886-1.8106-15.237 0-9.1515 1.1319-16.445 3.4295-21.855 2.2733-5.4047 4.9357-9.3969 8.0233-11.985 2.3945-2.157 5.1626-3.6788 8.2648-4.5515 3.0973-0.86032 6.2431-1.3133 9.3937-1.3133 2.981 0 5.8694 0.38552 8.705 1.1343 2.8065 0.75614 5.3914 2.0371 7.718 3.8837 3.3154 2.6662 5.6324 5.5487 6.9654 8.6413 1.3137 3.0924 2.4401 6.3501 3.3513 9.7771h8.7121v-29.665h-7.7251c-0.42178 1.4156-0.76128 2.4172-0.99397 2.9893-0.25169 0.59183-0.7036 1.4156-1.3776 2.492-1.1778-0.66121-2.6326-1.4503-4.4163-2.3716-1.7885-0.91147-3.9002-1.7992-6.3335-2.6764-2.4526-0.86212-5.2738-1.5946-8.4777-2.18-3.1797-0.58082-6.7916-0.87305-10.771-0.87305z" style="fill:#ec1c24"/><path d="m858.04 443.34c6.6275-0.51339 9.7168-2.413 9.7921-9.436q0.22465-26.219-0.0519-52.87c-0.0887-7.1578-5.4908-8.2833-11.096-9.4699q-1.8465-0.3919-2.257-2.2402-0.44004-2.1475 0.14441-4.1759a2.5953 2.6543 8.3141 0 1 2.5299-1.9138q23.372-0.10847 45.409-0.1481c25.853-0.0644 50.158 9.4412 53.881 37.075 4.1357 30.499-15.064 51.536-46.293 52.071q-24.659 0.43978-51.674 0.33482a3.893 3.893 0 0 1-3.8692-3.7829l-0.0151-1.5678q-0.0774-3.5844 3.5029-3.8763zm34.257-66.033 0.62155 60.992a5.3381 5.3381 0 0 0 5.3711 5.2669l5.8782-0.038a30.731 27.723 89.414 0 0 27.401-31.036l-0.0973-10.209a30.731 27.723 89.414 0 0-28.048-30.442l-5.8415 0.0574a5.3381 5.3381 0 0 0-5.2866 5.4078z" style="fill:#ec1c24;stroke-width:2.9492"/></g></g></svg>
