<svg width="1200" height="400" version="1.1" viewBox="0 0 1200 400" xml:space="preserve" xmlns="http://www.w3.org/2000/svg"><defs><style>.cls-1{fill:none;}.cls-2{clip-path:url(#clip-path);}.cls-3{fill:#46beaa;}</style><clipPath id="clip-path" transform="translate(-7e-4 -4e-4)"><rect class="cls-1" width="955.5" height="97.364"/></clipPath><style>.cls-1{fill:none;}.cls-2{clip-path:url(#clip-path);}.cls-3{fill:#46beaa;}</style></defs><g transform="matrix(1.2559 0 0 1.2559 -1.6914e-5 138.86)"><g class="cls-2" clip-path="url(#clip-path)"><path class="cls-3" transform="translate(-7e-4,-4e-4)" d="m796.06 22.797a96.086 96.086 0 0 0-9.6494 9.7618c14.443 14.505 24.866 36.645 28.371 62.283h13.895c-2.7979-22.594-10.553-43.453-22.521-60.088a98.781 98.781 0 0 0-10.096-11.957"/><path class="cls-3" transform="translate(-7e-4,-4e-4)" d="m779.13 42.235a95.284 95.284 0 0 0-7.08 12.777c8.27 10.31 14.356 24.132 17.128 39.831h13.942c-2.631-16.867-8.7094-32.41-17.778-44.984a82.186 82.186 0 0 0-6.2127-7.6244"/><path class="cls-3" transform="translate(-7e-4,-4e-4)" d="m763.4 94.842h13.986a80.11 80.11 0 0 0-10.368-26.165 95.896 95.896 0 0 0-3.618 26.165"/><path class="cls-3" transform="translate(-7e-4,-4e-4)" d="m915.19 17.108q-2.7162-1.96-5.5777-3.7342-1.301 1.3554-2.5729 2.758a134.96 134.96 0 0 0-30.429 57.907 192.3 192.3 0 0 0-8.5824-30.98 146.65 146.65 0 0 1 24.553-38.035q-3.3531-1.2465-6.8223-2.2463a153.24 153.24 0 0 0-21.084 31.891 160.52 160.52 0 0 0-16.9-30.131c-1.0741-1.4952-2.1665-2.9467-3.2769-4.3729a95.108 95.108 0 0 0-14.846 3.5273c11.493 13.304 20.874 30.164 27.297 49.393a169.74 169.74 0 0 0-6.0132 21.882c-4.5252-20.634-12.661-39.574-23.973-55.32a119.17 119.17 0 0 0-9.1268-11.239 95.413 95.413 0 0 0-12.266 7.0365c18.17 18.395 31.046 46.733 34.685 79.397h14.392a172.82 172.82 0 0 1 5.6618-30.461 190.97 190.97 0 0 1 5.349 30.461h13.902c4.108-35.723 19.317-59.772 32.392-74.288 1.0742-1.194 2.1519-2.3334 3.237-3.4475"/><path class="cls-3" transform="translate(-7e-4,-4e-4)" d="m933.24 34.051q-2.1231-2.58-4.4165-5.0079c-14.766 15.125-27.108 37.062-30.962 65.8h6.6772c3.941-27.896 16.062-46.853 26.531-58.466 0.7185-0.7984 1.4443-1.5713 2.17-2.3262"/><path class="cls-3" transform="translate(-7e-4,-4e-4)" d="m922.94 94.842h6.71a86.712 86.712 0 0 1 17.205-38.702q-1.4806-3.3423-3.1972-6.5466c-9.62 11.235-17.484 26.324-20.718 45.249"/><path class="cls-3" transform="translate(-7e-4,-4e-4)" d="m954.16 79.356a69.73 69.73 0 0 0-5.9116 15.484h7.2578a89.779 89.779 0 0 0-1.3462-15.485"/></g><polygon class="cls-3" points="349.3 76.679 349.3 2.776 328.62 2.776 328.62 94.842 385.36 94.842 385.36 76.679"/><polygon class="cls-3" points="499.75 88.125 499.75 2.776 492.26 2.776 492.26 94.842 541.7 94.842 541.7 88.125"/><rect class="cls-3" x="550.32" y="2.7758" width="7.4792" height="92.066"/><polygon class="cls-3" points="722.49 9.493 722.49 2.776 671.28 2.776 671.28 94.842 724.01 94.842 724.01 88.125 678.75 88.125 678.75 50.961 719.44 50.961 719.44 44.385 678.75 44.385 678.75 9.493"/><polygon class="cls-3" points="653.74 94.842 653.74 2.776 646.29 2.776 646.29 88.125 644.77 88.125 591.44 2.776 577.99 2.776 577.99 94.842 585.44 94.842 585.44 9.49 587.25 9.49 640.58 94.842"/><polygon class="cls-3" points="54.419 94.842 65.825 38.768 78.109 94.842 110.46 94.842 130.64 2.776 109.37 2.776 93.42 76.679 91.877 76.679 76.708 5.302 55.185 5.302 41.631 76.679 39.632 76.679 21.171 2.776 0 2.776 22.706 94.842"/><g class="cls-2" clip-path="url(#clip-path)"><path class="cls-3" transform="translate(-7e-4,-4e-4)" d="m454.57 61.042a23.772 23.772 0 0 1-14.312 14.251 32.952 32.952 0 0 1-11.732 1.9559h-13.895v-57.134h13.895a36.265 36.265 0 0 1 11.732 1.7673 22.772 22.772 0 0 1 14.312 13.87c2.5765 7.1454 2.6382 18.039 0 25.29m11.01-45.402c-9.8124-9.5951-22.688-13.663-37.457-13.623h-34.178v93.329h34.178a56.953 56.953 0 0 0 21.817-3.8466 44.118 44.118 0 0 0 25.036-25.032 48.364 48.364 0 0 0 3.0918-19.299c-0.0181-11.798-4.0281-23.163-12.487-31.528"/><path class="cls-3" transform="translate(-7e-4,-4e-4)" d="m180.27 78.529c-17.528 0-27.602-13.79-27.602-29.797 0-16.602 9.45-29.801 27.602-29.801 15.39 0 27.605 10.615 27.605 29.801 0 16.102-10.274 29.797-27.605 29.797m21.258-74.429c-11.769-5.4688-30.984-5.4615-42.691 0a45.79 45.79 0 0 0-24.72 26.107 51.028 51.028 0 0 0-3.088 19.738c0.1633 17.622 10.756 35.386 27.431 43.006 11.827 5.8862 31.681 5.8825 43.507 0 16.675-7.6135 27.271-25.388 27.431-43.006a48.695 48.695 0 0 0-12.487-34.936 45.351 45.351 0 0 0-15.383-10.909"/><path class="cls-3" transform="translate(-7e-4,-4e-4)" d="m290.22 42.063c-2.7181 4.7575-7.3377 7.022-12.988 6.9966h-16.552v-28.944h16.552c3.0229 0 5.6321 0.0436 7.8168 1.2629a13.266 13.266 0 0 1 5.1712 5.1712c2.4822 4.2422 2.5656 11.192 0 15.514m18.83 9.8344c3.4294-4.7975 4.8628-11.91 4.6015-18.979q0-10.217-4.54-17.089c-7.1635-10.575-19.625-13.706-32.918-13.812h-36.198v92.824h20.685v-28.505c0.41-0.0036 15.223 0.0109 15.666-0.0036l19.524 28.509h23.958l-23.512-32.965a27.576 27.576 0 0 0 12.734-9.98"/></g></g></svg>
