<svg width="1200" height="400" version="1.1" viewBox="0 0 1200 400" xml:space="preserve" xmlns="http://www.w3.org/2000/svg"><g transform="matrix(6.3099 0 0 6.3099 -1526.8 -1082.6)"><path d="m268.21 225.73q0 2.5299-1.0195 3.9365-1.0101 1.3971-2.8981 1.3971-1.0856 0-1.8786-0.472-0.79297-0.47201-1.2178-1.3594h-0.0189q0 0.33041-0.0472 0.90625-0.0378 0.57585-0.085 0.73633h-2.5771q0.0755-0.87793 0.0755-2.3317v-11.677h2.6527v3.9082l-0.0378 1.6615h0.0378q0.89681-1.9635 3.2663-1.9635 1.8125 0 2.7754 1.3782 0.97233 1.3688 0.97233 3.8799zm-2.766 0q0-1.737-0.50976-2.5771-0.50977-0.84017-1.5765-0.84017-1.0762 0-1.6426 0.90625-0.55697 0.89681-0.55697 2.596 0 1.6237 0.54753 2.5299 0.55696 0.90625 1.6331 0.90625 2.1051 0 2.1051-3.5212zm4.0188 5.1448v-7.8164q0-0.84017-0.0283-1.3971-0.0189-0.5664-0.0472-1.0006h2.53q0.0283 0.16992 0.0755 1.0384 0.0472 0.85905 0.0472 1.1422h0.0378q0.38704-1.0762 0.68913-1.5104 0.30208-0.44368 0.71744-0.65137 0.41537-0.21712 1.0384-0.21712 0.50977 0 0.82129 0.1416v2.2184q-0.64193-0.1416-1.1328-0.1416-0.99121 0-1.5482 0.80241-0.54752 0.80241-0.54752 2.3789v5.0127zm16.338-5.1165q0 2.4827-1.3783 3.8988-1.3782 1.4066-3.8138 1.4066-2.3884 0-3.7477-1.416-1.3594-1.416-1.3594-3.8893 0-2.4639 1.3594-3.8704 1.3594-1.416 3.8044-1.416 2.5016 0 3.8138 1.3688 1.3216 1.3594 1.3216 3.9176zm-2.7754 0q0-1.8219-0.59473-2.6432-0.59472-0.82129-1.7275-0.82129-2.4167 0-2.4167 3.4645 0 1.7087 0.58528 2.6055 0.59473 0.88737 1.7087 0.88737 2.445 0 2.445-3.4928zm6.3506 5.3053q-1.4821 0-2.3128-0.80241-0.83073-0.81185-0.83073-2.2751 0-1.5859 1.029-2.4167 1.0384-0.83073 3.002-0.84961l2.1995-0.0378v-0.5192q0-1.0006-0.34929-1.4821-0.34928-0.49088-1.1422-0.49088-0.73633 0-1.0856 0.33984-0.33984 0.3304-0.4248 1.1045l-2.766-0.13216q0.25488-1.4915 1.3594-2.2562 1.1139-0.77409 3.0303-0.77409 1.9352 0 2.9831 0.95345t1.0478 2.7093v3.7194q0 0.85905 0.1888 1.1894 0.19824 0.32096 0.65137 0.32096 0.30208 0 0.58528-0.0566v1.4349q-0.236 0.0566-0.4248 0.10384-0.1888 0.0472-0.3776 0.0755-0.18881 0.0283-0.40593 0.0472-0.20768 0.0189-0.49088 0.0189-1.0006 0-1.4821-0.49089-0.472-0.49088-0.5664-1.4443h-0.0566q-1.1139 2.0107-3.3607 2.0107zm3.0869-4.9183-1.3594 0.0189q-0.92513 0.0378-1.3122 0.20769-0.38704 0.16048-0.59472 0.50032-0.19825 0.33984-0.19825 0.90625 0 0.72689 0.33041 1.0856 0.33984 0.34928 0.8968 0.34928 0.62305 0 1.1328-0.33984 0.5192-0.33984 0.81184-0.93457 0.29265-0.60416 0.29265-1.2744zm11.033 4.7295q-0.0378-0.1416-0.0944-0.70801-0.0472-0.57584-0.0472-0.95345h-0.0378q-0.85905 1.8503-3.2663 1.8503-1.7842 0-2.7565-1.3877-0.97233-1.3971-0.97233-3.8988 0-2.5394 1.0195-3.9176 1.029-1.3877 2.9076-1.3877 1.0856 0 1.8691 0.45313 0.79297 0.45312 1.2178 1.3499h0.0189l-0.0189-1.6803v-3.7288h2.6527v11.781q0 0.94401 0.0755 2.2279zm-0.12272-5.1637q0-1.652-0.55697-2.5394-0.54752-0.89681-1.6237-0.89681-1.0667 0-1.5859 0.86849-0.5192 0.85904-0.5192 2.6338 0 3.474 2.0863 3.474 1.0478 0 1.6237-0.91569 0.57585-0.92512 0.57585-2.6243zm8.6822 5.3525q-2.3223 0-3.5872-1.3782-1.265-1.3877-1.265-3.861 0-2.5299 1.2744-3.9365 1.2744-1.416 3.6156-1.416 1.8031 0 2.9831 0.90625t1.4821 2.5016l-2.6716 0.13216q-0.11328-0.78352-0.5664-1.2461-0.45313-0.472-1.2839-0.472-2.0485 0-2.0485 3.4268 0 3.5306 2.0863 3.5306 0.75521 0 1.265-0.472 0.50976-0.48145 0.63248-1.4254l2.6621 0.12272q-0.14161 1.0478-0.75521 1.8691-0.60417 0.82129-1.5954 1.2744-0.99121 0.44368-2.2279 0.44368zm7.9648 0q-1.4821 0-2.3128-0.80241-0.83072-0.81185-0.83072-2.2751 0-1.5859 1.029-2.4167 1.0384-0.83073 3.0019-0.84961l2.1995-0.0378v-0.5192q0-1.0006-0.34928-1.4821-0.34928-0.49088-1.1422-0.49088-0.73633 0-1.0856 0.33984-0.33984 0.3304-0.4248 1.1045l-2.766-0.13216q0.25488-1.4915 1.3594-2.2562 1.1139-0.77409 3.0303-0.77409 1.9352 0 2.9831 0.95345t1.0478 2.7093v3.7194q0 0.85905 0.1888 1.1894 0.19824 0.32096 0.65137 0.32096 0.30208 0 0.58528-0.0566v1.4349q-0.236 0.0566-0.4248 0.10384-0.1888 0.0472-0.37761 0.0755-0.1888 0.0283-0.40592 0.0472-0.20768 0.0189-0.49088 0.0189-1.0006 0-1.4821-0.49089-0.472-0.49088-0.5664-1.4443h-0.0566q-1.1139 2.0107-3.3607 2.0107zm3.0869-4.9183-1.3594 0.0189q-0.92513 0.0378-1.3122 0.20769-0.38705 0.16048-0.59473 0.50032-0.19824 0.33984-0.19824 0.90625 0 0.72689 0.3304 1.0856 0.33985 0.34928 0.89681 0.34928 0.62305 0 1.1328-0.33984 0.51921-0.33984 0.81185-0.93457 0.29264-0.60416 0.29264-1.2744zm13.025 1.7464q0 1.4821-1.2178 2.3317-1.2083 0.84017-3.3512 0.84017-2.1051 0-3.2285-0.66081-1.1139-0.67024-1.4821-2.0768l2.3317-0.34928q0.19824 0.72689 0.67969 1.029 0.49088 0.30208 1.6992 0.30208 1.1139 0 1.6237-0.2832 0.50976-0.2832 0.50976-0.88737 0-0.49088-0.41536-0.77408-0.40592-0.29265-1.3877-0.49089-2.2467-0.44368-3.0303-0.82129-0.78353-0.38704-1.1989-0.99121-0.40593-0.6136-0.40593-1.501 0-1.4632 1.1234-2.2751 1.1328-0.82129 3.2002-0.82129 1.8219 0 2.9264 0.70801 1.1139 0.708 1.3877 2.0485l-2.3506 0.24544q-0.11328-0.62305-0.55696-0.92513-0.44369-0.31152-1.4066-0.31152-0.94401 0-1.416 0.24544-0.472 0.236-0.472 0.80241 0 0.44368 0.35872 0.708 0.36816 0.25489 1.2272 0.42481 1.1989 0.24544 2.124 0.50976 0.93457 0.25489 1.4915 0.61361 0.56641 0.35872 0.89681 0.92513 0.33985 0.55696 0.33985 1.4349zm3.8678 3.153q-1.1706 0-1.8031-0.63249-0.63248-0.64192-0.63248-1.9352v-6.0228h-1.2933v-1.7936h1.4255l0.83073-2.3978h1.6614v2.3978h1.9352v1.7936h-1.9352v5.3053q0 0.74577 0.2832 1.1045 0.28321 0.34928 0.87793 0.34928 0.31152 0 0.88737-0.13216v1.6426q-0.98177 0.32096-2.2373 0.32096zm2.9332-12.225v-1.9541h2.6527v1.9541zm0 12.055v-10.214h2.6527v10.214zm11.099 0v-5.7301q0-2.6904-1.8219-2.6904-0.96289 0-1.5576 0.83073-0.58528 0.82129-0.58528 2.1146v5.4752h-2.6527v-7.9297q0-0.82128-0.0283-1.3405-0.0189-0.52864-0.0472-0.94401h2.53q0.0283 0.17936 0.0755 0.96289 0.0472 0.77409 0.0472 1.0667h0.0378q0.53808-1.1706 1.3499-1.6992 0.81185-0.52865 1.9352-0.52865 1.6237 0 2.4922 1.0006t0.86849 2.9264v6.4853zm8.5784 4.097q-1.8691 0-3.0114-0.71745-1.1328-0.70801-1.3971-2.0296l2.6527-0.31152q0.14161 0.6136 0.60417 0.96289 0.472 0.34928 1.2272 0.34928 1.1045 0 1.6143-0.67969 0.50976-0.67968 0.50976-2.0202v-0.53808l0.0189-1.0101h-0.0189q-0.87793 1.8786-3.2852 1.8786-1.7842 0-2.7659-1.3405-0.98177-1.3405-0.98177-3.8327 0-2.5016 1.0101-3.861 1.0101-1.3594 2.9359-1.3594 2.2279 0 3.0869 1.8408h0.0472q0-0.3304 0.0378-0.89681 0.0472-0.56641 0.0944-0.74577h2.5111q-0.0566 1.0195-0.0566 2.36v7.5426q0 2.1807-1.2367 3.2946-1.2366 1.1139-3.5967 1.1139zm2.2184-9.3457q0-1.5765-0.5664-2.4544-0.55697-0.88737-1.5954-0.88737-2.124 0-2.124 3.3984 0 3.3324 2.1051 3.3324 1.0573 0 1.6143-0.87793 0.5664-0.88737 0.5664-2.5111z" style="fill:#cdcdcd;stroke-linecap:round;stroke-linejoin:round" aria-label="broadcasting"/><g transform="translate(-.068305)"><path d="m364.19 179v38.444h-9.6029v-38.444h-14.811v-7.4219h39.258v7.4219zm34.708 38.444h-9.7331l-16.96-45.866h10.026l9.4401 29.46q0.8789 2.8646 2.4088 8.6589l0.6836-2.7995 1.6602-5.8594 9.4076-29.46h9.9284z" style="fill:#322783;stroke-linecap:round;stroke-linejoin:round" aria-label="TV"/><path d="m296.58 217.44v-27.799q0-0.94401 0-1.888 0.0326-0.94401 0.32552-8.1055-2.3112 8.7565-3.418 12.207l-8.2682 25.586h-6.8359l-8.2682-25.586-3.4831-12.207q0.39062 7.5521 0.39062 9.9935v27.799h-8.5286v-45.866h12.858l8.2031 25.651 0.71615 2.474 1.5625 6.1523 2.0508-7.3568 8.431-26.921h12.793v45.866zm32.039-18.815v18.815h-9.5703v-18.815l-16.341-27.051h10.059l11.003 19.401 11.133-19.401h10.059z" style="fill:#f29200;stroke-linecap:round;stroke-linejoin:round" aria-label="MY"/></g></g></svg>
