<svg width="1200" height="400" version="1.1" viewBox="0 0 1200 400" xml:space="preserve" xmlns="http://www.w3.org/2000/svg"><g id="foreground" transform="matrix(2.583 0 0 2.583 -1893.6 -1198.5)"><g style="fill:#00438e;stroke-linecap:round;stroke-linejoin:round;stroke-width:2;stroke:#fd5" aria-label="ENGINEERING &amp; TRADING SDN BHD"><path d="m896.82 520.57h13.233v-2.7333h-13.233v-7.7667h13.733v-2.7333h-16.833v24.3h17.433v-2.7333h-14.333zm37.667-13.233h-2.9333v19.867l-12.7-19.867h-3.3667v24.3h2.9333v-19.7l12.567 19.7h3.5zm26.133 11.467h-10.133v2.7333h7.4v0.66666c0 4.3333-3.2 7.4667-7.6333 7.4667-2.4667 0-4.7-0.9-6.1333-2.4667-1.6-1.7333-2.5667-4.6333-2.5667-7.6333 0-5.9667 3.4-9.9 8.5333-9.9 3.7 0 6.3667 1.9 7.0333 5.0333h3.1667c-0.86667-4.9333-4.6-7.7667-10.167-7.7667-2.9667 0-5.3667 0.76667-7.2667 2.3333-2.8333 2.3333-4.4 6.1-4.4 10.467 0 7.4667 4.5667 12.667 11.133 12.667 3.3 0 5.9-1.2333 8.3-3.8667l0.76666 3.2333h1.9667zm8.7666-11.467h-3.1333v24.3h3.1333zm24.333 0h-2.9333v19.867l-12.7-19.867h-3.3667v24.3h2.9333v-19.7l12.567 19.7h3.5zm8.6334 13.233h13.233v-2.7333h-13.233v-7.7667h13.733v-2.7333h-16.833v24.3h17.433v-2.7333h-14.333zm22.233 0h13.233v-2.7333h-13.233v-7.7667h13.733v-2.7333h-16.833v24.3h17.433v-2.7333h-14.333zm22.333 0.6h8c2.7666 0 4 1.3333 4 4.3333l-0.033 2.1667c0 1.5 0.2667 2.9667 0.7 3.9667h3.7667v-0.76667c-1.1667-0.8-1.4-1.6667-1.4667-4.9-0.033-4-0.6666-5.2-3.3-6.3333 2.7334-1.3667 3.8334-3 3.8334-5.8 0-4.2-2.6-6.5-7.4-6.5h-11.2v24.3h3.1zm0-2.7333v-8.3667h7.5c1.7333 0 2.7333 0.26667 3.5 0.93333 0.8333 0.7 1.2666 1.8 1.2666 3.2333 0 2.9-1.4666 4.2-4.7666 4.2zm23.767-11.1h-3.1333v24.3h3.1333zm24.333 0h-2.9333v19.867l-12.7-19.867h-3.3667v24.3h2.9334v-19.7l12.567 19.7h3.5zm26.133 11.467h-10.133v2.7333h7.4v0.66666c0 4.3333-3.2 7.4667-7.6333 7.4667-2.4667 0-4.7-0.9-6.1333-2.4667-1.6-1.7333-2.5667-4.6333-2.5667-7.6333 0-5.9667 3.4-9.9 8.5333-9.9 3.7 0 6.3667 1.9 7.0334 5.0333h3.1666c-0.8667-4.9333-4.6-7.7667-10.167-7.7667-2.9667 0-5.3667 0.76667-7.2667 2.3333-2.8333 2.3333-4.4 6.1-4.4 10.467 0 7.4667 4.5667 12.667 11.133 12.667 3.3 0 5.9-1.2333 8.3-3.8667l0.7667 3.2333h1.9666zm28 1.7c0.033 1.2-0.3666 2.8-1.0333 3.9667l-4.4333-5.4333c3.4666-1.9667 4.6-3.4 4.6-5.8 0-3.0667-2.2667-5.2333-5.4334-5.2333-3.2 0-5.7 2.3-5.7 5.2333 0 1.5667 0.6 2.8 2.7 5.4333-4.1666 2.4-5.4 4.0333-5.4 7.1 0 4 2.7334 6.6333 6.8334 6.6333 1.6666 0 3.2-0.4 4.4-1.1667 0.7-0.46667 1.2666-0.93333 2.5666-2.2l2.0667 2.6h3.6333l-4.0666-5.0333c1.2333-1.9 1.9333-4.1 1.9333-6.1zm-6.9333-3.2333c-2.0333-2.3333-2.3333-2.8667-2.3333-4.0667 0-1.7333 1.1333-2.8667 2.8666-2.8667 1.6667 0 2.9 1.2 2.9 2.8333 0 1.4667-0.9 2.5333-3.4333 4.1zm4.4333 9.8c-1.8666 1.9667-3.3 2.7333-5.0333 2.7333-2.4 0-4.3667-1.9-4.3667-4.2667 0-1.8667 1.0334-3.2 4.0667-5.1333z" style="fill:#000;stroke:none"/><path d="m902.52 553.6h7.9667v-2.7333h-19.067v2.7333h8v21.567h3.1zm14.133 11.1h8c2.7667 0 4 1.3333 4 4.3333l-0.0333 2.1667c0 1.5 0.26667 2.9667 0.7 3.9667h3.7667v-0.76667c-1.1667-0.8-1.4-1.6667-1.4667-4.9-0.0333-4-0.66667-5.2-3.3-6.3333 2.7333-1.3667 3.8333-3 3.8333-5.8 0-4.2-2.6-6.5-7.4-6.5h-11.2v24.3h3.1zm0-2.7333v-8.3667h7.5c1.7333 0 2.7333 0.26667 3.5 0.93333 0.83333 0.7 1.2667 1.8 1.2667 3.2333 0 2.9-1.4667 4.2-4.7667 4.2zm33.867 5.9 2.5 7.3h3.4667l-8.5333-24.3h-4l-8.6666 24.3h3.3l2.5667-7.3zm-0.86666-2.6h-7.7333l4-11.067zm10.267 9.9h9.3667c6.1333 0 9.9-4.6 9.9-12.167 0-7.5333-3.7333-12.133-9.9-12.133h-9.3667zm3.1-2.7333v-18.833h5.7333c4.8 0 7.3333 3.2333 7.3333 9.4333 0 6.1667-2.5333 9.4-7.3333 9.4zm24.467-21.567h-3.1333v24.3h3.1333zm24.333 0h-2.9334v19.867l-12.7-19.867h-3.3667v24.3h2.9333v-19.7l12.567 19.7h3.5zm26.133 11.467h-10.133v2.7333h7.4v0.66666c0 4.3333-3.2 7.4667-7.6334 7.4667-2.4666 0-4.7-0.9-6.1333-2.4667-1.6-1.7333-2.5667-4.6333-2.5667-7.6333 0-5.9667 3.4-9.9 8.5334-9.9 3.7 0 6.3666 1.9 7.0333 5.0333h3.1666c-0.8666-4.9333-4.5999-7.7667-10.167-7.7667-2.9667 0-5.3667 0.76667-7.2667 2.3333-2.8333 2.3333-4.4 6.1-4.4 10.467 0 7.4667 4.5667 12.667 11.133 12.667 3.3 0 5.9-1.2333 8.3-3.8667l0.7666 3.2333h1.9667zm31.433-4.3333c0-1.6667-0.1-2.1333-0.6334-3.2667-1.3333-2.8-4.1666-4.2667-8.2666-4.2667-5.3333 0-8.6333 2.7333-8.6333 7.1333 0 2.9667 1.5666 4.8333 4.7666 5.6667l6.0333 1.6c3.1 0.8 4.4667 2.0333 4.4667 3.9333 0 1.3-0.7 2.6333-1.7333 3.3667-0.9667 0.7-2.5 1.0333-4.4667 1.0333-2.6666 0-4.4333-0.63333-5.6-2.0333-0.9-1.0667-1.3-2.2333-1.2666-3.7333h-2.9334c0.033 2.2333 0.4667 3.7 1.4334 5.0333 1.6666 2.3 4.4666 3.4667 8.1666 3.4667 2.9 0 5.2667-0.66666 6.8333-1.8667 1.6334-1.3 2.6667-3.4667 2.6667-5.5667 0-3-1.8667-5.2-5.1667-6.1l-6.0999-1.6333c-2.9334-0.8-4-1.7333-4-3.6 0-2.4667 2.1666-4.1 5.4333-4.1 3.8666 0 6.0333 1.7333 6.0666 4.9333zm5.3333 17.167h9.3667c6.1333 0 9.8999-4.6 9.8999-12.167 0-7.5333-3.7333-12.133-9.8999-12.133h-9.3667zm3.1-2.7333v-18.833h5.7333c4.8 0 7.3334 3.2333 7.3334 9.4333 0 6.1667-2.5334 9.4-7.3334 9.4zm39.533-21.567h-2.9333v19.867l-12.7-19.867h-3.3667v24.3h2.9333v-19.7l12.567 19.7h3.5zm14.433 24.3h10.967c2.3 0 4-0.63333 5.3-2.0333 1.2-1.2667 1.8666-3 1.8666-4.9 0-2.9333-1.3333-4.7-4.4333-5.9 2.2333-1.0333 3.3667-2.8 3.3667-5.3 0-1.8-0.6667-3.3333-1.9334-4.4667-1.3-1.1667-2.9333-1.7-5.2666-1.7h-9.8667zm3.1-13.833v-7.7333h6c1.7333 0 2.7 0.23334 3.5333 0.86667 0.8667 0.66666 1.3334 1.6667 1.3334 3s-0.4667 2.3333-1.3334 3c-0.8333 0.63334-1.8 0.86667-3.5333 0.86667zm0 11.1v-8.3667h7.5667c2.7333 0 4.3666 1.5667 4.3666 4.2 0 2.6-1.6333 4.1667-4.3666 4.1667zm34.867-8.3333v11.067h3.1v-24.3h-3.1v10.5h-12.5v-10.5h-3.1v24.3h3.1v-11.067zm8.6667 11.067h9.3667c6.1333 0 9.9-4.6 9.9-12.167 0-7.5333-3.7334-12.133-9.9-12.133h-9.3667zm3.1-2.7333v-18.833h5.7333c4.8 0 7.3334 3.2333 7.3334 9.4333 0 6.1667-2.5334 9.4-7.3334 9.4z" style="fill:#000;stroke:none"/></g><g transform="translate(-28.06,29.823)"><rect x="762.17" y="450.94" width="125.03" height="121.35" rx="20" ry="20" style="fill:none;stroke-linecap:round;stroke-linejoin:round;stroke-width:2;stroke:#000"/><g transform="translate(.80718 -2.5615)"><path d="m798.52 512.84 2.2494 6.8889h7.2169l-11.81-34.163h-7.7793l-12.138 34.163h7.17l2.2963-6.8889zm-1.9214-5.8579h-8.904l4.452-13.356zm15.512 12.747h15.371c3.9365 0 6.5608-0.74981 8.6228-2.4838 2.062-1.7339 3.3742-4.5926 3.3742-7.3575 0-3.3741-1.7808-6.0453-5.6704-8.2948 3.3741-2.1557 4.6863-4.124 4.6863-7.0295 0-2.39-1.1716-4.8269-3.093-6.514-2.0151-1.7339-4.4051-2.4838-8.0604-2.4838h-15.231zm7.0295-28.305h7.6387c3.2804 0 4.9675 1.3122 4.9675 3.8428 0 2.5775-1.6871 3.8896-4.9675 3.8896h-7.6387zm0 13.59h8.3885c3.421 0 5.2018 1.4996 5.2018 4.452 0 2.9055-1.7808 4.4052-5.2018 4.4052h-8.3885zm51.128-9.0446c-0.0468-7.0763-4.78-10.966-13.403-10.966-8.201 0-12.934 3.8428-12.934 10.497 0 5.2955 2.6712 7.873 9.607 9.1852l4.78 0.93726c4.6863 0.8904 6.4203 2.2026 6.4203 4.9675 0 2.8587-2.6243 4.5926-6.8889 4.5926-4.78 0-7.4512-2.0151-7.6856-5.6704h-6.842c0.42176 7.3106 5.4361 11.294 14.153 11.294 8.8103 0 14.012-4.0771 14.012-11.06 0-5.3893-2.7181-8.201-9.0446-9.4195l-5.3424-1.031c-5.0144-0.98413-6.4671-1.9682-6.4671-4.452 0-2.5775 2.2494-4.2177 5.9048-4.2177 4.452 0 6.9357 1.8745 7.17 5.3424z" style="fill:#00027f;stroke-linecap:round;stroke-linejoin:round;stroke-width:1.7574" aria-label="ABS"/><path d="m782.78 543.2h-0.928v-10.592h-3.68v-0.832h8.288v0.832h-3.68zm10.364 0h-6.272v-11.424h6.272v0.832h-5.344v4.176h5.04v0.832h-5.04v4.752h5.344zm6.14-10.752q-1.408 0-2.416 0.64-1.008 0.624-1.552 1.76-0.528 1.12-0.528 2.608 0 1.536 0.48 2.688 0.48 1.136 1.44 1.76 0.976 0.624 2.416 0.624 0.832 0 1.52-0.128 0.704-0.128 1.328-0.336v0.816q-0.592 0.224-1.296 0.352t-1.648 0.128q-1.728 0-2.896-0.736-1.152-0.736-1.744-2.064-0.576-1.328-0.576-3.104 0-1.696 0.64-3.008 0.656-1.328 1.872-2.08 1.232-0.752 2.976-0.752 1.664 0 2.992 0.624l-0.368 0.816q-1.232-0.608-2.64-0.608zm12.172 10.752h-0.928v-5.568h-6.512v5.568h-0.928v-11.424h0.928v5.024h6.512v-5.024h0.928zm10.38 0h-0.992l-6.624-9.984h-0.048q0.032 0.624 0.048 1.328 0.032 0.688 0.032 1.44v7.216h-0.88v-11.424h0.992l6.608 9.952h0.048q-0.032-0.496-0.048-1.264t-0.016-1.44v-7.248h0.88zm11.58-5.728q0 1.744-0.576 3.072t-1.728 2.08q-1.136 0.736-2.832 0.736-1.728 0-2.88-0.736-1.136-0.752-1.712-2.08-0.56-1.344-0.56-3.088t0.576-3.056q0.592-1.312 1.744-2.048 1.168-0.752 2.88-0.752 1.648 0 2.784 0.72 1.136 0.704 1.712 2.016 0.592 1.312 0.59199 3.136zm-9.312-0.016q0 1.52 0.448 2.672 0.448 1.136 1.376 1.776 0.928 0.624 2.352 0.624 1.44 0 2.352-0.624 0.928-0.624 1.36-1.76 0.448-1.152 0.448-2.672 0-2.384-1.04-3.712-1.024-1.328-3.072-1.328-1.424 0-2.368 0.64-0.944 0.624-1.408 1.76-0.448 1.12-0.448 2.624zm10.62 5.744v-11.424h0.928v10.576h5.36v0.848zm16.3-5.728q0 1.744-0.576 3.072t-1.728 2.08q-1.136 0.736-2.832 0.736-1.728 0-2.88-0.736-1.136-0.752-1.712-2.08-0.56-1.344-0.56-3.088t0.576-3.056q0.592-1.312 1.744-2.048 1.168-0.752 2.88-0.752 1.648 0 2.784 0.72 1.136 0.704 1.712 2.016 0.592 1.312 0.59199 3.136zm-9.312-0.016q0 1.52 0.448 2.672 0.448 1.136 1.376 1.776 0.928 0.624 2.352 0.624 1.44 0 2.352-0.624 0.928-0.624 1.36-1.76 0.448-1.152 0.448-2.672 0-2.384-1.04-3.712-1.024-1.328-3.072-1.328-1.424 0-2.368 0.64-0.944 0.624-1.408 1.76-0.448 1.12-0.448 2.624zm15.212-0.08h4.16v5.312q-1.68 0.672-3.792 0.672-2.72 0-4.144-1.552t-1.424-4.304q0-1.744 0.688-3.072 0.704-1.328 2.016-2.08t3.152-0.752q1.856 0 3.36 0.688l-0.368 0.816q-0.72-0.32-1.488-0.496t-1.552-0.176q-1.52 0-2.608 0.64-1.072 0.64-1.648 1.776t-0.576 2.64q0 2.48 1.216 3.76t3.568 1.28q0.832 0 1.488-0.112t1.184-0.304v-3.888h-3.232zm8.38 0.512 3.264-6.112h1.024l-3.808 7.008v4.416h-0.928v-4.352l-3.84-7.072h1.024z" style="stroke-linecap:round;stroke-linejoin:round;stroke-width:2" aria-label="TECHNOLOGY"/></g><rect x="769.95" y="458.5" width="109.46" height="106.24" rx="17.51" ry="17.51" style="fill:none;stroke-linecap:round;stroke-linejoin:round;stroke-width:1.751;stroke:#000"/></g><path d="m876.31 490.11v102.66" style="fill:#00027f;stroke-linecap:round;stroke-linejoin:round;stroke-width:.84023;stroke:#000"/></g></svg>
