<svg width="1200" height="400" version="1.1" viewBox="0 0 1200 400" xml:space="preserve" xmlns="http://www.w3.org/2000/svg"><g id="foreground" transform="matrix(7.5791 0 0 7.5791 49.076 -205.49)"><g transform="matrix(1.0595,0,0,1.0595,-2.3812,-2.6231)"><g transform="matrix(.32983 0 0 .32983 -8.5783 35.325)"><path d="m83.604-10.842c-13.986-0.03853-28.021-0.02496-42.105 0.04109-4.9095 0.02202-8.5561 0.44354-10.939 1.2636-7.5459 2.5924-12.953 8.6026-14.497 16.586-0.51737 2.6804-0.77601 4.7141-0.77601 6.1011 0.03853 25.736 0.10109 52.224 0.18916 79.464 0.02202 6.2855-0.04055 12.552-0.18916 18.799l0.29691 4.7475a1.5274 1.5274 0 0 0 1.5187 1.4365l22.506 0.22248 49.75 0.0496c5.0912 6e-3 10.179-0.0797 15.265-0.25582 4.4857-0.15412 7.8163-0.64952 9.9904-1.4861 5.7682-2.2126 10.072-6.0461 12.912-11.501 1.0347-1.9814 1.7111-3.9246 2.0303-5.829 0.36326-2.1575 0.54273-4.4 0.53723-6.7282-0.0605-34.367-0.0719-68.588-0.0333-102.66a0.21465 0.21465 0 0 0-0.21474-0.21396c-14.883 0.01651-30.297 0.0052-46.242-0.03334z" style="fill:#e2dfef;stroke-width:1.9846;stroke:#818387"/><g transform="translate(-1.1816,-9.4207)"><path d="m44.17 103.1a0.66 0.66 0 0 0 0.21-1.22c-20.82-12.56-29.15-38.29-16.44-59.98 7.51-12.8 21.39-21.06 36.23-23.85q28.75-5.4 57.89 2.91 0.89 0.25 1.1 1.15c4.29 18.29 3.46 37.16-2.98 54.02q-7.88 20.68-27.74 28.97-9.47 3.95-18.88 4.09-5.22 0.09-10.55 0.47-8.95 0.65-16.41-0.3-1.52-0.2-6.81-0.35-3.65-0.1-6.59-1.05a1.07 1.07 0 0 1-0.53-1.66c0.72-0.95 1.77-1.68 2.93-1.98q2.34-0.62 4.67-0.74 2.03-0.11 3.9-0.48zm0.8-73c-0.68 0.12-1.28 0.21-1.83 0.67q-1.72 1.45-3.31 3.19-0.33 0.35-0.81 0.38-0.24 0.02-0.42 0.18-2.43 2.27-4.3 4.93c-0.95 1.34-2.21 2.11-2.7 3.77q-0.14 0.48-0.47 0.85-1.26 1.36-1.68 2.8-1.17 4-1.98 8.37-0.02 0.14-0.09 0.26-0.06 0.1-0.23 0.1-0.1 0-0.11 0.1-0.34 5.65 0.46 10.06 0.52 2.84 0.5 5.9 0 0.37 0.2 0.68 1.13 1.66 1.57 3.63 0.27 1.22 0.52 1.88 0.34 0.9 0.66 1.81 0.5 1.37 1.33 2.52 1.78 2.48 3.36 5.34c0.94 1.69 2.1 3.35 3.65 4.64q1.61 1.33 3.16 2.89 1.23 1.22 5.57 3.81 2.79 1.66 5.85 2.63 3.89 1.22 7.55 2.39 3.36 1.07 7.14 0.97 6.51-0.16 12.91-0.6 0.24-0.02 0.25-0.27 0-0.22 0.21-0.28 2.4-0.74 4.68-0.93 4.72-0.39 8.26-3.06 1.48-1.11 3.12-1.77 1.61-0.65 2.73-1.82 2.65-2.77 5.18-5.82 1.11-1.34 2.56-2.01a1.86 1.9 89.7 0 0 0.92-0.91q0.34-0.7 0.53-1.5 0.27-1.14 1.05-2.17 3.68-4.87 5.83-10.52c0.53-1.39 0.48-2.74 1.06-4.12 0.79-1.9 0.65-3.9 1.27-5.87q0.92-3 1.46-6.23c0.18-1.04 0.89-1.83 0.97-2.95q0.63-8.37 0.7-17.64 0.02-2.73-0.53-5.57-0.61-3.12-0.5-6.03a1.78 1.78 0 0 0-1.44-1.81q-3.68-0.72-7.4-1.64-3.24-0.8-7.46-1.1-5.3-0.38-10.58-0.9-1.91-0.18-6.34-0.02-0.63 0.03-2.76 0.55-1.37 0.34-2.95 0.15-0.66-0.07-1.2 0.28-0.48 0.31-1.04 0.32-6.28 0.05-12.41 2.21-1.93 0.68-4.22 0.79-3.07 0.15-4.08 0.48-4.17 1.38-8.29 2.68-0.45 0.15-0.76 0.51-0.38 0.45-0.99 0.45a1.01 1.03 19.6 0 0-0.8 0.39q-0.48 0.6-1.26 0.66-0.88 0.08-1.45 0.82-0.32 0.41-0.82 0.5z" fill="#818387"/><path transform="matrix(.98748 0 0 .98643 1.9588 -11.362)" d="m44.45 42.94q0.57-0.74 1.45-0.82 0.78-0.06 1.26-0.66a1.03 1.01-70.4 0 1 0.8-0.39q0.61 0 0.99-0.45 0.31-0.36 0.76-0.51 4.12-1.3 8.29-2.68 1.01-0.33 4.08-0.48 2.29-0.11 4.22-0.79 6.13-2.16 12.41-2.21 0.56-0.01 1.04-0.32 0.54-0.35 1.2-0.28 1.58 0.19 2.95-0.15 2.13-0.52 2.76-0.55 4.43-0.16 6.34 0.02 5.28 0.52 10.58 0.9 4.22 0.3 7.46 1.1 3.72 0.92 7.4 1.64a1.78 1.78 0 0 1 1.44 1.81q-0.11 2.91 0.5 6.03 0.55 2.84 0.53 5.57-0.07 9.27-0.7 17.64c-0.08 1.12-0.79 1.91-0.97 2.95q-0.54 3.23-1.46 6.23c-0.62 1.97-0.48 3.97-1.27 5.87-0.58 1.38-0.53 2.73-1.06 4.12q-2.15 5.65-5.83 10.52-0.78 1.03-1.05 2.17-0.19 0.8-0.53 1.5a1.9 1.86-0.3 0 1-0.92 0.91q-1.45 0.67-2.56 2.01-2.53 3.05-5.18 5.82-1.12 1.17-2.73 1.82-1.64 0.66-3.12 1.77-3.54 2.67-8.26 3.06-2.28 0.19-4.68 0.93-0.21 0.06-0.21 0.28-0.01 0.25-0.25 0.27-6.4 0.44-12.91 0.6-3.78 0.1-7.14-0.97-3.66-1.17-7.55-2.39-3.06-0.97-5.85-2.63-4.34-2.59-5.57-3.81-1.55-1.56-3.16-2.89c-1.55-1.29-2.71-2.95-3.65-4.64q-1.58-2.86-3.36-5.34-0.83-1.15-1.33-2.52-0.32-0.91-0.66-1.81-0.25-0.66-0.52-1.88-0.44-1.97-1.57-3.63-0.2-0.31-0.2-0.68 0.02-3.06-0.5-5.9-0.8-4.41-0.46-10.06 0.01-0.1 0.11-0.1 0.17 0 0.23-0.1 0.07-0.12 0.09-0.26 0.81-4.37 1.98-8.37 0.42-1.44 1.68-2.8 0.33-0.37 0.47-0.85c0.49-1.66 1.75-2.43 2.7-3.77q1.87-2.66 4.3-4.93 0.18-0.16 0.42-0.18 0.48-0.03 0.81-0.38 1.59-1.74 3.31-3.19c0.55-0.46 1.15-0.55 1.83-0.67q0.5-0.09 0.82-0.5zm55.23 57.52q-1.79 2-3.34 4.19-0.33 0.48-0.89 0.66-1.15 0.38-1.87 1.2-0.86 0.99-1.99 1.69-5.77 3.52-11.53 5.62-1.71 0.62 0.01 1.21 1.31 0.46 2.82-0.53a1.89 1.86-60.8 0 1 1-0.29q2.29 0.03 3.77-1.34 0.27-0.26 0.65-0.28 1.28-0.09 2.37-0.88 1.07-0.78 2.33-1.35 3.66-1.66 5.9-3.45 1.14-0.93 4.95-4.65 0.66-0.64 1.08-1.38c0.8-1.35 1.63-2.46 2.84-3.52q1.7-1.47 2.19-2.38 3.73-7.01 5.72-14.64 1.22-4.7 2.42-9.67 1.07-4.46 1.09-8.78 0.04-8.74-1.34-18.27-0.39-2.73-2.86-3.38c-18.99-4.93-37.92-5.31-56.72 0.82-2.37 0.78-5.43 2.09-7.44 3.54-2.69 1.95-5.83 3.46-8.23 5.78q-4.77 4.62-8.14 10.3c-1.23 2.07-1.59 4.68-2.43 6.99a0.97 0.93 40 0 0 0.09 0.85q0.51 0.82 0.97 0.63 0.49-0.21 0.51 0.32 0.15 3.04-0.39 5.92c-0.52 2.79-1.22 5.33 0.19 8.03 1.01 1.95 1.15 4.17 2.21 6.22q1.06 2.07 1.78 4.06 0.56 1.57 1.91 3 1.35 1.42 2.22 3.13 0.97 1.93 3.31 3.57 5.84 4.08 11.89 6.38 4.05 1.53 8.26 1.69 0.98 0.04 1.5 0.81 0.28 0.39 0.75 0.37 3-0.18 6.06-0.23 1.84-0.03 3.35-0.55 1.62-0.56 3.21-1.23c0.83-0.35 1.33-0.96 2.18-1.36 1.66-0.79 3.96-2.25 4.87-3.4q2.24-2.84 5.06-5.14 1.47-1.2 2.31-2.85 0.59-1.17 1.3-2.24 1.01-1.54 2.05-2.95 0.99-1.35 1.66-3.03 0.97-2.47 1.91-5.1 0.04-0.1 0.15-0.12 0.14-0.02 0.25-0.11 0.24-0.18 0.27-0.47 0.52-4.75 0.46-8.63-0.07-4.35-2.82-7.85-0.89-1.14-1.38-2.54-0.47-1.37-1.38-2.52-8.87-11.25-22.86-14.45-1.99-0.46-3.68-0.5-1.96-0.04-3.94-0.07-0.33-0.01-0.33-0.33v-0.32q0-0.3 0.3-0.31 10.12-0.26 18.99 3.58c9.6 4.15 16.18 11.53 19.34 21.2q3.79 11.55-1.7 23.51-0.67 1.46-1.36 2.99-0.74 1.62-1.83 2.83z" fill="#a8a9b0"/><path d="m102.85 84.29q0.69-1.53 1.36-2.99 5.49-11.96 1.7-23.51c-3.16-9.67-9.74-17.05-19.34-21.2q-8.87-3.84-18.99-3.58-0.3 0.01-0.3 0.31v0.32q0 0.32 0.33 0.33 1.98 0.03 3.94 0.07 1.69 0.04 3.68 0.5 13.99 3.2 22.86 14.45 0.91 1.15 1.38 2.52 0.49 1.4 1.38 2.54 2.75 3.5 2.82 7.85 0.06 3.88-0.46 8.63-0.03 0.29-0.27 0.47-0.11 0.09-0.25 0.11-0.11 0.02-0.15 0.12-0.94 2.63-1.91 5.1-0.67 1.68-1.66 3.03-1.04 1.41-2.05 2.95-0.71 1.07-1.3 2.24-0.84 1.65-2.31 2.85-2.82 2.3-5.06 5.14c-0.91 1.15-3.21 2.61-4.87 3.4-0.85 0.4-1.35 1.01-2.18 1.36q-1.59 0.67-3.21 1.23-1.51 0.52-3.35 0.55-3.06 0.05-6.06 0.23-0.47 0.02-0.75-0.37-0.52-0.77-1.5-0.81-4.21-0.16-8.26-1.69-6.05-2.3-11.89-6.38-2.34-1.64-3.31-3.57-0.87-1.71-2.22-3.13-1.35-1.43-1.91-3-0.72-1.99-1.78-4.06c-1.06-2.05-1.2-4.27-2.21-6.22-1.41-2.7-0.71-5.24-0.19-8.03q0.54-2.88 0.39-5.92-0.02-0.53-0.51-0.32-0.46 0.19-0.97-0.63a0.97 0.93 40 0 1-0.09-0.85c0.84-2.31 1.2-4.92 2.43-6.99q3.37-5.68 8.14-10.3c2.4-2.32 5.54-3.83 8.23-5.78 2.01-1.45 5.07-2.76 7.44-3.54 18.8-6.13 37.73-5.75 56.72-0.82q2.47 0.65 2.86 3.38 1.38 9.53 1.34 18.27-0.02 4.32-1.09 8.78-1.2 4.97-2.42 9.67-1.99 7.63-5.72 14.64-0.49 0.91-2.19 2.38c-1.21 1.06-2.04 2.17-2.84 3.52q-0.42 0.74-1.08 1.38-3.81 3.72-4.95 4.65-2.24 1.79-5.9 3.45-1.26 0.57-2.33 1.35-1.09 0.79-2.37 0.88-0.38 0.02-0.65 0.28-1.48 1.37-3.77 1.34a1.86 1.89 29.2 0 0-1 0.29q-1.51 0.99-2.82 0.53-1.72-0.59-0.01-1.21 5.76-2.1 11.53-5.62 1.13-0.7 1.99-1.69 0.72-0.82 1.87-1.2 0.56-0.18 0.89-0.66 1.55-2.19 3.34-4.19 1.09-1.21 1.83-2.83zm-5.2226-21.413a27.63 29.89 82.4 0 0-33.282-23.434 27.63 29.89 82.4 0 0-25.973 31.34 27.63 29.89 82.4 0 0 33.282 23.434 27.63 29.89 82.4 0 0 25.973-31.34z" fill="#818387"/></g></g><g transform="translate(43.881,-21.762)"><g transform="translate(-25.337,-69.063)" style="fill:#313133"><path transform="translate(-1.4506e-5,-1.5861e-5)" d="m51.611 132.15v13.846h12.635v-1.5569h-11.077v-4.5776h8.9036v-1.5766h-8.9036v-4.5767h5.6603v-1.5578z" style="fill:#313133;stroke-linecap:round;stroke-linejoin:round;stroke-width:.72485"/><path transform="translate(-1.4506e-5,-1.5861e-5)" d="m34.698 145.99v-13.846h1.5577v6.1346h11.058v-6.1346h1.5769v13.846h-1.5769v-6.1346h-11.058v6.1346z" style="fill:#313133;stroke-linecap:round;stroke-linejoin:round;stroke-width:.72485"/><path transform="translate(-1.4506e-5,-1.5861e-5)" d="m25.015 145.99v-12.288h-6.1538v-1.5577h13.846v1.5577h-6.1346v12.288z" style="fill:#313133;stroke-linecap:round;stroke-linejoin:round;stroke-width:.72485"/><path d="m75.938 145.71v-13.846h1.5769v13.846zm6.7596 0q-0.63461 0-1.1731-0.3077-0.51923-0.30769-0.82692-0.82692-0.30769-0.53846-0.30769-1.1731v-9.2307q0-0.63462 0.30769-1.1538 0.30769-0.53846 0.82692-0.84615 0.53846-0.30769 1.1731-0.30769h11.5v1.5577h-11.5q-0.30769 0-0.53846 0.23077-0.21154 0.21153-0.21154 0.51923v9.2307q0 0.30769 0.21154 0.53846 0.23077 0.21154 0.53846 0.21154h11.5v1.5577zm16.298 0q-0.63461 0-1.1731-0.3077-0.51923-0.30769-0.82692-0.82692-0.30769-0.53846-0.30769-1.1731v-9.2307q0-0.63462 0.30769-1.1538 0.30769-0.53846 0.82692-0.84615 0.53846-0.30769 1.1731-0.30769h9.2307q0.63461 0 1.1538 0.30769 0.53846 0.30769 0.84615 0.84615 0.30769 0.51923 0.30769 1.1538v9.2307q0 0.63461-0.30769 1.1731-0.30769 0.51923-0.84615 0.82692-0.51923 0.3077-1.1538 0.3077zm0-1.5577h9.2307q0.30769 0 0.51923-0.21154 0.23077-0.23077 0.23077-0.53846v-9.2307q0-0.3077-0.23077-0.51923-0.21154-0.23077-0.51923-0.23077h-9.2307q-0.30769 0-0.53846 0.23077-0.21154 0.21153-0.21154 0.51923v9.2307q0 0.30769 0.21154 0.53846 0.23077 0.21154 0.53846 0.21154zm14.183 1.5577v-13.846h2.1346l10.154 12.077v-12.077h1.5577v13.846h-2.1346l-10.154-12.077v12.077z" style="fill:#313133;stroke-linecap:round;stroke-linejoin:round;stroke-width:2.4038" aria-label="ICON"/></g><path d="m-5.8983 87.126q-0.15865 0-0.29326-0.0769-0.12981-0.0769-0.20673-0.20673-0.0769-0.13462-0.0769-0.29327v-0.27404h0.38942v0.27404q0 0.0769 0.0529 0.13461 0.0577 0.0529 0.13461 0.0529h2.3077q0.0769 0 0.1298-0.0529 0.0577-0.0577 0.0577-0.13461v-2.8846h0.38943v2.8846q0 0.15865-0.0769 0.29327-0.0769 0.1298-0.21154 0.20673-0.12981 0.0769-0.28846 0.0769zm3.9615 0v-2.8846q0-0.15865 0.0769-0.28846 0.0769-0.13461 0.20673-0.21153 0.13461-0.0769 0.29326-0.0769h2.3077q0.15865 0 0.28846 0.0769 0.13461 0.0769 0.21154 0.21153 0.0769 0.12981 0.0769 0.28846v2.8846h-0.38942v-1.2644h-2.6827v1.2644h-0.38942zm0.38942-1.6538h2.6827v-1.2308q0-0.0769-0.0577-0.1298-0.0529-0.0577-0.1298-0.0577h-2.3077q-0.0769 0-0.13462 0.0577-0.0529 0.0529-0.0529 0.1298v1.2308zm4.1538 1.6538v-3.4663h0.38942v3.0769h3.0721v0.38942zm4.2788 0v-2.8846q0-0.15865 0.0769-0.28846 0.0769-0.13461 0.20673-0.21153 0.13462-0.0769 0.29327-0.0769h2.3077q0.15865 0 0.28846 0.0769 0.13461 0.0769 0.21153 0.21153 0.0769 0.12981 0.0769 0.28846v2.8846h-0.38942v-1.2644h-2.6827v1.2644h-0.38942zm0.38942-1.6538h2.6827v-1.2308q0-0.0769-0.0577-0.1298-0.0529-0.0577-0.12981-0.0577h-2.3077q-0.0769 0-0.13461 0.0577-0.0529 0.0529-0.0529 0.1298v1.2308zm4.149 1.6538v-3.4615h0.53365l2.5384 3.0192v-3.0192h0.38942v3.4615h-0.53365l-2.5384-3.0192v3.0192zm7.7307 0v-3.0721h-1.5385v-0.38942h3.4615v0.38942h-1.5336v3.0721zm3.3798 0q-0.15865 0-0.29326-0.0769-0.12981-0.0769-0.20673-0.20673-0.0769-0.13462-0.0769-0.29327v-2.8846h0.38942v2.8846q0 0.0769 0.0529 0.13461 0.0577 0.0529 0.13461 0.0529h2.3077q0.0769 0 0.12981-0.0529 0.0577-0.0577 0.0577-0.13461v-2.8846h0.38942v2.8846q0 0.15865-0.0769 0.29327-0.0769 0.1298-0.21154 0.20673-0.12981 0.0769-0.28846 0.0769h-2.3077zm3.9423 0v-3.4615h0.53365l2.5384 3.0192v-3.0192h0.38942v3.4615h-0.53365l-2.5384-3.0192v3.0192zm9.2884 0-1.1298-1.3462h0.50962l1.1346 1.3413v5e-3zm-2.923 0v-3.4567h2.8846q0.15866 0 0.28846 0.0817 0.13462 0.0769 0.21154 0.20673 0.0769 0.12981 0.0769 0.28846v1.0144q0 0.15865-0.0769 0.28846-0.0769 0.1298-0.21154 0.21153-0.1298 0.0769-0.28846 0.0769h-2.4952v1.2884zm0.57692-1.6827h2.3077q0.0769 0 0.12981-0.0529 0.0577-0.0529 0.0577-0.1298v-1.0144q0-0.0769-0.0577-0.12981-0.0529-0.0577-0.12981-0.0577h-2.3077q-0.0769 0-0.13462 0.0577-0.0529 0.0529-0.0529 0.12981v1.0144q0 0.0769 0.0529 0.1298 0.0577 0.0529 0.13462 0.0529zm3.9279 1.6827v-2.8846q0-0.15865 0.0769-0.28846 0.0769-0.13461 0.20673-0.21153 0.13461-0.0769 0.29327-0.0769h2.3077q0.15866 0 0.28846 0.0769 0.13462 0.0769 0.21154 0.21153 0.0769 0.12981 0.0769 0.28846v2.8846h-0.38942v-1.2644h-2.6827v1.2644h-0.38942zm0.38942-1.6538h2.6827v-1.2308q0-0.0769-0.0577-0.1298-0.0529-0.0577-0.1298-0.0577h-2.3077q-0.0769 0-0.13461 0.0577-0.0529 0.0529-0.0529 0.1298v1.2308zm4.125 1.6538v-0.53365l3.0192-2.5384h-3.0192v-0.38942h3.4615v0.53365l-3.0192 2.5384h3.0192v0.38942zm4.5096 0v-2.8846q0-0.15865 0.0769-0.28846 0.0769-0.13461 0.20673-0.21153 0.13462-0.0769 0.29327-0.0769h2.3077q0.15865 0 0.28846 0.0769 0.13461 0.0769 0.21153 0.21153 0.0769 0.12981 0.0769 0.28846v2.8846h-0.38942v-1.2644h-2.6827v1.2644h-0.38942zm0.38942-1.6538h2.6827v-1.2308q0-0.0769-0.0577-0.1298-0.0529-0.0577-0.12981-0.0577h-2.3077q-0.0769 0-0.13461 0.0577-0.0529 0.0529-0.0529 0.1298v1.2308zm4.1538 1.6538v-3.4615h0.39422v1.5336h1.1154l1.2884-1.5336h0.5v5e-3l-1.4471 1.726 1.4519 1.726v5e-3h-0.5048l-1.2884-1.5336h-1.1154v1.5336z" style="fill:#313133;stroke-linecap:round;stroke-linejoin:round;stroke-width:2.4038" aria-label="JALAN TUN RAZAK"/></g></g></g></svg>
