<svg width="1200" height="400" version="1.1" viewBox="0 0 1200 400" xml:space="preserve" xmlns="http://www.w3.org/2000/svg"><g id="foreground" transform="translate(-82.444 362.09)"><path d="m253.83-293.51c-0.39875 0.12891-0.65625 0.42697-0.65625 0.9336 0 0.4834-1.9608 0.65881-4.3574 0.38867-3.5364-0.3986-4.4856-0.15449-5.041 1.293-0.37642 0.98095-0.21945 2.2493 0.3496 2.8184 0.56907 0.56907 1.0352 2.086 1.0352 3.3711 0 1.4867 0.81966 2.6657 2.2539 3.2422 1.6527 0.6643 1.7997 0.92215 0.54883 0.96875-0.93832 0.0349-2.8594-0.46194-4.2676-1.1035-2.0154-0.9183-3.1095-0.87232-5.1445 0.2168-2.2862 1.2235-2.6958 1.1849-3.5469-0.33594-1.3198-2.3583-4.9327-2.1956-5.5723 0.25-0.28307 1.0825-2.0447 2.8697-3.9141 3.9727-3.7443 2.2092-4.4172 4.621-1.543 5.5332 1.0211 0.3241 3.053 1.9308 4.5156 3.5723 3.1555 3.5415 3.9802 3.6526 6.7324 0.90039 1.8668-1.8668 2.2612-1.9286 3.7578-0.58399 1.3517 1.2144 3.0646 1.3484 8.9512 0.69727 4.0041-0.44291 7.8362-0.74482 8.5156-0.66992 0.6794 0.075 1.3928-0.31424 1.584-0.86524 0.50411-1.4532-6.2238-3.4979-14.875-4.5215l-7.5137-0.88868 8.0156 0.41407c4.408 0.22723 9.4788 0.71085 11.27 1.0762 2.6101 0.53245 3.2559 0.34215 3.2559-0.96289 0-0.94357-0.8163-1.6289-1.9434-1.6289-1.0695 0-2.2239-0.45095-2.5644-1.002-1.4784-2.392 2.8327-0.69794 6.3789 2.5059 3.7235 3.364 7.4189 4.4916 8.5762 2.6191 0.56879-0.92033-5.1752-6.5772-11.727-11.549-2.0812-1.5794-3.561-3.0932-3.2891-3.3652 0.27199-0.27198 2.0426 0.80401 3.9356 2.3926 11.72 9.8358 11.819 9.8952 13.293 7.8789 1.2795-1.7499 1.3652-1.7027 1.3652 0.75781 0 1.4434 0.67741 3.3005 1.5039 4.127 2.1603 2.1603 1.8552 2.7325-0.89844 1.6855-1.6644-0.63279-2.9545-0.50873-4.2031 0.4043-1.7257 1.2619-1.7267 1.4299-0.0273 4.0234 2.1535 3.2867 1.4212 7.0291-0.78516 4.0117-1.3075-1.7881-1.5918-1.7765-8.9023 0.34765-8.4302 2.4495-9.0668 2.5531-8.3242 1.3516 0.28654-0.46364 3.944-1.6497 8.127-2.6348 6.7288-1.5846 7.569-2.0363 7.3008-3.916-0.24319-1.7044-0.8976-2.0675-3.3086-1.8379-1.653 0.15744-6.3851 0.52489-10.518 0.81641-4.3766 0.30874-7.6864 1.0168-7.9258 1.6973-0.22607 0.6425-1.6912 2.293-3.2559 3.666-4.3464 3.8139-3.4162 7.0586 2.0234 7.0586 0.93449 1e-5 2.4705 0.90191 3.4141 2.0039 2.0253 2.3654 4.0326 2.5605 5.6973 0.55469 0.87521-1.0546 1.8544-1.2018 3.5976-0.53906 1.8896 0.71841 2.9816 0.42154 5.1816-1.4082 1.5332-1.2752 3.8689-2.8865 5.1894-3.582 2.0342-1.0713 2.5382-1.018 3.3047 0.35156 0.49758 0.88912 2.1215 1.6309 3.6094 1.6484s3.5808 0.69493 4.6504 1.5039 2.93 1.4707 4.1348 1.4707 2.7516 0.67546 3.4375 1.502c1.5342 1.8486 4.2736 1.987 3.8301 0.19336-0.17813-0.72035-2.9197-3.6506-6.0937-6.5117-3.1741-2.8611-5.4288-5.1993-5.0098-5.1973 0.4191 2e-3 3.5479 2.4896 6.9531 5.5273 5.88 5.2454 8.7034 5.9146 6.3418 1.502-0.86841-1.6226-0.7777-2.0254 0.45508-2.0254 2.0675 0 2.0265-4.8674-0.0664-7.8555-0.8827-1.2602-1.3394-2.5571-1.0156-2.8809 0.5201-0.52009 4.309 7.0971 6 12.062 0.35874 1.0534 1.3645 1.6866 2.377 1.4941 1.3503-0.2567 1.8258-1.5133 2.0547-5.4375 0.25942-4.4471-9e-3 -5.3072-2.0918-6.6719-1.8867-1.2362-2.2952-2.2169-1.9375-4.6543 0.4125-2.8106 0.20555-3.0879-2.3008-3.0879-1.6765 0-3.6953-1.0151-5.1602-2.5957-1.9545-2.1089-2.6807-2.3688-3.8711-1.3809-1.99 1.6516-1.8448 3.8687 0.62109 9.4434 1.148 2.5953 1.8785 4.9282 1.623 5.1836-1.161 1.161-7.1624-3.4709-7.8555-6.0625-0.41446-1.5497-1.9711-4.5767-3.4609-6.7266-1.4898-2.1498-2.4962-4.1229-2.2344-4.3848 0.72412-0.72413 5.4852 6.9411 6.8164 10.975 1.1378 3.4475 2.3648 4.4383 3.4082 2.75 0.27681-0.44789-0.12852-2.8149-0.90234-5.2598-0.77383-2.4448-2.0411-6.7001-2.8145-9.4551-1.1284-4.0195-1.8774-5.0747-3.7949-5.3438-1.3143-0.1844-2.8184-0.7476-3.3418-1.252-1.5566-1.4998-5.298-1.0428-5.9785 0.73047-0.34774 0.90618 0.0567 2.406 0.89648 3.334 1.6612 1.8356 2.0313 4.0352 0.67969 4.0352-1.3304 0-3.9191-3.3027-4.3184-5.5098-0.24136-1.3342-1.2966-2.1117-3.1602-2.3262-1.8715-0.21535-3.106-1.1288-3.7246-2.7559-0.65564-1.7244-3.1299-2.875-4.3262-2.4883zm-72.996 0.28125c-0.59179 0.233-1.2193 0.84939-2.1133 1.9414-1.2013 1.4675-3.2859 2.8204-4.6309 3.0059-1.7776 0.24519-2.6659 1.1972-3.2559 3.4863-0.83711 3.2478-3.2704 5.0557-4.3828 3.2559-0.34712-0.56166 0.1445-1.8771 1.0918-2.9238 1.8345-2.0271 1.3898-4.9938-0.74414-4.9688-2.5831 0.0303-9.29 2.8324-9.9199 4.1445-1.9059 3.9701-2.8096 6.7098-3.252 9.8652-0.27035 1.9285-0.81229 4.8054-1.2051 6.3926-1.0331 4.1743 1.4486 3.0028 3.0039-1.418 1.3923-3.9573 6.584-11.887 6.584-10.057 0 0.66466-1.0698 2.6445-2.377 4.3984-1.3072 1.754-2.8011 4.5404-3.3203 6.1934-0.51921 1.653-1.9307 3.4522-3.1348 3.9961s-2.1875 1.3316-2.1875 1.752c0 0.42033-0.45095 0.76367-1.002 0.76367-1.4554 0-1.1633-4.1021 0.5-7.0117 1.8602-3.254 1.875-6.4591 0.0371-7.9844-1.1889-0.98674-1.902-0.74434-3.7793 1.2812-1.2727 1.3732-3.4299 2.6532-4.7949 2.8457-2.0293 0.28615-2.4719 0.8981-2.4219 3.3555 0.0407 1.9957-0.71647 3.6196-2.2539 4.832-1.594 1.257-2.3145 2.8702-2.3145 5.1777 1e-5 7.3312 3.1568 8.8826 5.623 2.7637 2.7966-6.9385 4.4404-10.178 5.4961-10.83 0.57684-0.35651 0.11523 1.1842-1.0274 3.4238-2.4365 4.7759-2.6852 8.1582-0.59961 8.1582 1.1456 0 1.2722 0.54081 0.56446 2.4023-1.6061 4.2243 0.1139 3.7201 6.5312-1.9141 3.4437-3.0234 6.5619-5.498 6.9297-5.498 0.87482 0-6.3354 6.8307-9.2422 8.7559-1.2398 0.82107-2.2539 2.1177-2.2539 2.8809 0 1.8413 2.4423 1.7711 4.0078-0.11524 0.68594-0.82649 2.4878-1.502 4.0059-1.502s3.3219-0.67741 4.0078-1.5039c0.68594-0.82649 2.4898-1.502 4.0078-1.502 3.6104 0 5.753-2.4058 4.0117-4.5039-1.0011-1.2063-0.92882-1.9778 0.37696-3.9707 2.6261-4.008 2.1163-5.7308-1.6348-5.5254-4.7555 0.26037-5.4672 0.0349-3.5059-1.1074 1.0428-0.60738 1.7539-2.2185 1.7539-3.9766 0-3.2935 0.7242-3.7178 2.4102-1.4121 0.96511 1.3199 2.187 0.65167 8.4394-4.6113 4.0212-3.3848 7.5144-5.9524 7.7617-5.7051s-2.9384 3.2293-7.0781 6.627c-4.1397 3.3976-7.5273 6.8485-7.5273 7.668 0 2.7863 4.7895 1.6441 8.4492-2.0156 1.9285-1.9285 4.1981-3.5078 5.043-3.5078 2.303 0 1.8528 0.93118-0.96875 2.0039-3.469 1.3189-3.2708 3.408 0.25 2.6328 1.5152-0.33365 6.588-0.81544 11.271-1.0703l8.5156-0.46289-7.0137 0.89453c-9.8706 1.2583-15.527 2.9908-15.527 4.7559 0 0.81385 0.58057 1.257 1.291 0.98438s4.8813-0.12928 9.2676 0.31836c6.5954 0.67308 8.1777 0.55187 9.1465-0.69532 1.0251-1.3197 1.4318-1.2479 3.2558 0.57618 2.7409 2.7409 3.6784 2.6365 6.8984-0.76954 1.4842-1.5699 3.4889-3.1333 4.4531-3.4746 2.9273-1.0361 2.1462-4.6564-1.2598-5.8438-1.825-0.6362-3.241-1.9696-3.5957-3.3828-0.82036-3.2685-3.0426-3.7902-5.3945-1.2656-1.7858 1.9169-2.2667 2.0022-4.5078 0.80273-1.9635-1.0508-3.0641-1.089-5.0684-0.17578-3.2781 1.4936-4.1832 1.482-2.666-0.0352 0.6612-0.66119 1.2031-2.1495 1.2031-3.3066s0.51061-2.6141 1.1348-3.2383c0.62418-0.62416 0.84449-1.8893 0.49023-2.8125-0.49108-1.2798-1.534-1.5717-4.3906-1.2305-2.0607 0.24614-4.5676-0.0448-5.5703-0.64453-0.74612-0.4463-1.3008-0.59627-1.8926-0.36328zm-7.4902 24.861c-1.3423 0.11001-2.6433 0.64559-2.9824 1.5293-0.90104 2.348 0.71106 3.3926 7.7773 5.041 3.5214 0.82148 6.8549 1.9748 7.4082 2.5625 0.69977 0.74324 0.39746 0.90313-0.99609 0.52344-1.102-0.30024-4.8453-1.3191-8.3184-2.2637-6.5467-1.7804-8.8453-1.2336-7.6719 1.8242 0.33316 0.86819 1.9257 2.1247 3.5391 2.793 1.6134 0.66828 2.9336 1.5958 2.9336 2.0605 0 1.6313 3.9406 3.0249 5.7754 2.043 1.2191-0.65245 2.3657-0.50685 3.6973 0.4668 2.6524 1.9394 4.3122 1.7699 5.7871-0.5918 0.68821-1.102 2.1826-2.0039 3.3223-2.0039 2.9743 0 5.6828-2.2634 4.9609-4.1445-0.33472-0.87226-1.6728-2.1548-2.9746-2.8516-1.3019-0.69674-2.589-2.1127-2.8594-3.1465-0.39832-1.5232-1.5054-1.9003-5.8438-1.9902-2.9443-0.061-6.3246-0.035-7.5117 0.0586-1.1871 0.0935-2.4538-0.30709-2.8145-0.89063-0.50348-0.81465-1.8862-1.1295-3.2285-1.0195zm-45.396 8.4746c-0.8114 0-1.6268 0.7877-1.8125 1.752-0.23689 1.2301 0.30362 1.7539 1.8125 1.7539 1.5089 0 2.0494-0.52383 1.8125-1.7539-0.18569-0.96425-1.0011-1.752-1.8125-1.752zm180.76 0.0195c-1.0682 0.30097-2.3766 1.7703-1.8652 2.5977 0.85366 1.3812 3.4375 1.0451 3.4375-0.44727 0-0.73466-0.29759-1.6316-0.66015-1.9941-0.2265-0.22649-0.55604-0.25657-0.91211-0.15625zm-159.19 0.67383c0.30845 0.30844-0.24832 0.86988-1.2363 1.2461-1.4278 0.54367-1.5426 0.4269-0.56055-0.5625 0.67957-0.68467 1.4884-0.99204 1.7969-0.68359zm-27.504 4.8164c-2.004 1e-5 -2.8068 1.9413-1.3887 3.3594 1.0738 1.0738 2.785 0.15438 3.1426-1.6894 0.2184-1.1261-0.35341-1.6699-1.7539-1.6699zm192.84 0c-2.0578 1e-5 -3.0696 2.0734-1.4883 3.0508 0.73303 0.45304 1.6933 0.60173 2.1328 0.33007 1.3623-0.84194 0.87825-3.3809-0.64453-3.3809zm-183.66 0.26954c-0.64618-0.0953-1.2324 0.42965-1.2324 1.6504 0 1.2306 0.64685 2.0879 1.5762 2.0879 0.93293 0 1.4437-0.68332 1.252-1.6719-0.24372-1.2567-0.94952-1.9712-1.5957-2.0664zm174.08 0.26953c-0.78051 0.0832-1.6131 0.71044-1.8242 1.8066-0.25784 1.3388 0.14946 1.7461 1.4883 1.4883 1.0143-0.19534 1.8438-1.0248 1.8438-1.8438 0-1.0737-0.7273-1.5343-1.5078-1.4512zm-7.584 0.42969c-1.3792 0.10367-2.6253 0.97219-3.0215 2.5508-0.34891 1.3902-0.11535 3.1405 0.52344 3.9102 0.63627 0.76663 0.88346 2.485 0.54882 3.8184-0.39666 1.5804-0.0627 2.8767 0.95899 3.7246 0.86192 0.71533 1.5664 2.3298 1.5664 3.5859 0 1.6369 0.85175 2.5792 3.0059 3.3301 3.08 1.0737 3.6742 2.5506 2.0566 5.1074-0.7349 1.1616-1.1622 0.91258-2.1484-1.252-1.1286-2.477-1.7099-2.7031-6.959-2.7031-6.5909 0-8.8196 1.562-7.0215 4.9219 0.60186 1.1246 1.9915 2.5246 3.0879 3.1113 1.5607 0.83526 1.7778 1.4704 1 2.9238-1.247 2.33 1.0064 4.512 3.7578 3.6387 1.1709-0.37162 2.5322 0.11956 3.5977 1.2969 1.5149 1.6739 1.5343 1.962 0.16797 2.4863-1.9023 0.72997-1.9366 2.9544-0.125 8.1602 1.4276 4.1022 2.0422 4.4554 10.818 6.1992 1.4975 0.29755 3.2667 1.1949 3.9316 1.9961 1.0243 1.2342 0.79169 1.3526-1.5312 0.76953-3.1468-0.78981-9.6309 2.1636-9.6309 4.3867 0 2.6777 7.8805 7.6657 13.959 8.8359 1.3406 0.25809 3.1444 0.88153 4.0078 1.3867 2.1144 1.2371 6.0762 1.2234 6.0762-0.0215 0-0.551 0.72741-1.002 1.6152-1.002 1.3174 0 1.4865-0.67762 0.92188-3.6875-0.86267-4.5984-9.4187-13.017-17.832-17.545-3.1781-1.7103-5.5786-3.3081-5.3359-3.5508 0.75908-0.75908 14.358 7.6233 14.975 9.2305 0.32217 0.83955 1.3022 1.5273 2.1777 1.5273 1.2531 0 1.5257-0.90593 1.2832-4.2578-0.2686-3.7126-0.72392-4.4404-3.5527-5.6856-1.7843-0.78542-3.5208-2.3005-3.8594-3.3672-0.5085-1.6021-1.2512-1.8422-4.2695-1.377-2.308 0.35577-4.3163 0.066-5.4531-0.78515-0.98986-0.74113-2.7937-1.1351-4.0078-0.87696-2.1567 0.45849-2.1636 0.43334-0.26368-1.1074 2.4108-1.955 2.9995-1.9645 4.5684-0.0742 1.3707 1.6516 5.5641 2.0346 6.457 0.58985 0.31022-0.50195-2.9326-2.7908-7.2051-5.0859-10.596-5.6919-11.781-7.3165-1.4707-2.0156 8.3524 4.2942 10.685 4.5614 8.4414 0.96876-0.66789-1.0695-1.2148-2.9116-1.2148-4.0938-1e-5 -1.1822-0.94515-3.7799-2.1016-5.7734l-2.1035-3.625 2.0859 2.5039c1.1473 1.3775 2.3515 3.3012 2.6758 4.2734 0.32428 0.97226 1.0082 1.5074 1.5195 1.1914 1.6275-1.0059 1.0008-6.1062-1.0742-8.7441-1.102-1.401-2.002-3.3025-2.002-4.2266-1e-5 -1.3196 0.63741-1.0792 2.9707 1.123 2.1371 2.0171 2.8146 3.4216 2.418 5.002-0.30325 1.2082-0.0785 3.0771 0.49804 4.1543 0.77845 1.4546 0.67878 2.4468-0.38476 3.8516-1.8357 2.4246-1.8701 5.4181-0.0918 7.957 0.77217 1.1024 1.5618 3.0836 1.7539 4.4024 0.19209 1.3188 0.91281 2.5837 1.6016 2.8106 0.95317 0.3139 1.3003-2.7782 1.457-12.945l0.20703-13.357 0.54492 13.525c0.53309 13.218 0.59623 13.523 2.7949 13.445 1.2373-0.0435 2.0428 0.12717 1.7891 0.38086-0.25369 0.25368-0.0128 1.3003 0.53515 2.3242 0.72839 1.361 0.55115 2.5381-0.65624 4.3809-1.3793 2.105-1.4521 3.0044-0.43946 5.4492 1.1071 2.6728 3.7234 4.72 4.7363 3.707 0.22735-0.22735 1.2856-5.0841 2.3535-10.793 1.5803-8.4483 1.836-9.1673 1.373-3.8672-0.31288 3.5815-1.2048 9.2155-1.9824 12.521-0.77758 3.306-1.4197 7.0639-1.4277 8.3496-0.0204 3.2256 2.2406 2.2625 3.4902-1.4863 0.551-1.6529 1.827-3.8289 2.834-4.834 1.0199-1.0179 1.6118-2.6595 1.3379-3.707-0.29099-1.1127 0.54257-3.1082 2.0391-4.8867 1.9219-2.2839 2.371-3.6615 1.875-5.7344-0.8972-3.7492-0.91239-4.4877-0.13281-6.3555 0.39119-0.93721 0.0177-2.2851-0.88282-3.1855-0.85819-0.85819-1.5605-2.8888-1.5605-4.5137 0-6.0228-6.0659-6.8289-9.2188-1.2246-0.93863 1.6684-2.0778 3.0332-2.5312 3.0332-1.068 0-0.34387-8.2202 0.83398-9.4668 1.3696-1.4496 1.0747-4.1678-0.60352-5.5606-2.0109-1.6689-1.8973-2.5583 0.625-4.9082 2.5227-2.3503 1.9675-6.595-0.96289-7.3613-1.1209-0.29312-2.1184-1.7617-2.5039-3.6894-0.58166-2.9082-0.94117-3.1745-3.9082-2.8887-2.729 0.2629-3.3205 0.76994-3.5859 3.0781-0.21155 1.8396-1.2709 3.2583-3.166 4.2383-1.5661 0.80988-3.0843 2.0438-3.375 2.7441-0.77256 1.8614-3.6602-2.0258-3.6602-4.9277 0-1.8574-0.54577-2.3144-2.7656-2.3144-1.6795 0-3.2554-0.78469-4.0156-2.002-0.92388-1.4794-2.4352-2.1408-3.8145-2.0371zm-24.479 0.0801c-1.0379 4e-3 -1.9736 0.46049-2.3223 1.3691-0.29912 0.77949-1.8127 2.0264-3.3633 2.7695-3.6608 1.7546-3.6914 4.8867-0.0644 6.625 1.6974 0.81355 2.7539 2.1183 2.7539 3.4004 0 1.8494 0.44654 2.0226 4.0078 1.5449 2.2039-0.29559 4.2583-0.13136 4.5664 0.36718v2e-3c0.7936 1.2841 3.8309 1.1222 5.2305-0.27735 0.90804-0.90802 1.7528-0.87554 3.6406 0.13477 2.7867 1.4914 5.347 0.8637 6.2676-1.5352 0.83567-2.1778-1.3079-3.3818-6.1797-3.4707-2.204-0.0402-5.8116-0.47412-8.0156-0.96484-2.984-0.66439-1.9267-0.75391 4.1406-0.34961 8.4962 0.56616 10.639-0.24713 7.6074-2.8867-1.7005-1.4805-4.5877-2.3888-10.961-3.4473-1.7714-0.29421-3.7431-1.1632-4.3809-1.9316-0.75062-0.90448-1.8898-1.3536-2.9277-1.3496zm-110.03 6e-3c-1.1193-0.0151-2.3471 0.46484-3.1641 1.4492-0.68594 0.8265-2.2066 1.5058-3.3789 1.5078-4.0724 8e-3 -12.126 3.5214-12.498 5.4531-0.33264 1.7273 0.23905 1.8191 8.0098 1.2988 5.8298-0.39035 7.1532-0.30027 4.3613 0.29297-2.204 0.46833-5.9287 0.94932-8.2774 1.0703-4.9659 0.25582-7.1613 2.097-5.248 4.4023 1.4949 1.8013 4.1628 1.9486 5.791 0.32031 0.90804-0.90802 1.7804-0.86039 3.7676 0.20313 1.8645 0.99786 3.0601 1.0932 4.2793 0.3418 0.93024-0.57338 3.381-0.84053 5.4473-0.59375 2.7215 0.32505 3.7546 0.0744 3.748-0.91211-5e-3 -0.74903 1.4207-2.5384 3.168-3.9746 3.5799-2.9426 3.4057-5.3618-0.49219-6.8438-1.3165-0.50052-2.6666-1.6215-3-2.4902-0.38397-1.0006-1.3944-1.5103-2.5137-1.5254zm-24.385 0.13672c-1.8934-0.21873-3.0149 0.30011-3.793 1.7539-0.66232 1.2376-2.1058 2.0625-3.6055 2.0625-1.5039 0-2.7194 0.69959-3.0508 1.7539-0.30302 0.96425-0.98317 2.8298-1.5117 4.1445l-0.96094 2.3906-2.2148-1.9922c-1.2174-1.0949-2.9662-2.2546-3.8867-2.5781-0.9205-0.32352-1.5418-1.406-1.3809-2.4043 0.42778-2.6528-1.3093-4.3184-4.502-4.3184-2.2844 0-2.9225 0.5424-3.4473 2.9316-0.35416 1.6125-1.7414 3.6515-3.084 4.5312-3.1176 2.0427-3.0727 3.2879 0.24414 6.75l2.6855 2.8047-2.1855 2.3242c-2.489 2.6494-2.6923 3.7921-0.97852 5.5059 0.66347 0.66346 1.2504 2.9777 1.3047 5.1406 0.0862 3.4354-0.12037 3.8145-1.6387 3.002-0.95592-0.51159-2.0235-1.8323-2.373-2.9336-0.66605-2.0985-4.6426-3.6644-6.457-2.543-0.58232 0.35989-1.0586 1.881-1.0586 3.3789s-0.72173 3.7528-1.6035 5.0117c-0.91588 1.3076-1.3555 3.2284-1.0273 4.4805 0.31591 1.2054 0.04707 3.6525-0.59766 5.4375-1.0705 2.9638-0.93825 3.4908 1.5293 6.0664 1.7427 1.819 2.7012 3.9186 2.7012 5.9141 0 1.826 0.61703 3.3296 1.5039 3.6699 0.8265 0.31716 1.502 1.4611 1.502 2.541s0.73738 2.7003 1.6387 3.6016c2.8212 2.8212 3.2602 0.29775 1.4121-8.125-0.9813-4.4724-2.0422-10.784-2.3574-14.025-0.41478-4.2651-0.0191-3.1248 1.4336 4.125 2.3212 11.584 3.2091 13.022 5.959 9.6562 2.1452-2.6254 2.5197-6.1659 0.83007-7.8555-1.6625-1.6625-0.16943-7.1005 1.9062-6.9414 1.4252 0.10922 1.7917-1.1637 2.2676-7.8828l0.56836-8.0156 0.18359 7.7637c0.10105 4.2702 0.61878 7.7656 1.1504 7.7656 1.2541 0 3.1601-3.5548 2.3438-4.3711-0.34457-0.34458 0.17557-1.5121 1.1562-2.5957 1.3347-1.4749 1.607-2.8007 1.084-5.2676-0.38429-1.8125-0.63609-5.7467-0.56055-8.7441 0.11059-4.3864 0.61378-5.8927 2.582-7.7168 3.0704-2.8456 3.3039-0.81345 0.44531 3.875-2.1154 3.4695-2.6192 7.2919-1.0879 8.2383 0.50484 0.31201 3.527-3.9273 6.7168-9.4199 3.1898-5.4927 5.97-9.8171 6.1777-9.6094 0.20774 0.20773-2.139 4.6545-5.2148 9.8809-3.0759 5.2263-5.5938 10.229-5.5938 11.117s-0.545 2.4911-1.2129 3.5606c-2.3436 3.7528 0.44956 3.4934 8.5586-0.79493 4.5013-2.3804 7.0572-3.3876 5.6797-2.2383s-5.3317 3.4631-8.7871 5.1426c-3.4554 1.6794-6.0228 3.4769-5.7031 3.9941 0.89658 1.4507 5.0846 1.1129 6.4394-0.51953 0.79983-0.96379 2.2026-1.2618 4.127-0.87695 1.7887 0.35773 3.558 0.0518 4.5781-0.79297 0.91453-0.75736 3.0576-1.377 4.7617-1.377 2.8798 0 3.0801-0.22956 2.8438-3.2559-0.13985-1.7907 0.18812-3.2558 0.72851-3.2558 0.5404 0 1.7226-1.1295 2.627-2.5098 2.4271-3.7042 0.48323-5.5059-5.9414-5.5059-4.3481 0-5.4301 0.40669-7.3535 2.7559l-2.2559 2.7539-0.0371-2.6992c-0.0261-1.9538 0.70494-3.0622 2.6445-4.0078 1.6591-0.80889 2.7441-2.2003 2.8457-3.6524 0.0903-1.2904 0.7001-2.6789 1.3555-3.084s1.1848-2.0535 1.1777-3.6641c-7e-3 -1.6106 0.0938-4.507 0.22266-6.4355 0.2091-3.1289-0.0548-3.5393-2.4531-3.8164zm-14.344 3.8164c-0.83484 0-1.502 0.89077-1.502 2.0039s0.66711 2.0039 1.502 2.0039c0.83485 0 1.502-0.89078 1.502-2.0039s-0.66711-2.0039-1.502-2.0039zm187.81 0.24218c-1.1877 0.034-2.3016 1.4249-1.5274 2.6777 0.37021 0.59901 1.0707 1.0879 1.5566 1.0879 1.5474 0 2.2712-2.137 1.1152-3.293-0.34551-0.3455-0.74863-0.48399-1.1445-0.47266zm-9.8711 6.6504c0.0331-0.10015 0.15817-0.065 0.38477 0.12304 0.90639 0.75225 2.5267 3.0883 3.5996 5.1914 2.7576 5.4053 1.7787 4.741-2.0195-1.3691-1.3312-2.1415-2.0642-3.6449-1.9648-3.9453zm-188.1 6.0332c0.0904-0.22352 0.21089-0.11823 0.33789 0.36914 0.25406 0.97473 0.23731 2.3256-0.0371 3.0039-0.27442 0.67826-0.48333-0.11849-0.46289-1.7715 0.0102-0.8265 0.0717-1.378 0.16211-1.6016zm0.0371 6.4492c0.0826-0.31565 0.19464-0.19926 0.31445 0.42383 0.23961 1.2462 0.23121 3.05-0.0195 4.0078-0.25074 0.95782-0.44667-0.0616-0.43555-2.2656 6e-3 -1.102 0.058-1.8504 0.14063-2.166zm91.727 0.45117c-2.038-0.19705-6.8726 1.1491-12.945 3.7051-3.189 1.3422-8.7258 2.9071-12.303 3.4785-7.5408 1.2046-13.364 3.1251-18.879 6.2246-3.7777 2.1232-5.0517 3.834-2.8535 3.834 0.58351 0 0.77147 0.46979 0.41601 1.0449-0.83009 1.3431 1.326 3.9648 3.2617 3.9648 1.0028 0 1.2704-0.57177 0.82031-1.7539-0.55131-1.4481-0.43887-1.5237 0.64454-0.4336 1.0817 1.0884 0.96936 1.571-0.63868 2.7578-1.1732 0.86583-1.5723 1.7722-1.002 2.2734 1.2768 1.1221 14.825 4.8554 20.711 5.707 3.4571 0.50025 5.7296 1.6228 8.418 4.1582 2.6295 2.4799 4.2828 3.311 5.7832 2.9082 1.1557-0.31025 2.969-0.56817 4.0293-0.57617 1.8247-0.0129 1.8098-0.13964-0.27734-2.3613l-2.2051-2.3477 16.281-1.2383c8.9546-0.68153 16.526-1.3909 16.826-1.5762 0.29982-0.18529 2.3396 0.51172 4.5332 1.5488s4.5515 1.8993 5.2402 1.918c2.0084 0.0545 5.2686-3.7861 4.6289-5.4531-0.38825-1.0118 0.012-1.5254 1.1875-1.5254 0.97478 0 4.1591-0.75171 7.0781-1.6719 5.0687-1.5978 5.5002-1.587 9.5957 0.25 2.3586 1.0579 6.1931 3.3731 8.5195 5.1445s4.4551 2.8558 4.7305 2.4102c0.90966-1.4719-1.4623-8.0223-3.9941-11.031l-2.4883-2.959 2.5274-3.7246c2.2763-3.3543 3.3713-7.4512 1.9922-7.4512-0.29381 0-2.7176 1.1064-5.3867 2.459-9.315 4.7203-12.981 5.0893-21.816 2.1992-4.3047-1.408-10.756-3.2854-14.338-4.1719-7.7434-1.9167-12.021-3.6504-12.021-4.8711 0-0.48904-1.8037-0.6472-4.0078-0.35156-2.6789 0.35932-3.791 0.18644-3.3535-0.52148 0.4392-0.71062-0.71392-0.87447-3.5059-0.5-3.0301 0.40642-4.1602 0.20327-4.1602-0.74414 0-0.42079-0.3695-0.65698-1.0488-0.72266zm9.6348 7.2793c1.8605-0.0705 4.8657 0.26623 9.4453 0.99218 8.3116 1.3175 10.174 1.8975 9.5156 2.9629-0.29248 0.47326-0.0737 1.1442 0.48632 1.4902 0.55998 0.3461 1.0195 0.15188 1.0195-0.43164 0-1.5282 3.5488-1.308 9.5879 0.5957 3.5869 1.1307 5.0933 2.0858 4.7402 3.0059-0.28458 0.7416-0.0182 1.3477 0.5918 1.3477 0.60995 0 1.1094-0.52515 1.1094-1.168 0-0.6433 0.23498-0.93301 0.52344-0.64453 1.2012 1.2012-0.89215 3.6764-4.4727 5.291-3.1021 1.3988-4.2522 1.5008-6.0566 0.53516-1.2778-0.68384-3.6594-0.92357-5.584-0.5625-1.9986 0.37494-4.1502 0.13235-5.3223-0.59961-1.5717-0.98152-2.2901-0.96095-3.5703 0.10156-1.3486 1.1192-1.904 1.0572-3.5039-0.39062-1.5058-1.3628-2.3323-1.49-3.9668-0.61524-1.5442 0.8264-2.5748 0.78452-4.0938-0.16406-1.5077-0.94158-2.4799-0.98381-3.7793-0.16406-1.32 0.83273-2.2877 0.75276-3.9375-0.32813-1.7267-1.1313-2.6476-1.1881-4.375-0.26367-1.7564 0.94002-2.4878 0.87155-3.7109-0.35156-1.1432-1.1432-2.1479-1.2856-4.0293-0.57031-1.9327 0.73479-2.9479 0.55389-4.4297-0.78711-2.5583-2.3152-4.7354-0.90258-6.5098 4.2226-0.74731 2.1586-1.8626 4.3849-2.4805 4.9492-0.81879 0.74784-0.88237 0.48382-0.23047-0.97656 0.49193-1.102 0.89839-5.013 0.90039-8.6914 4e-3 -6.5638 0.056-6.6991 2.8828-7.2637 4.2604-0.8509 5.6645-0.70606 5.3848 0.55273-0.13774 0.61988 0.38558 1.3569 1.1621 1.6387 0.94198 0.34185 1.2185 9e-3 0.83204-0.99805-0.92588-2.4128 9.134-3.3241 10.908-0.98828 1.1714 1.5423 1.3133 1.5512 1.3418 0.0957 0.0399-2.0389 5.041-2.2869 5.041-0.25 0 0.75762 0.45095 1.377 1.002 1.377s1.002-0.67545 1.002-1.502c0-0.89941 0.71563-1.3768 2.5762-1.4473zm3.4356 0.94726c-0.551 0-1.002 0.45096-1.002 1.002 0 0.551 0.45096 1 1.002 1 0.55099 1e-5 1.002-0.449 1.002-1 0-0.55099-0.45096-1.002-1.002-1.002zm8.5742 1.002c-0.24297 0-0.72001 0.44902-1.0605 1-0.34053 0.551-0.14212 1.002 0.4414 1.002s1.0606-0.45096 1.0606-1.002c0-0.55098-0.19843-1-0.44141-1zm-27.436 0.14063c-0.86457-0.19075-1.419 0.6573-0.70508 1.8125 0.36875 0.59665 1.1285 0.79979 1.6894 0.45313 0.68427-0.42289 0.66675-0.9817-0.0527-1.7012-0.32146-0.32145-0.64345-0.50087-0.93164-0.56445zm8.3418 0.85937c-0.8265 0-1.502 0.45096-1.502 1.002s0.67546 1.002 1.502 1.002c0.82649 0 1.502-0.45095 1.502-1.002s-0.67546-1.002-1.502-1.002zm-20.414 0.47461c-1.1381 0.2399-2.2617 1.5035-1.6953 2.4199 0.994 1.6083 3.5762 1.3699 3.5762-0.33008 0-0.79398-0.35928-1.6658-0.79883-1.9375-0.3204-0.19802-0.70266-0.23231-1.082-0.15235zm27.428 0.52735c-0.8265 0-1.5039 0.45095-1.5039 1.002s0.67741 1.002 1.5039 1.002 1.502-0.45095 1.502-1.002-0.67545-1.002-1.502-1.002zm-19.377 0.35351c-0.99563-0.2863-2.1621 0.66756-2.1621 2.2109 0 1.5228 2.5389 2.0068 3.3809 0.64453 0.27166-0.43955 0.12297-1.3998-0.33007-2.1328-0.24434-0.39534-0.5568-0.62722-0.88868-0.72266zm26.891 0.64844c-0.551 0-1.002 0.45095-1.002 1.002s0.45095 1.002 1.002 1.002c0.55099 0 1-0.45096 1-1.002s-0.44901-1.002-1-1.002zm8.0723 0c-1.2633 0-2.1676 1.5649-1.3672 2.3652 1.1282 1.1282 2.3105 0.68789 2.3105-0.86133 0-0.8265-0.42488-1.5039-0.94336-1.5039zm-27.986 0.47461c-1.1381 0.2399-2.2617 1.5034-1.6953 2.4199 0.99401 1.6083 3.5762 1.3699 3.5762-0.33008 0-0.79397-0.35927-1.6658-0.79883-1.9375-0.32041-0.19802-0.70267-0.2323-1.082-0.15234zm39.949 0.52734c-0.551 0-1.002 0.45097-1.002 1.002 0 0.551 0.45096 1.002 1.002 1.002 0.55099 0 1.002-0.45095 1.002-1.002 0-0.55099-0.45096-1.002-1.002-1.002zm-68.102 0.19141c0.40243 0.0583 0.84487 0.27455 1.2676 0.69727 0.77347 0.77347 0.7948 1.4357 0.0703 2.1602-0.72449 0.72449-1.4136 0.59802-2.252-0.41211-1.1386-1.3718-0.29322-2.6203 0.91406-2.4453zm63.941 0.0664c-0.61657 0.0881-1.3115 0.6298-1.6211 1.5586-0.2181 0.65432 0.31704 1.1894 1.1895 1.1894 0.87241 0 1.5859-0.71352 1.5859-1.5859 0-0.88457-0.53774-1.2502-1.1543-1.1621zm-27.387 0.48828c-0.55196 0.0413-1.1094 0.61705-1.3359 1.7051-0.18898 0.90763 0.36371 1.5566 1.3262 1.5566 1.0318 0 1.5237-0.65731 1.3125-1.7539-0.20333-1.0558-0.75077-1.5492-1.3027-1.5078zm6.8594 0.30664c-0.73033 0.13133-1.3594 0.81414-1.3594 1.9531 0 1.102 0.60127 2.0039 1.3359 2.0039 1.8843 0 2.6229-0.96511 1.9941-2.6035-0.40886-1.0654-1.2404-1.4848-1.9707-1.3535zm7.7305 0.95117c-2.004 0-2.8068 1.9432-1.3887 3.3613 1.0738 1.0738 2.785 0.15242 3.1426-1.6914 0.2184-1.1261-0.35341-1.6699-1.7539-1.6699zm21.023 0c-1.2633 0-2.1676 1.5649-1.3672 2.3652 1.1282 1.1282 2.3106 0.68594 2.3106-0.86328 0-0.8265-0.42488-1.502-0.94336-1.502zm-12.484 0.67773c-1.6384-0.6287-2.6016 0.10985-2.6016 1.9942 0 0.73465 0.90191 1.3359 2.0039 1.3359 2.278 0 2.7286-2.5124 0.59766-3.3301zm7.3848 0.56446c-1.1877 0.034-2.2997 1.4249-1.5254 2.6777 0.37022 0.59901 1.0707 1.0898 1.5566 1.0898 1.5474 0 2.2713-2.137 1.1152-3.293-0.34551-0.34551-0.75059-0.48595-1.1465-0.47461zm-104 0.12695c-0.7379-0.21158-1.9018-0.14359-3.8867 0.0899-2.5142 0.29568-5.141 1.0092-5.8359 1.5859-0.69489 0.5767-2.4782 0.74373-3.9629 0.3711-2.1397-0.53703-3.2056-0.13016-5.1445 1.9609-1.3453 1.4509-3.0882 2.6387-3.873 2.6387-2.837 0-4.4869 5.9254-2.5098 9.0156 0.81002 1.266 1.3684 1.0671 3.5391-1.2598 2.2747-2.4384 12.5-8.4667 12.5-7.3692 0 0.23218-2.4998 1.8326-5.5547 3.5566s-5.7853 3.739-6.0684 4.4766c-0.28301 0.73753-2.4644 2.7416-4.8476 4.4531-3.2006 2.2985-4.4668 3.9678-4.8438 6.3887-0.75184 4.8284 0.726 5.4869 4.2988 1.9141 1.7293-1.7293 3.5247-3.1445 3.9883-3.1445s1.6684-0.25388 2.6777-0.56446c1.0093-0.31057 0.48112 0.19448-1.1719 1.123-3.5926 2.0182-7.5137 5.4777-7.5137 6.6289 0 1.0581 5.3046 1.0834 6.5625 0.0312 0.52345-0.43782 3.6569-1.654 6.9629-2.7031 5.8162-1.8456 12.088-6.7953 10.947-8.6406-0.28188-0.45609-2.0947-1.5809-4.0274-2.498-2.8322-1.344-4.0079-1.4422-6.0586-0.50781-1.9588 0.89249-2.4525 0.88295-2.1445-0.041 0.63377-1.9013 8.3096-4.8496 12.625-4.8496 1.6037 0 2.1836-0.60502 2.1836-2.2812 0-1.2549 0.70461-3.2892 1.5664-4.5195 0.9157-1.3073 1.299-3.0812 0.92187-4.2695-0.28022-0.88292-0.59217-1.3744-1.3301-1.5859zm-29.818 0.63477c0.21655 0 0.65355 0.67545 0.9707 1.502 0.31716 0.8265 0.13918 1.5039-0.39453 1.5039s-0.96875-0.67741-0.96875-1.5039 0.17604-1.502 0.39258-1.502zm220.01 0c0.551 0 1.002 0.42488 1.002 0.94336s-0.45095 1.22-1.002 1.5605-1.002-0.0824-1.002-0.9414c0-0.85902 0.45095-1.5625 1.002-1.5625zm19.139 15.193c-1.8253-0.5451-4.054 0.2329-4.9648 2.8457-0.60252 1.7284-2.1372 3.4249-3.6035 3.9824-2.7093 1.0301-3.3212 3.7269-1.582 6.9766 1.2736 2.3798-2.2847 7.0608-3.6465 4.7969-2.5646-4.2635-9.1422-1.0357-7.9082 3.8809 0.33658 1.341 0.1345 3.3312-0.44922 4.4219-0.7375 1.3781-0.74343 2.5751-0.0195 3.9277 0.73259 1.3689 0.70551 2.6857-0.0918 4.4355-0.94161 2.0666-0.7738 3.0718 0.99609 5.9356 1.172 1.8963 2.1309 4.2209 2.1309 5.166 0 0.94512 0.56516 1.5322 1.2539 1.3047 0.82782-0.27349 1.4406-3.6128 1.8105-9.8516l0.56055-9.4375 0.19141 10.77c0.1106 6.2115 0.60543 10.77 1.1699 10.77 1.5606 0 4.3078-4.8464 3.6777-6.4883-0.68854-1.7943 2.3746-7.5203 4.0274-7.5293 0.64282-3e-3 1.3959-0.57102 1.6738-1.2598 0.27792-0.68875 0.54048-0.27586 0.58398 0.91797 0.0435 1.1938 0.64328 2.3604 1.332 2.5918s-0.43962 0.98031-2.5059 1.6641c-2.9171 0.96531-3.7559 1.7671-3.7559 3.5879 0 3.7109-1.0304 5.4778-4.1289 7.0801-1.9412 1.0038-2.8848 2.2646-2.8848 3.8555 0 1.4157-1.0038 3.021-2.5039 4.0039-1.9845 1.3003-2.5241 2.5216-2.5957 5.877l-0.0898 4.2344-1.002-3.4961c-0.69556-2.4263-0.66847-4.0318 0.0899-5.2461 1.7277-2.7665 1.312-5.9156-0.85547-6.4824-1.3096-0.34247-2.048-1.5394-2.2539-3.6543-0.216-2.218-0.89769-3.2531-2.3105-3.5117-1.102-0.20173-2.8092-1.2211-3.7949-2.2637-2.0071-2.1228-2.6082-2.2501-4.6133-0.98046-0.80678 0.51086-1.1663 1.7571-0.85351 2.9531 0.30219 1.1556-0.078 2.582-0.85938 3.2305-1.9316 1.6031-1.7532 4.6001 0.35352 5.9336 1.2555 0.79471 1.3987 1.2598 0.50195 1.6367-1.8913 0.7948-1.5023 3.8291 0.75196 5.8691 1.102 0.9973 2.002 2.8542 2.002 4.127 0 1.3761 0.91542 2.8016 2.2559 3.5156 1.2398 0.66039 2.7801 1.9157 3.4238 2.7891 2.6298 3.5682 2.3596-0.33797-0.64844-9.3672-1.7557-5.27-3.0335-10.063-2.8379-10.65 0.19566-0.58698 1.6397 2.9077 3.209 7.7656 3.2107 9.9389 4.4804 12.178 5.7441 10.133 0.44178-0.71484 1.383-1.2988 2.0918-1.2988 0.70884 0 3.96-3.9411 7.2246-8.7578s6.1357-8.5576 6.3809-8.3125c0.40105 0.40105-1.5575 3.469-10.529 16.486-1.5472 2.2449-4.6847 4.9869-7.0469 6.1602-2.7857 1.3837-4.2578 2.7768-4.2578 4.0293 0 1.0951-0.69265 1.9141-1.6191 1.9141-1.2137 0-1.4485-0.56467-0.9375-2.2539 1.2711-4.2019 1.0579-5.1397-1.4512-6.4141-1.4755-0.7494-2.7128-2.4205-3.0117-4.0664-0.97501-5.3691-8.0078-3.8492-8.0078 1.7305 0 1.543-0.66653 3.031-1.502 3.3516-1.7798 0.68297-1.9809 3.7691-0.35157 5.3984 0.86746 0.86744 0.75666 1.9654-0.44726 4.4512-1.5134 3.1249-1.4884 3.4155 0.45703 5.4863 1.1299 1.2027 1.7525 2.6745 1.3848 3.2695-0.36772 0.59501-0.11237 2.617 0.5664 4.4941 1.0446 2.8889 0.96044 4.1267-0.54492 8.0684-2.0236 5.2989-1.5343 6.9464 0.94141 3.168 2.1521-3.2845 4.5019-11.114 4.5215-15.07 8e-3 -1.7032 0.4865-3.7731 1.0625-4.5996 0.79012-1.1338 0.90205-0.76497 0.45898 1.5059-0.32297 1.6554-0.65458 5.6116-0.73828 8.791-0.0895 3.4012-0.69888 6.2338-1.4785 6.8809-2.0093 1.6676-1.6879 4.2124 0.42969 3.4062 1.4057-0.53516 1.5041-0.41579 0.5 0.5957-2.8108 2.8316-1.1448 3.2404 4.5195 1.1113 0.80756-0.30354 1.0488 0.0856 0.66797 1.0781-0.32778 0.85417-2.0228 1.8638-3.7676 2.2422-3.7139 0.80546-4.6393 1.9354-4.6602 5.6953-0.0107 1.9281 0.49501 2.7539 1.6836 2.7539 0.9341 0 3.0728-1.2386 4.7539-2.7539 2.8502-2.5689 2.9051-2.5811 0.80664-0.18555-2.7076 3.091-2.8285 4.5079-0.49804 5.8652 2.9262 1.7044 7.3932 1.3032 7.9199-0.71093 0.25783-0.98594 1.4563-2.2303 2.6621-2.7656 1.6987-0.75415 2.1345-1.7045 1.9375-4.2188-0.14725-1.8792 0.21718-3.2441 0.86718-3.2441 0.65344 0 0.92571-1.0343 0.65039-2.4746-0.26015-1.3608-0.1173-2.2544 0.31641-1.9863 0.4337 0.26804 1.4592-0.47162 2.2793-1.6426 0.82017-1.171 1.9821-1.8239 2.582-1.4531 2.0255 1.2518 5.0801-0.49757 5.0801-2.9082 0-1.2729 0.67545-2.8746 1.502-3.5606 3.1813-2.6402 0.83786-7.4372-3.127-6.4004-1.1334 0.29639-2.5567-0.11584-3.2402-0.93945-1.5514-1.8693-4.8202-1.0554-5.4512 1.3574-0.32113 1.228-1.1146 1.6796-2.3691 1.3516-1.1834-0.30946-2.783 0.46108-4.293 2.0684-2.9592 3.1499-7.0664 3.4748-7.0664 0.5586 0-1.102-0.0328-2.331-0.0742-2.7305-0.0413-0.39947 0.37486-0.87561 0.92382-1.0586 0.55431-0.18475 0.75825 0.58411 0.45899 1.7285-1.0535 4.0286 2.6186 2.1384 5.2402-2.6973 2.3756-4.3818 2.7151-4.3818 0.95508 0-0.94278 2.3471 0.65742 2.2129 3.8828-0.32422 1.5814-1.244 2.6406-3.0691 2.6406-4.5547 0-2.4229 4.7587-7.9777 5.877-6.8594 0.30536 0.30535-0.68706 1.5503-2.207 2.7656-2.465 1.971-2.6138 2.4138-1.377 4.0996 1.3196 1.7987 1.5755 1.7006 5.3066-2.0469 2.1564-2.1658 2.6813-2.5453 1.166-0.8418-1.5152 1.7035-2.7559 3.8387-2.7559 4.7441 0 2.4501 2.1336 3.3088 3.5176 1.416 0.6659-0.91068 2.1209-1.6543 3.2324-1.6543 2.9182 0 4.3687-2.2602 3.6758-5.7246-0.44312-2.2156-0.18111-3.1647 0.99804-3.6172 2.1941-0.84196 2.0275-5.3869-0.24219-6.6016-1.0129-0.5421-2.8148-0.73139-4.0058-0.41992-1.3208 0.34538-2.166 0.10366-2.166-0.62109 0-0.65932-1.0033-1.0468-2.2539-0.86914-1.8193 0.25839-2.316 1.0585-2.5703 4.1465-0.26308 3.1948-0.55104 3.6295-1.752 2.6328-3.5389-2.937-0.90859-7.0367 6.0742-9.4648 2.6758-0.93048 2.9756-1.4398 2.7285-4.6484-0.25137-3.2644-3e-3 -3.66 2.6348-4.1875 1.971-0.3942 3.1031-1.3503 3.5078-2.9629 0.32881-1.3101 1.7362-2.9015 3.127-3.5352 2.8063-1.2786 3.3284-4.2923 1.0684-6.168-0.98989-0.82153-1.2617-2.2012-0.8457-4.2812 0.45582-2.2791 0.15429-3.4023-1.168-4.3691-1.6269-1.1896-1.6425-1.4396-0.1875-2.8945 1.0383-1.0383 1.3987-2.5572 1.0371-4.3652-0.36976-1.8488-0.0246-3.2103 1.0352-4.0898 1.7985-1.4926 2.123-6.1504 0.53906-7.7344-0.73182-0.73183-0.67606-1.8691 0.18359-3.7559 0.94846-2.0816 0.96695-3.4459 0.0762-5.9121-0.63692-1.7635-0.89206-4.2241-0.5664-5.4668 0.70112-2.6754-0.72161-4.5428-2.5469-5.0879zm-257.3 0.0156c-2.4631 0.28305-2.8087 0.77233-3.0547 4.3262-0.15256 2.204-0.78923 5.0169-1.416 6.252-0.85855 1.6918-0.84622 2.8923 0.05273 4.8652 0.9207 2.0198 0.92224 3.3677 0.0078 5.8965-1.0201 2.8211-0.90728 3.7517 0.80859 6.6582 1.0968 1.8579 1.8075 4.187 1.5781 5.1777-0.22938 0.99072 0.09355 2.417 0.7168 3.168 0.77944 0.93916 0.80455 1.5671 0.08203 2.0137-0.57776 0.35708-1.0508 2.2174-1.0508 4.1328s-0.6864 4.5301-1.5254 5.8105c-1.7708 2.7025-1.1014 5.2819 1.5918 6.1367 1.0366 0.32901 2.4635 1.8122 3.1719 3.2949 0.74678 1.5631 2.2782 2.8354 3.6426 3.0293 2.0126 0.28595 2.2685 0.75319 1.7754 3.2188-0.64527 3.2264 1.3371 5.9648 4.3164 5.9648 0.99517 0 2.3707 0.67546 3.0566 1.502s1.854 1.5039 2.5957 1.5039c1.4041 0 1.1615 1.568-0.90625 5.8613-0.9938 2.0634-0.79665 2.5986 1.5938 4.3398 1.8826 1.3714 2.7285 2.8859 2.7285 4.8867 0 2.0101 0.79088 3.4162 2.582 4.5898 2.2071 1.4462 2.352 1.8221 0.99414 2.582-1.8945 1.0602-3.5762 0.22322-3.5762-1.7812 0-1.6488-4.5408-2.0143-5.5117-0.44336-0.34054 0.551-1.075 1.002-1.6328 1.002-0.55785 0-0.30531-0.70836 0.56054-1.5742 2.1164-2.1164 2.0558-2.339-1.6289-6.1406-1.7611-1.817-2.6857-3.3047-2.0547-3.3047 0.63105 0 2.3513 1.5774 3.8223 3.5059 1.4709 1.9285 3.0418 3.5078 3.4902 3.5078 1.3673 0 2.3396-4.3803 1.0664-4.8047-2.7151-0.90503-4.123-3.5755-4.123-7.8223 0-4.7752-1.832-6.6273-4.4258-4.4746-0.78394 0.65061-2.5207 0.87517-3.9688 0.51172-2.1171-0.53135-2.7868-0.18267-3.7617 1.957-1.0012 2.1974-0.89514 2.9221 0.67773 4.6602 1.1933 1.3186 1.7807 3.2919 1.6328 5.4883-0.202 2.9994 0.11694 3.515 2.5527 4.1113 3.8083 0.93228 4.5518 2.4799 2.2305 4.6426-2.4189 2.2535-2.4425 3.2528-0.13477 5.5606 0.99869 0.99869 1.6325 2.3662 1.4082 3.0391-0.65757 1.9727 1.9544 4.3511 4.1484 3.7774 1.9947-0.52163 7.0719 3.6391 5.8867 4.8242-0.30613 0.30614 0.16957 1.3577 1.0566 2.3379 1.0289 1.1369 1.3015 2.2858 0.75391 3.1719-1.2218 1.9769-0.15462 4.0818 2.5996 5.1289 1.3023 0.49515 2.3672 1.6149 2.3672 2.4883 0 2.2044 6.9193 1.5916 8.3808-0.74219 0.84134-1.3434 0.55761-2.2526-1.3262-4.2578-1.3174-1.4023-1.8765-2.5488-1.2422-2.5488 0.63435 0 1.8924 1.1264 2.7949 2.5039s2.518 2.5039 3.5898 2.5039c1.639 0 1.9002-0.59554 1.6387-3.7559-0.26666-3.2219-0.6895-3.8012-2.9629-4.0644-1.458-0.16882-3.4863-1.2595-4.5078-2.4238-1.3789-1.5717-1.4692-1.9799-0.35352-1.584 6.1074 2.1675 7.6226 1.8312 4.7578-1.0547-1.0041-1.0115-0.90374-1.1289 0.50196-0.59375 2.2522 0.85741 2.3158-1.2712 0.11132-3.707-1.1532-1.2743-1.3392-2.1907-0.625-3.084 0.58307-0.72925 0.67233-2.1239 0.20899-3.2734-0.44418-1.102-0.76498-6.0625-0.71289-11.021l0.0937-9.0156 0.625 9.5176c0.6414 9.7866 3.0789 18.982 5.584 21.061 1.223 1.015 1.2156 1.3821-0.0547 2.6524-1.9488 1.9488-1.858 3.1955 0.51758 7.0918 1.6336 2.6792 2.6084 3.2559 5.5059 3.2559 1.9366 0 3.5215 0.46 3.5215 1.0215 0 0.57629-1.0424 0.75928-2.3945 0.41992-1.3174-0.33065-2.6857-0.13152-3.041 0.44336-0.44465 0.71953-1.4148 0.69682-3.1113-0.0762-1.9925-0.90784-2.8164-0.8062-4.3008 0.53711-1.0099 0.91392-2.7598 1.6621-3.8887 1.6621s-2.5969 0.65594-3.2617 1.457c-1.9176 2.3106 4.3831 9.6405 8.0469 9.3613 1.5046-0.11465 3.4135 0.35326 4.2422 1.041 0.87632 0.72728 2.5715 0.98457 4.0508 0.61328 1.3989-0.35109 3.1315-0.26497 3.8516 0.19336 1.8618 1.1851 13.972 1.2861 16.193 0.13477 2.8781-1.4914 0.87989-2.3791-8.3711-3.7168-4.6835-0.67724-9.8685-1.8352-11.521-2.5723-4.4207-1.9713-1.0451-1.7324 7.4453 0.52539 7.8634 2.0911 14.601 2.6087 13.637 1.0488-0.31619-0.51161 0.44739-1.0905 1.6953-1.2871 1.8253-0.28757 1.0428-0.98946-3.9941-3.5918-3.4437-1.7792-6.2598-3.4614-6.2598-3.7383s2.1406 0.57129 4.7578 1.8867c6.3557 3.1944 9.2676 4.0472 9.2676 2.7129 0-0.59178-1.1284-2.0562-2.5059-3.2539-2.4953-2.1696-3.5807-7.8262-1.502-7.8262 0.551 0 1.002 1.0515 1.002 2.3379 0 1.3221 1.2728 3.4728 2.9277 4.9473 1.9757 1.7604 2.7604 3.2478 2.4141 4.5723-0.81345 3.1106 1.3124 5.8766 5.4062 7.0332l3.7774 1.0664-4.2578-0.54883c-3.4524-0.44595-4.2578-0.24889-4.2578 1.041 0 1.0187 0.88128 1.5898 2.4473 1.5898 1.345 0 2.7239 0.45095 3.0644 1.002 0.34053 0.551 1.4374 1.002 2.4394 1.002 2.2557 0 4.6021-2.5592 3.1621-3.4492-0.55371-0.3422-0.78702-1.1963-0.51758-1.8984 0.26944-0.70216-1.2934-2.7096-3.4726-4.4609-2.7656-2.2225-4.6012-4.895-6.0801-8.8476-1.1654-3.1147-1.9643-6.1266-1.7754-6.6934 0.18892-0.56674 1.3401 1.7031 2.5586 5.0449 2.4865 6.8194 9.502 14.387 11.492 12.396 0.77516-0.77517 0.45969-1.7439-1.1094-3.4141-2.2634-2.4093-2.9492-5.709-1.1875-5.709 0.551 0 1.002 0.88046 1.002 1.9551 0 1.0746 0.7877 2.3941 1.752 2.9336 1.7241 0.96466 2.608 6.1309 1.0488 6.1309-0.43884 0-0.79883 0.61892-0.79883 1.375 0 0.81846 1.5503 1.6237 3.8301 1.9883 7.9927 1.2781 25.511 9.7359 41.498 20.037 4.5474 2.9301 8.9441 5.5608 9.7715 5.8457h2e-3c2.1231 0.72862 5.5098-0.66816 5.5098-2.2734 0-1.5748-10.875-8.4822-28.545-18.133-11.801-6.4453-12.885-6.8359-18.977-6.8359-5.8892 0-6.2884-0.1298-4.5156-1.4668 1.8953-1.4294 1.8501-1.6514-1.832-8.7656-2.0779-4.0146-2.8592-6.1724-1.7344-4.7949s3.2772 5.0934 4.7812 8.2559c1.5041 3.1625 3.0958 5.7538 3.5371 5.7598 0.97495 0.0127 3.7051-6.2999 3.7051-8.5664 0-0.89578-0.85036-1.851-1.8906-2.123-1.393-0.36428-1.8557-1.3305-1.7539-3.6641 0.1112-2.5494-0.28975-3.2293-2.0547-3.4805-1.5354-0.21853-2.2881-1.1206-2.5059-3.0059-0.25545-2.2119-0.81406-2.6934-3.1309-2.6934-1.6433 0-3.2325-0.73065-3.8066-1.752-1.338-2.3802-6.5254-2.3166-7.8164 0.0957-0.70765 1.3222-0.5757 2.4402 0.46484 3.9258 1.4887 2.1254 1.036 5.2441-0.76172 5.2441-0.55104 0-0.7595-0.63135-0.46289-1.4043s-0.0922-2.238-0.86328-3.2559c-0.77113-1.0178-1.4161-3.102-1.4336-4.6309-0.023-2.0087-0.7088-3.0376-2.4746-3.709-1.344-0.51099-2.9391-1.8521-3.543-2.9805-1.3987-2.6134-5.0542-2.6882-5.7266-0.11719-0.29911 1.1438-1.0771 1.7151-1.9024 1.3984-0.92971-0.35675-1.1077-1.0496-0.5332-2.0762 1.4304-2.556 0.1347-5.2637-2.5195-5.2637-1.5832 0-2.792-0.83961-3.5254-2.4492-0.61382-1.3472-1.7192-2.6805-2.4551-2.9629-1.524-0.58483-4.4004 1.9126-4.4004 3.8203 0 0.6987-1.1284 1.7845-2.5059 2.4121s-2.5039 1.7948-2.5039 2.5938c0 1.5579 2.6214 4.5996 3.9629 4.5996 0.44741 0 1.007 1.0142 1.2441 2.2539 0.36411 1.9037 8e-3 2.2425-2.2852 2.1699-9.4009-0.29775-13.541-7.4982-11.375-19.777 0.372-2.1086 1.2993-4.0731 2.0606-4.3652 1.8334-0.70356 1.7648-3.7627-0.11915-5.3262-1.9558-1.6232-1.8963-2.9124 0.24219-5.2754 1.6672-1.8422 1.6408-2.0118-0.57812-3.8086-1.5739-1.2745-2.1253-2.501-1.7109-3.8066 0.7724-2.4336-1.8238-5.1426-4.9297-5.1426-2.3616 0-3.543 1.6734-3.543 5.0215 0 1.1579-0.84465 1.9717-2.2539 2.1719-1.985 0.28192-2.221 0.82858-1.9844 4.5781 0.26859 4.2571-1.1089 5.8979-2.0215 2.4082-0.26598-1.0171-2.5737-2.8597-5.127-4.0957s-4.6426-2.5557-4.6426-2.9316c0-0.37589-2.2982-3.8286-5.1074-7.6738-4.8632-6.6566-8.918-13.555-8.918-15.174 0-0.41217 2.2333 2.8377 4.9609 7.2226 2.7276 4.385 6.0965 9.3255 7.4883 10.979 2.1277 2.5269 2.6917 2.7654 3.541 1.502 0.86704-1.2898 1.0123-1.2548 1.0254 0.25 8e-3 0.96425 0.62912 1.7539 1.3789 1.7539 0.81494 0 2.2788-2.9218 3.6406-7.2637 3.0811-9.8236 3.9846-12.133 4.5332-11.584 0.25594 0.25595-1.1088 5.1412-3.0332 10.855-3.9745 11.802-3.7839 10.998-2.5996 10.998 1.9623 0 7.1152-5.5773 7.1152-7.7012 0-1.2354 0.90191-2.7305 2.0039-3.3203 2.2216-1.189 2.6654-4.9479 0.80274-6.8105-0.8947-0.89468-0.90361-1.2031-0.0352-1.2031 2.1233 0 3.3965-3.707 1.8164-5.2871-0.7807-0.7807-1.5675-2.7238-1.75-4.3184-0.40532-3.5422-2.9547-4.2734-5.502-1.5781-1.0144 1.0733-2.7456 2.1166-3.8476 2.3184-1.4128 0.25862-2.0926 1.2937-2.3086 3.5117-0.20594 2.1149-0.94428 3.3118-2.2539 3.6543-2.3552 0.61591-2.6527 4.8772-0.46679 6.6914 1.1072 0.91893 1.2226 1.7143 0.45508 3.1484-0.5649 1.0555-0.75537 2.3608-0.42188 2.9004 0.33351 0.53961 0.12844 0.98046-0.45508 0.98046-0.58351 0-1.0682-1.4651-1.0762-3.2558-0.0178-3.7766-0.76482-5.1382-3.3438-6.0918-1.1349-0.41968-1.6312-1.276-1.2754-2.2031 0.58402-1.5219-1.4715-4.0651-4.877-6.0312-1.2155-0.70178-1.7925-2.1439-1.7305-4.3262 0.08278-2.9118-0.37044-3.4806-4.0996-5.1387-2.306-1.0253-3.6302-1.8966-2.9414-1.9356 0.81087-0.0458 1.3128-1.9244 1.4219-5.3301 0.13839-4.3218 0.23779-4.5904 0.56055-1.5058 0.25212 2.4093 1.0886 4.1274 2.3359 4.7949 1.0688 0.57203 1.9434 1.7007 1.9434 2.5078 0 0.80711 0.45095 1.4668 1.002 1.4668s1.002 1.7128 1.002 3.8066c0 3.5643 1.3654 6.2109 3.2051 6.2109 0.4408 0 0.88808-4.6198 0.99219-10.268l0.18945-10.27 0.56055 8.9375c0.30913 4.9152 1.0135 9.0805 1.5645 9.2558 1.8689 0.59485 4.8611-8.0017 5.0371-14.471 0.0942-3.4625-0.21347-6.5317-0.6836-6.8223-0.47012-0.29055-0.58999-1.5865-0.26562-2.8789 0.84591-3.3704-1.1681-6.543-4.1543-6.543-1.3754 0-2.7675 0.69464-3.0938 1.5449-0.52691 1.3731-0.79982 1.359-2.4375-0.12304-1.4759-1.3356-1.7217-2.5542-1.2344-6.1094 0.54537-3.9789 0.37928-4.5013-1.5801-5.0137-1.2532-0.32771-2.8016-2.0441-3.627-4.0195-1.2165-2.9114-1.8735-3.3984-4.2188-3.1289zm227.16 7.8555c1.4789-0.0228 8.998 4.593 8.998 5.5234 0 0.57851 0.42475 0.78055-5.5098-2.625-2.755-1.581-4.3246-2.8855-3.4883-2.8984zm-86.531 3.1055c-2.0325-0.29028-2.7326 0.21406-2.2422 1.4922 0.45468 1.1849 0.1914 1.4488-0.98828 0.99609-4.0568-1.5567-6.4297-1.7803-6.4297-0.60547 0 0.85389-1.0575 1.0241-3.5078 0.56445-2.1906-0.41095-3.5059-0.26359-3.5059 0.39063 0 0.57597-0.70837 1.0469-1.5742 1.0469-0.86586 0-2.2497 0.67546-3.0762 1.502s-2.3463 1.5039-3.377 1.5039-7.1969 1.619-13.703 3.5977c-13.797 4.1958-17.046 4.1454-26.777-0.4082-5.1942-2.4307-6.5918-2.7628-6.5918-1.5684 0 1.9836 1.7672 5.3556 4.2168 8.0488 1.6392 1.8023 1.7268 2.2974 0.5332 3.0058-3.5895 2.1305-8.0458 13.371-5.3008 13.371 0.68308 0 2.1008-0.94978 3.1504-2.1113 2.6582-2.9416 10.803-6.9083 14.148-6.8906 1.5336 8e-3 5.377 0.82266 8.541 1.8105 4.3631 1.3622 5.4709 2.0779 4.5898 2.959-0.8811 0.88109-0.757 1.3166 0.50976 1.8027 0.91864 0.35251 1.6699 1.2676 1.6699 2.0352 1e-5 1.8564 0.97352 1.766 6.5059-0.60547 4.2783-1.8339 5.6043-1.9178 15.861-1.0098 6.1561 0.54497 13.785 0.99305 16.953 0.99805 3.1682 5e-3 5.7617 0.31953 5.7617 0.69727 0 0.37773-1.0142 1.7919-2.2539 3.1426l-2.2559 2.4551 2.7793-0.5039c1.5284-0.27706 3.0215-0.11382 3.3164 0.36328 0.8198 1.3265 1.1528 1.1521 5.6992-2.9941 3.4979-3.1901 5.2042-3.9731 9.7969-4.4941 3.0585-0.34698 8.2415-1.5538 11.52-2.6816 3.278-1.1278 6.0732-2.0353 6.2109-2.0176 1.679 0.21593 2.3484-0.18511 2.0098-1.2012-0.22592-0.67775 0.52566-2.0203 1.6699-2.9844 1.7933-1.5109 1.8734-1.8919 0.57813-2.7598-1.2767-0.85537-1.2264-1.0085 0.33398-1.0215 3.361-0.0281 1.1599-2.4834-5.0898-5.6777-3.5126-1.7954-9.3268-3.6788-13.482-4.3672-4.019-0.66579-11.203-2.7394-15.963-4.6074-4.8396-1.8993-8.2038-2.9832-10.236-3.2734zm112.93 1.9238c0.083-0.31777 0.19823-0.2751 0.32422 0.20703 0.25198 0.96425 0.25198 2.5416 0 3.5059-0.25199 0.96425-0.45898 0.17654-0.45898-1.752 0-0.96424 0.0517-1.6432 0.13476-1.9609zm-251.43 1.2987c0.08263-0.31565 0.19464-0.19926 0.31445 0.42382 0.23961 1.2462 0.22926 3.048-0.02148 4.0059-0.25074 0.95783-0.44667-0.0616-0.43555-2.2656 0.0056-1.102 0.05995-1.8484 0.14258-2.1641zm218.58 1.2773c-1.0741 0.0704-1.896 0.24356-2.207 0.5-0.64617 0.53282-1.0756 3.5871-1.002 7.127 0.11949 5.737 0.31537 6.2382 2.6348 6.7812 1.5934 0.37309 2.6204 1.4006 2.8262 2.8242 0.17785 1.2307 1.4185 2.9538 2.7559 3.8301 1.3374 0.87629 2.4316 2.429 2.4316 3.4492s1.5774 3.4328 3.5059 5.3613 3.5078 4.1981 3.5078 5.043c0 0.84487 0.449 1.5352 1 1.5352 2.9452 0 0.26321-7.9992-6.2598-18.664-2.0661-3.3781-3.7578-6.5099-3.7578-6.959s1.3435 1.3013 2.9844 3.8887c3.6019 5.6796 5.5312 6.1873 4.5977 1.2109-0.38121-2.032-0.16724-4.401 0.50976-5.666 0.97488-1.8216 0.8384-2.4336-0.84179-3.7715-1.1029-0.87823-2.4926-2.549-3.0879-3.7148-0.79833-1.5634-2.342-2.2627-5.8789-2.6641-1.3187-0.14964-2.6446-0.18173-3.7188-0.11133zm-185.49 0.10547c-1.0793-0.0755-2.4118-0.0611-3.7383 0.0586-3.7714 0.34026-5.0071 0.90262-5.668 2.582-0.46489 1.1814-1.8012 2.9441-2.9688 3.916-1.7187 1.4307-1.919 2.1473-1.0508 3.7695 0.59246 1.107 0.77995 3.5666 0.41797 5.4961-0.922 4.9147 1.5568 4.6446 4.4395-0.48437 1.2295-2.1876 2.6651-4.2431 3.1914-4.5684 0.52633-0.32529-1.5457 3.684-4.6055 8.9102-3.0597 5.2262-5.8248 11.114-6.1445 13.084-0.67412 4.1541 1.2735 5.0661 2.2774 1.0664 0.34726-1.3836 1.9336-3.4428 3.5254-4.5762 1.5917-1.1334 2.8945-2.9338 2.8945-4.002 0-1.0681 1.0908-2.8918 2.4238-4.0508s2.6849-3.153 3.0059-4.4316c0.35504-1.4146 1.4654-2.4499 2.8359-2.6445 2.0434-0.29023 2.2658-0.8982 2.3828-6.5586 0.0747-3.6127-0.34717-6.5985-1.002-7.0918-0.31098-0.23427-1.1375-0.39907-2.2168-0.47461zm100.91 3.0078c1.1614 0.17851 2.4953 0.78456 3.1856 1.6934 0.58266 0.76715 0.97821 0.7195 1.3359-0.16211 0.31674-0.78061 2.511-1.252 5.8242-1.252 3.6585 0 5.2716 0.39001 5.1758 1.252-0.0765 0.68875 0.31229 1.3339 0.86329 1.4356 0.55099 0.10162 0.89037-0.37122 0.7539-1.0508-0.17143-0.85381 0.91163-1.1215 3.5059-0.86719 5.6717 0.55591 6.8151 1.0774 5.4238 2.4688-1.6627 1.6627-1.4475 9.3457 0.35937 12.84 0.84065 1.6256 1.3472 2.9551 1.125 2.9551-0.94296 0-2.7515-2.9855-4.0078-6.6172-1.5045-4.3492-3.883-5.4113-6.6035-2.9492-1.51 1.3666-2.2346 1.4294-4.5059 0.39453-2.1756-0.99132-2.8646-0.97867-3.5117 0.0684-0.54814 0.88692-1.8167 1.0818-3.9766 0.60743-1.9375-0.42555-3.7146-0.24573-4.5684 0.46289-1.037 0.86061-1.9369 0.87218-3.4863 0.043-1.1486-0.61472-2.643-0.77244-3.3203-0.34961-1.3058 0.81514-6.8287 1.3809-12.932 1.3242-2.0273-0.0189-3.9704 0.42535-4.3184 0.98828-0.42533 0.68815-1.3171 0.65742-2.7207-0.0937-1.5682-0.83926-3.0756-0.79045-6.0625 0.19531-3.5525 1.1724-4.3644 1.1045-7.6094-0.63867-3.4692-1.8636-5.5551-5.457-3.168-5.457 0.62392 0 0.85617 0.45095 0.51563 1.002-0.34053 0.551 0.11041 1.002 1.002 1.002 0.89153 0 1.343-0.44939 1.0039-0.99804-0.33908-0.54866 0.61268-1.5576 2.1152-2.2422 2.1704-0.98862 2.818-0.9894 3.1465-4e-3 0.22742 0.68228 0.87346 1.2402 1.4375 1.2402 0.56408 0 0.77757-0.64606 0.47461-1.4356-0.56263-1.4662 6.4664-3.5071 17.619-5.1172 4.054-0.58529 4.7578-0.43923 4.7578 0.98828 0 0.92157 0.45759 1.393 1.0176 1.0469 0.55999-0.34609 0.76037-1.0496 0.44336-1.5625-0.317-0.51292 0.80276-0.93164 2.4883-0.93164s3.0645 0.449 3.0645 1 0.45095 1.002 1.002 1.002c0.55099 0 1.002-0.63328 1.002-1.4082 0-0.80271 0.98705-1.0516 2.1484-0.87305zm8.8711 1.7812c-0.551-0.34054-1.002 0.0843-1.002 0.94336 0 0.85902 0.45095 1.5606 1.002 1.5606 0.55099 0 1.002-0.42293 1.002-0.94141s-0.45097-1.222-1.002-1.5625zm-27.049 0.5c-0.551 0-1.002 0.45095-1.002 1.002s0.45096 1.002 1.002 1.002c0.55099 0 1.002-0.45096 1.002-1.002s-0.45096-1.002-1.002-1.002zm19.094 0c-1.2633 0-2.1695 1.5649-1.3691 2.3652 1.1282 1.1282 2.3106 0.68789 2.3106-0.86132 0-0.8265-0.42293-1.5039-0.94141-1.5039zm-124.94 0.50781c0.28355-0.12363 0.26061 0.21999 6e-3 0.9961-0.36174 1.102-1.3052 2.7608-2.0977 3.6855-0.85516 0.998-1.1742 2.524-0.7832 3.7559 0.67098 2.1141 0.38645 2.6072-0.8125 1.4082-1.4434-1.4434-0.54394-5.3703 1.8418-8.043 0.97192-1.0888 1.5622-1.6791 1.8457-1.8027zm97.83 0.49414c-0.551 0-1.002 0.45096-1.002 1.002s0.45095 1.002 1.002 1.002 1.002-0.45095 1.002-1.002-0.45095-1.002-1.002-1.002zm46.836 0.19141c-1.7269-0.33256-2.4408 1.7936-1.0645 3.1699 1.0501 1.0501 2.8164 0.154 2.8164-1.4277 0-0.77303-0.7877-1.5565-1.752-1.7422zm96.705 0.18945c0.10533-0.10533 0.24439 0.034 0.40429 0.4336 0.28938 0.72319 0.25281 1.587-0.0801 1.9199-0.3329 0.33289-0.56889-0.25837-0.52539-1.3145 0.024-0.58352 0.0958-0.93373 0.20118-1.0391zm-8.7109 0.2168c0.33816 0.0792 0.81526 0.36081 1.418 0.90625 1.1092 1.0038 2.0039 3.0842 2.0039 4.6621 0 1.5676-0.40878 2.8516-0.9082 2.8516s-0.69053-0.83561-0.42383-1.8555-0.22643-2.5643-1.0957-3.4336c-1.7807-1.7807-2.0086-3.3685-0.99414-3.1309zm-115.52 0.33008c-0.39947-0.0413-0.90656 0.46575-1.127 1.127s0.13959 1.0212 0.80078 0.80078c1.2915-0.4305 1.5241-1.8038 0.32618-1.9277zm20.41 0.18945c-1.3494 2e-3 -2.518 1.0728-2.0273 2.3516 0.73581 1.9175 1.7872 1.9578 3.3066 0.12696 0.84137-1.0138 0.86396-1.6049 0.0762-2.0918-0.43477-0.26871-0.90568-0.38738-1.3555-0.38672zm-27.623 0.0781c-0.59233-0.19744-1.0781 0.39221-1.0781 1.3105 0 0.91834 0.4858 1.508 1.0781 1.3106 0.59232-0.19745 1.0762-0.7871 1.0762-1.3106s-0.48385-1.1131-1.0762-1.3105zm-119.99 0.41015c0.09158-0.22697 0.21651-0.19594 0.35547 0.14844 0.27791 0.68875 0.27791 1.8152 0 2.5039-0.27791 0.68874-0.50391 0.12554-0.50391-1.252 0-0.68875 0.05685-1.1734 0.14844-1.4004zm112.4 0.39844c-1.5492 0-1.9896 1.1823-0.86133 2.3106 0.80038 0.80038 2.3652-0.10393 2.3652-1.3672 0-0.51848-0.67741-0.94336-1.5039-0.94336zm27.52 0.24023c-1.1877 0.034-2.2997 1.4249-1.5254 2.6777 0.37021 0.59901 1.0707 1.0898 1.5566 1.0898 1.5474 0 2.2713-2.137 1.1152-3.293-0.34551-0.3455-0.75059-0.48594-1.1465-0.47461zm28.113 0c1.1877 0.034 2.2997 1.4249 1.5254 2.6777-0.3702 0.59901-1.0707 1.0898-1.5566 1.0898-1.5474 0-2.2713-2.137-1.1152-3.293 0.34551-0.3455 0.75059-0.48594 1.1465-0.47461zm-63.072 0.90625c-0.28968-8e-3 -0.64032 0.0882-1.0254 0.32618-0.59665 0.36874-0.7998 1.1285-0.45313 1.6894 0.42289 0.68428 0.98169 0.66675 1.7012-0.0527 0.96436-0.96435 0.64637-1.9375-0.22266-1.9629zm26.725 0.0469c-1.7269-0.33256-2.4408 1.7936-1.0644 3.1699 1.0501 1.0501 2.8184 0.15399 2.8184-1.4277 1e-5 -0.77304-0.78965-1.5565-1.7539-1.7422zm-7.2617 0.81055c-1.509 0-2.0606 2.1152-0.86328 3.3125 0.93494 0.93493 2.3652-0.19547 2.3652-1.8691 0-0.79398-0.67545-1.4434-1.502-1.4434zm-7.6816 0.26757c-0.35979 0.0471-0.71918 0.21723-1.0352 0.53321-0.56519 0.56518-0.72373 1.5182-0.35351 2.1172 0.98199 1.5889 3.5586 1.3332 3.5586-0.35351 0-1.469-1.0906-2.4381-2.1699-2.2969zm-20.371 0.58399c-0.52345 0-1.1131 0.48385-1.3106 1.0762-0.19745 0.59233 0.39221 1.0781 1.3106 1.0781 0.91833 0 1.51-0.4858 1.3125-1.0781-0.19744-0.59232-0.78905-1.0762-1.3125-1.0762zm12.082 0.49023c-0.88054 0.33787-1.2779 1.2398-0.9375 2.127 0.75946 1.9794 2.2766 1.9759 3.0371-6e-3 0.75591-1.9699-0.13945-2.8733-2.0996-2.1211zm-7.0723 0.66211c-0.8265 0-1.502 0.67546-1.502 1.502 0 0.82649 0.67545 1.5039 1.502 1.5039s1.5039-0.67741 1.5039-1.5039c0-0.8265-0.67741-1.502-1.5039-1.502zm13.793 26.234c-0.43568-0.14592-1.3586-0.0264-3.0117 0.27734-2.073 0.38085-6.4733 1.8273-9.7793 3.2129s-9.3909 3.1443-13.523 3.9102c-4.1325 0.76583-9.9949 2.321-13.025 3.4551-6.223 2.3288-11.19 5.8594-9.3223 6.627 0.65783 0.27038 0.95863 1.1117 0.66797 1.8691-0.29065 0.75744 0.36586 1.9365 1.459 2.6191 1.0931 0.68267 1.7982 1.7312 1.5684 2.3301-0.46629 1.2151 10.88 4.9803 20.029 6.6465 4.5423 0.82724 6.7072 1.8692 9.4824 4.5645 2.5276 2.4548 4.2022 3.3302 5.6348 2.9453 1.121-0.30118 2.9065-0.55255 3.9668-0.56055 1.8083-0.0128 1.7873-0.16505-0.3457-2.4356l-2.2754-2.4199 5.3555-0.52343c24.683-2.415 29.038-2.4896 33.273-0.56641 5.0406 2.2889 6.6445 2.3895 6.6445 0.41992 0-0.8265 0.70668-1.502 1.5703-1.502 1.0708 0 1.3828-0.58807 0.98242-1.8496-0.49753-1.5676 0.42319-2.1237 6.0274-3.6406 7.9751-2.1587 11.957-1.3146 18.939 4.0156 2.506 1.9129 5.0116 3.4785 5.5684 3.4785 2.0789 0-1.4578-9.4663-4.4707-11.967-2.1356-1.7724-1.9835-2.7767 0.9375-6.248 2.2192-2.6373 3.4238-6.8301 1.9629-6.8301-0.29745 0-2.2262 0.85878-4.2871 1.9102-2.0609 1.0514-6.2338 2.6345-9.2715 3.5176-5.3366 1.5514-5.7578 1.5276-12.492-0.72071-3.8332-1.2798-10.576-3.175-14.984-4.2109-4.408-1.036-8.8033-2.5435-9.7676-3.3496s-1.7665-1.0573-1.7832-0.5586c-0.0168 0.49864-0.46442 0.16506-0.99414-0.74219-0.76114-1.3036-1.699-1.4839-4.4766-0.85742-2.8098 0.63371-3.5156 0.49182-3.5156-0.71093 0-0.82742-0.5632-1.294-1.252-1.0352-5.1526 1.9364-6.0629 1.9776-5.3984 0.24609 0.29154-0.75973 0.34193-1.1705-0.0937-1.3164zm-118.98 3.8203c-0.8265 0-1.502 0.67545-1.502 1.502s0.67545 1.5039 1.502 1.5039c0.8265 0 1.5039-0.67741 1.5039-1.5039s-0.67741-1.502-1.5039-1.502zm259.64 0.17578c-0.98856-0.19172-1.6699 0.32098-1.6699 1.2539 0 0.92931 0.85732 1.5762 2.0879 1.5762 2.4415 0 2.0953-2.3426-0.41797-2.8301zm-139.58 3.8848c1.2043 0.10123 2.5078 0.68543 3.2774 1.6992 1.2674 1.6697 1.333 1.6697 1.3633 0 0.0265-1.4556 0.92427-1.7364 5.291-1.6563 7.4429 0.1367 16.334 2.178 16.029 3.6797-0.31123 1.5327 1.4483 1.6452 1.9551 0.125 0.36792-1.1038 14.388 2.4109 16.111 4.0391 2.2673 2.1421-2.895 6.0859-7.9668 6.0859-2.1453 0-2.3759-0.24595-1.3691-1.459 1.3927-1.6782 0.5884-3.5508-1.5254-3.5508-0.79398 0-1.4453-0.67546-1.4453-1.502s-0.67546-1.5039-1.502-1.5039c-1.8971 0-1.9696 1.8879-0.0996 2.6055 0.7722 0.29633 1.642 1.4453 1.9316 2.5527 0.39025 1.4923 0.13681 1.8647-0.97656 1.4375-0.82621-0.31705-2.3988-0.097-3.4961 0.49023-1.4402 0.77078-2.3836 0.74555-3.3926-0.0918-0.81754-0.67851-2.6286-0.89036-4.3613-0.50977-1.7778 0.39045-3.7854 0.13643-5.0234-0.63672-1.5832-0.98873-2.3383-1.0152-3.2441-0.10937-0.84309 0.84309-1.7348 0.88357-3.123 0.14062-1.0689-0.57207-3.0242-0.76868-4.3438-0.4375-1.3195 0.33118-3.3054 0.0361-4.4141-0.65625-1.6334-1.0201-2.4303-1.0019-4.1973 0.10157-1.9039 1.189-2.3454 1.1353-3.4883-0.42774-1.1177-1.5286-1.6971-1.6135-3.9609-0.58203-2.1837 0.99498-2.9515 0.93676-4.3535-0.33203-2.9188-2.6415-4.8752-1.8561-6.1738 2.4785-0.6623 2.2105-1.8815 4.5776-2.709 5.2598-1.3183 1.0868-1.3466 0.94349-0.22851-1.1543 0.78616-1.4749 1.1136-4.6354 0.85351-8.2305-0.49844-6.8908-0.82682-6.663 10.9-7.5644 6.7482-0.51871 8.7322-0.36178 9.5098 0.75195 0.75501 1.0814 1.0998 1.1184 1.4902 0.15626 0.37241-0.9178 1.4773-1.3004 2.6816-1.1992zm-15.305 0.94922c-1.2633 0-2.1676 1.5629-1.3672 2.3633 1.1282 1.1282 2.3105 0.68789 2.3105-0.86133 0-0.8265-0.42488-1.502-0.94336-1.502zm25.988 0c-0.551 0-1.002 0.449-1.002 1 0 0.55099 0.45096 1.002 1.002 1.002 0.55099 0 1.002-0.45096 1.002-1.002 0-0.551-0.45096-1-1.002-1zm-18.533 1c-0.8265 0-1.5039 0.45095-1.5039 1.002s0.6774 1.002 1.5039 1.002 1.502-0.45095 1.502-1.002-0.67546-1.002-1.502-1.002zm26.547 0c-0.551 0-1.002 0.45095-1.002 1.002 1e-5 0.551 0.45096 1.002 1.002 1.002 0.55099 0 1.002-0.45095 1.002-1.002s-0.45096-1.002-1.002-1.002zm-138.02 0.27148c-0.64618-0.0953-1.2305 0.42966-1.2305 1.6504 0 1.2306 0.64685 2.0859 1.5762 2.0859 0.93292 0 1.4437-0.68138 1.252-1.6699-0.24372-1.2567-0.95147-1.9712-1.5977-2.0664zm258.23 0.26953c-0.78051 0.0832-1.6131 0.70849-1.8242 1.8047-0.25783 1.3388 0.14945 1.7461 1.4883 1.4883 1.0143-0.19534 1.8438-1.0248 1.8438-1.8438 0-1.0737-0.7273-1.5324-1.5078-1.4492zm-138.75 0.31055c-0.52345 0-1.1131 0.4858-1.3106 1.0781s0.39222 1.0762 1.3106 1.0762 1.508-0.48385 1.3105-1.0762-0.7871-1.0781-1.3105-1.0781zm-20.705 0.41992c-0.35979 0.0471-0.71723 0.21722-1.0332 0.5332-0.56518 0.56519-0.72567 1.5162-0.35547 2.1152 0.98199 1.5889 3.5606 1.3332 3.5606-0.35352 0-1.469-1.0925-2.4361-2.1719-2.2949zm27.809 0.0957c-0.80266-2e-3 -1.5621 0.87856-1.0488 1.709 0.31701 0.51293 0.9991 0.93164 1.5176 0.93164 1.077 0 1.2552-1.358 0.30274-2.3106-0.23127-0.23127-0.50393-0.32937-0.77149-0.33008zm-19.631 1.1777c-0.78051 0.0832-1.6151 0.70849-1.8262 1.8047-0.25784 1.3388 0.15141 1.7461 1.4902 1.4883 1.0143-0.19533 1.8438-1.0248 1.8438-1.8438 0-1.0737-0.72729-1.5324-1.5078-1.4492zm27.055 0.46093c-0.551 0-1.002 0.45096-1.002 1.002s0.45095 1.002 1.002 1.002c0.55099 0 1.002-0.45095 1.002-1.002s-0.45096-1.002-1.002-1.002zm8.0723 0c-1.2633 0-2.1676 1.5649-1.3672 2.3652 1.1282 1.1282 2.3105 0.68789 2.3105-0.86133 0-0.8265-0.42488-1.5039-0.94336-1.5039zm-28.277 0.26954c-0.35979 0.0471-0.71917 0.21722-1.0352 0.5332-0.56518 0.56518-0.72372 1.5162-0.35351 2.1152 0.98199 1.5889 3.5606 1.3332 3.5606-0.35351 0-1.469-1.0925-2.4361-2.1719-2.2949zm-27.322 0.73242c0.79398 0 1.4434 0.6774 1.4434 1.5039 0 1.509-2.1152 2.0587-3.3125 0.86133-0.93494-0.93493 0.19545-2.3652 1.8691-2.3652zm35.414 0.36719c-0.99517 0.37428-1.8812 1.8806-1.2871 2.8418 0.27165 0.43956 1.1435 0.79883 1.9375 0.79883 1.7 0 1.9384-2.5822 0.33008-3.5762-0.3055-0.1888-0.64875-0.18922-0.98047-0.0644zm8.5469 0.9746c-1.9602-0.75217-2.8555 0.15125-2.0996 2.1211 0.76047 1.9815 2.2776 1.985 3.0371 6e-3 0.34043-0.88717-0.057-1.7891-0.9375-2.127zm-128.12 0.66211c-2.0578 0-3.0677 2.0735-1.4863 3.0508 0.73303 0.45303 1.6913 0.60173 2.1309 0.33007 1.3623-0.84195 0.87824-3.3809-0.64453-3.3809zm134.69 0c-1.1131 0-2.002 0.66712-2.002 1.502 0 0.83486 0.88883 1.5039 2.002 1.5039 1.1131 0 2.0039-0.66904 2.0039-1.5039 0-0.83484-0.89077-1.502-2.0039-1.502zm20.537 0c-0.82649 0-1.502 0.45096-1.502 1.002s0.67546 1.002 1.502 1.002c0.8265 0 1.5039-0.45095 1.5039-1.002s-0.67741-1.002-1.5039-1.002zm4.5684 0c-0.58352 0-1.0605 0.45096-1.0605 1.002s0.19842 1.002 0.4414 1.002 0.72003-0.45095 1.0606-1.002c0.34054-0.551 0.14211-1.002-0.44141-1.002zm94.111 0c-1.1131 0-2.0039 0.66712-2.0039 1.502 0 0.83486 0.89077 1.5039 2.0039 1.5039s2.0039-0.66904 2.0039-1.5039c0-0.83484-0.89078-1.502-2.0039-1.502zm-111.23 0.24024c-1.1877 0.034-2.2997 1.4249-1.5254 2.6777 0.37022 0.59901 1.0707 1.0898 1.5566 1.0898 1.5474 0 2.2713-2.1369 1.1152-3.293-0.3455-0.34551-0.75058-0.48595-1.1465-0.47461zm-70.828 3.8789c0.0845-0.0845 0.36076 0.13203 0.85547 0.62305 0.68466 0.67956 0.99399 1.4884 0.68554 1.7969-0.30844 0.30845-0.86988-0.24832-1.2461-1.2363-0.27184-0.7139-0.37941-1.0991-0.29492-1.1836zm-50.664 6.5859c0.17353 0.26638 0.35486 0.80878 0.5 1.5664 0.29027 1.5152 0.35116 2.7559 0.13476 2.7559-0.75555 0-1.5179-2.9498-1.0918-4.2246 0.11815-0.35346 0.2835-0.36404 0.45703-0.0977zm210.96 0.69336c0.10533-0.10533 0.24439 0.036 0.40429 0.43555 0.28938 0.72319 0.25477 1.587-0.0781 1.9199-0.3329 0.33289-0.57085-0.25836-0.52735-1.3144 0.024-0.58353 0.0958-0.93569 0.20118-1.041zm-181.28 4.6309c-0.73467 0-1.3359 0.90191-1.3359 2.0039 0 2.278 2.5124 2.7286 3.3301 0.59765 0.62871-1.6384-0.10985-2.6016-1.9941-2.6016zm151.69 0.19141c-1.2301-0.23689-1.752 0.30361-1.752 1.8125s0.52188 2.0494 1.752 1.8125c0.96425-0.1857 1.7539-1.0011 1.7539-1.8125s-0.78966-1.6268-1.7539-1.8125zm-179 2.002c0.0981-0.22355 0.4642 0.12127 1.0547 1.1367 0.58521 1.0056 0.85169 2.0409 0.59375 2.2988-0.25793 0.25794-0.75018-0.26482-1.0938-1.1602-0.48337-1.2596-0.65277-2.0518-0.55469-2.2754zm173.75 1.8144c-0.83484 0-1.5039 0.89078-1.5039 2.0039s0.66907 2.002 1.5039 2.002c0.83486 0 1.502-0.88882 1.502-2.002s-0.66709-2.0039-1.502-2.0039zm10.518 0c-1.9252 0-2.7153 1.9586-1.3438 3.3301 0.75841 0.75841 3.3476-1.1374 3.3476-2.4512 0-0.48354-0.9019-0.87891-2.0039-0.87891zm-161.25 0.17774c-0.45933-0.0734-1.0043-0.0235-1.5898 0.20117-1.373 0.52686-1.4534 0.92203-0.43555 2.1484 0.9683 1.1667 1.564 1.2417 2.6602 0.33203 1.3536-1.1234 0.74322-2.4615-0.63477-2.6816zm9.9902 0.32226c-0.81895 0-1.6484 0.82946-1.8438 1.8438-0.25783 1.3388 0.14946 1.7481 1.4883 1.4902 2.1924-0.42221 2.5029-3.334 0.35546-3.334zm-24.348 3.5059c1.0934 0 1.3548 0.6386 0.92187 2.2539-0.33224 1.2398-0.60918 2.5926-0.61718 3.0059-0.0318 1.7444-5.0206 0.59371-6.4844-1.4961-1.8792-2.6829 0.0507-4.041 1.9844-1.3965 1.7041 2.3305 3.8344 2.0881 3.1934-0.36328-0.35458-1.3559-0.0306-2.0039 1.002-2.0039zm163.05 0.33203c-0.85716-0.28798-1.6177 0.35869-3.3301 2.3867-1.4575 1.7262-3.5523 3.302-4.6543 3.502-1.5526 0.28166-1.9699 1.0892-1.8555 3.584 0.15413 3.3594-1.9281 4.5457-3.0137 1.7168-0.84288-2.1965-4.7364-1.8777-5.3418 0.4375-0.27912 1.0674-1.8163 2.3961-3.4141 2.9531-2.2898 0.79822-2.9043 1.6191-2.9043 3.8711 0 1.5714-0.41167 3.2851-0.91601 3.8086-0.50435 0.52345-1.1029 2.0795-1.3281 3.457-0.35837 2.192-0.5096 2.2771-1.2188 0.68359-0.48737-1.0951-0.29884-2.7794 0.47461-4.2246 1.0416-1.9463 1.0448-2.6946 0.0117-3.9395-1.798-2.1665-5.666-1.9079-7.3457 0.49024-0.89784 1.2818-2.0266 1.7926-3.0742 1.3906-2.0612-0.79095-4.6367 1.2351-4.6367 3.6484 0 1.1156-0.86552 1.9337-2.2539 2.1309-1.8314 0.26009-2.2275 0.91408-2.1152 3.4883 0.10179 2.3336-0.36088 3.2998-1.7539 3.6641-1.0402 0.27204-1.8906 1.158-1.8906 1.9688 0 2.161 2.8969 8.7305 3.8496 8.7305 0.44941 0 1.8457-2.1973 3.1035-4.8828s3.4003-6.1789 4.7617-7.7637l2.4766-2.8809-1.9726 3.0059c-2.9728 4.5312-5.3552 10.772-4.4551 11.672 0.43903 0.43903 2.5124 0.51936 4.6055 0.17969 3.3709-0.54701 3.7388-0.88313 3.2226-2.9394-0.42584-1.6967-0.0259-2.6184 1.4863-3.4277 1.138-0.60907 2.4662-2.0931 2.9512-3.2969 0.79514-1.9735 0.88802-1.9985 0.94532-0.25 0.0349 1.0665-0.92207 2.9889-2.127 4.2715-1.5852 1.6874-1.8883 2.6351-1.0957 3.4277 2.0197 2.0197 10.01-6.5417 12.002-12.859 0.95367-3.0254 1.9041-4.9929 2.1113-4.3711 0.87419 2.6226-3.4295 11.472-7.1113 14.623-3.5899 3.0728-5.4976 7.4259-4.1855 9.5488 0.76934 1.2448 1.7027 1.203 6.4961-0.29297 5.5072-1.7188 5.3281-3.9414-0.26563-3.293-3.7643 0.43638-3.8809 0.39447-1.0078-0.36132 4.6603-1.2259 6.2676-2.9132 6.2676-6.5781 0-2.3127 0.84402-3.9701 3.0039-5.8945 1.653-1.4728 3.0059-3.5761 3.0059-4.6738 0-1.0978 0.38869-1.9961 0.86328-1.9961 1.6446 0-0.11406 5.5209-2.4863 7.8047-3.2181 3.0981-3.0698 4.6016 0.37109 3.7578 2.6432-0.64815 2.6743-0.61324 0.75196 0.86133-1.977 1.5165-1.9738 1.5369 0.30859 1.5684 1.2812 0.0176 2.0382 0.48032 1.6953 1.0352-0.99604 1.6116 5.2734 1.1638 14.422-1.0293 4.6266-1.1091 8.6169-1.8128 8.8672-1.5625 0.61491 0.61491-6.7764 2.5815-14.955 3.9785-11.662 1.9919-10.26 4.6848 2.0801 3.998 13.95-0.77638 15.077-0.92282 16.256-2.1016 0.64556-0.6456 2.4129-0.92406 3.9375-0.61914 2.1982 0.43965 3.0261 0.069 4.0254-1.8066 0.69181-1.2985 1.9734-2.8982 2.8477-3.5547 2.2332-1.677 0.32833-4.4974-3.752-5.5547-1.7454-0.45227-3.1738-1.2597-3.1738-1.7949 0-1.3524-3.3581-1.222-4.7656 0.18554-0.87841 0.87839-1.5242 0.85909-2.6582-0.082-0.88284-0.7327-2.4412-0.95747-3.7988-0.54687-1.5767 0.47686-1.9869 0.36865-1.3008-0.3418 0.551-0.57053 2.3329-1.1831 3.959-1.3633 3.4859-0.38619 7.0935-5.585 6.084-8.7656-0.84112-2.6501-4.1221-3.5608-6.8359-1.8984-2.9688 1.8185-7.7148 1.1948-7.7148-1.0137 0-0.93474 1.0142-2.1455 2.2539-2.6894 3.2516-1.4266 3.4011-4.8436 0.30078-6.875-1.4052-0.92068-2.5547-2.283-2.5547-3.0293 0-0.74632-0.72316-1.9575-1.6074-2.6914-0.34629-0.2874-0.64202-0.48799-0.92774-0.58399zm-144.1 0.66993c-1.8611 0-2.9844 1.6334-2.1035 3.0586 0.90618 1.4662 2.9047 0.62344 3.2949-1.3887 0.1874-0.96633-0.31367-1.6699-1.1914-1.6699zm152.28 0c-1.8611 0-2.9844 1.6334-2.1035 3.0586 0.90618 1.4662 2.9066 0.62344 3.2969-1.3887 0.18741-0.96633-0.31562-1.6699-1.1934-1.6699zm5.127 1.248c-0.78073 0.25777-1.3661 2.8042-1.5547 6.7617-0.26892 5.6418-0.12995 6.2055 1.252 5.0586 1.9826-1.6454 2.2597-12.466 0.30273-11.82zm-163.55 0.47656c-1.4535-0.32175-1.8176 7.836-0.46289 10.367 0.63269 1.1822 1.4922 1.7634 1.9102 1.291 1.0518-1.1888-0.21405-11.385-1.4473-11.658zm148.46 7.5274c0.17602-0.0908 0.28516-0.01 0.28516 0.26562 0 0.551-0.43853 1.6774-0.97266 2.5039-0.53412 0.8265-0.9707 1.053-0.9707 0.50195s0.43658-1.6774 0.9707-2.5039c0.26707-0.41325 0.51148-0.67679 0.6875-0.76758zm31.221 0.0566c0.074 0.0483-0.37616 0.42173-1.293 1.1562-1.0696 0.85689-2.3844 1.5566-2.9219 1.5566-1.2729 0-0.70526-0.46143 2.3613-1.9219 1.1808-0.56234 1.7795-0.83927 1.8535-0.79101zm-194.12 0.9707c0.0402-0.0605 0.58375 0.19624 1.666 0.72071 1.2398 0.60078 2.2539 1.3025 2.2539 1.5586 0 0.76661-0.51854 0.54575-2.5625-1.0918-0.93371-0.74806-1.3976-1.127-1.3574-1.1875zm152.07 4.3203c0.48985-0.30273 1.1505 0.43895 1.4668 1.6484 0.76857 2.939 0.075 3.4455-1.2715 0.92969-0.61097-1.1416-0.69651-2.2684-0.19531-2.5781zm8.6406 0.25c0.27358-0.27236 0.42522-0.23551 0.38867 0.17774-0.28107 3.1763 0.19281 3.889 2.8594 4.293l2.7559 0.41601-2.6328 0.15039c-1.4478 0.0826-3.193 0.82585-3.8789 1.6524-0.68594 0.8265-2.1652 1.5039-3.2852 1.5039-1.8552 0-1.8983-0.15656-0.50195-1.7539 0.84293-0.96425 2.2705-3.1048 3.1738-4.7578 0.45166-0.8265 0.84752-1.4093 1.1211-1.6816zm-119.82 0.4629c0.13732 0.21807-0.0454 0.91331-0.51563 2.1387-0.33445 0.87156-1.0118 1.584-1.5039 1.584-1.3858 0-1.058-1.6237 0.60742-3.0059 0.81558-0.67687 1.2748-0.93487 1.4121-0.71679zm-8.7852 1.7617c0.62466-0.17759 1.3555 0.57912 2.6582 2.5664 2.117 3.2295 2.1336 3.4023 0.32421 3.4023-1.0481 0-2.1653-0.6774-2.4824-1.5039-0.31715-0.8265-1.8307-1.5552-3.3633-1.6191-2.0621-0.086-2.266-0.23675-0.7832-0.58399 1.102-0.25807 2.4696-1.0609 3.0391-1.7832 0.20166-0.25575 0.3992-0.41932 0.60742-0.47852zm-10.141 7.5469c-0.01-0.50929 1.223 0.16074 2.7383 1.4883s3.1836 2.7582 3.707 3.1797c2.0856 1.6794-0.17319 0.6298-3.2031-1.4883-1.7735-1.2398-3.2327-2.6704-3.2422-3.1797zm148.25 0.77539c0 0.23151-1.1836 1.1956-2.6289 2.1426-1.4454 0.94701-2.3213 1.2263-1.9473 0.62109 0.71476-1.1565 4.5762-3.4884 4.5762-2.7637zm-6.0117 4.1055c0 0.2755-1.3509 1.2018-3.0039 2.0566s-3.0059 1.3282-3.0059 1.0527 1.3529-1.1999 3.0059-2.0547 3.0039-1.3302 3.0039-1.0547zm-7.8965 3.5586c0.551 0 0.72335 0.45096 0.38281 1.002-0.34053 0.551-1.0701 1.002-1.6211 1.002s-0.72334-0.45095-0.38281-1.002c0.34054-0.551 1.0701-1.002 1.6211-1.002zm5.375 3.3262c0.2385 0.0547 0.0663 0.26345-0.48243 0.63477-0.8265 0.5593-2.3678 1.0252-3.4238 1.0332-2.5631 0.0205-1.7637-0.55298 1.9199-1.377 1.0974-0.24548 1.7478-0.34571 1.9863-0.29102zm-130.8 0.20704c1.1746-0.17938 4.1246 0.35184 5.0098 1.1152 0.22958 0.19799-0.75655 0.36133-2.1934 0.36133-1.4368 0-2.9036-0.46988-3.2578-1.043-0.14571-0.23578 0.0499-0.3738 0.44141-0.43359zm119.38 5.4824c-2.004 0-2.8068 1.9432-1.3887 3.3613 1.0738 1.0738 2.785 0.15436 3.1426-1.6895 0.21839-1.1261-0.3534-1.6719-1.7539-1.6719zm-108.71 0.33984c-0.88049 0.33787-1.2779 1.2398-0.9375 2.127 0.75946 1.9794 2.2766 1.9778 3.0371-4e-3 0.75591-1.9699-0.13944-2.8752-2.0996-2.123zm88.477 0.54688c-0.75763 0.21161-4.9846 0.595-9.3926 0.85156-6.6028 0.38431-9.2936 1.0979-15.277 4.0508-3.9947 1.9713-7.2637 3.8848-7.2637 4.2539s1.0142 1.1599 2.2539 1.7578c3.1366 1.5127 2.5759 1.6392 11.945-2.6894 4.6575-2.1518 11.034-4.5089 14.172-5.2383 3.1374-0.72942 5.5328-1.7851 5.3223-2.3476-0.21048-0.56259-1.0022-0.85028-1.7598-0.63867zm25.211 2.4023c-0.50649-0.12338-1.0368-0.11552-1.5312 0.0742-1.5603 0.59876-2.0292 2.8028-0.84766 3.9844 1.1859 1.1859 4.1113 0.70936 4.6758-0.76172 0.52727-1.374-0.77742-2.9267-2.2969-3.2969zm8.1328 0.0684c-0.99563-0.2863-2.1621 0.66952-2.1621 2.2129 0 1.5228 2.5389 2.0068 3.3809 0.64453 0.27166-0.43956 0.12296-1.3998-0.33007-2.1328-0.24434-0.39534-0.5568-0.62918-0.88868-0.72461zm-125.89 0.15039c-1.3151 0-2.1141 0.77442-2.3242 2.2539-0.26261 1.849 0.15542 2.2539 2.3242 2.2539 2.1688 0 2.5849-0.40488 2.3223-2.2539-0.21012-1.4795-1.0072-2.2539-2.3223-2.2539zm-8.6289 0.0703c-0.48857 0.30196-0.88867 1.1982-0.88867 1.9922 0 1.4726 2.1382 1.9751 3.3301 0.7832 0.90597-0.90598-1.3383-3.4572-2.4414-2.7754zm33.293 0.52344c-1.2858 0.0936-2.5122 0.61542-4.1816 1.6016-2.5077 1.4814-3.1949 1.5177-5.4688 0.30078-2.4029-1.286-2.7684-1.194-4.8008 1.1895-1.2098 1.4187-2.9889 2.8457-3.9531 3.1719s-1.752 1.4567-1.752 2.5117c0 1.1-0.88953 2.1505-2.084 2.4629-1.4972 0.39154-1.989 1.1983-1.752 2.8711 0.28089 1.9826 0.91056 2.3262 4.252 2.3262 2.2464 0 4.0998 0.53669 4.3398 1.2539 0.56936 1.7014 2.7422 1.577 4.252-0.24218 0.79724-0.96071 2.1142-1.2728 3.6914-0.87696 1.9259 0.48338 2.5676 0.1678 2.9961-1.4707 0.43713-1.6716 1.2459-2.0439 4.0762-1.877 3.1513 0.18585 3.7813-0.22249 5.8613-3.7988 2.8333-4.8715 2.9092-5.5058 0.66406-5.5254-1.4662-0.0128-1.5116-0.1684-0.2832-0.94531 1.1759-0.74371 0.91226-1.1402-1.3184-1.9883-1.9086-0.72566-3.2533-1.0584-4.5391-0.96484zm68.393 0.1582c-2.8527-0.38204-6.7018 1.4574-5.8691 2.8047 0.32346 0.52335-0.12194 0.95117-0.99023 0.95117-1.3043 0-1.1272 0.89069 1.0195 5.127 2.4776 4.8894 2.7534 5.1036 5.9316 4.5879 2.7628-0.44835 3.425-0.19064 3.8691 1.5078 0.41886 1.6017 1.0722 1.9145 2.9883 1.4336 1.5772-0.39584 2.8922-0.0837 3.6895 0.87696 1.5348 1.8493 3.4068 1.9124 4.8594 0.1621 0.62694-0.75542 2.3319-1.1516 3.9375-0.91601 1.8425 0.27042 3.3244-0.18038 4.2461-1.291 1.2533-1.5101 1.1033-1.9576-1.3086-3.8809-1.499-1.1953-2.7266-2.7346-2.7266-3.4199 0-0.68535-0.7877-1.5256-1.752-1.8691-0.96425-0.34355-2.6558-1.6917-3.7578-2.9961-1.8202-2.1546-2.2947-2.2605-5.1797-1.1582-2.5874 0.98863-3.489 0.95201-4.8691-0.19336-0.9316-0.77316-2.7705-1.5502-4.0879-1.7266zm-66.537 3.7559c0.81094-4.3e-4 -1.8177 1.5774-5.8418 3.5059-7.6465 3.6645-8.1562 3.8492-8.1562 2.9629 0-0.79782 12.27-6.4678 13.998-6.4688zm64.367 0.043c1.9749-0.0485 12.563 4.7742 13.379 6.0938 0.73768 1.1936-0.94317 1.1115-2.1602-0.10547-0.53962-0.53962-3.6731-2.0992-6.9629-3.4648s-5.205-2.5001-4.2559-2.5234zm-38.254 7.4688c-1.5855-0.17145-3.6551 0.93582-9.7168 4.5742-4.8705 2.9234-9.1734 5.7886-9.5625 6.3691-0.38915 0.58059 0.26865 1.5787 1.4609 2.2168 1.462 0.78243 2.9768 0.85261 4.6543 0.21484 3.5093-1.3342 17.133-9.9243 17.133-10.803 0-0.40085-1.0858-1.3106-2.4141-2.0215-0.55102-0.2949-1.0262-0.49363-1.5547-0.55078z" style="fill:#00438e;stroke-width:1.0018"/><path d="m842.64-216.89c-4.6954 0.19249-9.3384 0.99239-12.369 2.334-12.094 5.354-16.387 17.21-10.523 29.062l1.998 4.0391-3.623 2.7598c-14.92 11.369-17.456 28.046-6.0137 39.537 3.1385 3.1518 6.2772 5.1878 9.5449 6.1914 2.6778 0.8225 8.8078 1.5284 13.623 1.5664 9.7226 0.0775 16.341-1.8287 22.398-6.4492l3.4863-2.6582 4.75 3.0488c2.6133 1.6769 7.0189 3.5348 9.7891 4.1289 6.021 1.2913 22.652 0.91942 23.127-0.51758 0.1845-0.5578-2.0104-1.571-4.877-2.252-5.3782-1.2776-13.442-5.6687-19.361-10.541l-3.3848-2.7852 2.3789-3.5039c4.3327-6.3846 6.7215-12.422 7.2578-18.336l0.53125-5.8418-4.7734-0.6543c-7.8829-1.0805-14.733-0.81692-14.277 0.55078 0.2211 0.6634 1.8259 1.5763 3.5664 2.0273 4.1241 1.0686 5.5472 3.8436 4.6699 9.1133-0.9531 5.7256-3.432 11.697-4.8555 11.697-1.8186 0-21.504-19.617-28.408-28.311-7.9498-10.009-9.6609-15.506-6.8887-22.141 1.528-3.657 6.6209-6.6524 11.311-6.6524 6.735 0 13.355 6.576 13.355 13.273 9e-4 1.6632 0.5469 2.7559 1.375 2.7559 1.6078 0 2.607-5.034 2.623-13.197 0.011-5.6786 8e-3 -5.6831-3.7461-6.9395-3.2406-1.0846-7.9882-1.4991-12.684-1.3066zm-418.43 1.4062c-13.243 0-17.02 0.28286-16.701 1.252 0.22673 0.68869 2.169 1.4784 4.3164 1.7539 6.4281 0.8247 6.4765 1.1183 6.3887 39.309-0.0853 37.11-0.74768 44.882-4.4609 52.357-3.3355 6.7152-6.2756 8.6488-14.105 9.2773-6.6268 0.532-8.0644 1.644-4.1562 3.2148 10.221 4.1083 25.125-3.8994 31.871-17.123 4.198-8.2287 4.3472-9.6903 4.9024-47.857 0.59214-40.713 0.21706-38.358 6.3047-39.639 1.5152-0.3188 2.7559-1.022 2.7559-1.5625 0-0.604-6.5951-0.98242-17.115-0.98242zm531.05 0c-9.367 0-17.031 0.40253-17.031 0.89453 0 1.1412 2.514 2.1113 5.4707 2.1113 1.265 0 2.7913 0.59191 3.3926 1.3164 1.5523 1.8704 1.678 76.494 0.14063 83.551-2.2283 10.228-7.7376 15.451-17.004 16.121-6.2598 0.4528-7.6399 1.6142-3.7695 3.1699 3.7716 1.516 11.036 1.0937 15.414-0.89453 8.2033-3.725 14.919-11.52 19.084-22.15 1.5195-3.8787 1.8231-9.47 2.2852-41.936 0.5796-40.715 0.20653-38.358 6.2949-39.639 1.5153-0.3188 2.7539-1.022 2.7539-1.5625 0-0.6038-6.5658-0.98242-17.031-0.98242zm263.48 18.641c-0.4865 0.4923-0.9875 11.038-1.1133 23.436-0.1259 12.397-0.4917 25.92-0.8125 30.049-0.5704 7.3409-0.6476 7.5174-3.5058 8.0137-1.6075 0.2791-3.1108 1.071-3.3399 1.7598-0.3173 0.9537 2.3517 1.2539 11.19 1.2539 7.2571 0 11.604-0.38515 11.604-1.0274 0-0.5648-1.3879-1.3053-3.084-1.6445-1.8552-0.3711-3.399-1.4591-3.875-2.7305-0.4351-1.1622-1.1178-10.57-1.5176-20.908l-0.7265-18.797 22.822 23.074c12.553 12.691 23.302 22.918 23.887 22.725 0.6872-0.2272 1.4192-10.782 2.0664-29.826 0.551-16.21 1.3668-30.036 1.8125-30.725 0.4458-0.6888 1.9109-1.252 3.2558-1.252 1.3451 0 2.4453-0.45096 2.4453-1.002 0-0.6098-4.5087-1.002-11.521-1.002-11.256 0-14.993 1.1289-8.0489 2.4316 1.9091 0.3582 3.7447 1.0941 4.0801 1.6367 0.3353 0.5426 0.8457 10.105 1.1348 21.25l0.5273 20.264-13.199-13.523c-7.2595-7.4385-17.699-18.211-23.197-23.938-5.8292-6.0711-10.367-10.04-10.883-9.5176zm-521.33 0.20703c-0.3475 0.5623-0.88315 13.57-1.1894 28.906-0.3063 15.336-0.76277 28.899-1.0137 30.139-0.3504 1.7315-1.1474 2.2539-3.4414 2.2539-2.015 0-2.9863 0.49905-2.9863 1.5352 0 1.3053 1.689 1.4928 11.27 1.252 6.6568-0.1673 11.271-0.69336 11.271-1.2852 0-0.551-1.2068-1.1402-2.6816-1.3106-4.8942-0.5656-5.2427-1.9759-5.6738-22.939l-0.40235-19.506 14.037 14.865c7.72 8.1757 17.946 18.585 22.725 23.131 4.7783 4.5457 9.1014 8.2637 9.6074 8.2637 1.6397 0 1.9219-4.0744 2.1934-31.654 0.2811-28.57 0.58505-30.457 4.8984-30.457 1.0345 0 1.8809-0.45096 1.8809-1.002 0-0.6072-4.3407-1.002-11.02-1.002-10.842 0-14.388 1.1493-7.5215 2.4375 2.5195 0.4727 3.6256 1.2733 3.9551 2.8652 0.2516 1.2156 0.71349 10.777 1.0254 21.246l0.56641 19.033-23.434-23.896c-12.889-13.143-23.719-23.437-24.066-22.875zm-95.941 0.01c-12.669-0.1192-19.885 5.7567-19.885 16.189 0 7.3807 2.7981 11.749 13.182 20.58 11.707 9.9572 13.42 15.777 6.293 21.383-7.1788 5.6468-18.473-0.43077-18.473-9.9395 0-1.2502-0.51323-1.9474-1.252-1.7012-0.85961 0.2865-1.252 2.877-1.252 8.2598v7.8418l3.5059 1.3164c4.8687 1.8277 16.59 1.2398 21.346-1.0703 5.6257-2.7327 8.9696-7.6701 9.4961-14.02 0.6435-7.7597-1.9975-12.907-10.35-20.174-12.446-10.828-13.479-12.01-13.479-15.43 0-4.6785 1.5703-6.8371 5.9277-8.1426 5.4211-1.6242 11.115 1.0861 12.723 6.0586 1.8452 5.7088 3.1823 4.7572 3.5508-2.5274 0.32013-6.3282 0.20516-6.7388-2.1309-7.625-1.3579-0.5151-5.4993-0.965-9.2031-1zm521.52 0.21485c-3.6838 0.0324-7.4515 0.40496-9.5371 1.1035-6.2463 2.0921-10.92 7.9592-10.92 13.711 0 7.7177 1.0267 9.4349 12.086 20.215 6.6918 6.523 11.067 11.607 11.512 13.379 0.9489 3.7808-1.7457 9.3996-5.123 10.684-8.0743 3.0698-15.566-1.0235-16.998-9.2891-0.358-2.0663-1.0351-3.7559-1.5039-3.7559-1.1267 0-2.2114 7.4983-1.8007 12.439 0.2879 3.4617 0.7387 4.0726 3.832 5.1836 4.8961 1.7585 13.961 1.6992 19.131-0.125 8.0068-2.825 11.926-8.24 11.926-16.479 0-7.0306-2.0609-11.315-8.0976-16.836-14.519-13.279-15.946-14.882-15.914-17.844 0.1149-10.488 17.235-10.73 19.531-0.27539 0.8282 3.7708 2.069 3.6606 2.8515-0.25196 1.3515-6.7579 0.7965-9.8782-1.9433-10.92-1.7486-0.6648-5.3475-0.97189-9.0313-0.93945zm-54.826 8e-3c-3.9434 0.0843-7.8918 0.55579-9.8379 1.3711-6.0623 2.5397-9.9051 8.1047-9.8691 14.297 0.038 6.563 3.0843 11.292 13.316 20.67 7.4477 6.8261 9.7817 9.5952 10.268 12.186 0.8756 4.6673-0.2186 7.3506-3.9102 9.6016-7.7192 4.7068-16.668 0.61481-18.219-8.3301-0.3581-2.0663-1.0134-3.7559-1.457-3.7559-1.3904 0-2.0235 2.948-2.0235 9.4297 0 6.5026 0.4047 7.104 6.0117 8.9512 2.7216 0.8967 12.452 0.66152 16.248-0.39258 6.842-1.9003 12.331-8.0884 12.859-14.498 0.801-9.7132-2.0834-14.775-13.982-24.529-10.728-8.7941-12.291-12.39-7.6992-17.727 2.0526-2.3858 3.1403-2.7959 7.1856-2.7109 4.0215 0.0845 5.2084 0.59724 7.5996 3.2734 1.5586 1.7443 2.834 4.1029 2.834 5.2422 0 1.2096 0.5206 1.8997 1.2519 1.6582 0.7756-0.2561 1.366-2.7688 1.5508-6.6016 0.2831-5.8703 0.1629-6.2395-2.3203-7.1836-1.9266-0.7325-5.8633-1.0355-9.8067-0.95117zm123.75 0.23828c-0.2102-0.0648-0.4719-0.0168-0.8007 0.10938-0.8716 0.3345-9.8888 0.60937-20.037 0.60937-11.633 0-18.451 0.37036-18.451 1.002 0 0.551 0.9301 1 2.0683 1 1.1383 0 2.9421 0.46671 4.0078 1.0371 1.8408 0.9851 1.9376 2.3626 1.9376 27.469 0 14.537-0.273 27.144-0.6075 28.016-0.3344 0.8715-1.6611 1.584-2.9472 1.584-2.4229 0-3.8811 1.2478-2.7637 2.3652 0.3524 0.3523 9.1424 0.64062 19.533 0.64062h18.893l1.0254-2.6934c0.5633-1.4816 0.8888-4.7505 0.7246-7.2637l-0.2989-4.5684-1.7031 3.7617c-1.0489 2.3167-2.782 4.1807-4.5078 4.8477-3.1257 1.2078-12.897 0.74125-14.287-0.68164-0.4923-0.504-1.0117-6.0991-1.1543-12.436l-0.2598-11.521 5.3926-0.31054c7.7356-0.444 9.7355 0.28261 10.512 3.8164 1.0951 4.9862 2.2608 3.4122 3.0117-4.0664 0.767-7.6379 0.3912-8.9455-2-6.9609-1.9763 1.6402-15.51 2.675-16.394 1.2539-0.3558-0.5723-0.5045-5.5934-0.3301-11.16l0.3164-10.123h5.379c7.0272 0 10.309 1.3223 11.1 4.4727 1.3721 5.4671 3.4257 2.0716 3.4257-5.6641 0-3.1342-0.1525-4.3407-0.7832-4.5352zm-167.77 0.0859c-1.2398 0.3322-10.255 0.60914-20.035 0.61914-11.178 9e-3 -17.783 0.38593-17.783 1.0156 0 0.551 0.9321 1 2.0703 1 1.1383 0 2.94 0.46671 4.0058 1.0371 1.8398 0.9845 1.9395 2.3582 1.9395 27.115 0 14.998-0.4156 26.852-0.9766 27.9-0.5365 1.0024-2.1324 2.1138-3.5469 2.4688-1.4146 0.355-2.2948 1.0921-1.957 1.6387 0.3813 0.6168 7.8781 0.89136 19.764 0.72266l19.148-0.27149 0.8692-3.3555c0.4777-1.8457 0.7261-5.0023 0.5507-7.0137l-0.3203-3.6562-1.6601 3.6934c-2.0387 4.532-7.1434 6.4547-14.291 5.3828-5.9123-0.8866-6.5606-2.4344-6.5606-15.654v-9.9512l6.7617 0.0137c7.788 0.0177 8.7005 0.43267 9.6699 4.3887 1.0504 4.2865 2.2647 2 3.0059-5.6562 0.6399-6.6109 0.1463-7.9139-2.1328-5.6348-0.6204 0.6204-4.6537 1.1859-8.9649 1.2539l-7.8398 0.12305v-21.037l3.4805-0.33203c1.9139-0.1819 5.4602-0.0329 7.8808 0.33007 3.6686 0.5502 4.5851 1.1463 5.5059 3.5859 0.6076 1.6096 1.3977 2.9277 1.7558 2.9277 0.7535 0 1.8883-6.1888 1.9043-10.387 0.01-2.4912-0.2888-2.7916-2.2441-2.2676zm-529.71 0.28516c-1.804-0.5496-39.07 0.57929-39.07 1.1836 0 0.414 1.4651 1.1837 3.2559 1.7109 3.2506 0.957 3.2568 0.97291 4.0488 9.4746 0.77573 8.3261 0.047 45.727-0.92187 47.295-0.26913 0.4355-1.5906 0.79297-2.9356 0.79297-1.5058 0-2.4453 0.57665-2.4453 1.502 0 1.2827 2.7694 1.502 18.912 1.502 13.911 0 19.184-0.33085 19.943-1.252 1.3955-1.6924 1.9713-11.144 0.71679-11.771-0.551-0.2755-1.1401 0.46623-1.3086 1.6484-0.57831 4.0566-3.8678 5.8652-10.666 5.8652-9.2352 0-9.5644-0.49022-9.5644-14.191v-11.441l7.1582 0.29297c7.3167 0.3008 7.7142 0.525 9.457 5.3047 0.64548 1.7703 0.81372 1.6534 1.4551-1.002 0.39926-1.653 0.78051-5.1641 0.8457-7.8008 0.11291-4.5668 0.0192-4.74-1.9766-3.6719-1.1523 0.6167-5.4354 1.3748-9.5176 1.6836l-7.4219 0.56054v-22.33l5.7598 0.0156c8.3108 0.0198 10.272 0.75825 10.945 4.123 1.0528 5.2639 3.1267 3.343 3.4922-3.2344 0.18668-3.3598 0.11339-6.1758-0.16211-6.2598zm177.18 0.0352c-0.1958-0.104-9.2603-0.0494-20.143 0.12109-18.673 0.2925-24.113 1.1599-16.377 2.6113 1.8753 0.3518 3.6791 1.3407 4.0078 2.1973 1.0657 2.777 0.66593 51.487-0.43945 53.553-0.57039 1.0658-1.8952 1.9375-2.9453 1.9375-2.0615 0-3.3714 1.3277-2.334 2.3652 0.35236 0.3523 9.1097 0.64062 19.461 0.64062h18.82l1.043-3.7559c1.2614-4.5421 1.376-10.27 0.20508-10.27-0.4674 0-1.5387 1.7543-2.3809 3.8984-1.344 3.4213-2.037 3.9832-5.6621 4.5957-5.6626 0.9566-11.947-0.24071-13.16-2.5078-0.54382-1.0162-0.99023-6.61-0.99023-12.432v-10.586h6.8906c7.1017 0 8.5922 0.72477 9.2949 4.5098 0.74059 3.9888 2.3623 1.4167 2.9844-4.7324 0.7111-7.0298 0.34727-8.4362-1.7363-6.707-0.7893 0.6551-4.8765 1.2348-9.1777 1.3008l-7.7539 0.11914-0.28515-10.77-0.28321-10.77h6.8555c7.4768 0 10.235 1.2568 10.5 4.7793 0.0926 1.2291 0.70428 2.2344 1.3594 2.2344 1.0563 0 3.2093-11.823 2.2461-12.334zm-143.43 0.3125c-13.79 0-18.614 0.97252-11.689 2.3574 2.0201 0.404 3.3492 1.4629 4.0078 3.1953 1.1139 2.9298 1.2481 43.889 0.16406 50.047-0.60056 3.4112-1.1141 4.0544-3.4492 4.3242-1.5666 0.1811-2.7422 0.93371-2.7422 1.7539-1e-5 1.1845 2.6877 1.4355 15.332 1.4355 14.481 0 15.619-0.14274 20.529-2.5898 2.8594-1.425 6.1852-3.9771 7.3906-5.6699 2.666-3.7441 3.6176-12.47 1.8301-16.785-1.4176-3.4223-7.0096-8.6834-10.734-10.1l-2.498-0.95117 3.1172-3.1875c2.812-2.8762 5.0848-8.0731 5.0996-11.658 0.0146-3.5188-3.3999-8.1808-7.416-10.125-3.6721-1.7776-6.172-2.0469-18.941-2.0469zm6.4961 4.1973c1.8287-0.2114 3.6972 0.60719 5.9141 2.5879 2.7505 2.4577 3.3125 3.7445 3.707 8.502 0.41551 5.0106 0.19015 5.8782-2.1133 8.1816-1.9028 1.9029-3.6174 2.5781-6.5547 2.5781h-3.9785l0.35156-21.54zm290.62 14.484 4.5215 5.4356c2.4866 2.9897 9.457 10.245 15.488 16.123 10.949 10.67 10.961 10.69 8.6211 12.188-1.2893 0.82469-4.7924 2.2145-7.7852 3.0879-6.5342 1.9071-8.3998 1.922-13.469 0.11523-12.455-4.4397-17.725-21.313-10.205-32.676zm-293.29 11.873 4.0078 0.24609c5.1269 0.3154 8.4408 2.753 11.27 8.2891 3.1648 6.1936 3.077 13.275-0.20508 16.557-1.958 1.958-3.4839 2.459-7.4902 2.459-7.3895 0-8.2256-1.7208-7.8652-16.156z" style="stroke-width:1.0018"/></g></svg>
